G04 EAGLE Gerber RS-274X export*
G75*
%MOMM*%
%FSLAX34Y34*%
%LPD*%
%INSilkscreen Top*%
%IPPOS*%
%AMOC8*
5,1,8,0,0,1.08239X$1,22.5*%
G01*
%ADD10C,0.050800*%
%ADD11C,0.200000*%
%ADD12C,0.076200*%
%ADD13C,0.250000*%
%ADD14C,0.203200*%
%ADD15C,0.063400*%
%ADD16C,0.250000*%
%ADD17C,0.152400*%
%ADD18C,0.100000*%
%ADD19C,0.100000*%
%ADD20C,0.254000*%
%ADD21C,0.127000*%
%ADD22C,0.101600*%

G36*
X541760Y285875D02*
X541760Y285875D01*
X541762Y285876D01*
X541763Y285875D01*
X542434Y286110D01*
X542435Y286112D01*
X542437Y286111D01*
X543039Y286490D01*
X543039Y286491D01*
X543041Y286491D01*
X543543Y286994D01*
X543543Y286996D01*
X543545Y286996D01*
X543923Y287598D01*
X543923Y287600D01*
X543924Y287600D01*
X544159Y288272D01*
X544159Y288273D01*
X544160Y288274D01*
X544239Y288981D01*
X544238Y288982D01*
X544239Y288983D01*
X544160Y289690D01*
X544159Y289691D01*
X544159Y289692D01*
X543924Y290364D01*
X543923Y290364D01*
X543923Y290366D01*
X543545Y290968D01*
X543543Y290968D01*
X543543Y290970D01*
X543041Y291473D01*
X543039Y291473D01*
X543039Y291474D01*
X542437Y291853D01*
X542435Y291852D01*
X542434Y291854D01*
X541763Y292089D01*
X541761Y292088D01*
X541760Y292089D01*
X541054Y292169D01*
X541052Y292168D01*
X541051Y292169D01*
X540345Y292089D01*
X540344Y292088D01*
X540342Y292089D01*
X539671Y291854D01*
X539670Y291852D01*
X539669Y291853D01*
X539067Y291474D01*
X539066Y291473D01*
X539065Y291473D01*
X538562Y290970D01*
X538562Y290968D01*
X538560Y290968D01*
X538182Y290366D01*
X538182Y290364D01*
X538181Y290364D01*
X537946Y289692D01*
X537947Y289691D01*
X537945Y289690D01*
X537866Y288983D01*
X537867Y288982D01*
X537866Y288981D01*
X537945Y288274D01*
X537947Y288273D01*
X537946Y288272D01*
X538181Y287600D01*
X538182Y287600D01*
X538182Y287598D01*
X538560Y286996D01*
X538562Y286996D01*
X538562Y286994D01*
X539065Y286491D01*
X539066Y286491D01*
X539067Y286490D01*
X539669Y286111D01*
X539670Y286112D01*
X539671Y286110D01*
X540342Y285875D01*
X540344Y285876D01*
X540345Y285875D01*
X541051Y285795D01*
X541053Y285796D01*
X541054Y285795D01*
X541760Y285875D01*
G37*
D10*
X86725Y428811D02*
X86635Y428700D01*
X86547Y428587D01*
X86463Y428472D01*
X86382Y428355D01*
X86305Y428235D01*
X86230Y428113D01*
X86159Y427990D01*
X86091Y427865D01*
X86026Y427737D01*
X85965Y427608D01*
X85908Y427478D01*
X85854Y427346D01*
X85803Y427213D01*
X85756Y427078D01*
X85713Y426942D01*
X85673Y426805D01*
X85637Y426667D01*
X85605Y426528D01*
X85576Y426388D01*
X85552Y426248D01*
X85531Y426107D01*
X85514Y425965D01*
X85500Y425823D01*
X85491Y425681D01*
X85485Y425539D01*
X85483Y425396D01*
X85485Y425253D01*
X85491Y425111D01*
X85500Y424969D01*
X85514Y424827D01*
X85531Y424685D01*
X85552Y424544D01*
X85576Y424404D01*
X85605Y424264D01*
X85637Y424125D01*
X85673Y423987D01*
X85713Y423850D01*
X85756Y423714D01*
X85803Y423579D01*
X85854Y423446D01*
X85908Y423314D01*
X85965Y423184D01*
X86026Y423055D01*
X86091Y422927D01*
X86159Y422802D01*
X86230Y422679D01*
X86305Y422557D01*
X86382Y422437D01*
X86463Y422320D01*
X86547Y422205D01*
X86635Y422092D01*
X86725Y421981D01*
X90152Y422602D02*
X91394Y422602D01*
X90152Y422602D02*
X90082Y422604D01*
X90013Y422610D01*
X89944Y422620D01*
X89876Y422633D01*
X89808Y422651D01*
X89742Y422672D01*
X89677Y422697D01*
X89613Y422725D01*
X89551Y422757D01*
X89491Y422792D01*
X89433Y422831D01*
X89378Y422873D01*
X89324Y422918D01*
X89274Y422966D01*
X89226Y423016D01*
X89181Y423070D01*
X89139Y423125D01*
X89100Y423183D01*
X89065Y423243D01*
X89033Y423305D01*
X89005Y423369D01*
X88980Y423434D01*
X88959Y423500D01*
X88941Y423568D01*
X88928Y423636D01*
X88918Y423705D01*
X88912Y423774D01*
X88910Y423844D01*
X88910Y426948D01*
X88912Y427018D01*
X88918Y427087D01*
X88928Y427156D01*
X88941Y427224D01*
X88959Y427292D01*
X88980Y427358D01*
X89005Y427423D01*
X89033Y427487D01*
X89065Y427549D01*
X89100Y427609D01*
X89139Y427667D01*
X89181Y427722D01*
X89226Y427776D01*
X89274Y427826D01*
X89324Y427874D01*
X89378Y427919D01*
X89433Y427961D01*
X89491Y428000D01*
X89551Y428035D01*
X89613Y428067D01*
X89677Y428095D01*
X89742Y428120D01*
X89808Y428141D01*
X89876Y428159D01*
X89944Y428172D01*
X90013Y428182D01*
X90082Y428188D01*
X90152Y428190D01*
X91394Y428190D01*
X94559Y425396D02*
X94557Y425253D01*
X94551Y425111D01*
X94542Y424969D01*
X94528Y424827D01*
X94511Y424685D01*
X94490Y424544D01*
X94466Y424404D01*
X94437Y424264D01*
X94405Y424125D01*
X94369Y423987D01*
X94329Y423850D01*
X94286Y423714D01*
X94239Y423579D01*
X94188Y423446D01*
X94134Y423314D01*
X94077Y423184D01*
X94016Y423055D01*
X93951Y422927D01*
X93883Y422802D01*
X93812Y422679D01*
X93737Y422557D01*
X93660Y422437D01*
X93579Y422320D01*
X93495Y422205D01*
X93407Y422092D01*
X93317Y421981D01*
X94559Y425396D02*
X94557Y425539D01*
X94551Y425681D01*
X94542Y425823D01*
X94528Y425965D01*
X94511Y426107D01*
X94490Y426248D01*
X94466Y426388D01*
X94437Y426528D01*
X94405Y426667D01*
X94369Y426805D01*
X94329Y426942D01*
X94286Y427078D01*
X94239Y427213D01*
X94188Y427346D01*
X94134Y427478D01*
X94077Y427608D01*
X94016Y427737D01*
X93951Y427865D01*
X93883Y427990D01*
X93812Y428113D01*
X93737Y428235D01*
X93660Y428355D01*
X93579Y428472D01*
X93495Y428587D01*
X93407Y428700D01*
X93317Y428811D01*
X101606Y428190D02*
X101679Y428188D01*
X101752Y428182D01*
X101825Y428173D01*
X101896Y428159D01*
X101968Y428142D01*
X102038Y428122D01*
X102107Y428097D01*
X102174Y428069D01*
X102240Y428038D01*
X102305Y428003D01*
X102367Y427965D01*
X102427Y427923D01*
X102485Y427879D01*
X102541Y427831D01*
X102594Y427781D01*
X102644Y427728D01*
X102692Y427672D01*
X102736Y427614D01*
X102778Y427554D01*
X102816Y427492D01*
X102851Y427427D01*
X102882Y427361D01*
X102910Y427294D01*
X102935Y427225D01*
X102955Y427155D01*
X102972Y427083D01*
X102986Y427012D01*
X102995Y426939D01*
X103001Y426866D01*
X103003Y426793D01*
X101606Y428190D02*
X101522Y428188D01*
X101439Y428182D01*
X101356Y428173D01*
X101274Y428159D01*
X101192Y428142D01*
X101111Y428120D01*
X101031Y428095D01*
X100953Y428067D01*
X100875Y428035D01*
X100800Y427999D01*
X100726Y427960D01*
X100654Y427917D01*
X100584Y427871D01*
X100517Y427822D01*
X100451Y427769D01*
X100389Y427714D01*
X100329Y427656D01*
X100271Y427595D01*
X100217Y427532D01*
X100165Y427466D01*
X100117Y427398D01*
X100072Y427327D01*
X100030Y427255D01*
X99992Y427180D01*
X99957Y427104D01*
X99926Y427027D01*
X99898Y426948D01*
X102537Y425707D02*
X102591Y425760D01*
X102642Y425817D01*
X102690Y425876D01*
X102735Y425937D01*
X102776Y426000D01*
X102815Y426066D01*
X102850Y426133D01*
X102882Y426202D01*
X102910Y426273D01*
X102934Y426344D01*
X102955Y426417D01*
X102972Y426491D01*
X102986Y426566D01*
X102995Y426641D01*
X103001Y426717D01*
X103003Y426793D01*
X102538Y425706D02*
X99899Y422602D01*
X103003Y422602D01*
X105385Y425396D02*
X105387Y425527D01*
X105392Y425657D01*
X105402Y425787D01*
X105415Y425917D01*
X105431Y426047D01*
X105451Y426176D01*
X105475Y426304D01*
X105503Y426431D01*
X105534Y426558D01*
X105569Y426684D01*
X105607Y426809D01*
X105649Y426933D01*
X105694Y427055D01*
X105743Y427176D01*
X105795Y427296D01*
X105851Y427414D01*
X105874Y427474D01*
X105900Y427534D01*
X105929Y427591D01*
X105962Y427647D01*
X105998Y427701D01*
X106036Y427753D01*
X106078Y427803D01*
X106122Y427850D01*
X106169Y427895D01*
X106219Y427937D01*
X106270Y427976D01*
X106324Y428012D01*
X106380Y428045D01*
X106437Y428075D01*
X106496Y428102D01*
X106557Y428125D01*
X106618Y428145D01*
X106681Y428161D01*
X106745Y428174D01*
X106809Y428183D01*
X106873Y428188D01*
X106938Y428190D01*
X107003Y428188D01*
X107067Y428183D01*
X107131Y428174D01*
X107195Y428161D01*
X107258Y428145D01*
X107319Y428125D01*
X107380Y428102D01*
X107439Y428075D01*
X107496Y428045D01*
X107552Y428012D01*
X107606Y427976D01*
X107657Y427937D01*
X107707Y427895D01*
X107754Y427850D01*
X107798Y427803D01*
X107840Y427753D01*
X107878Y427701D01*
X107914Y427647D01*
X107947Y427591D01*
X107976Y427534D01*
X108002Y427474D01*
X108025Y427414D01*
X108024Y427414D02*
X108080Y427296D01*
X108132Y427176D01*
X108181Y427055D01*
X108226Y426933D01*
X108268Y426809D01*
X108306Y426684D01*
X108341Y426558D01*
X108372Y426432D01*
X108400Y426304D01*
X108424Y426176D01*
X108444Y426047D01*
X108460Y425917D01*
X108473Y425787D01*
X108483Y425657D01*
X108488Y425527D01*
X108490Y425396D01*
X105385Y425396D02*
X105387Y425265D01*
X105392Y425135D01*
X105402Y425005D01*
X105415Y424875D01*
X105431Y424745D01*
X105451Y424616D01*
X105475Y424488D01*
X105503Y424361D01*
X105534Y424234D01*
X105569Y424108D01*
X105607Y423983D01*
X105649Y423859D01*
X105694Y423737D01*
X105743Y423616D01*
X105795Y423496D01*
X105851Y423378D01*
X105851Y423377D02*
X105874Y423317D01*
X105900Y423257D01*
X105929Y423200D01*
X105962Y423144D01*
X105998Y423090D01*
X106036Y423038D01*
X106078Y422988D01*
X106122Y422941D01*
X106169Y422896D01*
X106219Y422854D01*
X106270Y422815D01*
X106324Y422779D01*
X106380Y422746D01*
X106437Y422716D01*
X106496Y422689D01*
X106557Y422666D01*
X106618Y422646D01*
X106681Y422630D01*
X106745Y422617D01*
X106809Y422608D01*
X106873Y422603D01*
X106938Y422601D01*
X108024Y423378D02*
X108080Y423496D01*
X108132Y423616D01*
X108181Y423737D01*
X108226Y423859D01*
X108268Y423983D01*
X108306Y424108D01*
X108341Y424234D01*
X108372Y424360D01*
X108400Y424488D01*
X108424Y424616D01*
X108444Y424745D01*
X108460Y424875D01*
X108473Y425005D01*
X108483Y425135D01*
X108488Y425265D01*
X108490Y425396D01*
X108025Y423377D02*
X108002Y423317D01*
X107976Y423257D01*
X107947Y423200D01*
X107914Y423144D01*
X107878Y423090D01*
X107840Y423038D01*
X107798Y422988D01*
X107754Y422941D01*
X107707Y422896D01*
X107657Y422854D01*
X107606Y422815D01*
X107552Y422779D01*
X107496Y422746D01*
X107439Y422716D01*
X107380Y422689D01*
X107319Y422666D01*
X107258Y422646D01*
X107195Y422630D01*
X107131Y422617D01*
X107067Y422608D01*
X107003Y422603D01*
X106938Y422601D01*
X105696Y423844D02*
X108179Y426948D01*
X112579Y428190D02*
X112652Y428188D01*
X112725Y428182D01*
X112798Y428173D01*
X112869Y428159D01*
X112941Y428142D01*
X113011Y428122D01*
X113080Y428097D01*
X113147Y428069D01*
X113213Y428038D01*
X113278Y428003D01*
X113340Y427965D01*
X113400Y427923D01*
X113458Y427879D01*
X113514Y427831D01*
X113567Y427781D01*
X113617Y427728D01*
X113665Y427672D01*
X113709Y427614D01*
X113751Y427554D01*
X113789Y427492D01*
X113824Y427427D01*
X113855Y427361D01*
X113883Y427294D01*
X113908Y427225D01*
X113928Y427155D01*
X113945Y427083D01*
X113959Y427012D01*
X113968Y426939D01*
X113974Y426866D01*
X113976Y426793D01*
X112579Y428190D02*
X112495Y428188D01*
X112412Y428182D01*
X112329Y428173D01*
X112247Y428159D01*
X112165Y428142D01*
X112084Y428120D01*
X112004Y428095D01*
X111926Y428067D01*
X111848Y428035D01*
X111773Y427999D01*
X111699Y427960D01*
X111627Y427917D01*
X111557Y427871D01*
X111490Y427822D01*
X111424Y427769D01*
X111362Y427714D01*
X111302Y427656D01*
X111244Y427595D01*
X111190Y427532D01*
X111138Y427466D01*
X111090Y427398D01*
X111045Y427327D01*
X111003Y427255D01*
X110965Y427180D01*
X110930Y427104D01*
X110899Y427027D01*
X110871Y426948D01*
X113510Y425707D02*
X113564Y425760D01*
X113615Y425817D01*
X113663Y425876D01*
X113708Y425937D01*
X113749Y426000D01*
X113788Y426066D01*
X113823Y426133D01*
X113855Y426202D01*
X113883Y426273D01*
X113907Y426344D01*
X113928Y426417D01*
X113945Y426491D01*
X113959Y426566D01*
X113968Y426641D01*
X113974Y426717D01*
X113976Y426793D01*
X113510Y425706D02*
X110872Y422602D01*
X113976Y422602D01*
X116358Y425706D02*
X118221Y425706D01*
X118291Y425704D01*
X118360Y425698D01*
X118429Y425688D01*
X118497Y425675D01*
X118565Y425657D01*
X118631Y425636D01*
X118696Y425611D01*
X118760Y425583D01*
X118822Y425551D01*
X118882Y425516D01*
X118940Y425477D01*
X118995Y425435D01*
X119049Y425390D01*
X119099Y425342D01*
X119147Y425292D01*
X119192Y425238D01*
X119234Y425183D01*
X119273Y425125D01*
X119308Y425065D01*
X119340Y425003D01*
X119368Y424939D01*
X119393Y424874D01*
X119414Y424808D01*
X119432Y424740D01*
X119445Y424672D01*
X119455Y424603D01*
X119461Y424534D01*
X119463Y424464D01*
X119463Y424154D01*
X119462Y424154D02*
X119460Y424077D01*
X119454Y423999D01*
X119445Y423923D01*
X119431Y423846D01*
X119414Y423771D01*
X119393Y423697D01*
X119368Y423623D01*
X119340Y423551D01*
X119308Y423481D01*
X119273Y423412D01*
X119234Y423345D01*
X119192Y423280D01*
X119147Y423217D01*
X119099Y423156D01*
X119048Y423098D01*
X118994Y423043D01*
X118937Y422990D01*
X118878Y422941D01*
X118816Y422894D01*
X118752Y422850D01*
X118686Y422810D01*
X118618Y422773D01*
X118548Y422739D01*
X118477Y422709D01*
X118404Y422683D01*
X118330Y422660D01*
X118255Y422641D01*
X118180Y422626D01*
X118103Y422614D01*
X118026Y422606D01*
X117949Y422602D01*
X117871Y422602D01*
X117794Y422606D01*
X117717Y422614D01*
X117640Y422626D01*
X117565Y422641D01*
X117490Y422660D01*
X117416Y422683D01*
X117343Y422709D01*
X117272Y422739D01*
X117202Y422773D01*
X117134Y422810D01*
X117068Y422850D01*
X117004Y422894D01*
X116942Y422941D01*
X116883Y422990D01*
X116826Y423043D01*
X116772Y423098D01*
X116721Y423156D01*
X116673Y423217D01*
X116628Y423280D01*
X116586Y423345D01*
X116547Y423412D01*
X116512Y423481D01*
X116480Y423551D01*
X116452Y423623D01*
X116427Y423697D01*
X116406Y423771D01*
X116389Y423846D01*
X116375Y423923D01*
X116366Y423999D01*
X116360Y424077D01*
X116358Y424154D01*
X116358Y425706D01*
X116360Y425804D01*
X116366Y425901D01*
X116375Y425998D01*
X116389Y426095D01*
X116406Y426191D01*
X116427Y426286D01*
X116451Y426380D01*
X116480Y426474D01*
X116512Y426566D01*
X116547Y426657D01*
X116586Y426746D01*
X116629Y426834D01*
X116675Y426920D01*
X116724Y427004D01*
X116777Y427086D01*
X116832Y427166D01*
X116891Y427244D01*
X116953Y427319D01*
X117018Y427392D01*
X117086Y427462D01*
X117156Y427530D01*
X117229Y427595D01*
X117304Y427657D01*
X117382Y427716D01*
X117462Y427771D01*
X117544Y427824D01*
X117628Y427873D01*
X117714Y427919D01*
X117802Y427962D01*
X117891Y428001D01*
X117982Y428036D01*
X118074Y428068D01*
X118168Y428097D01*
X118262Y428121D01*
X118357Y428142D01*
X118453Y428159D01*
X118550Y428173D01*
X118647Y428182D01*
X118744Y428188D01*
X118842Y428190D01*
X124826Y424775D02*
X128551Y424775D01*
X135594Y422602D02*
X135664Y422604D01*
X135733Y422610D01*
X135802Y422620D01*
X135870Y422633D01*
X135938Y422651D01*
X136004Y422672D01*
X136069Y422697D01*
X136133Y422725D01*
X136195Y422757D01*
X136255Y422792D01*
X136313Y422831D01*
X136368Y422873D01*
X136422Y422918D01*
X136472Y422966D01*
X136520Y423016D01*
X136565Y423070D01*
X136607Y423125D01*
X136646Y423183D01*
X136681Y423243D01*
X136713Y423305D01*
X136741Y423369D01*
X136766Y423434D01*
X136787Y423500D01*
X136805Y423568D01*
X136818Y423636D01*
X136828Y423705D01*
X136834Y423774D01*
X136836Y423844D01*
X135594Y422602D02*
X135495Y422604D01*
X135397Y422609D01*
X135299Y422619D01*
X135201Y422632D01*
X135104Y422648D01*
X135007Y422668D01*
X134912Y422692D01*
X134817Y422720D01*
X134723Y422751D01*
X134631Y422785D01*
X134540Y422823D01*
X134450Y422864D01*
X134362Y422909D01*
X134276Y422957D01*
X134192Y423008D01*
X134110Y423062D01*
X134029Y423120D01*
X133951Y423180D01*
X133876Y423243D01*
X133802Y423309D01*
X133732Y423378D01*
X133886Y426948D02*
X133888Y427018D01*
X133894Y427087D01*
X133904Y427156D01*
X133917Y427224D01*
X133935Y427292D01*
X133956Y427358D01*
X133981Y427423D01*
X134009Y427487D01*
X134041Y427549D01*
X134076Y427609D01*
X134115Y427667D01*
X134157Y427722D01*
X134202Y427776D01*
X134250Y427826D01*
X134300Y427874D01*
X134354Y427919D01*
X134409Y427961D01*
X134467Y428000D01*
X134527Y428035D01*
X134589Y428067D01*
X134653Y428095D01*
X134718Y428120D01*
X134784Y428141D01*
X134852Y428159D01*
X134920Y428172D01*
X134989Y428182D01*
X135058Y428188D01*
X135128Y428190D01*
X135128Y428189D02*
X135222Y428187D01*
X135315Y428181D01*
X135408Y428172D01*
X135501Y428159D01*
X135593Y428142D01*
X135684Y428122D01*
X135775Y428097D01*
X135864Y428070D01*
X135952Y428038D01*
X136039Y428003D01*
X136125Y427965D01*
X136208Y427923D01*
X136290Y427878D01*
X136371Y427830D01*
X136449Y427778D01*
X136525Y427723D01*
X134508Y425862D02*
X134449Y425898D01*
X134393Y425938D01*
X134339Y425981D01*
X134287Y426026D01*
X134238Y426075D01*
X134192Y426126D01*
X134149Y426179D01*
X134108Y426235D01*
X134071Y426293D01*
X134036Y426353D01*
X134006Y426414D01*
X133978Y426477D01*
X133954Y426542D01*
X133934Y426608D01*
X133917Y426675D01*
X133904Y426742D01*
X133895Y426810D01*
X133889Y426879D01*
X133887Y426948D01*
X136215Y424930D02*
X136274Y424894D01*
X136330Y424854D01*
X136384Y424811D01*
X136436Y424766D01*
X136485Y424717D01*
X136531Y424666D01*
X136574Y424613D01*
X136615Y424557D01*
X136652Y424499D01*
X136687Y424439D01*
X136717Y424378D01*
X136745Y424315D01*
X136769Y424250D01*
X136789Y424184D01*
X136806Y424117D01*
X136819Y424050D01*
X136828Y423982D01*
X136834Y423913D01*
X136836Y423844D01*
X136215Y424930D02*
X134508Y425861D01*
X138786Y422912D02*
X138786Y422602D01*
X138786Y422912D02*
X139097Y422912D01*
X139097Y422602D01*
X138786Y422602D01*
X142528Y423844D02*
X142528Y428190D01*
X142528Y423844D02*
X142526Y423774D01*
X142520Y423705D01*
X142510Y423636D01*
X142497Y423568D01*
X142479Y423500D01*
X142458Y423434D01*
X142433Y423369D01*
X142405Y423305D01*
X142373Y423243D01*
X142338Y423183D01*
X142299Y423125D01*
X142257Y423070D01*
X142212Y423016D01*
X142164Y422966D01*
X142114Y422918D01*
X142060Y422873D01*
X142005Y422831D01*
X141947Y422792D01*
X141887Y422757D01*
X141825Y422725D01*
X141761Y422697D01*
X141696Y422672D01*
X141630Y422651D01*
X141562Y422633D01*
X141494Y422620D01*
X141425Y422610D01*
X141356Y422604D01*
X141286Y422602D01*
X140665Y422602D01*
X144821Y422602D02*
X144821Y422912D01*
X145131Y422912D01*
X145131Y422602D01*
X144821Y422602D01*
X150384Y422602D02*
X150384Y428190D01*
X150384Y422602D02*
X152868Y422602D01*
X155821Y422602D02*
X157374Y422602D01*
X155821Y422602D02*
X155763Y422604D01*
X155704Y422609D01*
X155647Y422618D01*
X155589Y422631D01*
X155533Y422648D01*
X155478Y422667D01*
X155425Y422691D01*
X155372Y422717D01*
X155322Y422747D01*
X155274Y422780D01*
X155228Y422816D01*
X155184Y422854D01*
X155142Y422896D01*
X155104Y422940D01*
X155068Y422986D01*
X155035Y423034D01*
X155005Y423084D01*
X154979Y423137D01*
X154955Y423190D01*
X154936Y423245D01*
X154919Y423301D01*
X154906Y423359D01*
X154897Y423416D01*
X154892Y423475D01*
X154890Y423533D01*
X154890Y425085D01*
X154892Y425155D01*
X154898Y425224D01*
X154908Y425293D01*
X154921Y425361D01*
X154939Y425429D01*
X154960Y425495D01*
X154985Y425560D01*
X155013Y425624D01*
X155045Y425686D01*
X155080Y425746D01*
X155119Y425804D01*
X155161Y425859D01*
X155206Y425913D01*
X155254Y425963D01*
X155304Y426011D01*
X155358Y426056D01*
X155413Y426098D01*
X155471Y426137D01*
X155531Y426172D01*
X155593Y426204D01*
X155657Y426232D01*
X155722Y426257D01*
X155788Y426278D01*
X155856Y426296D01*
X155924Y426309D01*
X155993Y426319D01*
X156062Y426325D01*
X156132Y426327D01*
X156202Y426325D01*
X156271Y426319D01*
X156340Y426309D01*
X156408Y426296D01*
X156476Y426278D01*
X156542Y426257D01*
X156607Y426232D01*
X156671Y426204D01*
X156733Y426172D01*
X156793Y426137D01*
X156851Y426098D01*
X156906Y426056D01*
X156960Y426011D01*
X157010Y425963D01*
X157058Y425913D01*
X157103Y425859D01*
X157145Y425804D01*
X157184Y425746D01*
X157219Y425686D01*
X157251Y425624D01*
X157279Y425560D01*
X157304Y425495D01*
X157325Y425429D01*
X157343Y425361D01*
X157356Y425293D01*
X157366Y425224D01*
X157372Y425155D01*
X157374Y425085D01*
X157374Y424464D01*
X154890Y424464D01*
X160702Y424775D02*
X162099Y424775D01*
X160702Y424775D02*
X160638Y424773D01*
X160573Y424767D01*
X160510Y424758D01*
X160447Y424745D01*
X160385Y424728D01*
X160324Y424707D01*
X160264Y424683D01*
X160206Y424655D01*
X160149Y424624D01*
X160095Y424590D01*
X160042Y424552D01*
X159992Y424511D01*
X159945Y424468D01*
X159900Y424422D01*
X159858Y424373D01*
X159819Y424322D01*
X159783Y424268D01*
X159750Y424213D01*
X159721Y424155D01*
X159695Y424097D01*
X159672Y424036D01*
X159653Y423975D01*
X159638Y423912D01*
X159627Y423848D01*
X159619Y423785D01*
X159615Y423720D01*
X159615Y423656D01*
X159619Y423591D01*
X159627Y423528D01*
X159638Y423464D01*
X159653Y423401D01*
X159672Y423340D01*
X159695Y423279D01*
X159721Y423221D01*
X159750Y423163D01*
X159783Y423108D01*
X159819Y423054D01*
X159858Y423003D01*
X159900Y422954D01*
X159945Y422908D01*
X159992Y422865D01*
X160042Y422824D01*
X160095Y422786D01*
X160149Y422752D01*
X160206Y422721D01*
X160264Y422693D01*
X160324Y422669D01*
X160385Y422648D01*
X160447Y422631D01*
X160510Y422618D01*
X160573Y422609D01*
X160638Y422603D01*
X160702Y422601D01*
X160702Y422602D02*
X162099Y422602D01*
X162099Y425396D01*
X162097Y425454D01*
X162092Y425513D01*
X162083Y425570D01*
X162070Y425628D01*
X162053Y425684D01*
X162034Y425739D01*
X162010Y425792D01*
X161984Y425845D01*
X161954Y425895D01*
X161921Y425943D01*
X161885Y425989D01*
X161847Y426033D01*
X161805Y426075D01*
X161761Y426113D01*
X161715Y426149D01*
X161667Y426182D01*
X161617Y426212D01*
X161564Y426238D01*
X161511Y426262D01*
X161456Y426281D01*
X161400Y426298D01*
X161342Y426311D01*
X161285Y426320D01*
X161226Y426325D01*
X161168Y426327D01*
X159926Y426327D01*
X164798Y426327D02*
X164798Y422602D01*
X164798Y426327D02*
X166661Y426327D01*
X166661Y425706D01*
X168240Y420739D02*
X168861Y420739D01*
X170724Y426327D01*
X168240Y426327D02*
X169482Y422602D01*
X172597Y422602D02*
X172908Y422602D01*
X172597Y422602D02*
X172597Y422912D01*
X172908Y422912D01*
X172908Y422602D01*
X172442Y421360D01*
X177677Y422602D02*
X179540Y428190D01*
X181403Y422602D01*
X180937Y423999D02*
X178143Y423999D01*
X183225Y422912D02*
X183225Y422602D01*
X183225Y422912D02*
X183536Y422912D01*
X183536Y422602D01*
X183225Y422602D01*
X188833Y422602D02*
X188833Y428190D01*
X190696Y425085D01*
X192558Y428190D01*
X192558Y422602D01*
X196181Y424775D02*
X197578Y424775D01*
X196181Y424775D02*
X196117Y424773D01*
X196052Y424767D01*
X195989Y424758D01*
X195926Y424745D01*
X195864Y424728D01*
X195803Y424707D01*
X195743Y424683D01*
X195685Y424655D01*
X195628Y424624D01*
X195574Y424590D01*
X195521Y424552D01*
X195471Y424511D01*
X195424Y424468D01*
X195379Y424422D01*
X195337Y424373D01*
X195298Y424322D01*
X195262Y424268D01*
X195229Y424213D01*
X195200Y424155D01*
X195174Y424097D01*
X195151Y424036D01*
X195132Y423975D01*
X195117Y423912D01*
X195106Y423848D01*
X195098Y423785D01*
X195094Y423720D01*
X195094Y423656D01*
X195098Y423591D01*
X195106Y423528D01*
X195117Y423464D01*
X195132Y423401D01*
X195151Y423340D01*
X195174Y423279D01*
X195200Y423221D01*
X195229Y423163D01*
X195262Y423108D01*
X195298Y423054D01*
X195337Y423003D01*
X195379Y422954D01*
X195424Y422908D01*
X195471Y422865D01*
X195521Y422824D01*
X195574Y422786D01*
X195628Y422752D01*
X195685Y422721D01*
X195743Y422693D01*
X195803Y422669D01*
X195864Y422648D01*
X195926Y422631D01*
X195989Y422618D01*
X196052Y422609D01*
X196117Y422603D01*
X196181Y422601D01*
X196181Y422602D02*
X197578Y422602D01*
X197578Y425396D01*
X197576Y425454D01*
X197571Y425513D01*
X197562Y425570D01*
X197549Y425628D01*
X197532Y425684D01*
X197513Y425739D01*
X197489Y425792D01*
X197463Y425845D01*
X197433Y425895D01*
X197400Y425943D01*
X197364Y425989D01*
X197326Y426033D01*
X197284Y426075D01*
X197240Y426113D01*
X197194Y426149D01*
X197146Y426182D01*
X197096Y426212D01*
X197043Y426238D01*
X196990Y426262D01*
X196935Y426281D01*
X196879Y426298D01*
X196821Y426311D01*
X196764Y426320D01*
X196705Y426325D01*
X196647Y426327D01*
X195405Y426327D01*
X200310Y428190D02*
X200310Y422602D01*
X200310Y424464D02*
X202794Y426327D01*
X201397Y425241D02*
X202794Y422602D01*
X205873Y424775D02*
X207270Y424775D01*
X205873Y424775D02*
X205809Y424773D01*
X205744Y424767D01*
X205681Y424758D01*
X205618Y424745D01*
X205556Y424728D01*
X205495Y424707D01*
X205435Y424683D01*
X205377Y424655D01*
X205320Y424624D01*
X205266Y424590D01*
X205213Y424552D01*
X205163Y424511D01*
X205116Y424468D01*
X205071Y424422D01*
X205029Y424373D01*
X204990Y424322D01*
X204954Y424268D01*
X204921Y424213D01*
X204892Y424155D01*
X204866Y424097D01*
X204843Y424036D01*
X204824Y423975D01*
X204809Y423912D01*
X204798Y423848D01*
X204790Y423785D01*
X204786Y423720D01*
X204786Y423656D01*
X204790Y423591D01*
X204798Y423528D01*
X204809Y423464D01*
X204824Y423401D01*
X204843Y423340D01*
X204866Y423279D01*
X204892Y423221D01*
X204921Y423163D01*
X204954Y423108D01*
X204990Y423054D01*
X205029Y423003D01*
X205071Y422954D01*
X205116Y422908D01*
X205163Y422865D01*
X205213Y422824D01*
X205266Y422786D01*
X205320Y422752D01*
X205377Y422721D01*
X205435Y422693D01*
X205495Y422669D01*
X205556Y422648D01*
X205618Y422631D01*
X205681Y422618D01*
X205744Y422609D01*
X205809Y422603D01*
X205873Y422601D01*
X205873Y422602D02*
X207270Y422602D01*
X207270Y425396D01*
X207268Y425454D01*
X207263Y425513D01*
X207254Y425570D01*
X207241Y425628D01*
X207224Y425684D01*
X207205Y425739D01*
X207181Y425792D01*
X207155Y425845D01*
X207125Y425895D01*
X207092Y425943D01*
X207056Y425989D01*
X207018Y426033D01*
X206976Y426075D01*
X206932Y426113D01*
X206886Y426149D01*
X206838Y426182D01*
X206788Y426212D01*
X206735Y426238D01*
X206682Y426262D01*
X206627Y426281D01*
X206571Y426298D01*
X206513Y426311D01*
X206456Y426320D01*
X206397Y426325D01*
X206339Y426327D01*
X205097Y426327D01*
X209969Y426327D02*
X209969Y422602D01*
X209969Y426327D02*
X211832Y426327D01*
X211832Y425706D01*
X214525Y422602D02*
X216077Y422602D01*
X214525Y422602D02*
X214467Y422604D01*
X214408Y422609D01*
X214351Y422618D01*
X214293Y422631D01*
X214237Y422648D01*
X214182Y422667D01*
X214129Y422691D01*
X214076Y422717D01*
X214026Y422747D01*
X213978Y422780D01*
X213932Y422816D01*
X213888Y422854D01*
X213846Y422896D01*
X213808Y422940D01*
X213772Y422986D01*
X213739Y423034D01*
X213709Y423084D01*
X213683Y423137D01*
X213659Y423190D01*
X213640Y423245D01*
X213623Y423301D01*
X213610Y423359D01*
X213601Y423416D01*
X213596Y423475D01*
X213594Y423533D01*
X213594Y425085D01*
X213596Y425155D01*
X213602Y425224D01*
X213612Y425293D01*
X213625Y425361D01*
X213643Y425429D01*
X213664Y425495D01*
X213689Y425560D01*
X213717Y425624D01*
X213749Y425686D01*
X213784Y425746D01*
X213823Y425804D01*
X213865Y425859D01*
X213910Y425913D01*
X213958Y425963D01*
X214008Y426011D01*
X214062Y426056D01*
X214117Y426098D01*
X214175Y426137D01*
X214235Y426172D01*
X214297Y426204D01*
X214361Y426232D01*
X214426Y426257D01*
X214492Y426278D01*
X214560Y426296D01*
X214628Y426309D01*
X214697Y426319D01*
X214766Y426325D01*
X214836Y426327D01*
X214906Y426325D01*
X214975Y426319D01*
X215044Y426309D01*
X215112Y426296D01*
X215180Y426278D01*
X215246Y426257D01*
X215311Y426232D01*
X215375Y426204D01*
X215437Y426172D01*
X215497Y426137D01*
X215555Y426098D01*
X215610Y426056D01*
X215664Y426011D01*
X215714Y425963D01*
X215762Y425913D01*
X215807Y425859D01*
X215849Y425804D01*
X215888Y425746D01*
X215923Y425686D01*
X215955Y425624D01*
X215983Y425560D01*
X216008Y425495D01*
X216029Y425429D01*
X216047Y425361D01*
X216060Y425293D01*
X216070Y425224D01*
X216076Y425155D01*
X216078Y425085D01*
X216077Y425085D02*
X216077Y424464D01*
X213594Y424464D01*
X218532Y422602D02*
X218532Y426327D01*
X220084Y426327D01*
X220142Y426325D01*
X220201Y426320D01*
X220258Y426311D01*
X220316Y426298D01*
X220372Y426281D01*
X220427Y426262D01*
X220480Y426238D01*
X220533Y426212D01*
X220583Y426182D01*
X220631Y426149D01*
X220677Y426113D01*
X220721Y426075D01*
X220763Y426033D01*
X220801Y425989D01*
X220837Y425943D01*
X220870Y425895D01*
X220900Y425845D01*
X220926Y425792D01*
X220950Y425739D01*
X220969Y425684D01*
X220986Y425628D01*
X220999Y425570D01*
X221008Y425513D01*
X221013Y425454D01*
X221015Y425396D01*
X221015Y422602D01*
X223719Y422602D02*
X223719Y428190D01*
X226202Y426327D02*
X223719Y424464D01*
X224805Y425241D02*
X226202Y422602D01*
X228224Y423844D02*
X228224Y425085D01*
X228226Y425155D01*
X228232Y425224D01*
X228242Y425293D01*
X228255Y425361D01*
X228273Y425429D01*
X228294Y425495D01*
X228319Y425560D01*
X228347Y425624D01*
X228379Y425686D01*
X228414Y425746D01*
X228453Y425804D01*
X228495Y425859D01*
X228540Y425913D01*
X228588Y425963D01*
X228638Y426011D01*
X228692Y426056D01*
X228747Y426098D01*
X228805Y426137D01*
X228865Y426172D01*
X228927Y426204D01*
X228991Y426232D01*
X229056Y426257D01*
X229122Y426278D01*
X229190Y426296D01*
X229258Y426309D01*
X229327Y426319D01*
X229396Y426325D01*
X229466Y426327D01*
X229536Y426325D01*
X229605Y426319D01*
X229674Y426309D01*
X229742Y426296D01*
X229810Y426278D01*
X229876Y426257D01*
X229941Y426232D01*
X230005Y426204D01*
X230067Y426172D01*
X230127Y426137D01*
X230185Y426098D01*
X230240Y426056D01*
X230294Y426011D01*
X230344Y425963D01*
X230392Y425913D01*
X230437Y425859D01*
X230479Y425804D01*
X230518Y425746D01*
X230553Y425686D01*
X230585Y425624D01*
X230613Y425560D01*
X230638Y425495D01*
X230659Y425429D01*
X230677Y425361D01*
X230690Y425293D01*
X230700Y425224D01*
X230706Y425155D01*
X230708Y425085D01*
X230708Y423844D01*
X230706Y423774D01*
X230700Y423705D01*
X230690Y423636D01*
X230677Y423568D01*
X230659Y423500D01*
X230638Y423434D01*
X230613Y423369D01*
X230585Y423305D01*
X230553Y423243D01*
X230518Y423183D01*
X230479Y423125D01*
X230437Y423070D01*
X230392Y423016D01*
X230344Y422966D01*
X230294Y422918D01*
X230240Y422873D01*
X230185Y422831D01*
X230127Y422792D01*
X230067Y422757D01*
X230005Y422725D01*
X229941Y422697D01*
X229876Y422672D01*
X229810Y422651D01*
X229742Y422633D01*
X229674Y422620D01*
X229605Y422610D01*
X229536Y422604D01*
X229466Y422602D01*
X229396Y422604D01*
X229327Y422610D01*
X229258Y422620D01*
X229190Y422633D01*
X229122Y422651D01*
X229056Y422672D01*
X228991Y422697D01*
X228927Y422725D01*
X228865Y422757D01*
X228805Y422792D01*
X228747Y422831D01*
X228692Y422873D01*
X228638Y422918D01*
X228588Y422966D01*
X228540Y423016D01*
X228495Y423070D01*
X228453Y423125D01*
X228414Y423183D01*
X228379Y423243D01*
X228347Y423305D01*
X228319Y423369D01*
X228294Y423434D01*
X228273Y423500D01*
X228255Y423568D01*
X228242Y423636D01*
X228232Y423705D01*
X228226Y423774D01*
X228224Y423844D01*
X236547Y426793D02*
X236517Y426844D01*
X236491Y426897D01*
X236469Y426951D01*
X236449Y427007D01*
X236434Y427064D01*
X236422Y427122D01*
X236414Y427180D01*
X236410Y427239D01*
X236409Y427298D01*
X236413Y427356D01*
X236420Y427415D01*
X236430Y427473D01*
X236445Y427530D01*
X236463Y427586D01*
X236485Y427641D01*
X236510Y427694D01*
X236539Y427745D01*
X236571Y427795D01*
X236606Y427842D01*
X236644Y427887D01*
X236684Y427930D01*
X236728Y427970D01*
X236774Y428007D01*
X236822Y428040D01*
X236872Y428071D01*
X236924Y428099D01*
X236978Y428122D01*
X237033Y428143D01*
X237090Y428160D01*
X237147Y428173D01*
X237205Y428182D01*
X237264Y428188D01*
X237323Y428190D01*
X236547Y426793D02*
X239186Y422602D01*
X238099Y426793D02*
X238129Y426844D01*
X238155Y426897D01*
X238177Y426951D01*
X238197Y427007D01*
X238212Y427064D01*
X238224Y427122D01*
X238232Y427180D01*
X238236Y427239D01*
X238237Y427298D01*
X238233Y427356D01*
X238226Y427415D01*
X238216Y427473D01*
X238201Y427530D01*
X238183Y427586D01*
X238161Y427641D01*
X238136Y427694D01*
X238107Y427745D01*
X238075Y427795D01*
X238040Y427842D01*
X238002Y427887D01*
X237962Y427930D01*
X237918Y427970D01*
X237872Y428007D01*
X237824Y428040D01*
X237774Y428071D01*
X237722Y428099D01*
X237668Y428122D01*
X237613Y428143D01*
X237556Y428160D01*
X237499Y428173D01*
X237441Y428182D01*
X237382Y428188D01*
X237323Y428190D01*
X236082Y423533D02*
X236084Y423475D01*
X236089Y423416D01*
X236098Y423359D01*
X236111Y423301D01*
X236128Y423245D01*
X236147Y423190D01*
X236171Y423137D01*
X236197Y423084D01*
X236227Y423034D01*
X236260Y422986D01*
X236296Y422940D01*
X236334Y422896D01*
X236376Y422854D01*
X236420Y422816D01*
X236466Y422780D01*
X236514Y422747D01*
X236564Y422717D01*
X236617Y422691D01*
X236670Y422667D01*
X236725Y422648D01*
X236781Y422631D01*
X236839Y422618D01*
X236896Y422609D01*
X236955Y422604D01*
X237013Y422602D01*
X236082Y423533D02*
X236084Y423583D01*
X236088Y423633D01*
X236096Y423682D01*
X236108Y423731D01*
X236122Y423778D01*
X236139Y423825D01*
X236159Y423871D01*
X236183Y423915D01*
X236209Y423958D01*
X236237Y423999D01*
X238100Y426793D01*
X237479Y422757D02*
X237438Y422729D01*
X237395Y422703D01*
X237351Y422679D01*
X237305Y422659D01*
X237258Y422642D01*
X237211Y422628D01*
X237162Y422616D01*
X237113Y422608D01*
X237063Y422604D01*
X237013Y422602D01*
X237479Y422757D02*
X239807Y424464D01*
X244567Y422602D02*
X247050Y422602D01*
X244567Y422602D02*
X244567Y428190D01*
X247050Y428190D01*
X246429Y425706D02*
X244567Y425706D01*
X248879Y422912D02*
X248879Y422602D01*
X248879Y422912D02*
X249189Y422912D01*
X249189Y422602D01*
X248879Y422602D01*
X254431Y422602D02*
X254431Y428190D01*
X254431Y425706D02*
X257535Y425706D01*
X257535Y428190D02*
X257535Y422602D01*
X260976Y422602D02*
X262528Y422602D01*
X260976Y422602D02*
X260918Y422604D01*
X260859Y422609D01*
X260802Y422618D01*
X260744Y422631D01*
X260688Y422648D01*
X260633Y422667D01*
X260580Y422691D01*
X260527Y422717D01*
X260477Y422747D01*
X260429Y422780D01*
X260383Y422816D01*
X260339Y422854D01*
X260297Y422896D01*
X260259Y422940D01*
X260223Y422986D01*
X260190Y423034D01*
X260160Y423084D01*
X260134Y423137D01*
X260110Y423190D01*
X260091Y423245D01*
X260074Y423301D01*
X260061Y423359D01*
X260052Y423416D01*
X260047Y423475D01*
X260045Y423533D01*
X260045Y425085D01*
X260047Y425155D01*
X260053Y425224D01*
X260063Y425293D01*
X260076Y425361D01*
X260094Y425429D01*
X260115Y425495D01*
X260140Y425560D01*
X260168Y425624D01*
X260200Y425686D01*
X260235Y425746D01*
X260274Y425804D01*
X260316Y425859D01*
X260361Y425913D01*
X260409Y425963D01*
X260459Y426011D01*
X260513Y426056D01*
X260568Y426098D01*
X260626Y426137D01*
X260686Y426172D01*
X260748Y426204D01*
X260812Y426232D01*
X260877Y426257D01*
X260943Y426278D01*
X261011Y426296D01*
X261079Y426309D01*
X261148Y426319D01*
X261217Y426325D01*
X261287Y426327D01*
X261357Y426325D01*
X261426Y426319D01*
X261495Y426309D01*
X261563Y426296D01*
X261631Y426278D01*
X261697Y426257D01*
X261762Y426232D01*
X261826Y426204D01*
X261888Y426172D01*
X261948Y426137D01*
X262006Y426098D01*
X262061Y426056D01*
X262115Y426011D01*
X262165Y425963D01*
X262213Y425913D01*
X262258Y425859D01*
X262300Y425804D01*
X262339Y425746D01*
X262374Y425686D01*
X262406Y425624D01*
X262434Y425560D01*
X262459Y425495D01*
X262480Y425429D01*
X262498Y425361D01*
X262511Y425293D01*
X262521Y425224D01*
X262527Y425155D01*
X262529Y425085D01*
X262528Y425085D02*
X262528Y424464D01*
X260045Y424464D01*
X265093Y422602D02*
X265093Y426327D01*
X267887Y426327D01*
X267945Y426325D01*
X268004Y426320D01*
X268061Y426311D01*
X268119Y426298D01*
X268175Y426281D01*
X268230Y426262D01*
X268283Y426238D01*
X268336Y426212D01*
X268386Y426182D01*
X268434Y426149D01*
X268480Y426113D01*
X268524Y426075D01*
X268566Y426033D01*
X268604Y425989D01*
X268640Y425943D01*
X268673Y425895D01*
X268703Y425845D01*
X268729Y425792D01*
X268753Y425739D01*
X268772Y425684D01*
X268789Y425628D01*
X268802Y425570D01*
X268811Y425513D01*
X268816Y425454D01*
X268818Y425396D01*
X268819Y425396D02*
X268819Y422602D01*
X266956Y422602D02*
X266956Y426327D01*
X271677Y426327D02*
X271677Y422602D01*
X271677Y426327D02*
X274471Y426327D01*
X274529Y426325D01*
X274588Y426320D01*
X274645Y426311D01*
X274703Y426298D01*
X274759Y426281D01*
X274814Y426262D01*
X274867Y426238D01*
X274920Y426212D01*
X274970Y426182D01*
X275018Y426149D01*
X275064Y426113D01*
X275108Y426075D01*
X275150Y426033D01*
X275188Y425989D01*
X275224Y425943D01*
X275257Y425895D01*
X275287Y425845D01*
X275313Y425792D01*
X275337Y425739D01*
X275356Y425684D01*
X275373Y425628D01*
X275386Y425570D01*
X275395Y425513D01*
X275400Y425454D01*
X275402Y425396D01*
X275402Y422602D01*
X273540Y422602D02*
X273540Y426327D01*
X277929Y426327D02*
X277929Y422602D01*
X277773Y427879D02*
X277773Y428190D01*
X278084Y428190D01*
X278084Y427879D01*
X277773Y427879D01*
X280344Y426327D02*
X280344Y422602D01*
X280344Y426327D02*
X281897Y426327D01*
X281955Y426325D01*
X282014Y426320D01*
X282071Y426311D01*
X282129Y426298D01*
X282185Y426281D01*
X282240Y426262D01*
X282293Y426238D01*
X282346Y426212D01*
X282396Y426182D01*
X282444Y426149D01*
X282490Y426113D01*
X282534Y426075D01*
X282576Y426033D01*
X282614Y425989D01*
X282650Y425943D01*
X282683Y425895D01*
X282713Y425845D01*
X282739Y425792D01*
X282763Y425739D01*
X282782Y425684D01*
X282799Y425628D01*
X282812Y425570D01*
X282821Y425513D01*
X282826Y425454D01*
X282828Y425396D01*
X282828Y422602D01*
X286185Y422602D02*
X287737Y422602D01*
X286185Y422602D02*
X286127Y422604D01*
X286068Y422609D01*
X286011Y422618D01*
X285953Y422631D01*
X285897Y422648D01*
X285842Y422667D01*
X285789Y422691D01*
X285736Y422717D01*
X285686Y422747D01*
X285638Y422780D01*
X285592Y422816D01*
X285548Y422854D01*
X285506Y422896D01*
X285468Y422940D01*
X285432Y422986D01*
X285399Y423034D01*
X285369Y423084D01*
X285343Y423137D01*
X285319Y423190D01*
X285300Y423245D01*
X285283Y423301D01*
X285270Y423359D01*
X285261Y423416D01*
X285256Y423475D01*
X285254Y423533D01*
X285253Y423533D02*
X285253Y425396D01*
X285254Y425396D02*
X285256Y425454D01*
X285261Y425513D01*
X285270Y425570D01*
X285283Y425628D01*
X285300Y425684D01*
X285319Y425739D01*
X285343Y425792D01*
X285369Y425845D01*
X285399Y425895D01*
X285432Y425943D01*
X285468Y425989D01*
X285506Y426033D01*
X285548Y426075D01*
X285592Y426113D01*
X285638Y426149D01*
X285686Y426182D01*
X285736Y426212D01*
X285789Y426238D01*
X285842Y426262D01*
X285897Y426281D01*
X285953Y426298D01*
X286011Y426311D01*
X286068Y426320D01*
X286127Y426325D01*
X286185Y426327D01*
X287737Y426327D01*
X287737Y421671D01*
X287736Y421671D02*
X287734Y421610D01*
X287728Y421549D01*
X287718Y421489D01*
X287704Y421430D01*
X287687Y421372D01*
X287665Y421315D01*
X287640Y421259D01*
X287611Y421206D01*
X287579Y421154D01*
X287544Y421104D01*
X287505Y421057D01*
X287463Y421013D01*
X287419Y420971D01*
X287372Y420932D01*
X287322Y420897D01*
X287271Y420865D01*
X287217Y420836D01*
X287161Y420811D01*
X287104Y420789D01*
X287046Y420772D01*
X286987Y420758D01*
X286927Y420748D01*
X286866Y420742D01*
X286805Y420740D01*
X286806Y420739D02*
X285564Y420739D01*
D11*
X19154Y-27414D02*
X2136Y-27414D01*
X19154Y-27414D02*
X19154Y3066D01*
X2136Y3066D01*
X2136Y438676D02*
X19154Y438676D01*
X19154Y469156D01*
X2136Y469156D01*
X44316Y11321D02*
X44318Y11384D01*
X44324Y11446D01*
X44334Y11508D01*
X44347Y11570D01*
X44365Y11630D01*
X44386Y11689D01*
X44411Y11747D01*
X44440Y11803D01*
X44472Y11857D01*
X44507Y11909D01*
X44545Y11958D01*
X44587Y12006D01*
X44631Y12050D01*
X44679Y12092D01*
X44728Y12130D01*
X44780Y12165D01*
X44834Y12197D01*
X44890Y12226D01*
X44948Y12251D01*
X45007Y12272D01*
X45067Y12290D01*
X45129Y12303D01*
X45191Y12313D01*
X45253Y12319D01*
X45316Y12321D01*
X45379Y12319D01*
X45441Y12313D01*
X45503Y12303D01*
X45565Y12290D01*
X45625Y12272D01*
X45684Y12251D01*
X45742Y12226D01*
X45798Y12197D01*
X45852Y12165D01*
X45904Y12130D01*
X45953Y12092D01*
X46001Y12050D01*
X46045Y12006D01*
X46087Y11958D01*
X46125Y11909D01*
X46160Y11857D01*
X46192Y11803D01*
X46221Y11747D01*
X46246Y11689D01*
X46267Y11630D01*
X46285Y11570D01*
X46298Y11508D01*
X46308Y11446D01*
X46314Y11384D01*
X46316Y11321D01*
X46314Y11258D01*
X46308Y11196D01*
X46298Y11134D01*
X46285Y11072D01*
X46267Y11012D01*
X46246Y10953D01*
X46221Y10895D01*
X46192Y10839D01*
X46160Y10785D01*
X46125Y10733D01*
X46087Y10684D01*
X46045Y10636D01*
X46001Y10592D01*
X45953Y10550D01*
X45904Y10512D01*
X45852Y10477D01*
X45798Y10445D01*
X45742Y10416D01*
X45684Y10391D01*
X45625Y10370D01*
X45565Y10352D01*
X45503Y10339D01*
X45441Y10329D01*
X45379Y10323D01*
X45316Y10321D01*
X45253Y10323D01*
X45191Y10329D01*
X45129Y10339D01*
X45067Y10352D01*
X45007Y10370D01*
X44948Y10391D01*
X44890Y10416D01*
X44834Y10445D01*
X44780Y10477D01*
X44728Y10512D01*
X44679Y10550D01*
X44631Y10592D01*
X44587Y10636D01*
X44545Y10684D01*
X44507Y10733D01*
X44472Y10785D01*
X44440Y10839D01*
X44411Y10895D01*
X44386Y10953D01*
X44365Y11012D01*
X44347Y11072D01*
X44334Y11134D01*
X44324Y11196D01*
X44318Y11258D01*
X44316Y11321D01*
D12*
X52399Y362859D02*
X59765Y362859D01*
X52399Y362859D02*
X52399Y364905D01*
X52401Y364994D01*
X52407Y365083D01*
X52417Y365172D01*
X52430Y365260D01*
X52447Y365348D01*
X52469Y365435D01*
X52494Y365520D01*
X52522Y365605D01*
X52555Y365688D01*
X52591Y365770D01*
X52630Y365850D01*
X52673Y365928D01*
X52719Y366004D01*
X52769Y366079D01*
X52822Y366151D01*
X52878Y366220D01*
X52937Y366287D01*
X52998Y366352D01*
X53063Y366413D01*
X53130Y366472D01*
X53199Y366528D01*
X53271Y366581D01*
X53346Y366631D01*
X53422Y366677D01*
X53500Y366720D01*
X53580Y366759D01*
X53662Y366795D01*
X53745Y366828D01*
X53830Y366856D01*
X53915Y366881D01*
X54002Y366903D01*
X54090Y366920D01*
X54178Y366933D01*
X54267Y366943D01*
X54356Y366949D01*
X54445Y366951D01*
X54534Y366949D01*
X54623Y366943D01*
X54712Y366933D01*
X54800Y366920D01*
X54888Y366903D01*
X54975Y366881D01*
X55060Y366856D01*
X55145Y366828D01*
X55228Y366795D01*
X55310Y366759D01*
X55390Y366720D01*
X55468Y366677D01*
X55544Y366631D01*
X55619Y366581D01*
X55691Y366528D01*
X55760Y366472D01*
X55827Y366413D01*
X55892Y366352D01*
X55953Y366287D01*
X56012Y366220D01*
X56068Y366151D01*
X56121Y366079D01*
X56171Y366004D01*
X56217Y365928D01*
X56260Y365850D01*
X56299Y365770D01*
X56335Y365688D01*
X56368Y365605D01*
X56396Y365520D01*
X56421Y365435D01*
X56443Y365348D01*
X56460Y365260D01*
X56473Y365172D01*
X56483Y365083D01*
X56489Y364994D01*
X56491Y364905D01*
X56491Y362859D01*
X59765Y371426D02*
X59765Y373063D01*
X59765Y371426D02*
X59763Y371348D01*
X59758Y371270D01*
X59748Y371193D01*
X59735Y371116D01*
X59719Y371040D01*
X59699Y370965D01*
X59675Y370891D01*
X59648Y370818D01*
X59617Y370746D01*
X59583Y370676D01*
X59546Y370608D01*
X59505Y370541D01*
X59461Y370476D01*
X59415Y370414D01*
X59365Y370354D01*
X59313Y370296D01*
X59258Y370241D01*
X59200Y370189D01*
X59140Y370139D01*
X59078Y370093D01*
X59013Y370049D01*
X58947Y370008D01*
X58878Y369971D01*
X58808Y369937D01*
X58736Y369906D01*
X58663Y369879D01*
X58589Y369855D01*
X58514Y369835D01*
X58438Y369819D01*
X58361Y369806D01*
X58284Y369796D01*
X58206Y369791D01*
X58128Y369789D01*
X54036Y369789D01*
X53956Y369791D01*
X53876Y369797D01*
X53796Y369807D01*
X53717Y369820D01*
X53638Y369838D01*
X53561Y369859D01*
X53485Y369885D01*
X53410Y369914D01*
X53336Y369946D01*
X53264Y369982D01*
X53194Y370022D01*
X53127Y370065D01*
X53061Y370111D01*
X52998Y370161D01*
X52937Y370213D01*
X52878Y370268D01*
X52823Y370327D01*
X52771Y370387D01*
X52721Y370451D01*
X52675Y370516D01*
X52632Y370584D01*
X52592Y370654D01*
X52556Y370726D01*
X52524Y370800D01*
X52495Y370874D01*
X52470Y370951D01*
X52448Y371028D01*
X52430Y371107D01*
X52417Y371186D01*
X52407Y371265D01*
X52401Y371346D01*
X52399Y371426D01*
X52399Y373063D01*
X52399Y376231D02*
X59765Y376231D01*
X56491Y378686D02*
X52399Y376231D01*
X56491Y378686D02*
X52399Y381141D01*
X59765Y381141D01*
X59765Y386300D02*
X59765Y387937D01*
X59765Y386300D02*
X59763Y386222D01*
X59758Y386144D01*
X59748Y386067D01*
X59735Y385990D01*
X59719Y385914D01*
X59699Y385839D01*
X59675Y385765D01*
X59648Y385692D01*
X59617Y385620D01*
X59583Y385550D01*
X59546Y385482D01*
X59505Y385415D01*
X59461Y385350D01*
X59415Y385288D01*
X59365Y385228D01*
X59313Y385170D01*
X59258Y385115D01*
X59200Y385063D01*
X59140Y385013D01*
X59078Y384967D01*
X59013Y384923D01*
X58947Y384882D01*
X58878Y384845D01*
X58808Y384811D01*
X58736Y384780D01*
X58663Y384753D01*
X58589Y384729D01*
X58514Y384709D01*
X58438Y384693D01*
X58361Y384680D01*
X58284Y384670D01*
X58206Y384665D01*
X58128Y384663D01*
X54036Y384663D01*
X53956Y384665D01*
X53876Y384671D01*
X53796Y384681D01*
X53717Y384694D01*
X53638Y384712D01*
X53561Y384733D01*
X53485Y384759D01*
X53410Y384788D01*
X53336Y384820D01*
X53264Y384856D01*
X53194Y384896D01*
X53127Y384939D01*
X53061Y384985D01*
X52998Y385035D01*
X52937Y385087D01*
X52878Y385142D01*
X52823Y385201D01*
X52771Y385261D01*
X52721Y385325D01*
X52675Y385390D01*
X52632Y385458D01*
X52592Y385528D01*
X52556Y385600D01*
X52524Y385674D01*
X52495Y385748D01*
X52470Y385825D01*
X52448Y385902D01*
X52430Y385981D01*
X52417Y386060D01*
X52407Y386139D01*
X52401Y386220D01*
X52399Y386300D01*
X52399Y387937D01*
X52399Y391366D02*
X59765Y391366D01*
X59765Y392184D02*
X59765Y390547D01*
X52399Y390547D02*
X52399Y392184D01*
X52399Y397218D02*
X59765Y394762D01*
X59765Y399673D02*
X52399Y397218D01*
X57924Y399059D02*
X57924Y395376D01*
D11*
X416555Y267300D02*
X416555Y134300D01*
X283555Y134300D01*
X283555Y267300D01*
X416555Y267300D01*
D13*
X416305Y283050D02*
X416307Y283120D01*
X416313Y283190D01*
X416323Y283259D01*
X416336Y283328D01*
X416354Y283396D01*
X416375Y283463D01*
X416400Y283528D01*
X416429Y283592D01*
X416461Y283655D01*
X416497Y283715D01*
X416536Y283773D01*
X416578Y283829D01*
X416623Y283883D01*
X416671Y283934D01*
X416722Y283982D01*
X416776Y284027D01*
X416832Y284069D01*
X416890Y284108D01*
X416950Y284144D01*
X417013Y284176D01*
X417077Y284205D01*
X417142Y284230D01*
X417209Y284251D01*
X417277Y284269D01*
X417346Y284282D01*
X417415Y284292D01*
X417485Y284298D01*
X417555Y284300D01*
X417625Y284298D01*
X417695Y284292D01*
X417764Y284282D01*
X417833Y284269D01*
X417901Y284251D01*
X417968Y284230D01*
X418033Y284205D01*
X418097Y284176D01*
X418160Y284144D01*
X418220Y284108D01*
X418278Y284069D01*
X418334Y284027D01*
X418388Y283982D01*
X418439Y283934D01*
X418487Y283883D01*
X418532Y283829D01*
X418574Y283773D01*
X418613Y283715D01*
X418649Y283655D01*
X418681Y283592D01*
X418710Y283528D01*
X418735Y283463D01*
X418756Y283396D01*
X418774Y283328D01*
X418787Y283259D01*
X418797Y283190D01*
X418803Y283120D01*
X418805Y283050D01*
X418803Y282980D01*
X418797Y282910D01*
X418787Y282841D01*
X418774Y282772D01*
X418756Y282704D01*
X418735Y282637D01*
X418710Y282572D01*
X418681Y282508D01*
X418649Y282445D01*
X418613Y282385D01*
X418574Y282327D01*
X418532Y282271D01*
X418487Y282217D01*
X418439Y282166D01*
X418388Y282118D01*
X418334Y282073D01*
X418278Y282031D01*
X418220Y281992D01*
X418160Y281956D01*
X418097Y281924D01*
X418033Y281895D01*
X417968Y281870D01*
X417901Y281849D01*
X417833Y281831D01*
X417764Y281818D01*
X417695Y281808D01*
X417625Y281802D01*
X417555Y281800D01*
X417485Y281802D01*
X417415Y281808D01*
X417346Y281818D01*
X417277Y281831D01*
X417209Y281849D01*
X417142Y281870D01*
X417077Y281895D01*
X417013Y281924D01*
X416950Y281956D01*
X416890Y281992D01*
X416832Y282031D01*
X416776Y282073D01*
X416722Y282118D01*
X416671Y282166D01*
X416623Y282217D01*
X416578Y282271D01*
X416536Y282327D01*
X416497Y282385D01*
X416461Y282445D01*
X416429Y282508D01*
X416400Y282572D01*
X416375Y282637D01*
X416354Y282704D01*
X416336Y282772D01*
X416323Y282841D01*
X416313Y282910D01*
X416307Y282980D01*
X416305Y283050D01*
D12*
X371890Y193258D02*
X364524Y193258D01*
X371890Y192440D02*
X371890Y194076D01*
X364524Y194076D02*
X364524Y192440D01*
X371890Y198678D02*
X371890Y200315D01*
X371890Y198678D02*
X371888Y198600D01*
X371883Y198522D01*
X371873Y198445D01*
X371860Y198368D01*
X371844Y198292D01*
X371824Y198217D01*
X371800Y198143D01*
X371773Y198070D01*
X371742Y197998D01*
X371708Y197928D01*
X371671Y197860D01*
X371630Y197793D01*
X371586Y197728D01*
X371540Y197666D01*
X371490Y197606D01*
X371438Y197548D01*
X371383Y197493D01*
X371325Y197441D01*
X371265Y197391D01*
X371203Y197345D01*
X371138Y197301D01*
X371072Y197260D01*
X371003Y197223D01*
X370933Y197189D01*
X370861Y197158D01*
X370788Y197131D01*
X370714Y197107D01*
X370639Y197087D01*
X370563Y197071D01*
X370486Y197058D01*
X370409Y197048D01*
X370331Y197043D01*
X370253Y197041D01*
X366161Y197041D01*
X366081Y197043D01*
X366001Y197049D01*
X365921Y197059D01*
X365842Y197072D01*
X365763Y197090D01*
X365686Y197111D01*
X365610Y197137D01*
X365535Y197166D01*
X365461Y197198D01*
X365389Y197234D01*
X365319Y197274D01*
X365252Y197317D01*
X365186Y197363D01*
X365123Y197413D01*
X365062Y197465D01*
X365003Y197520D01*
X364948Y197579D01*
X364896Y197639D01*
X364846Y197703D01*
X364800Y197768D01*
X364757Y197836D01*
X364717Y197906D01*
X364681Y197978D01*
X364649Y198052D01*
X364620Y198126D01*
X364595Y198203D01*
X364573Y198280D01*
X364555Y198359D01*
X364542Y198438D01*
X364532Y198517D01*
X364526Y198598D01*
X364524Y198678D01*
X364524Y200315D01*
X366161Y203160D02*
X364524Y205206D01*
X371890Y205206D01*
X371890Y203160D02*
X371890Y207252D01*
D14*
X316844Y362987D02*
X316844Y398547D01*
X382384Y398547D01*
X382384Y362987D01*
X316844Y362987D01*
D12*
X288030Y422833D02*
X288030Y430199D01*
X287212Y422833D02*
X288848Y422833D01*
X288848Y430199D02*
X287212Y430199D01*
X293450Y422833D02*
X295087Y422833D01*
X293450Y422833D02*
X293372Y422835D01*
X293294Y422840D01*
X293217Y422850D01*
X293140Y422863D01*
X293064Y422879D01*
X292989Y422899D01*
X292915Y422923D01*
X292842Y422950D01*
X292770Y422981D01*
X292700Y423015D01*
X292632Y423052D01*
X292565Y423093D01*
X292500Y423137D01*
X292438Y423183D01*
X292378Y423233D01*
X292320Y423285D01*
X292265Y423340D01*
X292213Y423398D01*
X292163Y423458D01*
X292117Y423520D01*
X292073Y423585D01*
X292032Y423652D01*
X291995Y423720D01*
X291961Y423790D01*
X291930Y423862D01*
X291903Y423935D01*
X291879Y424009D01*
X291859Y424084D01*
X291843Y424160D01*
X291830Y424237D01*
X291820Y424314D01*
X291815Y424392D01*
X291813Y424470D01*
X291813Y428562D01*
X291815Y428642D01*
X291821Y428722D01*
X291831Y428802D01*
X291844Y428881D01*
X291862Y428960D01*
X291883Y429037D01*
X291909Y429113D01*
X291938Y429188D01*
X291970Y429262D01*
X292006Y429334D01*
X292046Y429404D01*
X292089Y429471D01*
X292135Y429537D01*
X292185Y429600D01*
X292237Y429661D01*
X292292Y429720D01*
X292351Y429775D01*
X292411Y429827D01*
X292475Y429877D01*
X292541Y429923D01*
X292608Y429966D01*
X292678Y430006D01*
X292750Y430042D01*
X292824Y430074D01*
X292898Y430103D01*
X292975Y430129D01*
X293052Y430150D01*
X293131Y430168D01*
X293210Y430181D01*
X293290Y430191D01*
X293370Y430197D01*
X293450Y430199D01*
X295087Y430199D01*
X300183Y430199D02*
X300268Y430197D01*
X300353Y430191D01*
X300437Y430181D01*
X300521Y430168D01*
X300605Y430150D01*
X300687Y430129D01*
X300768Y430104D01*
X300848Y430075D01*
X300927Y430042D01*
X301004Y430006D01*
X301079Y429966D01*
X301153Y429923D01*
X301224Y429877D01*
X301293Y429827D01*
X301360Y429774D01*
X301424Y429718D01*
X301485Y429659D01*
X301544Y429598D01*
X301600Y429534D01*
X301653Y429467D01*
X301703Y429398D01*
X301749Y429327D01*
X301792Y429253D01*
X301832Y429178D01*
X301868Y429101D01*
X301901Y429022D01*
X301930Y428942D01*
X301955Y428861D01*
X301976Y428779D01*
X301994Y428695D01*
X302007Y428611D01*
X302017Y428527D01*
X302023Y428442D01*
X302025Y428357D01*
X300183Y430199D02*
X300087Y430197D01*
X299991Y430191D01*
X299896Y430181D01*
X299801Y430168D01*
X299706Y430150D01*
X299613Y430129D01*
X299520Y430104D01*
X299429Y430075D01*
X299338Y430043D01*
X299249Y430007D01*
X299162Y429967D01*
X299076Y429924D01*
X298992Y429878D01*
X298910Y429828D01*
X298830Y429774D01*
X298753Y429718D01*
X298678Y429658D01*
X298605Y429596D01*
X298535Y429530D01*
X298467Y429462D01*
X298402Y429391D01*
X298341Y429318D01*
X298282Y429242D01*
X298226Y429163D01*
X298174Y429083D01*
X298125Y429000D01*
X298079Y428916D01*
X298037Y428830D01*
X297999Y428742D01*
X297964Y428653D01*
X297932Y428562D01*
X301410Y426925D02*
X301470Y426984D01*
X301527Y427046D01*
X301582Y427110D01*
X301633Y427177D01*
X301682Y427246D01*
X301728Y427316D01*
X301771Y427389D01*
X301811Y427463D01*
X301847Y427539D01*
X301880Y427617D01*
X301910Y427696D01*
X301937Y427776D01*
X301960Y427857D01*
X301979Y427939D01*
X301995Y428021D01*
X302008Y428105D01*
X302017Y428189D01*
X302022Y428273D01*
X302024Y428357D01*
X301410Y426925D02*
X297932Y422833D01*
X302024Y422833D01*
X442390Y419528D02*
X444027Y419528D01*
X442390Y419528D02*
X442312Y419530D01*
X442234Y419535D01*
X442157Y419545D01*
X442080Y419558D01*
X442004Y419574D01*
X441929Y419594D01*
X441855Y419618D01*
X441782Y419645D01*
X441710Y419676D01*
X441640Y419710D01*
X441572Y419747D01*
X441505Y419788D01*
X441440Y419832D01*
X441378Y419878D01*
X441318Y419928D01*
X441260Y419980D01*
X441205Y420035D01*
X441153Y420093D01*
X441103Y420153D01*
X441057Y420215D01*
X441013Y420280D01*
X440972Y420347D01*
X440935Y420415D01*
X440901Y420485D01*
X440870Y420557D01*
X440843Y420630D01*
X440819Y420704D01*
X440799Y420779D01*
X440783Y420855D01*
X440770Y420932D01*
X440760Y421009D01*
X440755Y421087D01*
X440753Y421165D01*
X440753Y425257D01*
X440755Y425337D01*
X440761Y425417D01*
X440771Y425497D01*
X440784Y425576D01*
X440802Y425655D01*
X440823Y425732D01*
X440849Y425808D01*
X440878Y425883D01*
X440910Y425957D01*
X440946Y426029D01*
X440986Y426099D01*
X441029Y426166D01*
X441075Y426232D01*
X441125Y426295D01*
X441177Y426356D01*
X441232Y426415D01*
X441291Y426470D01*
X441351Y426522D01*
X441415Y426572D01*
X441481Y426618D01*
X441548Y426661D01*
X441618Y426701D01*
X441690Y426737D01*
X441764Y426769D01*
X441838Y426798D01*
X441915Y426824D01*
X441992Y426845D01*
X442071Y426863D01*
X442150Y426876D01*
X442230Y426886D01*
X442310Y426892D01*
X442390Y426894D01*
X444027Y426894D01*
X449123Y426895D02*
X449208Y426893D01*
X449293Y426887D01*
X449377Y426877D01*
X449461Y426864D01*
X449545Y426846D01*
X449627Y426825D01*
X449708Y426800D01*
X449788Y426771D01*
X449867Y426738D01*
X449944Y426702D01*
X450019Y426662D01*
X450093Y426619D01*
X450164Y426573D01*
X450233Y426523D01*
X450300Y426470D01*
X450364Y426414D01*
X450425Y426355D01*
X450484Y426294D01*
X450540Y426230D01*
X450593Y426163D01*
X450643Y426094D01*
X450689Y426023D01*
X450732Y425949D01*
X450772Y425874D01*
X450808Y425797D01*
X450841Y425718D01*
X450870Y425638D01*
X450895Y425557D01*
X450916Y425475D01*
X450934Y425391D01*
X450947Y425307D01*
X450957Y425223D01*
X450963Y425138D01*
X450965Y425053D01*
X449123Y426894D02*
X449027Y426892D01*
X448931Y426886D01*
X448836Y426876D01*
X448741Y426863D01*
X448646Y426845D01*
X448553Y426824D01*
X448460Y426799D01*
X448369Y426770D01*
X448278Y426738D01*
X448189Y426702D01*
X448102Y426662D01*
X448016Y426619D01*
X447932Y426573D01*
X447850Y426523D01*
X447770Y426469D01*
X447693Y426413D01*
X447618Y426353D01*
X447545Y426291D01*
X447475Y426225D01*
X447407Y426157D01*
X447342Y426086D01*
X447281Y426013D01*
X447222Y425937D01*
X447166Y425858D01*
X447114Y425778D01*
X447065Y425695D01*
X447019Y425611D01*
X446977Y425525D01*
X446939Y425437D01*
X446904Y425348D01*
X446872Y425257D01*
X450351Y423621D02*
X450411Y423680D01*
X450468Y423742D01*
X450523Y423806D01*
X450574Y423873D01*
X450623Y423942D01*
X450669Y424012D01*
X450712Y424085D01*
X450752Y424159D01*
X450788Y424235D01*
X450821Y424313D01*
X450851Y424392D01*
X450878Y424472D01*
X450901Y424553D01*
X450920Y424635D01*
X450936Y424717D01*
X450949Y424801D01*
X450958Y424885D01*
X450963Y424969D01*
X450965Y425053D01*
X450351Y423620D02*
X446872Y419528D01*
X450964Y419528D01*
X258859Y392476D02*
X257222Y392476D01*
X257144Y392478D01*
X257066Y392483D01*
X256989Y392493D01*
X256912Y392506D01*
X256836Y392522D01*
X256761Y392542D01*
X256687Y392566D01*
X256614Y392593D01*
X256542Y392624D01*
X256472Y392658D01*
X256404Y392695D01*
X256337Y392736D01*
X256272Y392780D01*
X256210Y392826D01*
X256150Y392876D01*
X256092Y392928D01*
X256037Y392983D01*
X255985Y393041D01*
X255935Y393101D01*
X255889Y393163D01*
X255845Y393228D01*
X255804Y393295D01*
X255767Y393363D01*
X255733Y393433D01*
X255702Y393505D01*
X255675Y393578D01*
X255651Y393652D01*
X255631Y393727D01*
X255615Y393803D01*
X255602Y393880D01*
X255592Y393957D01*
X255587Y394035D01*
X255585Y394113D01*
X255585Y398205D01*
X255587Y398285D01*
X255593Y398365D01*
X255603Y398445D01*
X255616Y398524D01*
X255634Y398603D01*
X255655Y398680D01*
X255681Y398756D01*
X255710Y398831D01*
X255742Y398905D01*
X255778Y398977D01*
X255818Y399047D01*
X255861Y399114D01*
X255907Y399180D01*
X255957Y399243D01*
X256009Y399304D01*
X256064Y399363D01*
X256123Y399418D01*
X256183Y399470D01*
X256247Y399520D01*
X256313Y399566D01*
X256380Y399609D01*
X256450Y399649D01*
X256522Y399685D01*
X256596Y399717D01*
X256670Y399746D01*
X256747Y399772D01*
X256824Y399793D01*
X256903Y399811D01*
X256982Y399824D01*
X257062Y399834D01*
X257142Y399840D01*
X257222Y399842D01*
X258859Y399842D01*
X261704Y398205D02*
X263750Y399842D01*
X263750Y392476D01*
X261704Y392476D02*
X265797Y392476D01*
X402013Y418881D02*
X403650Y418881D01*
X402013Y418881D02*
X401935Y418883D01*
X401857Y418888D01*
X401780Y418898D01*
X401703Y418911D01*
X401627Y418927D01*
X401552Y418947D01*
X401478Y418971D01*
X401405Y418998D01*
X401333Y419029D01*
X401263Y419063D01*
X401195Y419100D01*
X401128Y419141D01*
X401063Y419185D01*
X401001Y419231D01*
X400941Y419281D01*
X400883Y419333D01*
X400828Y419388D01*
X400776Y419446D01*
X400726Y419506D01*
X400680Y419568D01*
X400636Y419633D01*
X400595Y419700D01*
X400558Y419768D01*
X400524Y419838D01*
X400493Y419910D01*
X400466Y419983D01*
X400442Y420057D01*
X400422Y420132D01*
X400406Y420208D01*
X400393Y420285D01*
X400383Y420362D01*
X400378Y420440D01*
X400376Y420518D01*
X400376Y424611D01*
X400378Y424691D01*
X400384Y424771D01*
X400394Y424851D01*
X400407Y424930D01*
X400425Y425009D01*
X400446Y425086D01*
X400472Y425162D01*
X400501Y425237D01*
X400533Y425311D01*
X400569Y425383D01*
X400609Y425453D01*
X400652Y425520D01*
X400698Y425586D01*
X400748Y425649D01*
X400800Y425710D01*
X400855Y425769D01*
X400914Y425824D01*
X400974Y425876D01*
X401038Y425926D01*
X401104Y425972D01*
X401171Y426015D01*
X401241Y426055D01*
X401313Y426091D01*
X401387Y426123D01*
X401461Y426152D01*
X401538Y426178D01*
X401615Y426199D01*
X401694Y426217D01*
X401773Y426230D01*
X401853Y426240D01*
X401933Y426246D01*
X402013Y426248D01*
X402013Y426247D02*
X403650Y426247D01*
X406495Y418881D02*
X408541Y418881D01*
X408541Y418882D02*
X408630Y418884D01*
X408719Y418890D01*
X408808Y418900D01*
X408896Y418913D01*
X408984Y418930D01*
X409071Y418952D01*
X409156Y418977D01*
X409241Y419005D01*
X409324Y419038D01*
X409406Y419074D01*
X409486Y419113D01*
X409564Y419156D01*
X409640Y419202D01*
X409715Y419252D01*
X409787Y419305D01*
X409856Y419361D01*
X409923Y419420D01*
X409988Y419481D01*
X410049Y419546D01*
X410108Y419613D01*
X410164Y419682D01*
X410217Y419754D01*
X410267Y419829D01*
X410313Y419905D01*
X410356Y419983D01*
X410395Y420063D01*
X410431Y420145D01*
X410464Y420228D01*
X410492Y420313D01*
X410517Y420398D01*
X410539Y420485D01*
X410556Y420573D01*
X410569Y420661D01*
X410579Y420750D01*
X410585Y420839D01*
X410587Y420928D01*
X410585Y421017D01*
X410579Y421106D01*
X410569Y421195D01*
X410556Y421283D01*
X410539Y421371D01*
X410517Y421458D01*
X410492Y421543D01*
X410464Y421628D01*
X410431Y421711D01*
X410395Y421793D01*
X410356Y421873D01*
X410313Y421951D01*
X410267Y422027D01*
X410217Y422102D01*
X410164Y422174D01*
X410108Y422243D01*
X410049Y422310D01*
X409988Y422375D01*
X409923Y422436D01*
X409856Y422495D01*
X409787Y422551D01*
X409715Y422604D01*
X409640Y422654D01*
X409564Y422700D01*
X409486Y422743D01*
X409406Y422782D01*
X409324Y422818D01*
X409241Y422851D01*
X409156Y422879D01*
X409071Y422904D01*
X408984Y422926D01*
X408896Y422943D01*
X408808Y422956D01*
X408719Y422966D01*
X408630Y422972D01*
X408541Y422974D01*
X408950Y426247D02*
X406495Y426247D01*
X408950Y426248D02*
X409029Y426246D01*
X409108Y426240D01*
X409187Y426231D01*
X409265Y426218D01*
X409342Y426200D01*
X409418Y426180D01*
X409493Y426155D01*
X409567Y426127D01*
X409640Y426096D01*
X409711Y426060D01*
X409780Y426022D01*
X409847Y425980D01*
X409912Y425935D01*
X409975Y425887D01*
X410036Y425836D01*
X410093Y425782D01*
X410149Y425726D01*
X410201Y425667D01*
X410251Y425605D01*
X410297Y425541D01*
X410341Y425475D01*
X410381Y425407D01*
X410417Y425337D01*
X410451Y425265D01*
X410481Y425191D01*
X410507Y425117D01*
X410530Y425041D01*
X410548Y424964D01*
X410564Y424887D01*
X410575Y424808D01*
X410583Y424730D01*
X410587Y424651D01*
X410587Y424571D01*
X410583Y424492D01*
X410575Y424414D01*
X410564Y424335D01*
X410548Y424258D01*
X410530Y424181D01*
X410507Y424105D01*
X410481Y424031D01*
X410451Y423957D01*
X410417Y423885D01*
X410381Y423815D01*
X410341Y423747D01*
X410297Y423681D01*
X410251Y423617D01*
X410201Y423555D01*
X410149Y423496D01*
X410093Y423440D01*
X410036Y423386D01*
X409975Y423335D01*
X409912Y423287D01*
X409847Y423242D01*
X409780Y423200D01*
X409711Y423162D01*
X409640Y423126D01*
X409567Y423095D01*
X409493Y423067D01*
X409418Y423042D01*
X409342Y423022D01*
X409265Y423004D01*
X409187Y422991D01*
X409108Y422982D01*
X409029Y422976D01*
X408950Y422974D01*
X407313Y422974D01*
D15*
X558628Y385847D02*
X560378Y384097D01*
X558628Y385847D02*
X560128Y387347D01*
X561878Y385597D01*
X560378Y384097D01*
D16*
X556128Y383097D03*
D12*
X579348Y382255D02*
X579348Y389621D01*
X581394Y389621D01*
X581394Y389620D02*
X581483Y389618D01*
X581572Y389612D01*
X581661Y389602D01*
X581749Y389589D01*
X581837Y389572D01*
X581924Y389550D01*
X582009Y389525D01*
X582094Y389497D01*
X582177Y389464D01*
X582259Y389428D01*
X582339Y389389D01*
X582417Y389346D01*
X582493Y389300D01*
X582568Y389250D01*
X582640Y389197D01*
X582709Y389141D01*
X582776Y389082D01*
X582841Y389021D01*
X582902Y388956D01*
X582961Y388889D01*
X583017Y388820D01*
X583070Y388748D01*
X583120Y388673D01*
X583166Y388597D01*
X583209Y388519D01*
X583248Y388439D01*
X583284Y388357D01*
X583317Y388274D01*
X583345Y388189D01*
X583370Y388104D01*
X583392Y388017D01*
X583409Y387929D01*
X583422Y387841D01*
X583432Y387752D01*
X583438Y387663D01*
X583440Y387574D01*
X583438Y387485D01*
X583432Y387396D01*
X583422Y387307D01*
X583409Y387219D01*
X583392Y387131D01*
X583370Y387044D01*
X583345Y386959D01*
X583317Y386874D01*
X583284Y386791D01*
X583248Y386709D01*
X583209Y386629D01*
X583166Y386551D01*
X583120Y386475D01*
X583070Y386400D01*
X583017Y386328D01*
X582961Y386259D01*
X582902Y386192D01*
X582841Y386127D01*
X582776Y386066D01*
X582709Y386007D01*
X582640Y385951D01*
X582568Y385898D01*
X582493Y385848D01*
X582417Y385802D01*
X582339Y385759D01*
X582259Y385720D01*
X582177Y385684D01*
X582094Y385651D01*
X582009Y385623D01*
X581924Y385598D01*
X581837Y385576D01*
X581749Y385559D01*
X581661Y385546D01*
X581572Y385536D01*
X581483Y385530D01*
X581394Y385528D01*
X579348Y385528D01*
X586049Y389621D02*
X587686Y382255D01*
X589323Y387165D01*
X590960Y382255D01*
X592597Y389621D01*
X595862Y389621D02*
X595862Y382255D01*
X595862Y389621D02*
X597908Y389621D01*
X597908Y389620D02*
X597997Y389618D01*
X598086Y389612D01*
X598175Y389602D01*
X598263Y389589D01*
X598351Y389572D01*
X598438Y389550D01*
X598523Y389525D01*
X598608Y389497D01*
X598691Y389464D01*
X598773Y389428D01*
X598853Y389389D01*
X598931Y389346D01*
X599007Y389300D01*
X599082Y389250D01*
X599154Y389197D01*
X599223Y389141D01*
X599290Y389082D01*
X599355Y389021D01*
X599416Y388956D01*
X599475Y388889D01*
X599531Y388820D01*
X599584Y388748D01*
X599634Y388673D01*
X599680Y388597D01*
X599723Y388519D01*
X599762Y388439D01*
X599798Y388357D01*
X599831Y388274D01*
X599859Y388189D01*
X599884Y388104D01*
X599906Y388017D01*
X599923Y387929D01*
X599936Y387841D01*
X599946Y387752D01*
X599952Y387663D01*
X599954Y387574D01*
X599952Y387485D01*
X599946Y387396D01*
X599936Y387307D01*
X599923Y387219D01*
X599906Y387131D01*
X599884Y387044D01*
X599859Y386959D01*
X599831Y386874D01*
X599798Y386791D01*
X599762Y386709D01*
X599723Y386629D01*
X599680Y386551D01*
X599634Y386475D01*
X599584Y386400D01*
X599531Y386328D01*
X599475Y386259D01*
X599416Y386192D01*
X599355Y386127D01*
X599290Y386066D01*
X599223Y386007D01*
X599154Y385951D01*
X599082Y385898D01*
X599007Y385848D01*
X598931Y385802D01*
X598853Y385759D01*
X598773Y385720D01*
X598691Y385684D01*
X598608Y385651D01*
X598523Y385623D01*
X598438Y385598D01*
X598351Y385576D01*
X598263Y385559D01*
X598175Y385546D01*
X598086Y385536D01*
X597997Y385530D01*
X597908Y385528D01*
X595862Y385528D01*
X598318Y385528D02*
X599955Y382255D01*
X510393Y391224D02*
X510393Y398590D01*
X512439Y398590D01*
X512439Y398589D02*
X512528Y398587D01*
X512617Y398581D01*
X512706Y398571D01*
X512794Y398558D01*
X512882Y398541D01*
X512969Y398519D01*
X513054Y398494D01*
X513139Y398466D01*
X513222Y398433D01*
X513304Y398397D01*
X513384Y398358D01*
X513462Y398315D01*
X513538Y398269D01*
X513613Y398219D01*
X513685Y398166D01*
X513754Y398110D01*
X513821Y398051D01*
X513886Y397990D01*
X513947Y397925D01*
X514006Y397858D01*
X514062Y397789D01*
X514115Y397717D01*
X514165Y397642D01*
X514211Y397566D01*
X514254Y397488D01*
X514293Y397408D01*
X514329Y397326D01*
X514362Y397243D01*
X514390Y397158D01*
X514415Y397073D01*
X514437Y396986D01*
X514454Y396898D01*
X514467Y396810D01*
X514477Y396721D01*
X514483Y396632D01*
X514485Y396543D01*
X514483Y396454D01*
X514477Y396365D01*
X514467Y396276D01*
X514454Y396188D01*
X514437Y396100D01*
X514415Y396013D01*
X514390Y395928D01*
X514362Y395843D01*
X514329Y395760D01*
X514293Y395678D01*
X514254Y395598D01*
X514211Y395520D01*
X514165Y395444D01*
X514115Y395369D01*
X514062Y395297D01*
X514006Y395228D01*
X513947Y395161D01*
X513886Y395096D01*
X513821Y395035D01*
X513754Y394976D01*
X513685Y394920D01*
X513613Y394867D01*
X513538Y394817D01*
X513462Y394771D01*
X513384Y394728D01*
X513304Y394689D01*
X513222Y394653D01*
X513139Y394620D01*
X513054Y394592D01*
X512969Y394567D01*
X512882Y394545D01*
X512794Y394528D01*
X512706Y394515D01*
X512617Y394505D01*
X512528Y394499D01*
X512439Y394497D01*
X510393Y394497D01*
X512848Y394497D02*
X514485Y391224D01*
X517657Y396953D02*
X519703Y398590D01*
X519703Y391224D01*
X517657Y391224D02*
X521749Y391224D01*
D17*
X448816Y66380D02*
X448816Y59776D01*
X448816Y66380D02*
X450650Y66380D01*
X450650Y66379D02*
X450735Y66377D01*
X450819Y66371D01*
X450903Y66361D01*
X450987Y66348D01*
X451070Y66330D01*
X451152Y66309D01*
X451233Y66284D01*
X451313Y66255D01*
X451391Y66223D01*
X451467Y66187D01*
X451542Y66147D01*
X451615Y66104D01*
X451686Y66058D01*
X451755Y66009D01*
X451822Y65956D01*
X451886Y65900D01*
X451947Y65842D01*
X452005Y65781D01*
X452061Y65717D01*
X452114Y65650D01*
X452163Y65581D01*
X452209Y65510D01*
X452252Y65437D01*
X452292Y65362D01*
X452328Y65286D01*
X452360Y65208D01*
X452389Y65128D01*
X452414Y65047D01*
X452435Y64965D01*
X452453Y64882D01*
X452466Y64798D01*
X452476Y64714D01*
X452482Y64630D01*
X452484Y64545D01*
X452485Y64545D02*
X452485Y61610D01*
X452484Y61610D02*
X452482Y61525D01*
X452476Y61441D01*
X452466Y61357D01*
X452453Y61273D01*
X452435Y61190D01*
X452414Y61108D01*
X452389Y61027D01*
X452360Y60947D01*
X452328Y60869D01*
X452292Y60793D01*
X452252Y60718D01*
X452209Y60645D01*
X452163Y60574D01*
X452114Y60505D01*
X452061Y60438D01*
X452005Y60374D01*
X451947Y60313D01*
X451886Y60255D01*
X451822Y60199D01*
X451755Y60146D01*
X451686Y60097D01*
X451615Y60051D01*
X451542Y60008D01*
X451467Y59968D01*
X451391Y59932D01*
X451313Y59900D01*
X451233Y59871D01*
X451152Y59846D01*
X451070Y59825D01*
X450987Y59807D01*
X450903Y59794D01*
X450819Y59784D01*
X450735Y59778D01*
X450650Y59776D01*
X448816Y59776D01*
X456643Y59776D02*
X459578Y59776D01*
X456643Y59776D02*
X456643Y66380D01*
X459578Y66380D01*
X458844Y63445D02*
X456643Y63445D01*
X463140Y63445D02*
X464974Y63445D01*
X464974Y63444D02*
X465059Y63442D01*
X465143Y63436D01*
X465227Y63426D01*
X465311Y63413D01*
X465394Y63395D01*
X465476Y63374D01*
X465557Y63349D01*
X465637Y63320D01*
X465715Y63288D01*
X465791Y63252D01*
X465866Y63212D01*
X465939Y63169D01*
X466010Y63123D01*
X466079Y63074D01*
X466146Y63021D01*
X466210Y62965D01*
X466271Y62907D01*
X466329Y62846D01*
X466385Y62782D01*
X466438Y62715D01*
X466487Y62646D01*
X466533Y62575D01*
X466576Y62502D01*
X466616Y62427D01*
X466652Y62351D01*
X466684Y62273D01*
X466713Y62193D01*
X466738Y62112D01*
X466759Y62030D01*
X466777Y61947D01*
X466790Y61863D01*
X466800Y61779D01*
X466806Y61695D01*
X466808Y61610D01*
X466806Y61525D01*
X466800Y61441D01*
X466790Y61357D01*
X466777Y61273D01*
X466759Y61190D01*
X466738Y61108D01*
X466713Y61027D01*
X466684Y60947D01*
X466652Y60869D01*
X466616Y60793D01*
X466576Y60718D01*
X466533Y60645D01*
X466487Y60574D01*
X466438Y60505D01*
X466385Y60438D01*
X466329Y60374D01*
X466271Y60313D01*
X466210Y60255D01*
X466146Y60199D01*
X466079Y60146D01*
X466010Y60097D01*
X465939Y60051D01*
X465866Y60008D01*
X465791Y59968D01*
X465715Y59932D01*
X465637Y59900D01*
X465557Y59871D01*
X465476Y59846D01*
X465394Y59825D01*
X465311Y59807D01*
X465227Y59794D01*
X465143Y59784D01*
X465059Y59778D01*
X464974Y59776D01*
X463140Y59776D01*
X463140Y66380D01*
X464974Y66380D01*
X465050Y66378D01*
X465125Y66372D01*
X465200Y66363D01*
X465274Y66349D01*
X465348Y66332D01*
X465420Y66310D01*
X465492Y66286D01*
X465562Y66257D01*
X465630Y66225D01*
X465697Y66190D01*
X465762Y66151D01*
X465825Y66108D01*
X465885Y66063D01*
X465943Y66015D01*
X465999Y65963D01*
X466051Y65909D01*
X466101Y65852D01*
X466148Y65793D01*
X466192Y65732D01*
X466233Y65668D01*
X466270Y65602D01*
X466304Y65534D01*
X466334Y65465D01*
X466361Y65394D01*
X466384Y65322D01*
X466403Y65249D01*
X466418Y65175D01*
X466430Y65100D01*
X466438Y65025D01*
X466442Y64950D01*
X466442Y64874D01*
X466438Y64799D01*
X466430Y64724D01*
X466418Y64649D01*
X466403Y64575D01*
X466384Y64502D01*
X466361Y64430D01*
X466334Y64359D01*
X466304Y64290D01*
X466270Y64222D01*
X466233Y64156D01*
X466192Y64092D01*
X466148Y64031D01*
X466101Y63972D01*
X466051Y63915D01*
X465999Y63861D01*
X465943Y63809D01*
X465885Y63761D01*
X465825Y63716D01*
X465762Y63673D01*
X465697Y63634D01*
X465630Y63599D01*
X465562Y63567D01*
X465492Y63538D01*
X465420Y63514D01*
X465348Y63492D01*
X465274Y63475D01*
X465200Y63461D01*
X465125Y63452D01*
X465050Y63446D01*
X464974Y63444D01*
X470274Y61610D02*
X470274Y66380D01*
X470274Y61610D02*
X470276Y61525D01*
X470282Y61441D01*
X470292Y61357D01*
X470305Y61273D01*
X470323Y61190D01*
X470344Y61108D01*
X470369Y61027D01*
X470398Y60947D01*
X470430Y60869D01*
X470466Y60793D01*
X470506Y60718D01*
X470549Y60645D01*
X470595Y60574D01*
X470644Y60505D01*
X470697Y60438D01*
X470753Y60374D01*
X470811Y60313D01*
X470872Y60255D01*
X470936Y60199D01*
X471003Y60146D01*
X471072Y60097D01*
X471143Y60051D01*
X471216Y60008D01*
X471291Y59968D01*
X471367Y59932D01*
X471445Y59900D01*
X471525Y59871D01*
X471606Y59846D01*
X471688Y59825D01*
X471771Y59807D01*
X471855Y59794D01*
X471939Y59784D01*
X472023Y59778D01*
X472108Y59776D01*
X472193Y59778D01*
X472277Y59784D01*
X472361Y59794D01*
X472445Y59807D01*
X472528Y59825D01*
X472610Y59846D01*
X472691Y59871D01*
X472771Y59900D01*
X472849Y59932D01*
X472925Y59968D01*
X473000Y60008D01*
X473073Y60051D01*
X473144Y60097D01*
X473213Y60146D01*
X473280Y60199D01*
X473344Y60255D01*
X473405Y60313D01*
X473463Y60374D01*
X473519Y60438D01*
X473572Y60505D01*
X473621Y60574D01*
X473667Y60645D01*
X473710Y60718D01*
X473750Y60793D01*
X473786Y60869D01*
X473818Y60947D01*
X473847Y61027D01*
X473872Y61108D01*
X473893Y61190D01*
X473911Y61273D01*
X473924Y61357D01*
X473934Y61441D01*
X473940Y61525D01*
X473942Y61610D01*
X473943Y61610D02*
X473943Y66380D01*
X480645Y63445D02*
X481746Y63445D01*
X481746Y59776D01*
X479544Y59776D01*
X479544Y59775D02*
X479470Y59777D01*
X479395Y59783D01*
X479322Y59792D01*
X479248Y59805D01*
X479176Y59822D01*
X479105Y59842D01*
X479034Y59866D01*
X478965Y59894D01*
X478898Y59925D01*
X478832Y59959D01*
X478767Y59997D01*
X478705Y60038D01*
X478645Y60082D01*
X478588Y60129D01*
X478533Y60179D01*
X478480Y60232D01*
X478430Y60287D01*
X478383Y60344D01*
X478339Y60404D01*
X478298Y60466D01*
X478260Y60531D01*
X478226Y60597D01*
X478195Y60664D01*
X478167Y60733D01*
X478143Y60804D01*
X478123Y60875D01*
X478106Y60947D01*
X478093Y61021D01*
X478084Y61094D01*
X478078Y61169D01*
X478076Y61243D01*
X478077Y61243D02*
X478077Y64912D01*
X478076Y64912D02*
X478078Y64986D01*
X478084Y65061D01*
X478093Y65134D01*
X478106Y65208D01*
X478123Y65280D01*
X478143Y65351D01*
X478167Y65422D01*
X478195Y65491D01*
X478226Y65558D01*
X478260Y65624D01*
X478298Y65689D01*
X478339Y65751D01*
X478383Y65811D01*
X478430Y65868D01*
X478480Y65923D01*
X478533Y65976D01*
X478588Y66026D01*
X478645Y66073D01*
X478705Y66117D01*
X478767Y66158D01*
X478832Y66196D01*
X478897Y66230D01*
X478965Y66261D01*
X479034Y66289D01*
X479105Y66313D01*
X479176Y66333D01*
X479248Y66350D01*
X479322Y66363D01*
X479395Y66372D01*
X479470Y66378D01*
X479544Y66380D01*
X481746Y66380D01*
D11*
X676673Y35170D02*
X676673Y20270D01*
X734923Y20270D01*
X764923Y20270D02*
X793673Y20270D01*
X793673Y158070D01*
X764923Y158070D01*
X734923Y158070D02*
X676673Y158070D01*
X676673Y147170D01*
D18*
X659923Y118170D03*
D19*
X659921Y118214D01*
X659915Y118257D01*
X659906Y118299D01*
X659893Y118341D01*
X659876Y118381D01*
X659856Y118420D01*
X659833Y118457D01*
X659806Y118491D01*
X659777Y118524D01*
X659744Y118553D01*
X659710Y118580D01*
X659673Y118603D01*
X659634Y118623D01*
X659594Y118640D01*
X659552Y118653D01*
X659510Y118662D01*
X659467Y118668D01*
X659423Y118670D01*
X659379Y118668D01*
X659336Y118662D01*
X659294Y118653D01*
X659252Y118640D01*
X659212Y118623D01*
X659173Y118603D01*
X659136Y118580D01*
X659102Y118553D01*
X659069Y118524D01*
X659040Y118491D01*
X659013Y118457D01*
X658990Y118420D01*
X658970Y118381D01*
X658953Y118341D01*
X658940Y118299D01*
X658931Y118257D01*
X658925Y118214D01*
X658923Y118170D01*
D18*
X658923Y118170D03*
D19*
X658925Y118126D01*
X658931Y118083D01*
X658940Y118041D01*
X658953Y117999D01*
X658970Y117959D01*
X658990Y117920D01*
X659013Y117883D01*
X659040Y117849D01*
X659069Y117816D01*
X659102Y117787D01*
X659136Y117760D01*
X659173Y117737D01*
X659212Y117717D01*
X659252Y117700D01*
X659294Y117687D01*
X659336Y117678D01*
X659379Y117672D01*
X659423Y117670D01*
X659467Y117672D01*
X659510Y117678D01*
X659552Y117687D01*
X659594Y117700D01*
X659634Y117717D01*
X659673Y117737D01*
X659710Y117760D01*
X659744Y117787D01*
X659777Y117816D01*
X659806Y117849D01*
X659833Y117883D01*
X659856Y117920D01*
X659876Y117959D01*
X659893Y117999D01*
X659906Y118041D01*
X659915Y118083D01*
X659921Y118126D01*
X659923Y118170D01*
D12*
X700295Y184794D02*
X700295Y190523D01*
X700295Y184794D02*
X700293Y184716D01*
X700288Y184638D01*
X700278Y184561D01*
X700265Y184484D01*
X700249Y184408D01*
X700229Y184333D01*
X700205Y184259D01*
X700178Y184186D01*
X700147Y184114D01*
X700113Y184044D01*
X700076Y183976D01*
X700035Y183909D01*
X699991Y183844D01*
X699945Y183782D01*
X699895Y183722D01*
X699843Y183664D01*
X699788Y183609D01*
X699730Y183557D01*
X699670Y183507D01*
X699608Y183461D01*
X699543Y183417D01*
X699477Y183376D01*
X699408Y183339D01*
X699338Y183305D01*
X699266Y183274D01*
X699193Y183247D01*
X699119Y183223D01*
X699044Y183203D01*
X698968Y183187D01*
X698891Y183174D01*
X698814Y183164D01*
X698736Y183159D01*
X698658Y183157D01*
X697839Y183157D01*
X705980Y190523D02*
X706065Y190521D01*
X706150Y190515D01*
X706234Y190505D01*
X706318Y190492D01*
X706402Y190474D01*
X706484Y190453D01*
X706565Y190428D01*
X706645Y190399D01*
X706724Y190366D01*
X706801Y190330D01*
X706876Y190290D01*
X706950Y190247D01*
X707021Y190201D01*
X707090Y190151D01*
X707157Y190098D01*
X707221Y190042D01*
X707282Y189983D01*
X707341Y189922D01*
X707397Y189858D01*
X707450Y189791D01*
X707500Y189722D01*
X707546Y189651D01*
X707589Y189577D01*
X707629Y189502D01*
X707665Y189425D01*
X707698Y189346D01*
X707727Y189266D01*
X707752Y189185D01*
X707773Y189103D01*
X707791Y189019D01*
X707804Y188935D01*
X707814Y188851D01*
X707820Y188766D01*
X707822Y188681D01*
X705980Y190523D02*
X705884Y190521D01*
X705788Y190515D01*
X705693Y190505D01*
X705598Y190492D01*
X705503Y190474D01*
X705410Y190453D01*
X705317Y190428D01*
X705226Y190399D01*
X705135Y190367D01*
X705046Y190331D01*
X704959Y190291D01*
X704873Y190248D01*
X704789Y190202D01*
X704707Y190152D01*
X704627Y190098D01*
X704550Y190042D01*
X704475Y189982D01*
X704402Y189920D01*
X704332Y189854D01*
X704264Y189786D01*
X704199Y189715D01*
X704138Y189642D01*
X704079Y189566D01*
X704023Y189487D01*
X703971Y189407D01*
X703922Y189324D01*
X703876Y189240D01*
X703834Y189154D01*
X703796Y189066D01*
X703761Y188977D01*
X703729Y188886D01*
X707208Y187249D02*
X707268Y187308D01*
X707325Y187370D01*
X707380Y187434D01*
X707431Y187501D01*
X707480Y187570D01*
X707526Y187640D01*
X707569Y187713D01*
X707609Y187787D01*
X707645Y187863D01*
X707678Y187941D01*
X707708Y188020D01*
X707735Y188100D01*
X707758Y188181D01*
X707777Y188263D01*
X707793Y188345D01*
X707806Y188429D01*
X707815Y188513D01*
X707820Y188597D01*
X707822Y188681D01*
X707208Y187249D02*
X703729Y183157D01*
X707821Y183157D01*
D20*
X607944Y203361D03*
D21*
X607144Y198961D02*
X607144Y182961D01*
X575144Y182961D02*
X575144Y198961D01*
D12*
X557620Y214002D02*
X557620Y221368D01*
X559667Y221368D01*
X559756Y221366D01*
X559845Y221360D01*
X559934Y221350D01*
X560022Y221337D01*
X560110Y221320D01*
X560197Y221298D01*
X560282Y221273D01*
X560367Y221245D01*
X560450Y221212D01*
X560532Y221176D01*
X560612Y221137D01*
X560690Y221094D01*
X560766Y221048D01*
X560841Y220998D01*
X560913Y220945D01*
X560982Y220889D01*
X561049Y220830D01*
X561114Y220769D01*
X561175Y220704D01*
X561234Y220637D01*
X561290Y220568D01*
X561343Y220496D01*
X561393Y220421D01*
X561439Y220345D01*
X561482Y220267D01*
X561521Y220187D01*
X561557Y220105D01*
X561590Y220022D01*
X561618Y219937D01*
X561643Y219852D01*
X561665Y219765D01*
X561682Y219677D01*
X561695Y219589D01*
X561705Y219500D01*
X561711Y219411D01*
X561713Y219322D01*
X561711Y219233D01*
X561705Y219144D01*
X561695Y219055D01*
X561682Y218967D01*
X561665Y218879D01*
X561643Y218792D01*
X561618Y218707D01*
X561590Y218622D01*
X561557Y218539D01*
X561521Y218457D01*
X561482Y218377D01*
X561439Y218299D01*
X561393Y218223D01*
X561343Y218148D01*
X561290Y218076D01*
X561234Y218007D01*
X561175Y217940D01*
X561114Y217875D01*
X561049Y217814D01*
X560982Y217755D01*
X560913Y217699D01*
X560841Y217646D01*
X560766Y217596D01*
X560690Y217550D01*
X560612Y217507D01*
X560532Y217468D01*
X560450Y217432D01*
X560367Y217399D01*
X560282Y217371D01*
X560197Y217346D01*
X560110Y217324D01*
X560022Y217307D01*
X559934Y217294D01*
X559845Y217284D01*
X559756Y217278D01*
X559667Y217276D01*
X557620Y217276D01*
X560076Y217276D02*
X561713Y214002D01*
X565128Y214002D02*
X565128Y221368D01*
X569221Y214002D01*
X569221Y221368D01*
X572687Y219732D02*
X574733Y221368D01*
X574733Y214002D01*
X572687Y214002D02*
X576780Y214002D01*
D14*
X594583Y332257D02*
X547847Y332257D01*
X598393Y297141D02*
X598409Y297028D01*
X598420Y296914D01*
X598427Y296800D01*
X598431Y296686D01*
X598430Y296571D01*
X598426Y296457D01*
X598418Y296343D01*
X598406Y296229D01*
X598390Y296116D01*
X598370Y296004D01*
X598346Y295892D01*
X598319Y295781D01*
X598287Y295671D01*
X598252Y295562D01*
X598214Y295454D01*
X598171Y295348D01*
X598125Y295244D01*
X598076Y295140D01*
X598023Y295039D01*
X597967Y294940D01*
X597907Y294842D01*
X597844Y294747D01*
X597777Y294654D01*
X597708Y294563D01*
X597636Y294475D01*
X597560Y294389D01*
X597482Y294305D01*
X597401Y294225D01*
X597317Y294147D01*
X597230Y294072D01*
X597141Y294001D01*
X597050Y293932D01*
X596956Y293866D01*
X596861Y293804D01*
X596763Y293745D01*
X596663Y293689D01*
X596561Y293637D01*
X596458Y293588D01*
X596353Y293543D01*
X596246Y293502D01*
X596138Y293464D01*
X596029Y293429D01*
X595919Y293399D01*
X595808Y293372D01*
X595696Y293350D01*
X595583Y293331D01*
X547847Y332257D02*
X547717Y332240D01*
X547588Y332219D01*
X547459Y332194D01*
X547331Y332166D01*
X547204Y332133D01*
X547078Y332097D01*
X546953Y332056D01*
X546830Y332012D01*
X546708Y331965D01*
X546587Y331913D01*
X546468Y331859D01*
X546351Y331800D01*
X546236Y331738D01*
X546122Y331673D01*
X546010Y331604D01*
X545901Y331531D01*
X545794Y331456D01*
X545689Y331377D01*
X545587Y331295D01*
X545487Y331210D01*
X545390Y331123D01*
X545295Y331032D01*
X545203Y330938D01*
X545114Y330842D01*
X545028Y330743D01*
X544946Y330642D01*
X544866Y330538D01*
X544789Y330431D01*
X544716Y330323D01*
X544646Y330212D01*
X544579Y330099D01*
X544516Y329984D01*
X544456Y329868D01*
X544400Y329749D01*
X544347Y329629D01*
X544298Y329508D01*
X544253Y329385D01*
X544211Y329260D01*
X544173Y329135D01*
X544140Y329008D01*
X544109Y328881D01*
X544083Y328752D01*
X544061Y328623D01*
X544042Y328493D01*
X544028Y328363D01*
X544017Y328232D01*
X544011Y328101D01*
X544008Y327970D01*
X544009Y327839D01*
X544015Y327708D01*
X544024Y327578D01*
X544037Y327447D01*
X594583Y332257D02*
X594705Y332255D01*
X594827Y332249D01*
X594949Y332239D01*
X595070Y332226D01*
X595191Y332208D01*
X595311Y332187D01*
X595431Y332162D01*
X595550Y332133D01*
X595667Y332100D01*
X595784Y332063D01*
X595899Y332023D01*
X596013Y331979D01*
X596125Y331931D01*
X596236Y331880D01*
X596345Y331825D01*
X596453Y331767D01*
X596558Y331705D01*
X596662Y331640D01*
X596763Y331572D01*
X596862Y331501D01*
X596959Y331426D01*
X597053Y331348D01*
X597145Y331268D01*
X597234Y331184D01*
X597320Y331098D01*
X597404Y331009D01*
X597484Y330917D01*
X597562Y330823D01*
X597637Y330726D01*
X597708Y330627D01*
X597776Y330526D01*
X597841Y330422D01*
X597903Y330317D01*
X597961Y330209D01*
X598016Y330100D01*
X598067Y329989D01*
X598115Y329877D01*
X598159Y329763D01*
X598199Y329648D01*
X598236Y329531D01*
X598269Y329414D01*
X598298Y329295D01*
X598323Y329175D01*
X598344Y329055D01*
X598362Y328934D01*
X598375Y328813D01*
X598385Y328691D01*
X598391Y328569D01*
X598393Y328447D01*
X547848Y293331D02*
X547734Y293316D01*
X547620Y293304D01*
X547506Y293297D01*
X547392Y293293D01*
X547278Y293294D01*
X547163Y293298D01*
X547049Y293306D01*
X546936Y293318D01*
X546823Y293334D01*
X546710Y293354D01*
X546598Y293378D01*
X546487Y293405D01*
X546377Y293436D01*
X546268Y293471D01*
X546161Y293510D01*
X546054Y293552D01*
X545950Y293598D01*
X545847Y293648D01*
X545745Y293701D01*
X545646Y293757D01*
X545548Y293817D01*
X545453Y293880D01*
X545360Y293946D01*
X545269Y294016D01*
X545181Y294088D01*
X545095Y294164D01*
X545012Y294242D01*
X544931Y294323D01*
X544853Y294407D01*
X544779Y294493D01*
X544707Y294582D01*
X544638Y294674D01*
X544572Y294767D01*
X544510Y294863D01*
X544451Y294961D01*
X544395Y295061D01*
X544343Y295163D01*
X544295Y295266D01*
X544249Y295371D01*
X544208Y295478D01*
X544170Y295586D01*
X544136Y295695D01*
X544106Y295805D01*
X544079Y295916D01*
X544056Y296028D01*
X544037Y296141D01*
X547847Y293331D02*
X595583Y293331D01*
X598393Y297141D02*
X598393Y328447D01*
X544545Y318890D02*
X544703Y318888D01*
X544862Y318882D01*
X545020Y318872D01*
X545177Y318858D01*
X545335Y318841D01*
X545491Y318819D01*
X545648Y318794D01*
X545803Y318764D01*
X545958Y318731D01*
X546112Y318694D01*
X546265Y318653D01*
X546417Y318608D01*
X546567Y318559D01*
X546717Y318507D01*
X546865Y318451D01*
X547012Y318391D01*
X547157Y318328D01*
X547300Y318261D01*
X547442Y318191D01*
X547582Y318117D01*
X547720Y318039D01*
X547856Y317958D01*
X547990Y317874D01*
X548122Y317787D01*
X548252Y317696D01*
X548379Y317602D01*
X548504Y317505D01*
X548627Y317404D01*
X548747Y317301D01*
X548864Y317195D01*
X548979Y317086D01*
X549091Y316974D01*
X549200Y316859D01*
X549306Y316742D01*
X549409Y316622D01*
X549510Y316499D01*
X549607Y316374D01*
X549701Y316247D01*
X549792Y316117D01*
X549879Y315985D01*
X549963Y315851D01*
X550044Y315715D01*
X550122Y315577D01*
X550196Y315437D01*
X550266Y315295D01*
X550333Y315152D01*
X550396Y315007D01*
X550456Y314860D01*
X550512Y314712D01*
X550564Y314562D01*
X550613Y314412D01*
X550658Y314260D01*
X550699Y314107D01*
X550736Y313953D01*
X550769Y313798D01*
X550799Y313643D01*
X550824Y313486D01*
X550846Y313330D01*
X550863Y313172D01*
X550877Y313015D01*
X550887Y312857D01*
X550893Y312698D01*
X550895Y312540D01*
X550893Y312382D01*
X550887Y312223D01*
X550877Y312065D01*
X550863Y311908D01*
X550846Y311750D01*
X550824Y311594D01*
X550799Y311437D01*
X550769Y311282D01*
X550736Y311127D01*
X550699Y310973D01*
X550658Y310820D01*
X550613Y310668D01*
X550564Y310518D01*
X550512Y310368D01*
X550456Y310220D01*
X550396Y310073D01*
X550333Y309928D01*
X550266Y309785D01*
X550196Y309643D01*
X550122Y309503D01*
X550044Y309365D01*
X549963Y309229D01*
X549879Y309095D01*
X549792Y308963D01*
X549701Y308833D01*
X549607Y308706D01*
X549510Y308581D01*
X549409Y308458D01*
X549306Y308338D01*
X549200Y308221D01*
X549091Y308106D01*
X548979Y307994D01*
X548864Y307885D01*
X548747Y307779D01*
X548627Y307676D01*
X548504Y307575D01*
X548379Y307478D01*
X548252Y307384D01*
X548122Y307293D01*
X547990Y307206D01*
X547856Y307122D01*
X547720Y307041D01*
X547582Y306963D01*
X547442Y306889D01*
X547300Y306819D01*
X547157Y306752D01*
X547012Y306689D01*
X546865Y306629D01*
X546717Y306573D01*
X546567Y306521D01*
X546417Y306472D01*
X546265Y306427D01*
X546112Y306386D01*
X545958Y306349D01*
X545803Y306316D01*
X545648Y306286D01*
X545491Y306261D01*
X545335Y306239D01*
X545177Y306222D01*
X545020Y306208D01*
X544862Y306198D01*
X544703Y306192D01*
X544545Y306190D01*
X544037Y318890D02*
X544037Y327320D01*
X544037Y306190D02*
X544037Y296141D01*
D17*
X574242Y352049D02*
X574242Y358653D01*
X573508Y352049D02*
X574976Y352049D01*
X574976Y358653D02*
X573508Y358653D01*
X579692Y352049D02*
X581159Y352049D01*
X579692Y352048D02*
X579618Y352050D01*
X579543Y352056D01*
X579470Y352065D01*
X579396Y352078D01*
X579324Y352095D01*
X579253Y352115D01*
X579182Y352139D01*
X579113Y352167D01*
X579046Y352198D01*
X578980Y352232D01*
X578915Y352270D01*
X578853Y352311D01*
X578793Y352355D01*
X578736Y352402D01*
X578681Y352452D01*
X578628Y352505D01*
X578578Y352560D01*
X578531Y352617D01*
X578487Y352677D01*
X578446Y352739D01*
X578408Y352804D01*
X578374Y352870D01*
X578343Y352937D01*
X578315Y353006D01*
X578291Y353077D01*
X578271Y353148D01*
X578254Y353220D01*
X578241Y353294D01*
X578232Y353367D01*
X578226Y353442D01*
X578224Y353516D01*
X578224Y357185D01*
X578226Y357259D01*
X578232Y357334D01*
X578241Y357407D01*
X578254Y357481D01*
X578271Y357553D01*
X578291Y357624D01*
X578315Y357695D01*
X578343Y357764D01*
X578374Y357831D01*
X578408Y357897D01*
X578446Y357962D01*
X578487Y358024D01*
X578531Y358084D01*
X578578Y358141D01*
X578628Y358196D01*
X578681Y358249D01*
X578736Y358299D01*
X578793Y358346D01*
X578853Y358390D01*
X578915Y358431D01*
X578980Y358469D01*
X579045Y358503D01*
X579113Y358534D01*
X579182Y358562D01*
X579253Y358586D01*
X579324Y358606D01*
X579396Y358623D01*
X579470Y358636D01*
X579543Y358645D01*
X579618Y358651D01*
X579692Y358653D01*
X581159Y358653D01*
X584356Y352049D02*
X586190Y352049D01*
X586275Y352051D01*
X586359Y352057D01*
X586443Y352067D01*
X586527Y352080D01*
X586610Y352098D01*
X586692Y352119D01*
X586773Y352144D01*
X586853Y352173D01*
X586931Y352205D01*
X587007Y352241D01*
X587082Y352281D01*
X587155Y352324D01*
X587226Y352370D01*
X587295Y352419D01*
X587362Y352472D01*
X587426Y352528D01*
X587487Y352586D01*
X587545Y352647D01*
X587601Y352711D01*
X587654Y352778D01*
X587703Y352847D01*
X587749Y352918D01*
X587792Y352991D01*
X587832Y353066D01*
X587868Y353142D01*
X587900Y353220D01*
X587929Y353300D01*
X587954Y353381D01*
X587975Y353463D01*
X587993Y353546D01*
X588006Y353630D01*
X588016Y353714D01*
X588022Y353798D01*
X588024Y353883D01*
X588022Y353968D01*
X588016Y354052D01*
X588006Y354136D01*
X587993Y354220D01*
X587975Y354303D01*
X587954Y354385D01*
X587929Y354466D01*
X587900Y354546D01*
X587868Y354624D01*
X587832Y354700D01*
X587792Y354775D01*
X587749Y354848D01*
X587703Y354919D01*
X587654Y354988D01*
X587601Y355055D01*
X587545Y355119D01*
X587487Y355180D01*
X587426Y355238D01*
X587362Y355294D01*
X587295Y355347D01*
X587226Y355396D01*
X587155Y355442D01*
X587082Y355485D01*
X587007Y355525D01*
X586931Y355561D01*
X586853Y355593D01*
X586773Y355622D01*
X586692Y355647D01*
X586610Y355668D01*
X586527Y355686D01*
X586443Y355699D01*
X586359Y355709D01*
X586275Y355715D01*
X586190Y355717D01*
X586557Y358653D02*
X584356Y358653D01*
X586557Y358653D02*
X586633Y358651D01*
X586708Y358645D01*
X586783Y358636D01*
X586857Y358622D01*
X586931Y358605D01*
X587003Y358583D01*
X587075Y358559D01*
X587145Y358530D01*
X587213Y358498D01*
X587280Y358463D01*
X587345Y358424D01*
X587408Y358381D01*
X587468Y358336D01*
X587526Y358288D01*
X587582Y358236D01*
X587634Y358182D01*
X587684Y358125D01*
X587731Y358066D01*
X587775Y358005D01*
X587816Y357941D01*
X587853Y357875D01*
X587887Y357807D01*
X587917Y357738D01*
X587944Y357667D01*
X587967Y357595D01*
X587986Y357522D01*
X588001Y357448D01*
X588013Y357373D01*
X588021Y357298D01*
X588025Y357223D01*
X588025Y357147D01*
X588021Y357072D01*
X588013Y356997D01*
X588001Y356922D01*
X587986Y356848D01*
X587967Y356775D01*
X587944Y356703D01*
X587917Y356632D01*
X587887Y356563D01*
X587853Y356495D01*
X587816Y356429D01*
X587775Y356365D01*
X587731Y356304D01*
X587684Y356245D01*
X587634Y356188D01*
X587582Y356134D01*
X587526Y356082D01*
X587468Y356034D01*
X587408Y355989D01*
X587345Y355946D01*
X587280Y355907D01*
X587213Y355872D01*
X587145Y355840D01*
X587075Y355811D01*
X587003Y355787D01*
X586931Y355765D01*
X586857Y355748D01*
X586783Y355734D01*
X586708Y355725D01*
X586633Y355719D01*
X586557Y355717D01*
X586557Y355718D02*
X585090Y355718D01*
X496683Y369601D02*
X483983Y369601D01*
X496683Y369601D02*
X503033Y363251D01*
X503033Y350551D01*
X496683Y344201D01*
X477633Y350551D02*
X477633Y363251D01*
X483983Y369601D01*
X477633Y350551D02*
X483983Y344201D01*
X496683Y344201D01*
D12*
X478752Y374504D02*
X478752Y381870D01*
X482844Y374504D01*
X482844Y381870D01*
X486606Y381870D02*
X486606Y374504D01*
X486606Y381870D02*
X488652Y381870D01*
X488741Y381868D01*
X488830Y381862D01*
X488919Y381852D01*
X489007Y381839D01*
X489095Y381822D01*
X489182Y381800D01*
X489267Y381775D01*
X489352Y381747D01*
X489435Y381714D01*
X489517Y381678D01*
X489597Y381639D01*
X489675Y381596D01*
X489751Y381550D01*
X489826Y381500D01*
X489898Y381447D01*
X489967Y381391D01*
X490034Y381332D01*
X490099Y381271D01*
X490160Y381206D01*
X490219Y381139D01*
X490275Y381070D01*
X490328Y380998D01*
X490378Y380923D01*
X490424Y380847D01*
X490467Y380769D01*
X490506Y380689D01*
X490542Y380607D01*
X490575Y380524D01*
X490603Y380439D01*
X490628Y380354D01*
X490650Y380267D01*
X490667Y380179D01*
X490680Y380091D01*
X490690Y380002D01*
X490696Y379913D01*
X490698Y379824D01*
X490696Y379735D01*
X490690Y379646D01*
X490680Y379557D01*
X490667Y379469D01*
X490650Y379381D01*
X490628Y379294D01*
X490603Y379209D01*
X490575Y379124D01*
X490542Y379041D01*
X490506Y378959D01*
X490467Y378879D01*
X490424Y378801D01*
X490378Y378725D01*
X490328Y378650D01*
X490275Y378578D01*
X490219Y378509D01*
X490160Y378442D01*
X490099Y378377D01*
X490034Y378316D01*
X489967Y378257D01*
X489898Y378201D01*
X489826Y378148D01*
X489751Y378098D01*
X489675Y378052D01*
X489597Y378009D01*
X489517Y377970D01*
X489435Y377934D01*
X489352Y377901D01*
X489267Y377873D01*
X489182Y377848D01*
X489095Y377826D01*
X489007Y377809D01*
X488919Y377796D01*
X488830Y377786D01*
X488741Y377780D01*
X488652Y377778D01*
X486606Y377778D01*
X489062Y377778D02*
X490699Y374504D01*
X496082Y374504D02*
X496160Y374506D01*
X496238Y374511D01*
X496315Y374521D01*
X496392Y374534D01*
X496468Y374550D01*
X496543Y374570D01*
X496617Y374594D01*
X496690Y374621D01*
X496762Y374652D01*
X496832Y374686D01*
X496901Y374723D01*
X496967Y374764D01*
X497032Y374808D01*
X497094Y374854D01*
X497154Y374904D01*
X497212Y374956D01*
X497267Y375011D01*
X497319Y375069D01*
X497369Y375129D01*
X497415Y375191D01*
X497459Y375256D01*
X497500Y375323D01*
X497537Y375391D01*
X497571Y375461D01*
X497602Y375533D01*
X497629Y375606D01*
X497653Y375680D01*
X497673Y375755D01*
X497689Y375831D01*
X497702Y375908D01*
X497712Y375985D01*
X497717Y376063D01*
X497719Y376141D01*
X496082Y374504D02*
X495968Y374506D01*
X495855Y374511D01*
X495741Y374521D01*
X495628Y374534D01*
X495516Y374551D01*
X495404Y374571D01*
X495293Y374595D01*
X495182Y374623D01*
X495073Y374654D01*
X494965Y374689D01*
X494858Y374728D01*
X494752Y374770D01*
X494648Y374815D01*
X494545Y374864D01*
X494444Y374917D01*
X494345Y374972D01*
X494247Y375031D01*
X494152Y375093D01*
X494059Y375158D01*
X493967Y375226D01*
X493879Y375297D01*
X493792Y375371D01*
X493708Y375448D01*
X493627Y375527D01*
X493831Y380234D02*
X493833Y380312D01*
X493838Y380390D01*
X493848Y380467D01*
X493861Y380544D01*
X493877Y380620D01*
X493897Y380695D01*
X493921Y380769D01*
X493948Y380842D01*
X493979Y380914D01*
X494013Y380984D01*
X494050Y381053D01*
X494091Y381119D01*
X494135Y381184D01*
X494181Y381246D01*
X494231Y381306D01*
X494283Y381364D01*
X494338Y381419D01*
X494396Y381471D01*
X494456Y381521D01*
X494518Y381567D01*
X494583Y381611D01*
X494650Y381652D01*
X494718Y381689D01*
X494788Y381723D01*
X494860Y381754D01*
X494933Y381781D01*
X495007Y381805D01*
X495082Y381825D01*
X495158Y381841D01*
X495235Y381854D01*
X495312Y381864D01*
X495390Y381869D01*
X495468Y381871D01*
X495468Y381870D02*
X495578Y381868D01*
X495687Y381862D01*
X495797Y381852D01*
X495905Y381839D01*
X496014Y381821D01*
X496121Y381800D01*
X496228Y381774D01*
X496334Y381745D01*
X496439Y381713D01*
X496542Y381676D01*
X496644Y381636D01*
X496745Y381592D01*
X496844Y381544D01*
X496941Y381494D01*
X497036Y381439D01*
X497129Y381381D01*
X497220Y381320D01*
X497309Y381256D01*
X494650Y378801D02*
X494583Y378843D01*
X494518Y378887D01*
X494456Y378935D01*
X494396Y378985D01*
X494338Y379038D01*
X494283Y379094D01*
X494231Y379153D01*
X494181Y379213D01*
X494134Y379277D01*
X494091Y379342D01*
X494050Y379409D01*
X494013Y379478D01*
X493979Y379549D01*
X493948Y379621D01*
X493921Y379695D01*
X493897Y379769D01*
X493877Y379845D01*
X493861Y379922D01*
X493848Y379999D01*
X493838Y380077D01*
X493833Y380156D01*
X493831Y380234D01*
X496900Y377573D02*
X496966Y377531D01*
X497031Y377487D01*
X497093Y377440D01*
X497153Y377389D01*
X497211Y377336D01*
X497266Y377280D01*
X497319Y377222D01*
X497368Y377161D01*
X497415Y377098D01*
X497458Y377033D01*
X497499Y376966D01*
X497536Y376897D01*
X497570Y376826D01*
X497601Y376754D01*
X497628Y376680D01*
X497652Y376605D01*
X497672Y376530D01*
X497688Y376453D01*
X497701Y376376D01*
X497711Y376298D01*
X497716Y376219D01*
X497718Y376141D01*
X496900Y377574D02*
X494650Y378801D01*
X502256Y381870D02*
X502256Y374504D01*
X500210Y381870D02*
X504302Y381870D01*
D22*
X493190Y313493D02*
X493190Y310897D01*
X493188Y310798D01*
X493182Y310698D01*
X493173Y310599D01*
X493160Y310501D01*
X493143Y310403D01*
X493122Y310305D01*
X493097Y310209D01*
X493069Y310114D01*
X493037Y310020D01*
X493002Y309927D01*
X492963Y309835D01*
X492920Y309745D01*
X492875Y309657D01*
X492825Y309570D01*
X492773Y309486D01*
X492717Y309403D01*
X492659Y309323D01*
X492597Y309245D01*
X492532Y309170D01*
X492464Y309097D01*
X492394Y309027D01*
X492321Y308959D01*
X492246Y308894D01*
X492168Y308832D01*
X492088Y308774D01*
X492005Y308718D01*
X491921Y308666D01*
X491834Y308616D01*
X491746Y308571D01*
X491656Y308528D01*
X491564Y308489D01*
X491471Y308454D01*
X491377Y308422D01*
X491282Y308394D01*
X491186Y308369D01*
X491088Y308348D01*
X490990Y308331D01*
X490892Y308318D01*
X490793Y308309D01*
X490693Y308303D01*
X490594Y308301D01*
X490594Y308300D02*
X484103Y308300D01*
X484004Y308302D01*
X483904Y308308D01*
X483805Y308317D01*
X483707Y308330D01*
X483609Y308348D01*
X483511Y308368D01*
X483415Y308393D01*
X483319Y308421D01*
X483225Y308453D01*
X483132Y308488D01*
X483041Y308527D01*
X482951Y308570D01*
X482862Y308615D01*
X482776Y308665D01*
X482691Y308717D01*
X482609Y308773D01*
X482529Y308832D01*
X482451Y308893D01*
X482375Y308958D01*
X482302Y309026D01*
X482232Y309096D01*
X482164Y309169D01*
X482099Y309245D01*
X482038Y309323D01*
X481979Y309403D01*
X481923Y309485D01*
X481871Y309570D01*
X481822Y309656D01*
X481776Y309745D01*
X481733Y309835D01*
X481694Y309926D01*
X481659Y310019D01*
X481627Y310113D01*
X481599Y310209D01*
X481574Y310305D01*
X481554Y310403D01*
X481536Y310501D01*
X481523Y310599D01*
X481514Y310698D01*
X481508Y310797D01*
X481506Y310897D01*
X481506Y313493D01*
X481506Y320455D02*
X490594Y317859D01*
X490594Y324350D01*
X487998Y322402D02*
X493190Y322402D01*
D12*
X239594Y119789D02*
X238436Y120947D01*
X238436Y120946D02*
X238383Y121003D01*
X238332Y121062D01*
X238284Y121123D01*
X238238Y121186D01*
X238196Y121252D01*
X238157Y121319D01*
X238122Y121389D01*
X238089Y121460D01*
X238060Y121532D01*
X238035Y121606D01*
X238013Y121680D01*
X237994Y121756D01*
X237980Y121833D01*
X237969Y121910D01*
X237961Y121987D01*
X237957Y122065D01*
X237957Y122143D01*
X237961Y122221D01*
X237969Y122298D01*
X237980Y122375D01*
X237994Y122452D01*
X238013Y122528D01*
X238035Y122602D01*
X238060Y122676D01*
X238089Y122748D01*
X238122Y122819D01*
X238157Y122889D01*
X238196Y122956D01*
X238238Y123022D01*
X238284Y123085D01*
X238332Y123146D01*
X238383Y123205D01*
X238436Y123262D01*
X238436Y123261D02*
X241330Y126155D01*
X241329Y126156D02*
X241388Y126211D01*
X241448Y126263D01*
X241512Y126313D01*
X241578Y126359D01*
X241645Y126402D01*
X241715Y126442D01*
X241787Y126478D01*
X241861Y126510D01*
X241935Y126539D01*
X242012Y126565D01*
X242089Y126586D01*
X242168Y126604D01*
X242247Y126617D01*
X242327Y126627D01*
X242407Y126633D01*
X242487Y126635D01*
X242567Y126633D01*
X242647Y126627D01*
X242727Y126617D01*
X242806Y126604D01*
X242885Y126586D01*
X242962Y126565D01*
X243038Y126539D01*
X243113Y126510D01*
X243187Y126478D01*
X243259Y126442D01*
X243329Y126402D01*
X243396Y126359D01*
X243462Y126313D01*
X243525Y126263D01*
X243586Y126211D01*
X243645Y126156D01*
X243645Y126155D02*
X244802Y124998D01*
X241606Y117777D02*
X243342Y116041D01*
X243341Y116040D02*
X243398Y115987D01*
X243457Y115936D01*
X243518Y115888D01*
X243581Y115842D01*
X243647Y115800D01*
X243714Y115761D01*
X243784Y115726D01*
X243855Y115693D01*
X243927Y115664D01*
X244001Y115639D01*
X244075Y115617D01*
X244151Y115598D01*
X244228Y115584D01*
X244305Y115573D01*
X244382Y115565D01*
X244460Y115561D01*
X244538Y115561D01*
X244616Y115565D01*
X244693Y115573D01*
X244770Y115584D01*
X244847Y115598D01*
X244923Y115617D01*
X244997Y115639D01*
X245071Y115664D01*
X245143Y115693D01*
X245214Y115726D01*
X245284Y115761D01*
X245351Y115800D01*
X245417Y115842D01*
X245480Y115888D01*
X245541Y115936D01*
X245600Y115987D01*
X245657Y116040D01*
X245657Y116041D02*
X246235Y116620D01*
X246236Y116619D02*
X246291Y116678D01*
X246343Y116739D01*
X246393Y116802D01*
X246439Y116868D01*
X246482Y116935D01*
X246522Y117005D01*
X246558Y117077D01*
X246590Y117151D01*
X246619Y117226D01*
X246645Y117302D01*
X246666Y117379D01*
X246684Y117458D01*
X246697Y117537D01*
X246707Y117617D01*
X246713Y117697D01*
X246715Y117777D01*
X246713Y117857D01*
X246707Y117937D01*
X246697Y118017D01*
X246684Y118096D01*
X246666Y118175D01*
X246645Y118252D01*
X246619Y118328D01*
X246590Y118403D01*
X246558Y118477D01*
X246522Y118549D01*
X246482Y118619D01*
X246439Y118686D01*
X246393Y118752D01*
X246343Y118815D01*
X246291Y118876D01*
X246236Y118935D01*
X246235Y118935D02*
X244499Y120671D01*
X246814Y122986D01*
X249708Y120092D01*
D22*
X442144Y301400D02*
X443980Y299564D01*
X442144Y301400D02*
X442075Y301472D01*
X442009Y301546D01*
X441946Y301623D01*
X441886Y301702D01*
X441828Y301783D01*
X441774Y301867D01*
X441724Y301952D01*
X441676Y302040D01*
X441632Y302129D01*
X441591Y302220D01*
X441554Y302312D01*
X441520Y302405D01*
X441490Y302500D01*
X441464Y302596D01*
X441441Y302693D01*
X441422Y302791D01*
X441407Y302889D01*
X441396Y302988D01*
X441388Y303087D01*
X441384Y303186D01*
X441384Y303286D01*
X441388Y303385D01*
X441396Y303484D01*
X441407Y303583D01*
X441422Y303681D01*
X441441Y303779D01*
X441464Y303876D01*
X441490Y303972D01*
X441520Y304067D01*
X441554Y304160D01*
X441591Y304252D01*
X441632Y304343D01*
X441676Y304432D01*
X441724Y304520D01*
X441774Y304605D01*
X441828Y304689D01*
X441886Y304770D01*
X441946Y304849D01*
X442009Y304926D01*
X442075Y305000D01*
X442144Y305072D01*
X446734Y309662D01*
X446805Y309731D01*
X446880Y309798D01*
X446956Y309861D01*
X447035Y309921D01*
X447117Y309978D01*
X447200Y310032D01*
X447286Y310083D01*
X447373Y310131D01*
X447462Y310175D01*
X447553Y310216D01*
X447645Y310253D01*
X447739Y310287D01*
X447834Y310317D01*
X447930Y310343D01*
X448027Y310366D01*
X448124Y310384D01*
X448223Y310400D01*
X448322Y310411D01*
X448421Y310419D01*
X448520Y310423D01*
X448620Y310423D01*
X448719Y310419D01*
X448818Y310411D01*
X448917Y310400D01*
X449015Y310385D01*
X449113Y310366D01*
X449210Y310343D01*
X449306Y310317D01*
X449401Y310287D01*
X449494Y310253D01*
X449587Y310216D01*
X449678Y310175D01*
X449767Y310131D01*
X449854Y310083D01*
X449940Y310033D01*
X450023Y309978D01*
X450104Y309921D01*
X450184Y309861D01*
X450260Y309798D01*
X450335Y309731D01*
X450406Y309662D01*
X452242Y307826D01*
X451657Y301068D02*
X454411Y298314D01*
X454480Y298242D01*
X454546Y298168D01*
X454609Y298091D01*
X454669Y298012D01*
X454727Y297931D01*
X454781Y297847D01*
X454831Y297762D01*
X454879Y297674D01*
X454923Y297585D01*
X454964Y297494D01*
X455001Y297402D01*
X455035Y297309D01*
X455065Y297214D01*
X455091Y297118D01*
X455114Y297021D01*
X455133Y296923D01*
X455148Y296825D01*
X455159Y296726D01*
X455167Y296627D01*
X455171Y296528D01*
X455171Y296428D01*
X455167Y296329D01*
X455159Y296230D01*
X455148Y296131D01*
X455133Y296033D01*
X455114Y295935D01*
X455091Y295838D01*
X455065Y295742D01*
X455035Y295647D01*
X455001Y295554D01*
X454964Y295462D01*
X454923Y295371D01*
X454879Y295282D01*
X454831Y295194D01*
X454781Y295109D01*
X454727Y295025D01*
X454669Y294944D01*
X454609Y294865D01*
X454546Y294788D01*
X454480Y294714D01*
X454411Y294642D01*
X453952Y294183D01*
X453871Y294104D01*
X453787Y294028D01*
X453700Y293955D01*
X453610Y293886D01*
X453519Y293819D01*
X453425Y293756D01*
X453329Y293696D01*
X453231Y293639D01*
X453131Y293586D01*
X453029Y293536D01*
X452925Y293490D01*
X452820Y293448D01*
X452714Y293409D01*
X452606Y293374D01*
X452497Y293343D01*
X452387Y293315D01*
X452276Y293292D01*
X452165Y293272D01*
X452053Y293256D01*
X451940Y293244D01*
X451827Y293236D01*
X451714Y293232D01*
X451600Y293232D01*
X451487Y293236D01*
X451374Y293244D01*
X451261Y293256D01*
X451149Y293272D01*
X451038Y293292D01*
X450927Y293315D01*
X450817Y293343D01*
X450708Y293374D01*
X450600Y293409D01*
X450494Y293448D01*
X450389Y293490D01*
X450285Y293536D01*
X450183Y293586D01*
X450083Y293639D01*
X449985Y293696D01*
X449889Y293756D01*
X449795Y293819D01*
X449704Y293886D01*
X449614Y293955D01*
X449527Y294028D01*
X449443Y294104D01*
X449362Y294183D01*
X449283Y294264D01*
X449207Y294348D01*
X449134Y294435D01*
X449065Y294524D01*
X448998Y294616D01*
X448935Y294710D01*
X448875Y294806D01*
X448818Y294904D01*
X448765Y295004D01*
X448715Y295106D01*
X448669Y295210D01*
X448627Y295315D01*
X448588Y295421D01*
X448553Y295529D01*
X448522Y295638D01*
X448494Y295748D01*
X448471Y295859D01*
X448451Y295970D01*
X448435Y296082D01*
X448423Y296195D01*
X448415Y296308D01*
X448411Y296421D01*
X448411Y296535D01*
X448415Y296648D01*
X448423Y296761D01*
X448435Y296874D01*
X448451Y296986D01*
X448471Y297097D01*
X448494Y297208D01*
X448522Y297318D01*
X448553Y297427D01*
X448588Y297535D01*
X448627Y297641D01*
X448669Y297746D01*
X448715Y297850D01*
X448765Y297952D01*
X448818Y298052D01*
X448875Y298150D01*
X448935Y298246D01*
X448998Y298340D01*
X449065Y298431D01*
X449134Y298521D01*
X449207Y298608D01*
X449283Y298692D01*
X449362Y298773D01*
X451657Y301068D01*
X451760Y301168D01*
X451865Y301265D01*
X451973Y301359D01*
X452083Y301450D01*
X452196Y301538D01*
X452311Y301622D01*
X452429Y301704D01*
X452549Y301782D01*
X452671Y301857D01*
X452795Y301929D01*
X452921Y301997D01*
X453048Y302061D01*
X453178Y302122D01*
X453309Y302180D01*
X453441Y302234D01*
X453575Y302284D01*
X453711Y302330D01*
X453847Y302373D01*
X453985Y302412D01*
X454124Y302447D01*
X454263Y302478D01*
X454404Y302506D01*
X454545Y302529D01*
X454687Y302549D01*
X454829Y302565D01*
X454971Y302577D01*
X455114Y302585D01*
X455257Y302589D01*
X455401Y302589D01*
X455544Y302585D01*
X455686Y302577D01*
X455829Y302565D01*
X455971Y302549D01*
X456113Y302529D01*
X456254Y302506D01*
X456395Y302478D01*
X456534Y302447D01*
X456673Y302412D01*
X456811Y302373D01*
X456947Y302330D01*
X457083Y302284D01*
X457217Y302234D01*
X457349Y302180D01*
X457480Y302122D01*
X457610Y302061D01*
X457737Y301997D01*
X457863Y301929D01*
X457987Y301857D01*
X458109Y301782D01*
X458229Y301704D01*
X458346Y301622D01*
X458462Y301538D01*
X458575Y301450D01*
X458685Y301359D01*
X458793Y301265D01*
X458898Y301168D01*
X459001Y301068D01*
X240965Y271970D02*
X239129Y273806D01*
X239060Y273878D01*
X238994Y273952D01*
X238931Y274029D01*
X238871Y274108D01*
X238813Y274189D01*
X238759Y274273D01*
X238709Y274358D01*
X238661Y274446D01*
X238617Y274535D01*
X238576Y274626D01*
X238539Y274718D01*
X238505Y274811D01*
X238475Y274906D01*
X238449Y275002D01*
X238426Y275099D01*
X238407Y275197D01*
X238392Y275295D01*
X238381Y275394D01*
X238373Y275493D01*
X238369Y275592D01*
X238369Y275692D01*
X238373Y275791D01*
X238381Y275890D01*
X238392Y275989D01*
X238407Y276087D01*
X238426Y276185D01*
X238449Y276282D01*
X238475Y276378D01*
X238505Y276473D01*
X238539Y276566D01*
X238576Y276658D01*
X238617Y276749D01*
X238661Y276838D01*
X238709Y276926D01*
X238759Y277011D01*
X238813Y277095D01*
X238871Y277176D01*
X238931Y277255D01*
X238994Y277332D01*
X239060Y277406D01*
X239129Y277478D01*
X243719Y282068D01*
X243790Y282137D01*
X243865Y282204D01*
X243941Y282267D01*
X244020Y282327D01*
X244102Y282384D01*
X244185Y282438D01*
X244271Y282489D01*
X244358Y282537D01*
X244447Y282581D01*
X244538Y282622D01*
X244630Y282659D01*
X244724Y282693D01*
X244819Y282723D01*
X244915Y282749D01*
X245012Y282772D01*
X245109Y282790D01*
X245208Y282806D01*
X245307Y282817D01*
X245406Y282825D01*
X245505Y282829D01*
X245605Y282829D01*
X245704Y282825D01*
X245803Y282817D01*
X245902Y282806D01*
X246000Y282791D01*
X246098Y282772D01*
X246195Y282749D01*
X246291Y282723D01*
X246386Y282693D01*
X246479Y282659D01*
X246572Y282622D01*
X246663Y282581D01*
X246752Y282537D01*
X246839Y282489D01*
X246925Y282439D01*
X247008Y282384D01*
X247089Y282327D01*
X247169Y282267D01*
X247245Y282204D01*
X247320Y282137D01*
X247391Y282068D01*
X249227Y280232D01*
X252314Y277146D02*
X251396Y276228D01*
X252314Y277146D02*
X256903Y272556D01*
X246347Y266589D01*
X434753Y108867D02*
X437349Y108867D01*
X434753Y108867D02*
X434654Y108869D01*
X434554Y108875D01*
X434455Y108884D01*
X434357Y108897D01*
X434259Y108914D01*
X434161Y108935D01*
X434065Y108960D01*
X433970Y108988D01*
X433876Y109020D01*
X433783Y109055D01*
X433691Y109094D01*
X433601Y109137D01*
X433513Y109182D01*
X433426Y109232D01*
X433342Y109284D01*
X433259Y109340D01*
X433179Y109398D01*
X433101Y109460D01*
X433026Y109525D01*
X432953Y109593D01*
X432883Y109663D01*
X432815Y109736D01*
X432750Y109811D01*
X432688Y109889D01*
X432630Y109969D01*
X432574Y110052D01*
X432522Y110136D01*
X432472Y110223D01*
X432427Y110311D01*
X432384Y110401D01*
X432345Y110493D01*
X432310Y110586D01*
X432278Y110680D01*
X432250Y110775D01*
X432225Y110871D01*
X432204Y110969D01*
X432187Y111067D01*
X432174Y111165D01*
X432165Y111264D01*
X432159Y111364D01*
X432157Y111463D01*
X432156Y111463D02*
X432156Y117954D01*
X432157Y117954D02*
X432159Y118053D01*
X432165Y118153D01*
X432174Y118252D01*
X432187Y118350D01*
X432204Y118448D01*
X432225Y118546D01*
X432250Y118642D01*
X432278Y118737D01*
X432310Y118831D01*
X432345Y118924D01*
X432384Y119016D01*
X432427Y119106D01*
X432472Y119194D01*
X432522Y119281D01*
X432574Y119365D01*
X432630Y119448D01*
X432688Y119528D01*
X432750Y119606D01*
X432815Y119681D01*
X432883Y119754D01*
X432953Y119824D01*
X433026Y119892D01*
X433101Y119957D01*
X433179Y120019D01*
X433259Y120077D01*
X433342Y120133D01*
X433426Y120185D01*
X433513Y120235D01*
X433601Y120280D01*
X433691Y120323D01*
X433783Y120362D01*
X433875Y120397D01*
X433970Y120429D01*
X434065Y120457D01*
X434161Y120482D01*
X434259Y120503D01*
X434357Y120520D01*
X434455Y120533D01*
X434554Y120542D01*
X434654Y120548D01*
X434753Y120550D01*
X434753Y120551D02*
X437349Y120551D01*
X441714Y112112D02*
X441716Y112225D01*
X441722Y112338D01*
X441732Y112451D01*
X441746Y112564D01*
X441763Y112676D01*
X441785Y112787D01*
X441810Y112897D01*
X441840Y113007D01*
X441873Y113115D01*
X441910Y113222D01*
X441950Y113328D01*
X441995Y113432D01*
X442043Y113535D01*
X442094Y113636D01*
X442149Y113735D01*
X442207Y113832D01*
X442269Y113927D01*
X442334Y114020D01*
X442402Y114110D01*
X442473Y114198D01*
X442548Y114284D01*
X442625Y114367D01*
X442705Y114447D01*
X442788Y114524D01*
X442874Y114599D01*
X442962Y114670D01*
X443052Y114738D01*
X443145Y114803D01*
X443240Y114865D01*
X443337Y114923D01*
X443436Y114978D01*
X443537Y115029D01*
X443640Y115077D01*
X443744Y115122D01*
X443850Y115162D01*
X443957Y115199D01*
X444065Y115232D01*
X444175Y115262D01*
X444285Y115287D01*
X444396Y115309D01*
X444508Y115326D01*
X444621Y115340D01*
X444734Y115350D01*
X444847Y115356D01*
X444960Y115358D01*
X445073Y115356D01*
X445186Y115350D01*
X445299Y115340D01*
X445412Y115326D01*
X445524Y115309D01*
X445635Y115287D01*
X445745Y115262D01*
X445855Y115232D01*
X445963Y115199D01*
X446070Y115162D01*
X446176Y115122D01*
X446280Y115077D01*
X446383Y115029D01*
X446484Y114978D01*
X446583Y114923D01*
X446680Y114865D01*
X446775Y114803D01*
X446868Y114738D01*
X446958Y114670D01*
X447046Y114599D01*
X447132Y114524D01*
X447215Y114447D01*
X447295Y114367D01*
X447372Y114284D01*
X447447Y114198D01*
X447518Y114110D01*
X447586Y114020D01*
X447651Y113927D01*
X447713Y113832D01*
X447771Y113735D01*
X447826Y113636D01*
X447877Y113535D01*
X447925Y113432D01*
X447970Y113328D01*
X448010Y113222D01*
X448047Y113115D01*
X448080Y113007D01*
X448110Y112897D01*
X448135Y112787D01*
X448157Y112676D01*
X448174Y112564D01*
X448188Y112451D01*
X448198Y112338D01*
X448204Y112225D01*
X448206Y112112D01*
X448204Y111999D01*
X448198Y111886D01*
X448188Y111773D01*
X448174Y111660D01*
X448157Y111548D01*
X448135Y111437D01*
X448110Y111327D01*
X448080Y111217D01*
X448047Y111109D01*
X448010Y111002D01*
X447970Y110896D01*
X447925Y110792D01*
X447877Y110689D01*
X447826Y110588D01*
X447771Y110489D01*
X447713Y110392D01*
X447651Y110297D01*
X447586Y110204D01*
X447518Y110114D01*
X447447Y110026D01*
X447372Y109940D01*
X447295Y109857D01*
X447215Y109777D01*
X447132Y109700D01*
X447046Y109625D01*
X446958Y109554D01*
X446868Y109486D01*
X446775Y109421D01*
X446680Y109359D01*
X446583Y109301D01*
X446484Y109246D01*
X446383Y109195D01*
X446280Y109147D01*
X446176Y109102D01*
X446070Y109062D01*
X445963Y109025D01*
X445855Y108992D01*
X445745Y108962D01*
X445635Y108937D01*
X445524Y108915D01*
X445412Y108898D01*
X445299Y108884D01*
X445186Y108874D01*
X445073Y108868D01*
X444960Y108866D01*
X444847Y108868D01*
X444734Y108874D01*
X444621Y108884D01*
X444508Y108898D01*
X444396Y108915D01*
X444285Y108937D01*
X444175Y108962D01*
X444065Y108992D01*
X443957Y109025D01*
X443850Y109062D01*
X443744Y109102D01*
X443640Y109147D01*
X443537Y109195D01*
X443436Y109246D01*
X443337Y109301D01*
X443240Y109359D01*
X443145Y109421D01*
X443052Y109486D01*
X442962Y109554D01*
X442874Y109625D01*
X442788Y109700D01*
X442705Y109777D01*
X442625Y109857D01*
X442548Y109940D01*
X442473Y110026D01*
X442402Y110114D01*
X442334Y110204D01*
X442269Y110297D01*
X442207Y110392D01*
X442149Y110489D01*
X442094Y110588D01*
X442043Y110689D01*
X441995Y110792D01*
X441950Y110896D01*
X441910Y111002D01*
X441873Y111109D01*
X441840Y111217D01*
X441810Y111327D01*
X441785Y111437D01*
X441763Y111548D01*
X441746Y111660D01*
X441732Y111773D01*
X441722Y111886D01*
X441716Y111999D01*
X441714Y112112D01*
X442364Y117954D02*
X442366Y118055D01*
X442372Y118155D01*
X442382Y118255D01*
X442395Y118355D01*
X442413Y118454D01*
X442434Y118553D01*
X442459Y118650D01*
X442488Y118747D01*
X442521Y118842D01*
X442557Y118936D01*
X442597Y119028D01*
X442640Y119119D01*
X442687Y119208D01*
X442737Y119295D01*
X442791Y119381D01*
X442848Y119464D01*
X442908Y119544D01*
X442971Y119623D01*
X443038Y119699D01*
X443107Y119772D01*
X443179Y119842D01*
X443253Y119910D01*
X443330Y119975D01*
X443410Y120036D01*
X443492Y120095D01*
X443576Y120150D01*
X443662Y120202D01*
X443750Y120251D01*
X443840Y120296D01*
X443932Y120338D01*
X444025Y120376D01*
X444120Y120410D01*
X444215Y120441D01*
X444312Y120468D01*
X444410Y120491D01*
X444509Y120511D01*
X444609Y120526D01*
X444709Y120538D01*
X444809Y120546D01*
X444910Y120550D01*
X445010Y120550D01*
X445111Y120546D01*
X445211Y120538D01*
X445311Y120526D01*
X445411Y120511D01*
X445510Y120491D01*
X445608Y120468D01*
X445705Y120441D01*
X445800Y120410D01*
X445895Y120376D01*
X445988Y120338D01*
X446080Y120296D01*
X446170Y120251D01*
X446258Y120202D01*
X446344Y120150D01*
X446428Y120095D01*
X446510Y120036D01*
X446590Y119975D01*
X446667Y119910D01*
X446741Y119842D01*
X446813Y119772D01*
X446882Y119699D01*
X446949Y119623D01*
X447012Y119544D01*
X447072Y119464D01*
X447129Y119381D01*
X447183Y119295D01*
X447233Y119208D01*
X447280Y119119D01*
X447323Y119028D01*
X447363Y118936D01*
X447399Y118842D01*
X447432Y118747D01*
X447461Y118650D01*
X447486Y118553D01*
X447507Y118454D01*
X447525Y118355D01*
X447538Y118255D01*
X447548Y118155D01*
X447554Y118055D01*
X447556Y117954D01*
X447554Y117853D01*
X447548Y117753D01*
X447538Y117653D01*
X447525Y117553D01*
X447507Y117454D01*
X447486Y117355D01*
X447461Y117258D01*
X447432Y117161D01*
X447399Y117066D01*
X447363Y116972D01*
X447323Y116880D01*
X447280Y116789D01*
X447233Y116700D01*
X447183Y116613D01*
X447129Y116527D01*
X447072Y116444D01*
X447012Y116364D01*
X446949Y116285D01*
X446882Y116209D01*
X446813Y116136D01*
X446741Y116066D01*
X446667Y115998D01*
X446590Y115933D01*
X446510Y115872D01*
X446428Y115813D01*
X446344Y115758D01*
X446258Y115706D01*
X446170Y115657D01*
X446080Y115612D01*
X445988Y115570D01*
X445895Y115532D01*
X445800Y115498D01*
X445705Y115467D01*
X445608Y115440D01*
X445510Y115417D01*
X445411Y115397D01*
X445311Y115382D01*
X445211Y115370D01*
X445111Y115362D01*
X445010Y115358D01*
X444910Y115358D01*
X444809Y115362D01*
X444709Y115370D01*
X444609Y115382D01*
X444509Y115397D01*
X444410Y115417D01*
X444312Y115440D01*
X444215Y115467D01*
X444120Y115498D01*
X444025Y115532D01*
X443932Y115570D01*
X443840Y115612D01*
X443750Y115657D01*
X443662Y115706D01*
X443576Y115758D01*
X443492Y115813D01*
X443410Y115872D01*
X443330Y115933D01*
X443253Y115998D01*
X443179Y116066D01*
X443107Y116136D01*
X443038Y116209D01*
X442971Y116285D01*
X442908Y116364D01*
X442848Y116444D01*
X442791Y116527D01*
X442737Y116613D01*
X442687Y116700D01*
X442640Y116789D01*
X442597Y116880D01*
X442557Y116972D01*
X442521Y117066D01*
X442488Y117161D01*
X442459Y117258D01*
X442434Y117355D01*
X442413Y117454D01*
X442395Y117553D01*
X442382Y117653D01*
X442372Y117753D01*
X442366Y117853D01*
X442364Y117954D01*
X473752Y231406D02*
X476349Y231406D01*
X473752Y231406D02*
X473653Y231408D01*
X473553Y231414D01*
X473454Y231423D01*
X473356Y231436D01*
X473258Y231453D01*
X473160Y231474D01*
X473064Y231499D01*
X472969Y231527D01*
X472875Y231559D01*
X472782Y231594D01*
X472690Y231633D01*
X472600Y231676D01*
X472512Y231721D01*
X472425Y231771D01*
X472341Y231823D01*
X472258Y231879D01*
X472178Y231937D01*
X472100Y231999D01*
X472025Y232064D01*
X471952Y232132D01*
X471882Y232202D01*
X471814Y232275D01*
X471749Y232350D01*
X471687Y232428D01*
X471629Y232508D01*
X471573Y232591D01*
X471521Y232675D01*
X471471Y232762D01*
X471426Y232850D01*
X471383Y232940D01*
X471344Y233032D01*
X471309Y233125D01*
X471277Y233219D01*
X471249Y233314D01*
X471224Y233410D01*
X471203Y233508D01*
X471186Y233606D01*
X471173Y233704D01*
X471164Y233803D01*
X471158Y233903D01*
X471156Y234002D01*
X471156Y240493D01*
X471158Y240592D01*
X471164Y240692D01*
X471173Y240791D01*
X471186Y240889D01*
X471203Y240987D01*
X471224Y241085D01*
X471249Y241181D01*
X471277Y241276D01*
X471309Y241370D01*
X471344Y241463D01*
X471383Y241555D01*
X471426Y241645D01*
X471471Y241733D01*
X471521Y241820D01*
X471573Y241904D01*
X471629Y241987D01*
X471687Y242067D01*
X471749Y242145D01*
X471814Y242220D01*
X471882Y242293D01*
X471952Y242363D01*
X472025Y242431D01*
X472100Y242496D01*
X472178Y242558D01*
X472258Y242616D01*
X472341Y242672D01*
X472425Y242724D01*
X472512Y242774D01*
X472600Y242819D01*
X472690Y242862D01*
X472782Y242901D01*
X472874Y242936D01*
X472969Y242968D01*
X473064Y242996D01*
X473160Y243021D01*
X473258Y243042D01*
X473356Y243059D01*
X473454Y243072D01*
X473553Y243081D01*
X473653Y243087D01*
X473752Y243089D01*
X473752Y243090D02*
X476349Y243090D01*
X483310Y236599D02*
X487205Y236599D01*
X483310Y236599D02*
X483211Y236601D01*
X483111Y236607D01*
X483012Y236616D01*
X482914Y236629D01*
X482816Y236646D01*
X482718Y236667D01*
X482622Y236692D01*
X482527Y236720D01*
X482433Y236752D01*
X482340Y236787D01*
X482248Y236826D01*
X482158Y236869D01*
X482070Y236914D01*
X481983Y236964D01*
X481899Y237016D01*
X481816Y237072D01*
X481736Y237130D01*
X481658Y237192D01*
X481583Y237257D01*
X481510Y237325D01*
X481440Y237395D01*
X481372Y237468D01*
X481307Y237543D01*
X481245Y237621D01*
X481187Y237701D01*
X481131Y237784D01*
X481079Y237868D01*
X481029Y237955D01*
X480984Y238043D01*
X480941Y238133D01*
X480902Y238225D01*
X480867Y238318D01*
X480835Y238412D01*
X480807Y238507D01*
X480782Y238603D01*
X480761Y238701D01*
X480744Y238799D01*
X480731Y238897D01*
X480722Y238996D01*
X480716Y239096D01*
X480714Y239195D01*
X480714Y239844D01*
X480716Y239957D01*
X480722Y240070D01*
X480732Y240183D01*
X480746Y240296D01*
X480763Y240408D01*
X480785Y240519D01*
X480810Y240629D01*
X480840Y240739D01*
X480873Y240847D01*
X480910Y240954D01*
X480950Y241060D01*
X480995Y241164D01*
X481043Y241267D01*
X481094Y241368D01*
X481149Y241467D01*
X481207Y241564D01*
X481269Y241659D01*
X481334Y241752D01*
X481402Y241842D01*
X481473Y241930D01*
X481548Y242016D01*
X481625Y242099D01*
X481705Y242179D01*
X481788Y242256D01*
X481874Y242331D01*
X481962Y242402D01*
X482052Y242470D01*
X482145Y242535D01*
X482240Y242597D01*
X482337Y242655D01*
X482436Y242710D01*
X482537Y242761D01*
X482640Y242809D01*
X482744Y242854D01*
X482850Y242894D01*
X482957Y242931D01*
X483065Y242964D01*
X483175Y242994D01*
X483285Y243019D01*
X483396Y243041D01*
X483508Y243058D01*
X483621Y243072D01*
X483734Y243082D01*
X483847Y243088D01*
X483960Y243090D01*
X484073Y243088D01*
X484186Y243082D01*
X484299Y243072D01*
X484412Y243058D01*
X484524Y243041D01*
X484635Y243019D01*
X484745Y242994D01*
X484855Y242964D01*
X484963Y242931D01*
X485070Y242894D01*
X485176Y242854D01*
X485280Y242809D01*
X485383Y242761D01*
X485484Y242710D01*
X485583Y242655D01*
X485680Y242597D01*
X485775Y242535D01*
X485868Y242470D01*
X485958Y242402D01*
X486046Y242331D01*
X486132Y242256D01*
X486215Y242179D01*
X486295Y242099D01*
X486372Y242016D01*
X486447Y241930D01*
X486518Y241842D01*
X486586Y241752D01*
X486651Y241659D01*
X486713Y241564D01*
X486771Y241467D01*
X486826Y241368D01*
X486877Y241267D01*
X486925Y241164D01*
X486970Y241060D01*
X487010Y240954D01*
X487047Y240847D01*
X487080Y240739D01*
X487110Y240629D01*
X487135Y240519D01*
X487157Y240408D01*
X487174Y240296D01*
X487188Y240183D01*
X487198Y240070D01*
X487204Y239957D01*
X487206Y239844D01*
X487205Y239844D02*
X487205Y236599D01*
X487203Y236456D01*
X487197Y236313D01*
X487187Y236170D01*
X487173Y236028D01*
X487156Y235886D01*
X487134Y235744D01*
X487109Y235603D01*
X487079Y235463D01*
X487046Y235324D01*
X487009Y235186D01*
X486968Y235049D01*
X486924Y234913D01*
X486875Y234778D01*
X486823Y234645D01*
X486768Y234513D01*
X486708Y234383D01*
X486645Y234254D01*
X486579Y234127D01*
X486509Y234002D01*
X486436Y233880D01*
X486359Y233759D01*
X486279Y233640D01*
X486196Y233524D01*
X486110Y233409D01*
X486021Y233298D01*
X485928Y233188D01*
X485833Y233082D01*
X485734Y232978D01*
X485633Y232877D01*
X485529Y232778D01*
X485423Y232683D01*
X485313Y232590D01*
X485202Y232501D01*
X485087Y232415D01*
X484971Y232332D01*
X484852Y232252D01*
X484731Y232175D01*
X484609Y232102D01*
X484484Y232032D01*
X484357Y231966D01*
X484228Y231903D01*
X484098Y231843D01*
X483966Y231788D01*
X483833Y231736D01*
X483698Y231687D01*
X483562Y231643D01*
X483425Y231602D01*
X483287Y231565D01*
X483148Y231532D01*
X483008Y231502D01*
X482867Y231477D01*
X482725Y231455D01*
X482583Y231438D01*
X482441Y231424D01*
X482298Y231414D01*
X482155Y231408D01*
X482012Y231406D01*
D12*
X231943Y25976D02*
X230306Y25976D01*
X230228Y25978D01*
X230150Y25983D01*
X230073Y25993D01*
X229996Y26006D01*
X229920Y26022D01*
X229845Y26042D01*
X229771Y26066D01*
X229698Y26093D01*
X229626Y26124D01*
X229556Y26158D01*
X229488Y26195D01*
X229421Y26236D01*
X229356Y26280D01*
X229294Y26326D01*
X229234Y26376D01*
X229176Y26428D01*
X229121Y26483D01*
X229069Y26541D01*
X229019Y26601D01*
X228973Y26663D01*
X228929Y26728D01*
X228888Y26795D01*
X228851Y26863D01*
X228817Y26933D01*
X228786Y27005D01*
X228759Y27078D01*
X228735Y27152D01*
X228715Y27227D01*
X228699Y27303D01*
X228686Y27380D01*
X228676Y27457D01*
X228671Y27535D01*
X228669Y27613D01*
X228670Y27613D02*
X228670Y31705D01*
X228669Y31705D02*
X228671Y31785D01*
X228677Y31865D01*
X228687Y31945D01*
X228700Y32024D01*
X228718Y32103D01*
X228739Y32180D01*
X228765Y32256D01*
X228794Y32331D01*
X228826Y32405D01*
X228862Y32477D01*
X228902Y32547D01*
X228945Y32614D01*
X228991Y32680D01*
X229041Y32743D01*
X229093Y32804D01*
X229148Y32863D01*
X229207Y32918D01*
X229267Y32970D01*
X229331Y33020D01*
X229397Y33066D01*
X229464Y33109D01*
X229534Y33149D01*
X229606Y33185D01*
X229680Y33217D01*
X229754Y33246D01*
X229831Y33272D01*
X229908Y33293D01*
X229987Y33311D01*
X230066Y33324D01*
X230146Y33334D01*
X230226Y33340D01*
X230306Y33342D01*
X231943Y33342D01*
X234789Y31705D02*
X236835Y33342D01*
X236835Y25976D01*
X234789Y25976D02*
X238881Y25976D01*
X242104Y29659D02*
X242106Y29812D01*
X242112Y29965D01*
X242121Y30117D01*
X242135Y30270D01*
X242152Y30422D01*
X242173Y30573D01*
X242198Y30724D01*
X242227Y30874D01*
X242259Y31024D01*
X242296Y31172D01*
X242336Y31320D01*
X242379Y31467D01*
X242427Y31612D01*
X242478Y31756D01*
X242532Y31899D01*
X242591Y32041D01*
X242652Y32180D01*
X242718Y32319D01*
X242744Y32389D01*
X242774Y32459D01*
X242807Y32526D01*
X242843Y32592D01*
X242882Y32656D01*
X242925Y32718D01*
X242971Y32777D01*
X243019Y32835D01*
X243070Y32889D01*
X243124Y32942D01*
X243181Y32991D01*
X243240Y33038D01*
X243301Y33081D01*
X243364Y33122D01*
X243429Y33159D01*
X243496Y33194D01*
X243565Y33224D01*
X243635Y33252D01*
X243706Y33275D01*
X243778Y33296D01*
X243851Y33312D01*
X243925Y33325D01*
X244000Y33335D01*
X244075Y33340D01*
X244150Y33342D01*
X244225Y33340D01*
X244300Y33335D01*
X244375Y33325D01*
X244449Y33312D01*
X244522Y33296D01*
X244594Y33275D01*
X244665Y33252D01*
X244735Y33224D01*
X244804Y33194D01*
X244871Y33159D01*
X244936Y33122D01*
X244999Y33081D01*
X245060Y33038D01*
X245119Y32991D01*
X245176Y32942D01*
X245230Y32889D01*
X245281Y32835D01*
X245330Y32777D01*
X245375Y32718D01*
X245418Y32656D01*
X245457Y32592D01*
X245494Y32526D01*
X245526Y32458D01*
X245556Y32389D01*
X245582Y32319D01*
X245647Y32181D01*
X245709Y32041D01*
X245767Y31899D01*
X245822Y31756D01*
X245873Y31612D01*
X245921Y31467D01*
X245964Y31320D01*
X246004Y31173D01*
X246041Y31024D01*
X246073Y30874D01*
X246102Y30724D01*
X246127Y30573D01*
X246148Y30422D01*
X246165Y30270D01*
X246179Y30117D01*
X246188Y29965D01*
X246194Y29812D01*
X246196Y29659D01*
X242103Y29659D02*
X242105Y29506D01*
X242111Y29353D01*
X242120Y29200D01*
X242134Y29048D01*
X242151Y28896D01*
X242172Y28745D01*
X242197Y28594D01*
X242226Y28443D01*
X242258Y28294D01*
X242295Y28145D01*
X242335Y27998D01*
X242378Y27851D01*
X242426Y27706D01*
X242477Y27561D01*
X242532Y27419D01*
X242590Y27277D01*
X242652Y27137D01*
X242717Y26999D01*
X242718Y26999D02*
X242744Y26928D01*
X242774Y26859D01*
X242807Y26792D01*
X242843Y26726D01*
X242882Y26662D01*
X242925Y26600D01*
X242971Y26541D01*
X243019Y26483D01*
X243070Y26429D01*
X243124Y26376D01*
X243181Y26327D01*
X243240Y26280D01*
X243301Y26237D01*
X243364Y26196D01*
X243429Y26159D01*
X243496Y26124D01*
X243565Y26094D01*
X243635Y26066D01*
X243706Y26043D01*
X243778Y26022D01*
X243851Y26006D01*
X243925Y25993D01*
X244000Y25983D01*
X244075Y25978D01*
X244150Y25976D01*
X245582Y26999D02*
X245647Y27137D01*
X245709Y27277D01*
X245767Y27419D01*
X245822Y27562D01*
X245873Y27706D01*
X245921Y27851D01*
X245964Y27998D01*
X246004Y28146D01*
X246041Y28294D01*
X246073Y28444D01*
X246102Y28594D01*
X246127Y28745D01*
X246148Y28896D01*
X246165Y29048D01*
X246179Y29201D01*
X246188Y29353D01*
X246194Y29506D01*
X246196Y29659D01*
X245582Y26999D02*
X245556Y26929D01*
X245526Y26859D01*
X245494Y26792D01*
X245457Y26726D01*
X245418Y26662D01*
X245375Y26600D01*
X245329Y26541D01*
X245281Y26483D01*
X245230Y26429D01*
X245176Y26376D01*
X245119Y26327D01*
X245060Y26280D01*
X244999Y26237D01*
X244936Y26196D01*
X244871Y26159D01*
X244804Y26124D01*
X244735Y26094D01*
X244665Y26066D01*
X244594Y26043D01*
X244522Y26022D01*
X244449Y26006D01*
X244375Y25993D01*
X244300Y25983D01*
X244225Y25978D01*
X244150Y25976D01*
X242513Y27613D02*
X245787Y31705D01*
D22*
X115155Y349121D02*
X112559Y349121D01*
X112460Y349123D01*
X112360Y349129D01*
X112261Y349138D01*
X112163Y349151D01*
X112065Y349168D01*
X111967Y349189D01*
X111871Y349214D01*
X111776Y349242D01*
X111682Y349274D01*
X111589Y349309D01*
X111497Y349348D01*
X111407Y349391D01*
X111319Y349436D01*
X111232Y349486D01*
X111148Y349538D01*
X111065Y349594D01*
X110985Y349652D01*
X110907Y349714D01*
X110832Y349779D01*
X110759Y349847D01*
X110689Y349917D01*
X110621Y349990D01*
X110556Y350065D01*
X110494Y350143D01*
X110436Y350223D01*
X110380Y350306D01*
X110328Y350390D01*
X110278Y350477D01*
X110233Y350565D01*
X110190Y350655D01*
X110151Y350747D01*
X110116Y350840D01*
X110084Y350934D01*
X110056Y351029D01*
X110031Y351125D01*
X110010Y351223D01*
X109993Y351321D01*
X109980Y351419D01*
X109971Y351518D01*
X109965Y351618D01*
X109963Y351717D01*
X109962Y351717D02*
X109962Y358208D01*
X109963Y358208D02*
X109965Y358307D01*
X109971Y358407D01*
X109980Y358506D01*
X109993Y358604D01*
X110010Y358702D01*
X110031Y358800D01*
X110056Y358896D01*
X110084Y358991D01*
X110116Y359085D01*
X110151Y359178D01*
X110190Y359270D01*
X110233Y359360D01*
X110278Y359448D01*
X110328Y359535D01*
X110380Y359619D01*
X110436Y359702D01*
X110494Y359782D01*
X110556Y359860D01*
X110621Y359935D01*
X110689Y360008D01*
X110759Y360078D01*
X110832Y360146D01*
X110907Y360211D01*
X110985Y360273D01*
X111065Y360331D01*
X111148Y360387D01*
X111232Y360439D01*
X111319Y360489D01*
X111407Y360534D01*
X111497Y360577D01*
X111589Y360616D01*
X111681Y360651D01*
X111776Y360683D01*
X111871Y360711D01*
X111967Y360736D01*
X112065Y360757D01*
X112163Y360774D01*
X112261Y360787D01*
X112360Y360796D01*
X112460Y360802D01*
X112559Y360804D01*
X112559Y360805D02*
X115155Y360805D01*
X119521Y358208D02*
X122766Y360805D01*
X122766Y349121D01*
X119521Y349121D02*
X126012Y349121D01*
X130951Y358208D02*
X134196Y360805D01*
X134196Y349121D01*
X130951Y349121D02*
X137442Y349121D01*
D12*
X597641Y73047D02*
X599278Y73047D01*
X597641Y73047D02*
X597563Y73049D01*
X597485Y73054D01*
X597408Y73064D01*
X597331Y73077D01*
X597255Y73093D01*
X597180Y73113D01*
X597106Y73137D01*
X597033Y73164D01*
X596961Y73195D01*
X596891Y73229D01*
X596823Y73266D01*
X596756Y73307D01*
X596691Y73351D01*
X596629Y73397D01*
X596569Y73447D01*
X596511Y73499D01*
X596456Y73554D01*
X596404Y73612D01*
X596354Y73672D01*
X596308Y73734D01*
X596264Y73799D01*
X596223Y73866D01*
X596186Y73934D01*
X596152Y74004D01*
X596121Y74076D01*
X596094Y74149D01*
X596070Y74223D01*
X596050Y74298D01*
X596034Y74374D01*
X596021Y74451D01*
X596011Y74528D01*
X596006Y74606D01*
X596004Y74684D01*
X596004Y78776D01*
X596006Y78856D01*
X596012Y78936D01*
X596022Y79016D01*
X596035Y79095D01*
X596053Y79174D01*
X596074Y79251D01*
X596100Y79327D01*
X596129Y79402D01*
X596161Y79476D01*
X596197Y79548D01*
X596237Y79618D01*
X596280Y79685D01*
X596326Y79751D01*
X596376Y79814D01*
X596428Y79875D01*
X596483Y79934D01*
X596542Y79989D01*
X596602Y80041D01*
X596666Y80091D01*
X596732Y80137D01*
X596799Y80180D01*
X596869Y80220D01*
X596941Y80256D01*
X597015Y80288D01*
X597089Y80317D01*
X597166Y80343D01*
X597243Y80364D01*
X597322Y80382D01*
X597401Y80395D01*
X597481Y80405D01*
X597561Y80411D01*
X597641Y80413D01*
X599278Y80413D01*
X602123Y78776D02*
X604169Y80413D01*
X604169Y73047D01*
X602123Y73047D02*
X606215Y73047D01*
X613531Y78571D02*
X613529Y78656D01*
X613523Y78741D01*
X613513Y78825D01*
X613500Y78909D01*
X613482Y78993D01*
X613461Y79075D01*
X613436Y79156D01*
X613407Y79236D01*
X613374Y79315D01*
X613338Y79392D01*
X613298Y79467D01*
X613255Y79541D01*
X613209Y79612D01*
X613159Y79681D01*
X613106Y79748D01*
X613050Y79812D01*
X612991Y79873D01*
X612930Y79932D01*
X612866Y79988D01*
X612799Y80041D01*
X612730Y80091D01*
X612659Y80137D01*
X612585Y80180D01*
X612510Y80220D01*
X612433Y80256D01*
X612354Y80289D01*
X612274Y80318D01*
X612193Y80343D01*
X612111Y80364D01*
X612027Y80382D01*
X611943Y80395D01*
X611859Y80405D01*
X611774Y80411D01*
X611689Y80413D01*
X611593Y80411D01*
X611497Y80405D01*
X611402Y80395D01*
X611307Y80382D01*
X611212Y80364D01*
X611119Y80343D01*
X611026Y80318D01*
X610935Y80289D01*
X610844Y80257D01*
X610755Y80221D01*
X610668Y80181D01*
X610582Y80138D01*
X610498Y80092D01*
X610416Y80042D01*
X610336Y79988D01*
X610259Y79932D01*
X610184Y79872D01*
X610111Y79810D01*
X610041Y79744D01*
X609973Y79676D01*
X609908Y79605D01*
X609847Y79532D01*
X609788Y79456D01*
X609732Y79377D01*
X609680Y79297D01*
X609631Y79214D01*
X609585Y79130D01*
X609543Y79044D01*
X609505Y78956D01*
X609470Y78867D01*
X609438Y78776D01*
X612917Y77139D02*
X612977Y77198D01*
X613034Y77260D01*
X613089Y77324D01*
X613140Y77391D01*
X613189Y77460D01*
X613235Y77530D01*
X613278Y77603D01*
X613318Y77677D01*
X613354Y77753D01*
X613387Y77831D01*
X613417Y77910D01*
X613444Y77990D01*
X613467Y78071D01*
X613486Y78153D01*
X613502Y78235D01*
X613515Y78319D01*
X613524Y78403D01*
X613529Y78487D01*
X613531Y78571D01*
X612917Y77139D02*
X609438Y73047D01*
X613531Y73047D01*
X384750Y61480D02*
X384750Y54114D01*
X384750Y61480D02*
X386796Y61480D01*
X386885Y61478D01*
X386974Y61472D01*
X387063Y61462D01*
X387151Y61449D01*
X387239Y61432D01*
X387326Y61410D01*
X387411Y61385D01*
X387496Y61357D01*
X387579Y61324D01*
X387661Y61288D01*
X387741Y61249D01*
X387819Y61206D01*
X387895Y61160D01*
X387970Y61110D01*
X388042Y61057D01*
X388111Y61001D01*
X388178Y60942D01*
X388243Y60881D01*
X388304Y60816D01*
X388363Y60749D01*
X388419Y60680D01*
X388472Y60608D01*
X388522Y60533D01*
X388568Y60457D01*
X388611Y60379D01*
X388650Y60299D01*
X388686Y60217D01*
X388719Y60134D01*
X388747Y60049D01*
X388772Y59964D01*
X388794Y59877D01*
X388811Y59789D01*
X388824Y59701D01*
X388834Y59612D01*
X388840Y59523D01*
X388842Y59434D01*
X388840Y59345D01*
X388834Y59256D01*
X388824Y59167D01*
X388811Y59079D01*
X388794Y58991D01*
X388772Y58904D01*
X388747Y58819D01*
X388719Y58734D01*
X388686Y58651D01*
X388650Y58569D01*
X388611Y58489D01*
X388568Y58411D01*
X388522Y58335D01*
X388472Y58260D01*
X388419Y58188D01*
X388363Y58119D01*
X388304Y58052D01*
X388243Y57987D01*
X388178Y57926D01*
X388111Y57867D01*
X388042Y57811D01*
X387970Y57758D01*
X387895Y57708D01*
X387819Y57662D01*
X387741Y57619D01*
X387661Y57580D01*
X387579Y57544D01*
X387496Y57511D01*
X387411Y57483D01*
X387326Y57458D01*
X387239Y57436D01*
X387151Y57419D01*
X387063Y57406D01*
X386974Y57396D01*
X386885Y57390D01*
X386796Y57388D01*
X384750Y57388D01*
X387205Y57388D02*
X388842Y54114D01*
X396107Y59639D02*
X396105Y59724D01*
X396099Y59809D01*
X396089Y59893D01*
X396076Y59977D01*
X396058Y60061D01*
X396037Y60143D01*
X396012Y60224D01*
X395983Y60304D01*
X395950Y60383D01*
X395914Y60460D01*
X395874Y60535D01*
X395831Y60609D01*
X395785Y60680D01*
X395735Y60749D01*
X395682Y60816D01*
X395626Y60880D01*
X395567Y60941D01*
X395506Y61000D01*
X395442Y61056D01*
X395375Y61109D01*
X395306Y61159D01*
X395235Y61205D01*
X395161Y61248D01*
X395086Y61288D01*
X395009Y61324D01*
X394930Y61357D01*
X394850Y61386D01*
X394769Y61411D01*
X394687Y61432D01*
X394603Y61450D01*
X394519Y61463D01*
X394435Y61473D01*
X394350Y61479D01*
X394265Y61481D01*
X394265Y61480D02*
X394169Y61478D01*
X394073Y61472D01*
X393978Y61462D01*
X393883Y61449D01*
X393788Y61431D01*
X393695Y61410D01*
X393602Y61385D01*
X393511Y61356D01*
X393420Y61324D01*
X393331Y61288D01*
X393244Y61248D01*
X393158Y61205D01*
X393074Y61159D01*
X392992Y61109D01*
X392912Y61055D01*
X392835Y60999D01*
X392760Y60939D01*
X392687Y60877D01*
X392617Y60811D01*
X392549Y60743D01*
X392484Y60672D01*
X392423Y60599D01*
X392364Y60523D01*
X392308Y60444D01*
X392256Y60364D01*
X392207Y60281D01*
X392161Y60197D01*
X392119Y60111D01*
X392081Y60023D01*
X392046Y59934D01*
X392014Y59843D01*
X395492Y58207D02*
X395552Y58266D01*
X395609Y58328D01*
X395664Y58392D01*
X395715Y58459D01*
X395764Y58528D01*
X395810Y58598D01*
X395853Y58671D01*
X395893Y58745D01*
X395929Y58821D01*
X395962Y58899D01*
X395992Y58978D01*
X396019Y59058D01*
X396042Y59139D01*
X396061Y59221D01*
X396077Y59303D01*
X396090Y59387D01*
X396099Y59471D01*
X396104Y59555D01*
X396106Y59639D01*
X395492Y58206D02*
X392014Y54114D01*
X396106Y54114D01*
D15*
X356137Y35372D02*
X354387Y37122D01*
X356137Y35372D02*
X354637Y33872D01*
X352887Y35622D01*
X354387Y37122D01*
D16*
X358637Y38122D03*
D12*
X351385Y14026D02*
X351385Y6660D01*
X354658Y6660D01*
X357724Y6660D02*
X360998Y6660D01*
X357724Y6660D02*
X357724Y14026D01*
X360998Y14026D01*
X360180Y10752D02*
X357724Y10752D01*
X364049Y14026D02*
X364049Y6660D01*
X364049Y14026D02*
X366095Y14026D01*
X366184Y14024D01*
X366273Y14018D01*
X366362Y14008D01*
X366450Y13995D01*
X366538Y13978D01*
X366625Y13956D01*
X366710Y13931D01*
X366795Y13903D01*
X366878Y13870D01*
X366960Y13834D01*
X367040Y13795D01*
X367118Y13752D01*
X367194Y13706D01*
X367269Y13656D01*
X367341Y13603D01*
X367410Y13547D01*
X367477Y13488D01*
X367542Y13427D01*
X367603Y13362D01*
X367662Y13295D01*
X367718Y13226D01*
X367771Y13154D01*
X367821Y13079D01*
X367867Y13003D01*
X367910Y12925D01*
X367949Y12845D01*
X367985Y12763D01*
X368018Y12680D01*
X368046Y12595D01*
X368071Y12510D01*
X368093Y12423D01*
X368110Y12335D01*
X368123Y12247D01*
X368133Y12158D01*
X368139Y12069D01*
X368141Y11980D01*
X368141Y8706D01*
X368139Y8617D01*
X368133Y8528D01*
X368123Y8439D01*
X368110Y8351D01*
X368093Y8263D01*
X368071Y8176D01*
X368046Y8091D01*
X368018Y8006D01*
X367985Y7923D01*
X367949Y7841D01*
X367910Y7761D01*
X367867Y7683D01*
X367821Y7607D01*
X367771Y7532D01*
X367718Y7460D01*
X367662Y7391D01*
X367603Y7324D01*
X367542Y7259D01*
X367477Y7198D01*
X367410Y7139D01*
X367341Y7083D01*
X367269Y7030D01*
X367194Y6980D01*
X367118Y6934D01*
X367040Y6891D01*
X366960Y6852D01*
X366878Y6816D01*
X366795Y6783D01*
X366710Y6755D01*
X366625Y6730D01*
X366538Y6708D01*
X366450Y6691D01*
X366362Y6678D01*
X366273Y6668D01*
X366184Y6662D01*
X366095Y6660D01*
X364049Y6660D01*
X371608Y12389D02*
X373654Y14026D01*
X373654Y6660D01*
X371608Y6660D02*
X375700Y6660D01*
X294447Y53748D02*
X294447Y61114D01*
X296494Y61114D01*
X296583Y61112D01*
X296672Y61106D01*
X296761Y61096D01*
X296849Y61083D01*
X296937Y61066D01*
X297024Y61044D01*
X297109Y61019D01*
X297194Y60991D01*
X297277Y60958D01*
X297359Y60922D01*
X297439Y60883D01*
X297517Y60840D01*
X297593Y60794D01*
X297668Y60744D01*
X297740Y60691D01*
X297809Y60635D01*
X297876Y60576D01*
X297941Y60515D01*
X298002Y60450D01*
X298061Y60383D01*
X298117Y60314D01*
X298170Y60242D01*
X298220Y60167D01*
X298266Y60091D01*
X298309Y60013D01*
X298348Y59933D01*
X298384Y59851D01*
X298417Y59768D01*
X298445Y59683D01*
X298470Y59598D01*
X298492Y59511D01*
X298509Y59423D01*
X298522Y59335D01*
X298532Y59246D01*
X298538Y59157D01*
X298540Y59068D01*
X298538Y58979D01*
X298532Y58890D01*
X298522Y58801D01*
X298509Y58713D01*
X298492Y58625D01*
X298470Y58538D01*
X298445Y58453D01*
X298417Y58368D01*
X298384Y58285D01*
X298348Y58203D01*
X298309Y58123D01*
X298266Y58045D01*
X298220Y57969D01*
X298170Y57894D01*
X298117Y57822D01*
X298061Y57753D01*
X298002Y57686D01*
X297941Y57621D01*
X297876Y57560D01*
X297809Y57501D01*
X297740Y57445D01*
X297668Y57392D01*
X297593Y57342D01*
X297517Y57296D01*
X297439Y57253D01*
X297359Y57214D01*
X297277Y57178D01*
X297194Y57145D01*
X297109Y57117D01*
X297024Y57092D01*
X296937Y57070D01*
X296849Y57053D01*
X296761Y57040D01*
X296672Y57030D01*
X296583Y57024D01*
X296494Y57022D01*
X294447Y57022D01*
X296903Y57022D02*
X298540Y53748D01*
X301711Y53748D02*
X303758Y53748D01*
X303847Y53750D01*
X303936Y53756D01*
X304025Y53766D01*
X304113Y53779D01*
X304201Y53796D01*
X304288Y53818D01*
X304373Y53843D01*
X304458Y53871D01*
X304541Y53904D01*
X304623Y53940D01*
X304703Y53979D01*
X304781Y54022D01*
X304857Y54068D01*
X304932Y54118D01*
X305004Y54171D01*
X305073Y54227D01*
X305140Y54286D01*
X305205Y54347D01*
X305266Y54412D01*
X305325Y54479D01*
X305381Y54548D01*
X305434Y54620D01*
X305484Y54695D01*
X305530Y54771D01*
X305573Y54849D01*
X305612Y54929D01*
X305648Y55011D01*
X305681Y55094D01*
X305709Y55179D01*
X305734Y55264D01*
X305756Y55351D01*
X305773Y55439D01*
X305786Y55527D01*
X305796Y55616D01*
X305802Y55705D01*
X305804Y55794D01*
X305802Y55883D01*
X305796Y55972D01*
X305786Y56061D01*
X305773Y56149D01*
X305756Y56237D01*
X305734Y56324D01*
X305709Y56409D01*
X305681Y56494D01*
X305648Y56577D01*
X305612Y56659D01*
X305573Y56739D01*
X305530Y56817D01*
X305484Y56893D01*
X305434Y56968D01*
X305381Y57040D01*
X305325Y57109D01*
X305266Y57176D01*
X305205Y57241D01*
X305140Y57302D01*
X305073Y57361D01*
X305004Y57417D01*
X304932Y57470D01*
X304857Y57520D01*
X304781Y57566D01*
X304703Y57609D01*
X304623Y57648D01*
X304541Y57684D01*
X304458Y57717D01*
X304373Y57745D01*
X304288Y57770D01*
X304201Y57792D01*
X304113Y57809D01*
X304025Y57822D01*
X303936Y57832D01*
X303847Y57838D01*
X303758Y57840D01*
X304167Y61114D02*
X301711Y61114D01*
X304167Y61114D02*
X304246Y61112D01*
X304325Y61106D01*
X304404Y61097D01*
X304482Y61084D01*
X304559Y61066D01*
X304635Y61046D01*
X304710Y61021D01*
X304784Y60993D01*
X304857Y60962D01*
X304928Y60926D01*
X304997Y60888D01*
X305064Y60846D01*
X305129Y60801D01*
X305192Y60753D01*
X305253Y60702D01*
X305310Y60648D01*
X305366Y60592D01*
X305418Y60533D01*
X305468Y60471D01*
X305514Y60407D01*
X305558Y60341D01*
X305598Y60273D01*
X305634Y60203D01*
X305668Y60131D01*
X305698Y60057D01*
X305724Y59983D01*
X305747Y59907D01*
X305765Y59830D01*
X305781Y59753D01*
X305792Y59674D01*
X305800Y59596D01*
X305804Y59517D01*
X305804Y59437D01*
X305800Y59358D01*
X305792Y59280D01*
X305781Y59201D01*
X305765Y59124D01*
X305747Y59047D01*
X305724Y58971D01*
X305698Y58897D01*
X305668Y58823D01*
X305634Y58751D01*
X305598Y58681D01*
X305558Y58613D01*
X305514Y58547D01*
X305468Y58483D01*
X305418Y58421D01*
X305366Y58362D01*
X305310Y58306D01*
X305253Y58252D01*
X305192Y58201D01*
X305129Y58153D01*
X305064Y58108D01*
X304997Y58066D01*
X304928Y58028D01*
X304857Y57992D01*
X304784Y57961D01*
X304710Y57933D01*
X304635Y57908D01*
X304559Y57888D01*
X304482Y57870D01*
X304404Y57857D01*
X304325Y57848D01*
X304246Y57842D01*
X304167Y57840D01*
X302530Y57840D01*
D15*
X333721Y36451D02*
X335471Y34701D01*
X333971Y33201D01*
X332221Y34951D01*
X333721Y36451D01*
D16*
X337971Y37451D03*
D12*
X306000Y14063D02*
X306000Y6697D01*
X309273Y6697D01*
X312339Y6697D02*
X315613Y6697D01*
X312339Y6697D02*
X312339Y14063D01*
X315613Y14063D01*
X314795Y10789D02*
X312339Y10789D01*
X318664Y14063D02*
X318664Y6697D01*
X318664Y14063D02*
X320710Y14063D01*
X320799Y14061D01*
X320888Y14055D01*
X320977Y14045D01*
X321065Y14032D01*
X321153Y14015D01*
X321240Y13993D01*
X321325Y13968D01*
X321410Y13940D01*
X321493Y13907D01*
X321575Y13871D01*
X321655Y13832D01*
X321733Y13789D01*
X321809Y13743D01*
X321884Y13693D01*
X321956Y13640D01*
X322025Y13584D01*
X322092Y13525D01*
X322157Y13464D01*
X322218Y13399D01*
X322277Y13332D01*
X322333Y13263D01*
X322386Y13191D01*
X322436Y13116D01*
X322482Y13040D01*
X322525Y12962D01*
X322564Y12882D01*
X322600Y12800D01*
X322633Y12717D01*
X322661Y12632D01*
X322686Y12547D01*
X322708Y12460D01*
X322725Y12372D01*
X322738Y12284D01*
X322748Y12195D01*
X322754Y12106D01*
X322756Y12017D01*
X322756Y8743D01*
X322754Y8654D01*
X322748Y8565D01*
X322738Y8476D01*
X322725Y8388D01*
X322708Y8300D01*
X322686Y8213D01*
X322661Y8128D01*
X322633Y8043D01*
X322600Y7960D01*
X322564Y7878D01*
X322525Y7798D01*
X322482Y7720D01*
X322436Y7644D01*
X322386Y7569D01*
X322333Y7497D01*
X322277Y7428D01*
X322218Y7361D01*
X322157Y7296D01*
X322092Y7235D01*
X322025Y7176D01*
X321956Y7120D01*
X321884Y7067D01*
X321809Y7017D01*
X321733Y6971D01*
X321655Y6928D01*
X321575Y6889D01*
X321493Y6853D01*
X321410Y6820D01*
X321325Y6792D01*
X321240Y6767D01*
X321153Y6745D01*
X321065Y6728D01*
X320977Y6715D01*
X320888Y6705D01*
X320799Y6699D01*
X320710Y6697D01*
X318664Y6697D01*
X328473Y14064D02*
X328558Y14062D01*
X328643Y14056D01*
X328727Y14046D01*
X328811Y14033D01*
X328895Y14015D01*
X328977Y13994D01*
X329058Y13969D01*
X329138Y13940D01*
X329217Y13907D01*
X329294Y13871D01*
X329369Y13831D01*
X329443Y13788D01*
X329514Y13742D01*
X329583Y13692D01*
X329650Y13639D01*
X329714Y13583D01*
X329775Y13524D01*
X329834Y13463D01*
X329890Y13399D01*
X329943Y13332D01*
X329993Y13263D01*
X330039Y13192D01*
X330082Y13118D01*
X330122Y13043D01*
X330158Y12966D01*
X330191Y12887D01*
X330220Y12807D01*
X330245Y12726D01*
X330266Y12644D01*
X330284Y12560D01*
X330297Y12476D01*
X330307Y12392D01*
X330313Y12307D01*
X330315Y12222D01*
X328473Y14063D02*
X328377Y14061D01*
X328281Y14055D01*
X328186Y14045D01*
X328091Y14032D01*
X327996Y14014D01*
X327903Y13993D01*
X327810Y13968D01*
X327719Y13939D01*
X327628Y13907D01*
X327539Y13871D01*
X327452Y13831D01*
X327366Y13788D01*
X327282Y13742D01*
X327200Y13692D01*
X327120Y13638D01*
X327043Y13582D01*
X326968Y13522D01*
X326895Y13460D01*
X326825Y13394D01*
X326757Y13326D01*
X326692Y13255D01*
X326631Y13182D01*
X326572Y13106D01*
X326516Y13027D01*
X326464Y12947D01*
X326415Y12864D01*
X326369Y12780D01*
X326327Y12694D01*
X326289Y12606D01*
X326254Y12517D01*
X326222Y12426D01*
X329701Y10790D02*
X329761Y10849D01*
X329818Y10911D01*
X329873Y10975D01*
X329924Y11042D01*
X329973Y11111D01*
X330019Y11181D01*
X330062Y11254D01*
X330102Y11328D01*
X330138Y11404D01*
X330171Y11482D01*
X330201Y11561D01*
X330228Y11641D01*
X330251Y11722D01*
X330270Y11804D01*
X330286Y11886D01*
X330299Y11970D01*
X330308Y12054D01*
X330313Y12138D01*
X330315Y12222D01*
X329701Y10789D02*
X326223Y6697D01*
X330315Y6697D01*
D11*
X138326Y101221D02*
X134326Y101221D01*
X134326Y130221D01*
X138326Y130221D01*
X138326Y101221D01*
X141826Y100721D02*
X155826Y100721D01*
D12*
X121049Y141347D02*
X121049Y148713D01*
X120231Y141347D02*
X121868Y141347D01*
X121868Y148713D02*
X120231Y148713D01*
X126469Y141347D02*
X128106Y141347D01*
X126469Y141347D02*
X126391Y141349D01*
X126313Y141354D01*
X126236Y141364D01*
X126159Y141377D01*
X126083Y141393D01*
X126008Y141413D01*
X125934Y141437D01*
X125861Y141464D01*
X125789Y141495D01*
X125719Y141529D01*
X125651Y141566D01*
X125584Y141607D01*
X125519Y141651D01*
X125457Y141697D01*
X125397Y141747D01*
X125339Y141799D01*
X125284Y141854D01*
X125232Y141912D01*
X125182Y141972D01*
X125136Y142034D01*
X125092Y142099D01*
X125051Y142166D01*
X125014Y142234D01*
X124980Y142304D01*
X124949Y142376D01*
X124922Y142449D01*
X124898Y142523D01*
X124878Y142598D01*
X124862Y142674D01*
X124849Y142751D01*
X124839Y142828D01*
X124834Y142906D01*
X124832Y142984D01*
X124832Y147076D01*
X124834Y147156D01*
X124840Y147236D01*
X124850Y147316D01*
X124863Y147395D01*
X124881Y147474D01*
X124902Y147551D01*
X124928Y147627D01*
X124957Y147702D01*
X124989Y147776D01*
X125025Y147848D01*
X125065Y147918D01*
X125108Y147985D01*
X125154Y148051D01*
X125204Y148114D01*
X125256Y148175D01*
X125311Y148234D01*
X125370Y148289D01*
X125430Y148341D01*
X125494Y148391D01*
X125560Y148437D01*
X125627Y148480D01*
X125697Y148520D01*
X125769Y148556D01*
X125843Y148588D01*
X125917Y148617D01*
X125994Y148643D01*
X126071Y148664D01*
X126150Y148682D01*
X126229Y148695D01*
X126309Y148705D01*
X126389Y148711D01*
X126469Y148713D01*
X128106Y148713D01*
X132588Y148713D02*
X130951Y142984D01*
X135043Y142984D01*
X133816Y144621D02*
X133816Y141347D01*
X208220Y92935D02*
X209857Y92935D01*
X208220Y92935D02*
X208142Y92937D01*
X208064Y92942D01*
X207987Y92952D01*
X207910Y92965D01*
X207834Y92981D01*
X207759Y93001D01*
X207685Y93025D01*
X207612Y93052D01*
X207540Y93083D01*
X207470Y93117D01*
X207402Y93154D01*
X207335Y93195D01*
X207270Y93239D01*
X207208Y93285D01*
X207148Y93335D01*
X207090Y93387D01*
X207035Y93442D01*
X206983Y93500D01*
X206933Y93560D01*
X206887Y93622D01*
X206843Y93687D01*
X206802Y93754D01*
X206765Y93822D01*
X206731Y93892D01*
X206700Y93964D01*
X206673Y94037D01*
X206649Y94111D01*
X206629Y94186D01*
X206613Y94262D01*
X206600Y94339D01*
X206590Y94416D01*
X206585Y94494D01*
X206583Y94572D01*
X206583Y98664D01*
X206585Y98744D01*
X206591Y98824D01*
X206601Y98904D01*
X206614Y98983D01*
X206632Y99062D01*
X206653Y99139D01*
X206679Y99215D01*
X206708Y99290D01*
X206740Y99364D01*
X206776Y99436D01*
X206816Y99506D01*
X206859Y99573D01*
X206905Y99639D01*
X206955Y99702D01*
X207007Y99763D01*
X207062Y99822D01*
X207121Y99877D01*
X207181Y99929D01*
X207245Y99979D01*
X207311Y100025D01*
X207378Y100068D01*
X207448Y100108D01*
X207520Y100144D01*
X207594Y100176D01*
X207668Y100205D01*
X207745Y100231D01*
X207822Y100252D01*
X207901Y100270D01*
X207980Y100283D01*
X208060Y100293D01*
X208140Y100299D01*
X208220Y100301D01*
X209857Y100301D01*
X212702Y98664D02*
X214748Y100301D01*
X214748Y92935D01*
X212702Y92935D02*
X216794Y92935D01*
X220017Y92935D02*
X222063Y92935D01*
X222152Y92937D01*
X222241Y92943D01*
X222330Y92953D01*
X222418Y92966D01*
X222506Y92983D01*
X222593Y93005D01*
X222678Y93030D01*
X222763Y93058D01*
X222846Y93091D01*
X222928Y93127D01*
X223008Y93166D01*
X223086Y93209D01*
X223162Y93255D01*
X223237Y93305D01*
X223309Y93358D01*
X223378Y93414D01*
X223445Y93473D01*
X223510Y93534D01*
X223571Y93599D01*
X223630Y93666D01*
X223686Y93735D01*
X223739Y93807D01*
X223789Y93882D01*
X223835Y93958D01*
X223878Y94036D01*
X223917Y94116D01*
X223953Y94198D01*
X223986Y94281D01*
X224014Y94366D01*
X224039Y94451D01*
X224061Y94538D01*
X224078Y94626D01*
X224091Y94714D01*
X224101Y94803D01*
X224107Y94892D01*
X224109Y94981D01*
X224107Y95070D01*
X224101Y95159D01*
X224091Y95248D01*
X224078Y95336D01*
X224061Y95424D01*
X224039Y95511D01*
X224014Y95596D01*
X223986Y95681D01*
X223953Y95764D01*
X223917Y95846D01*
X223878Y95926D01*
X223835Y96004D01*
X223789Y96080D01*
X223739Y96155D01*
X223686Y96227D01*
X223630Y96296D01*
X223571Y96363D01*
X223510Y96428D01*
X223445Y96489D01*
X223378Y96548D01*
X223309Y96604D01*
X223237Y96657D01*
X223162Y96707D01*
X223086Y96753D01*
X223008Y96796D01*
X222928Y96835D01*
X222846Y96871D01*
X222763Y96904D01*
X222678Y96932D01*
X222593Y96957D01*
X222506Y96979D01*
X222418Y96996D01*
X222330Y97009D01*
X222241Y97019D01*
X222152Y97025D01*
X222063Y97027D01*
X222473Y100301D02*
X220017Y100301D01*
X222473Y100301D02*
X222552Y100299D01*
X222631Y100293D01*
X222710Y100284D01*
X222788Y100271D01*
X222865Y100253D01*
X222941Y100233D01*
X223016Y100208D01*
X223090Y100180D01*
X223163Y100149D01*
X223234Y100113D01*
X223303Y100075D01*
X223370Y100033D01*
X223435Y99988D01*
X223498Y99940D01*
X223559Y99889D01*
X223616Y99835D01*
X223672Y99779D01*
X223724Y99720D01*
X223774Y99658D01*
X223820Y99594D01*
X223864Y99528D01*
X223904Y99460D01*
X223940Y99390D01*
X223974Y99318D01*
X224004Y99244D01*
X224030Y99170D01*
X224053Y99094D01*
X224071Y99017D01*
X224087Y98940D01*
X224098Y98861D01*
X224106Y98783D01*
X224110Y98704D01*
X224110Y98624D01*
X224106Y98545D01*
X224098Y98467D01*
X224087Y98388D01*
X224071Y98311D01*
X224053Y98234D01*
X224030Y98158D01*
X224004Y98084D01*
X223974Y98010D01*
X223940Y97938D01*
X223904Y97868D01*
X223864Y97800D01*
X223820Y97734D01*
X223774Y97670D01*
X223724Y97608D01*
X223672Y97549D01*
X223616Y97493D01*
X223559Y97439D01*
X223498Y97388D01*
X223435Y97340D01*
X223370Y97295D01*
X223303Y97253D01*
X223234Y97215D01*
X223163Y97179D01*
X223090Y97148D01*
X223016Y97120D01*
X222941Y97095D01*
X222865Y97075D01*
X222788Y97057D01*
X222710Y97044D01*
X222631Y97035D01*
X222552Y97029D01*
X222473Y97027D01*
X220836Y97027D01*
X98341Y154496D02*
X98341Y161862D01*
X100387Y161862D01*
X100476Y161860D01*
X100565Y161854D01*
X100654Y161844D01*
X100742Y161831D01*
X100830Y161814D01*
X100917Y161792D01*
X101002Y161767D01*
X101087Y161739D01*
X101170Y161706D01*
X101252Y161670D01*
X101332Y161631D01*
X101410Y161588D01*
X101486Y161542D01*
X101561Y161492D01*
X101633Y161439D01*
X101702Y161383D01*
X101769Y161324D01*
X101834Y161263D01*
X101895Y161198D01*
X101954Y161131D01*
X102010Y161062D01*
X102063Y160990D01*
X102113Y160915D01*
X102159Y160839D01*
X102202Y160761D01*
X102241Y160681D01*
X102277Y160599D01*
X102310Y160516D01*
X102338Y160431D01*
X102363Y160346D01*
X102385Y160259D01*
X102402Y160171D01*
X102415Y160083D01*
X102425Y159994D01*
X102431Y159905D01*
X102433Y159816D01*
X102431Y159727D01*
X102425Y159638D01*
X102415Y159549D01*
X102402Y159461D01*
X102385Y159373D01*
X102363Y159286D01*
X102338Y159201D01*
X102310Y159116D01*
X102277Y159033D01*
X102241Y158951D01*
X102202Y158871D01*
X102159Y158793D01*
X102113Y158717D01*
X102063Y158642D01*
X102010Y158570D01*
X101954Y158501D01*
X101895Y158434D01*
X101834Y158369D01*
X101769Y158308D01*
X101702Y158249D01*
X101633Y158193D01*
X101561Y158140D01*
X101486Y158090D01*
X101410Y158044D01*
X101332Y158001D01*
X101252Y157962D01*
X101170Y157926D01*
X101087Y157893D01*
X101002Y157865D01*
X100917Y157840D01*
X100830Y157818D01*
X100742Y157801D01*
X100654Y157788D01*
X100565Y157778D01*
X100476Y157772D01*
X100387Y157770D01*
X100387Y157769D02*
X98341Y157769D01*
X100796Y157769D02*
X102433Y154496D01*
X105605Y156133D02*
X107242Y161862D01*
X105605Y156133D02*
X109697Y156133D01*
X108470Y157769D02*
X108470Y154496D01*
X103314Y119253D02*
X103314Y111887D01*
X103314Y119253D02*
X105360Y119253D01*
X105449Y119251D01*
X105538Y119245D01*
X105627Y119235D01*
X105715Y119222D01*
X105803Y119205D01*
X105890Y119183D01*
X105975Y119158D01*
X106060Y119130D01*
X106143Y119097D01*
X106225Y119061D01*
X106305Y119022D01*
X106383Y118979D01*
X106459Y118933D01*
X106534Y118883D01*
X106606Y118830D01*
X106675Y118774D01*
X106742Y118715D01*
X106807Y118654D01*
X106868Y118589D01*
X106927Y118522D01*
X106983Y118453D01*
X107036Y118381D01*
X107086Y118306D01*
X107132Y118230D01*
X107175Y118152D01*
X107214Y118072D01*
X107250Y117990D01*
X107283Y117907D01*
X107311Y117822D01*
X107336Y117737D01*
X107358Y117650D01*
X107375Y117562D01*
X107388Y117474D01*
X107398Y117385D01*
X107404Y117296D01*
X107406Y117207D01*
X107404Y117118D01*
X107398Y117029D01*
X107388Y116940D01*
X107375Y116852D01*
X107358Y116764D01*
X107336Y116677D01*
X107311Y116592D01*
X107283Y116507D01*
X107250Y116424D01*
X107214Y116342D01*
X107175Y116262D01*
X107132Y116184D01*
X107086Y116108D01*
X107036Y116033D01*
X106983Y115961D01*
X106927Y115892D01*
X106868Y115825D01*
X106807Y115760D01*
X106742Y115699D01*
X106675Y115640D01*
X106606Y115584D01*
X106534Y115531D01*
X106459Y115481D01*
X106383Y115435D01*
X106305Y115392D01*
X106225Y115353D01*
X106143Y115317D01*
X106060Y115284D01*
X105975Y115256D01*
X105890Y115231D01*
X105803Y115209D01*
X105715Y115192D01*
X105627Y115179D01*
X105538Y115169D01*
X105449Y115163D01*
X105360Y115161D01*
X103314Y115161D01*
X105769Y115161D02*
X107406Y111887D01*
X110578Y111887D02*
X113033Y111887D01*
X113111Y111889D01*
X113189Y111894D01*
X113266Y111904D01*
X113343Y111917D01*
X113419Y111933D01*
X113494Y111953D01*
X113568Y111977D01*
X113641Y112004D01*
X113713Y112035D01*
X113783Y112069D01*
X113852Y112106D01*
X113918Y112147D01*
X113983Y112191D01*
X114045Y112237D01*
X114105Y112287D01*
X114163Y112339D01*
X114218Y112394D01*
X114270Y112452D01*
X114320Y112512D01*
X114366Y112574D01*
X114410Y112639D01*
X114451Y112706D01*
X114488Y112774D01*
X114522Y112844D01*
X114553Y112916D01*
X114580Y112989D01*
X114604Y113063D01*
X114624Y113138D01*
X114640Y113214D01*
X114653Y113291D01*
X114663Y113368D01*
X114668Y113446D01*
X114670Y113524D01*
X114670Y114343D01*
X114668Y114421D01*
X114663Y114499D01*
X114653Y114576D01*
X114640Y114653D01*
X114624Y114729D01*
X114604Y114804D01*
X114580Y114878D01*
X114553Y114951D01*
X114522Y115023D01*
X114488Y115093D01*
X114451Y115162D01*
X114410Y115228D01*
X114366Y115293D01*
X114320Y115355D01*
X114270Y115415D01*
X114218Y115473D01*
X114163Y115528D01*
X114105Y115580D01*
X114045Y115630D01*
X113983Y115676D01*
X113918Y115720D01*
X113852Y115761D01*
X113783Y115798D01*
X113713Y115832D01*
X113641Y115863D01*
X113568Y115890D01*
X113494Y115914D01*
X113419Y115934D01*
X113343Y115950D01*
X113266Y115963D01*
X113189Y115973D01*
X113111Y115978D01*
X113033Y115980D01*
X113033Y115979D02*
X110578Y115979D01*
X110578Y119253D01*
X114670Y119253D01*
X174927Y68111D02*
X176564Y68111D01*
X174927Y68111D02*
X174849Y68113D01*
X174771Y68118D01*
X174694Y68128D01*
X174617Y68141D01*
X174541Y68157D01*
X174466Y68177D01*
X174392Y68201D01*
X174319Y68228D01*
X174247Y68259D01*
X174177Y68293D01*
X174109Y68330D01*
X174042Y68371D01*
X173977Y68415D01*
X173915Y68461D01*
X173855Y68511D01*
X173797Y68563D01*
X173742Y68618D01*
X173690Y68676D01*
X173640Y68736D01*
X173594Y68798D01*
X173550Y68863D01*
X173509Y68930D01*
X173472Y68998D01*
X173438Y69068D01*
X173407Y69140D01*
X173380Y69213D01*
X173356Y69287D01*
X173336Y69362D01*
X173320Y69438D01*
X173307Y69515D01*
X173297Y69592D01*
X173292Y69670D01*
X173290Y69748D01*
X173290Y73840D01*
X173292Y73920D01*
X173298Y74000D01*
X173308Y74080D01*
X173321Y74159D01*
X173339Y74238D01*
X173360Y74315D01*
X173386Y74391D01*
X173415Y74466D01*
X173447Y74540D01*
X173483Y74612D01*
X173523Y74682D01*
X173566Y74749D01*
X173612Y74815D01*
X173662Y74878D01*
X173714Y74939D01*
X173769Y74998D01*
X173828Y75053D01*
X173888Y75105D01*
X173952Y75155D01*
X174018Y75201D01*
X174085Y75244D01*
X174155Y75284D01*
X174227Y75320D01*
X174301Y75352D01*
X174375Y75381D01*
X174452Y75407D01*
X174529Y75428D01*
X174608Y75446D01*
X174687Y75459D01*
X174767Y75469D01*
X174847Y75475D01*
X174927Y75477D01*
X176564Y75477D01*
X179409Y73840D02*
X181455Y75477D01*
X181455Y68111D01*
X179409Y68111D02*
X183502Y68111D01*
X186725Y69748D02*
X188361Y75477D01*
X186725Y69748D02*
X190817Y69748D01*
X189589Y71385D02*
X189589Y68111D01*
X169989Y131343D02*
X169989Y138709D01*
X172035Y138709D01*
X172124Y138707D01*
X172213Y138701D01*
X172302Y138691D01*
X172390Y138678D01*
X172478Y138661D01*
X172565Y138639D01*
X172650Y138614D01*
X172735Y138586D01*
X172818Y138553D01*
X172900Y138517D01*
X172980Y138478D01*
X173058Y138435D01*
X173134Y138389D01*
X173209Y138339D01*
X173281Y138286D01*
X173350Y138230D01*
X173417Y138171D01*
X173482Y138110D01*
X173543Y138045D01*
X173602Y137978D01*
X173658Y137909D01*
X173711Y137837D01*
X173761Y137762D01*
X173807Y137686D01*
X173850Y137608D01*
X173889Y137528D01*
X173925Y137446D01*
X173958Y137363D01*
X173986Y137278D01*
X174011Y137193D01*
X174033Y137106D01*
X174050Y137018D01*
X174063Y136930D01*
X174073Y136841D01*
X174079Y136752D01*
X174081Y136663D01*
X174079Y136574D01*
X174073Y136485D01*
X174063Y136396D01*
X174050Y136308D01*
X174033Y136220D01*
X174011Y136133D01*
X173986Y136048D01*
X173958Y135963D01*
X173925Y135880D01*
X173889Y135798D01*
X173850Y135718D01*
X173807Y135640D01*
X173761Y135564D01*
X173711Y135489D01*
X173658Y135417D01*
X173602Y135348D01*
X173543Y135281D01*
X173482Y135216D01*
X173417Y135155D01*
X173350Y135096D01*
X173281Y135040D01*
X173209Y134987D01*
X173134Y134937D01*
X173058Y134891D01*
X172980Y134848D01*
X172900Y134809D01*
X172818Y134773D01*
X172735Y134740D01*
X172650Y134712D01*
X172565Y134687D01*
X172478Y134665D01*
X172390Y134648D01*
X172302Y134635D01*
X172213Y134625D01*
X172124Y134619D01*
X172035Y134617D01*
X169989Y134617D01*
X172444Y134617D02*
X174081Y131343D01*
X177253Y135435D02*
X179708Y135435D01*
X179786Y135433D01*
X179864Y135428D01*
X179941Y135418D01*
X180018Y135405D01*
X180094Y135389D01*
X180169Y135369D01*
X180243Y135345D01*
X180316Y135318D01*
X180388Y135287D01*
X180458Y135253D01*
X180527Y135216D01*
X180593Y135175D01*
X180658Y135131D01*
X180720Y135085D01*
X180780Y135035D01*
X180838Y134983D01*
X180893Y134928D01*
X180945Y134870D01*
X180995Y134810D01*
X181041Y134748D01*
X181085Y134683D01*
X181126Y134617D01*
X181163Y134548D01*
X181197Y134478D01*
X181228Y134406D01*
X181255Y134333D01*
X181279Y134259D01*
X181299Y134184D01*
X181315Y134108D01*
X181328Y134031D01*
X181338Y133954D01*
X181343Y133876D01*
X181345Y133798D01*
X181345Y133389D01*
X181343Y133300D01*
X181337Y133211D01*
X181327Y133122D01*
X181314Y133034D01*
X181297Y132946D01*
X181275Y132859D01*
X181250Y132774D01*
X181222Y132689D01*
X181189Y132606D01*
X181153Y132524D01*
X181114Y132444D01*
X181071Y132366D01*
X181025Y132290D01*
X180975Y132215D01*
X180922Y132143D01*
X180866Y132074D01*
X180807Y132007D01*
X180746Y131942D01*
X180681Y131881D01*
X180614Y131822D01*
X180545Y131766D01*
X180473Y131713D01*
X180398Y131663D01*
X180322Y131617D01*
X180244Y131574D01*
X180164Y131535D01*
X180082Y131499D01*
X179999Y131466D01*
X179914Y131438D01*
X179829Y131413D01*
X179742Y131391D01*
X179654Y131374D01*
X179566Y131361D01*
X179477Y131351D01*
X179388Y131345D01*
X179299Y131343D01*
X179210Y131345D01*
X179121Y131351D01*
X179032Y131361D01*
X178944Y131374D01*
X178856Y131391D01*
X178769Y131413D01*
X178684Y131438D01*
X178599Y131466D01*
X178516Y131499D01*
X178434Y131535D01*
X178354Y131574D01*
X178276Y131617D01*
X178200Y131663D01*
X178125Y131713D01*
X178053Y131766D01*
X177984Y131822D01*
X177917Y131881D01*
X177852Y131942D01*
X177791Y132007D01*
X177732Y132074D01*
X177676Y132143D01*
X177623Y132215D01*
X177573Y132290D01*
X177527Y132366D01*
X177484Y132444D01*
X177445Y132524D01*
X177409Y132606D01*
X177376Y132689D01*
X177348Y132774D01*
X177323Y132859D01*
X177301Y132946D01*
X177284Y133034D01*
X177271Y133122D01*
X177261Y133211D01*
X177255Y133300D01*
X177253Y133389D01*
X177253Y135435D01*
X177252Y135435D02*
X177254Y135549D01*
X177260Y135663D01*
X177270Y135777D01*
X177284Y135891D01*
X177302Y136004D01*
X177324Y136116D01*
X177349Y136227D01*
X177379Y136337D01*
X177412Y136447D01*
X177449Y136555D01*
X177490Y136661D01*
X177535Y136767D01*
X177583Y136870D01*
X177635Y136972D01*
X177691Y137072D01*
X177749Y137170D01*
X177812Y137266D01*
X177877Y137359D01*
X177946Y137451D01*
X178018Y137539D01*
X178093Y137626D01*
X178171Y137709D01*
X178252Y137790D01*
X178335Y137868D01*
X178422Y137943D01*
X178510Y138015D01*
X178602Y138084D01*
X178695Y138149D01*
X178791Y138211D01*
X178889Y138270D01*
X178989Y138326D01*
X179091Y138378D01*
X179194Y138426D01*
X179300Y138471D01*
X179406Y138512D01*
X179514Y138549D01*
X179624Y138582D01*
X179734Y138612D01*
X179845Y138637D01*
X179957Y138659D01*
X180070Y138677D01*
X180184Y138691D01*
X180298Y138701D01*
X180412Y138707D01*
X180526Y138709D01*
X147074Y154672D02*
X145437Y154672D01*
X145359Y154674D01*
X145281Y154679D01*
X145204Y154689D01*
X145127Y154702D01*
X145051Y154718D01*
X144976Y154738D01*
X144902Y154762D01*
X144829Y154789D01*
X144757Y154820D01*
X144687Y154854D01*
X144619Y154891D01*
X144552Y154932D01*
X144487Y154976D01*
X144425Y155022D01*
X144365Y155072D01*
X144307Y155124D01*
X144252Y155179D01*
X144200Y155237D01*
X144150Y155297D01*
X144104Y155359D01*
X144060Y155424D01*
X144019Y155491D01*
X143982Y155559D01*
X143948Y155629D01*
X143917Y155701D01*
X143890Y155774D01*
X143866Y155848D01*
X143846Y155923D01*
X143830Y155999D01*
X143817Y156076D01*
X143807Y156153D01*
X143802Y156231D01*
X143800Y156309D01*
X143800Y160401D01*
X143802Y160481D01*
X143808Y160561D01*
X143818Y160641D01*
X143831Y160720D01*
X143849Y160799D01*
X143870Y160876D01*
X143896Y160952D01*
X143925Y161027D01*
X143957Y161101D01*
X143993Y161173D01*
X144033Y161243D01*
X144076Y161310D01*
X144122Y161376D01*
X144172Y161439D01*
X144224Y161500D01*
X144279Y161559D01*
X144338Y161614D01*
X144398Y161666D01*
X144462Y161716D01*
X144528Y161762D01*
X144595Y161805D01*
X144665Y161845D01*
X144737Y161881D01*
X144811Y161913D01*
X144885Y161942D01*
X144962Y161968D01*
X145039Y161989D01*
X145118Y162007D01*
X145197Y162020D01*
X145277Y162030D01*
X145357Y162036D01*
X145437Y162038D01*
X147074Y162038D01*
X149919Y160401D02*
X151965Y162038D01*
X151965Y154672D01*
X149919Y154672D02*
X154011Y154672D01*
X157234Y154672D02*
X159689Y154672D01*
X159767Y154674D01*
X159845Y154679D01*
X159922Y154689D01*
X159999Y154702D01*
X160075Y154718D01*
X160150Y154738D01*
X160224Y154762D01*
X160297Y154789D01*
X160369Y154820D01*
X160439Y154854D01*
X160508Y154891D01*
X160574Y154932D01*
X160639Y154976D01*
X160701Y155022D01*
X160761Y155072D01*
X160819Y155124D01*
X160874Y155179D01*
X160926Y155237D01*
X160976Y155297D01*
X161022Y155359D01*
X161066Y155424D01*
X161107Y155491D01*
X161144Y155559D01*
X161178Y155629D01*
X161209Y155701D01*
X161236Y155774D01*
X161260Y155848D01*
X161280Y155923D01*
X161296Y155999D01*
X161309Y156076D01*
X161319Y156153D01*
X161324Y156231D01*
X161326Y156309D01*
X161326Y157127D01*
X161324Y157205D01*
X161319Y157283D01*
X161309Y157360D01*
X161296Y157437D01*
X161280Y157513D01*
X161260Y157588D01*
X161236Y157662D01*
X161209Y157735D01*
X161178Y157807D01*
X161144Y157877D01*
X161107Y157946D01*
X161066Y158012D01*
X161022Y158077D01*
X160976Y158139D01*
X160926Y158199D01*
X160874Y158257D01*
X160819Y158312D01*
X160761Y158364D01*
X160701Y158414D01*
X160639Y158460D01*
X160574Y158504D01*
X160508Y158545D01*
X160439Y158582D01*
X160369Y158616D01*
X160297Y158647D01*
X160224Y158674D01*
X160150Y158698D01*
X160075Y158718D01*
X159999Y158734D01*
X159922Y158747D01*
X159845Y158757D01*
X159767Y158762D01*
X159689Y158764D01*
X157234Y158764D01*
X157234Y162038D01*
X161326Y162038D01*
X67305Y133825D02*
X65668Y133825D01*
X65590Y133827D01*
X65512Y133832D01*
X65435Y133842D01*
X65358Y133855D01*
X65282Y133871D01*
X65207Y133891D01*
X65133Y133915D01*
X65060Y133942D01*
X64988Y133973D01*
X64918Y134007D01*
X64850Y134044D01*
X64783Y134085D01*
X64718Y134129D01*
X64656Y134175D01*
X64596Y134225D01*
X64538Y134277D01*
X64483Y134332D01*
X64431Y134390D01*
X64381Y134450D01*
X64335Y134512D01*
X64291Y134577D01*
X64250Y134644D01*
X64213Y134712D01*
X64179Y134782D01*
X64148Y134854D01*
X64121Y134927D01*
X64097Y135001D01*
X64077Y135076D01*
X64061Y135152D01*
X64048Y135229D01*
X64038Y135306D01*
X64033Y135384D01*
X64031Y135462D01*
X64031Y139554D01*
X64033Y139634D01*
X64039Y139714D01*
X64049Y139794D01*
X64062Y139873D01*
X64080Y139952D01*
X64101Y140029D01*
X64127Y140105D01*
X64156Y140180D01*
X64188Y140254D01*
X64224Y140326D01*
X64264Y140396D01*
X64307Y140463D01*
X64353Y140529D01*
X64403Y140592D01*
X64455Y140653D01*
X64510Y140712D01*
X64569Y140767D01*
X64629Y140819D01*
X64693Y140869D01*
X64759Y140915D01*
X64826Y140958D01*
X64896Y140998D01*
X64968Y141034D01*
X65042Y141066D01*
X65116Y141095D01*
X65193Y141121D01*
X65270Y141142D01*
X65349Y141160D01*
X65428Y141173D01*
X65508Y141183D01*
X65588Y141189D01*
X65668Y141191D01*
X67305Y141191D01*
X70151Y139554D02*
X72197Y141191D01*
X72197Y133825D01*
X70151Y133825D02*
X74243Y133825D01*
X77466Y137918D02*
X79921Y137918D01*
X79999Y137916D01*
X80077Y137911D01*
X80154Y137901D01*
X80231Y137888D01*
X80307Y137872D01*
X80382Y137852D01*
X80456Y137828D01*
X80529Y137801D01*
X80601Y137770D01*
X80671Y137736D01*
X80740Y137699D01*
X80806Y137658D01*
X80871Y137614D01*
X80933Y137568D01*
X80993Y137518D01*
X81051Y137466D01*
X81106Y137411D01*
X81158Y137353D01*
X81208Y137293D01*
X81254Y137231D01*
X81298Y137166D01*
X81339Y137100D01*
X81376Y137031D01*
X81410Y136961D01*
X81441Y136889D01*
X81468Y136816D01*
X81492Y136742D01*
X81512Y136667D01*
X81528Y136591D01*
X81541Y136514D01*
X81551Y136437D01*
X81556Y136359D01*
X81558Y136281D01*
X81558Y135871D01*
X81556Y135782D01*
X81550Y135693D01*
X81540Y135604D01*
X81527Y135516D01*
X81510Y135428D01*
X81488Y135341D01*
X81463Y135256D01*
X81435Y135171D01*
X81402Y135088D01*
X81366Y135006D01*
X81327Y134926D01*
X81284Y134848D01*
X81238Y134772D01*
X81188Y134697D01*
X81135Y134625D01*
X81079Y134556D01*
X81020Y134489D01*
X80959Y134424D01*
X80894Y134363D01*
X80827Y134304D01*
X80758Y134248D01*
X80686Y134195D01*
X80611Y134145D01*
X80535Y134099D01*
X80457Y134056D01*
X80377Y134017D01*
X80295Y133981D01*
X80212Y133948D01*
X80127Y133920D01*
X80042Y133895D01*
X79955Y133873D01*
X79867Y133856D01*
X79779Y133843D01*
X79690Y133833D01*
X79601Y133827D01*
X79512Y133825D01*
X79423Y133827D01*
X79334Y133833D01*
X79245Y133843D01*
X79157Y133856D01*
X79069Y133873D01*
X78982Y133895D01*
X78897Y133920D01*
X78812Y133948D01*
X78729Y133981D01*
X78647Y134017D01*
X78567Y134056D01*
X78489Y134099D01*
X78413Y134145D01*
X78338Y134195D01*
X78266Y134248D01*
X78197Y134304D01*
X78130Y134363D01*
X78065Y134424D01*
X78004Y134489D01*
X77945Y134556D01*
X77889Y134625D01*
X77836Y134697D01*
X77786Y134772D01*
X77740Y134848D01*
X77697Y134926D01*
X77658Y135006D01*
X77622Y135088D01*
X77589Y135171D01*
X77561Y135256D01*
X77536Y135341D01*
X77514Y135428D01*
X77497Y135516D01*
X77484Y135604D01*
X77474Y135693D01*
X77468Y135782D01*
X77466Y135871D01*
X77466Y137918D01*
X77468Y138032D01*
X77474Y138146D01*
X77484Y138260D01*
X77498Y138374D01*
X77516Y138487D01*
X77538Y138599D01*
X77563Y138710D01*
X77593Y138820D01*
X77626Y138930D01*
X77663Y139038D01*
X77704Y139144D01*
X77749Y139250D01*
X77797Y139353D01*
X77849Y139455D01*
X77905Y139555D01*
X77963Y139653D01*
X78026Y139749D01*
X78091Y139842D01*
X78160Y139934D01*
X78232Y140022D01*
X78307Y140109D01*
X78385Y140192D01*
X78466Y140273D01*
X78549Y140351D01*
X78636Y140426D01*
X78724Y140498D01*
X78816Y140567D01*
X78909Y140632D01*
X79005Y140694D01*
X79103Y140753D01*
X79203Y140809D01*
X79305Y140861D01*
X79408Y140909D01*
X79514Y140954D01*
X79620Y140995D01*
X79728Y141032D01*
X79838Y141065D01*
X79948Y141095D01*
X80059Y141120D01*
X80171Y141142D01*
X80284Y141160D01*
X80398Y141174D01*
X80512Y141184D01*
X80626Y141190D01*
X80740Y141192D01*
X83898Y69020D02*
X85535Y69020D01*
X83898Y69019D02*
X83820Y69021D01*
X83742Y69026D01*
X83665Y69036D01*
X83588Y69049D01*
X83512Y69065D01*
X83437Y69085D01*
X83363Y69109D01*
X83290Y69136D01*
X83218Y69167D01*
X83148Y69201D01*
X83080Y69238D01*
X83013Y69279D01*
X82948Y69323D01*
X82886Y69369D01*
X82826Y69419D01*
X82768Y69471D01*
X82713Y69526D01*
X82661Y69584D01*
X82611Y69644D01*
X82565Y69706D01*
X82521Y69771D01*
X82480Y69838D01*
X82443Y69906D01*
X82409Y69976D01*
X82378Y70048D01*
X82351Y70121D01*
X82327Y70195D01*
X82307Y70270D01*
X82291Y70346D01*
X82278Y70423D01*
X82268Y70500D01*
X82263Y70578D01*
X82261Y70656D01*
X82261Y74749D01*
X82263Y74829D01*
X82269Y74909D01*
X82279Y74989D01*
X82292Y75068D01*
X82310Y75147D01*
X82331Y75224D01*
X82357Y75300D01*
X82386Y75375D01*
X82418Y75449D01*
X82454Y75521D01*
X82494Y75591D01*
X82537Y75658D01*
X82583Y75724D01*
X82633Y75787D01*
X82685Y75848D01*
X82740Y75907D01*
X82799Y75962D01*
X82859Y76014D01*
X82923Y76064D01*
X82989Y76110D01*
X83056Y76153D01*
X83126Y76193D01*
X83198Y76229D01*
X83272Y76261D01*
X83346Y76290D01*
X83423Y76316D01*
X83500Y76337D01*
X83579Y76355D01*
X83658Y76368D01*
X83738Y76378D01*
X83818Y76384D01*
X83898Y76386D01*
X85535Y76386D01*
X88381Y74749D02*
X90427Y76386D01*
X90427Y69020D01*
X88381Y69020D02*
X92473Y69020D01*
X95696Y75567D02*
X95696Y76386D01*
X99788Y76386D01*
X97742Y69020D01*
X128877Y68992D02*
X130514Y68992D01*
X128877Y68992D02*
X128799Y68994D01*
X128721Y68999D01*
X128644Y69009D01*
X128567Y69022D01*
X128491Y69038D01*
X128416Y69058D01*
X128342Y69082D01*
X128269Y69109D01*
X128197Y69140D01*
X128127Y69174D01*
X128059Y69211D01*
X127992Y69252D01*
X127927Y69296D01*
X127865Y69342D01*
X127805Y69392D01*
X127747Y69444D01*
X127692Y69499D01*
X127640Y69557D01*
X127590Y69617D01*
X127544Y69679D01*
X127500Y69744D01*
X127459Y69811D01*
X127422Y69879D01*
X127388Y69949D01*
X127357Y70021D01*
X127330Y70094D01*
X127306Y70168D01*
X127286Y70243D01*
X127270Y70319D01*
X127257Y70396D01*
X127247Y70473D01*
X127242Y70551D01*
X127240Y70629D01*
X127240Y74721D01*
X127242Y74801D01*
X127248Y74881D01*
X127258Y74961D01*
X127271Y75040D01*
X127289Y75119D01*
X127310Y75196D01*
X127336Y75272D01*
X127365Y75347D01*
X127397Y75421D01*
X127433Y75493D01*
X127473Y75563D01*
X127516Y75630D01*
X127562Y75696D01*
X127612Y75759D01*
X127664Y75820D01*
X127719Y75879D01*
X127778Y75934D01*
X127838Y75986D01*
X127902Y76036D01*
X127968Y76082D01*
X128035Y76125D01*
X128105Y76165D01*
X128177Y76201D01*
X128251Y76233D01*
X128325Y76262D01*
X128402Y76288D01*
X128479Y76309D01*
X128558Y76327D01*
X128637Y76340D01*
X128717Y76350D01*
X128797Y76356D01*
X128877Y76358D01*
X130514Y76358D01*
X133359Y74721D02*
X135405Y76358D01*
X135405Y68992D01*
X133359Y68992D02*
X137451Y68992D01*
X140674Y71038D02*
X140676Y71127D01*
X140682Y71216D01*
X140692Y71305D01*
X140705Y71393D01*
X140722Y71481D01*
X140744Y71568D01*
X140769Y71653D01*
X140797Y71738D01*
X140830Y71821D01*
X140866Y71903D01*
X140905Y71983D01*
X140948Y72061D01*
X140994Y72137D01*
X141044Y72212D01*
X141097Y72284D01*
X141153Y72353D01*
X141212Y72420D01*
X141273Y72485D01*
X141338Y72546D01*
X141405Y72605D01*
X141474Y72661D01*
X141546Y72714D01*
X141621Y72764D01*
X141697Y72810D01*
X141775Y72853D01*
X141855Y72892D01*
X141937Y72928D01*
X142020Y72961D01*
X142105Y72989D01*
X142190Y73014D01*
X142277Y73036D01*
X142365Y73053D01*
X142453Y73066D01*
X142542Y73076D01*
X142631Y73082D01*
X142720Y73084D01*
X142809Y73082D01*
X142898Y73076D01*
X142987Y73066D01*
X143075Y73053D01*
X143163Y73036D01*
X143250Y73014D01*
X143335Y72989D01*
X143420Y72961D01*
X143503Y72928D01*
X143585Y72892D01*
X143665Y72853D01*
X143743Y72810D01*
X143819Y72764D01*
X143894Y72714D01*
X143966Y72661D01*
X144035Y72605D01*
X144102Y72546D01*
X144167Y72485D01*
X144228Y72420D01*
X144287Y72353D01*
X144343Y72284D01*
X144396Y72212D01*
X144446Y72137D01*
X144492Y72061D01*
X144535Y71983D01*
X144574Y71903D01*
X144610Y71821D01*
X144643Y71738D01*
X144671Y71653D01*
X144696Y71568D01*
X144718Y71481D01*
X144735Y71393D01*
X144748Y71305D01*
X144758Y71216D01*
X144764Y71127D01*
X144766Y71038D01*
X144764Y70949D01*
X144758Y70860D01*
X144748Y70771D01*
X144735Y70683D01*
X144718Y70595D01*
X144696Y70508D01*
X144671Y70423D01*
X144643Y70338D01*
X144610Y70255D01*
X144574Y70173D01*
X144535Y70093D01*
X144492Y70015D01*
X144446Y69939D01*
X144396Y69864D01*
X144343Y69792D01*
X144287Y69723D01*
X144228Y69656D01*
X144167Y69591D01*
X144102Y69530D01*
X144035Y69471D01*
X143966Y69415D01*
X143894Y69362D01*
X143819Y69312D01*
X143743Y69266D01*
X143665Y69223D01*
X143585Y69184D01*
X143503Y69148D01*
X143420Y69115D01*
X143335Y69087D01*
X143250Y69062D01*
X143163Y69040D01*
X143075Y69023D01*
X142987Y69010D01*
X142898Y69000D01*
X142809Y68994D01*
X142720Y68992D01*
X142631Y68994D01*
X142542Y69000D01*
X142453Y69010D01*
X142365Y69023D01*
X142277Y69040D01*
X142190Y69062D01*
X142105Y69087D01*
X142020Y69115D01*
X141937Y69148D01*
X141855Y69184D01*
X141775Y69223D01*
X141697Y69266D01*
X141621Y69312D01*
X141546Y69362D01*
X141474Y69415D01*
X141405Y69471D01*
X141338Y69530D01*
X141273Y69591D01*
X141212Y69656D01*
X141153Y69723D01*
X141097Y69792D01*
X141044Y69864D01*
X140994Y69939D01*
X140948Y70015D01*
X140905Y70093D01*
X140866Y70173D01*
X140830Y70255D01*
X140797Y70338D01*
X140769Y70423D01*
X140744Y70508D01*
X140722Y70595D01*
X140705Y70683D01*
X140692Y70771D01*
X140682Y70860D01*
X140676Y70949D01*
X140674Y71038D01*
X141083Y74721D02*
X141085Y74800D01*
X141091Y74879D01*
X141100Y74958D01*
X141113Y75036D01*
X141131Y75113D01*
X141151Y75189D01*
X141176Y75264D01*
X141204Y75338D01*
X141235Y75411D01*
X141271Y75482D01*
X141309Y75551D01*
X141351Y75618D01*
X141396Y75683D01*
X141444Y75746D01*
X141495Y75807D01*
X141549Y75864D01*
X141605Y75920D01*
X141664Y75972D01*
X141726Y76022D01*
X141790Y76068D01*
X141856Y76112D01*
X141924Y76152D01*
X141994Y76188D01*
X142066Y76222D01*
X142140Y76252D01*
X142214Y76278D01*
X142290Y76301D01*
X142367Y76319D01*
X142444Y76335D01*
X142523Y76346D01*
X142601Y76354D01*
X142680Y76358D01*
X142760Y76358D01*
X142839Y76354D01*
X142917Y76346D01*
X142996Y76335D01*
X143073Y76319D01*
X143150Y76301D01*
X143226Y76278D01*
X143300Y76252D01*
X143374Y76222D01*
X143446Y76188D01*
X143516Y76152D01*
X143584Y76112D01*
X143650Y76068D01*
X143714Y76022D01*
X143776Y75972D01*
X143835Y75920D01*
X143891Y75864D01*
X143945Y75807D01*
X143996Y75746D01*
X144044Y75683D01*
X144089Y75618D01*
X144131Y75551D01*
X144169Y75482D01*
X144205Y75411D01*
X144236Y75338D01*
X144264Y75264D01*
X144289Y75189D01*
X144309Y75113D01*
X144327Y75036D01*
X144340Y74958D01*
X144349Y74879D01*
X144355Y74800D01*
X144357Y74721D01*
X144355Y74642D01*
X144349Y74563D01*
X144340Y74484D01*
X144327Y74406D01*
X144309Y74329D01*
X144289Y74253D01*
X144264Y74178D01*
X144236Y74104D01*
X144205Y74031D01*
X144169Y73960D01*
X144131Y73891D01*
X144089Y73824D01*
X144044Y73759D01*
X143996Y73696D01*
X143945Y73635D01*
X143891Y73578D01*
X143835Y73522D01*
X143776Y73470D01*
X143714Y73420D01*
X143650Y73374D01*
X143584Y73330D01*
X143516Y73290D01*
X143446Y73254D01*
X143374Y73220D01*
X143300Y73190D01*
X143226Y73164D01*
X143150Y73141D01*
X143073Y73123D01*
X142996Y73107D01*
X142917Y73096D01*
X142839Y73088D01*
X142760Y73084D01*
X142680Y73084D01*
X142601Y73088D01*
X142523Y73096D01*
X142444Y73107D01*
X142367Y73123D01*
X142290Y73141D01*
X142214Y73164D01*
X142140Y73190D01*
X142066Y73220D01*
X141994Y73254D01*
X141924Y73290D01*
X141856Y73330D01*
X141790Y73374D01*
X141726Y73420D01*
X141664Y73470D01*
X141605Y73522D01*
X141549Y73578D01*
X141495Y73635D01*
X141444Y73696D01*
X141396Y73759D01*
X141351Y73824D01*
X141309Y73891D01*
X141271Y73960D01*
X141235Y74031D01*
X141204Y74104D01*
X141176Y74178D01*
X141151Y74253D01*
X141131Y74329D01*
X141113Y74406D01*
X141100Y74484D01*
X141091Y74563D01*
X141085Y74642D01*
X141083Y74721D01*
X514930Y362625D02*
X516566Y362625D01*
X514930Y362625D02*
X514852Y362627D01*
X514774Y362632D01*
X514697Y362642D01*
X514620Y362655D01*
X514544Y362671D01*
X514469Y362691D01*
X514395Y362715D01*
X514322Y362742D01*
X514250Y362773D01*
X514180Y362807D01*
X514112Y362844D01*
X514045Y362885D01*
X513980Y362929D01*
X513918Y362975D01*
X513858Y363025D01*
X513800Y363077D01*
X513745Y363132D01*
X513693Y363190D01*
X513643Y363250D01*
X513597Y363312D01*
X513553Y363377D01*
X513512Y363444D01*
X513475Y363512D01*
X513441Y363582D01*
X513410Y363654D01*
X513383Y363727D01*
X513359Y363801D01*
X513339Y363876D01*
X513323Y363952D01*
X513310Y364029D01*
X513300Y364106D01*
X513295Y364184D01*
X513293Y364262D01*
X513293Y368354D01*
X513295Y368434D01*
X513301Y368514D01*
X513311Y368594D01*
X513324Y368673D01*
X513342Y368752D01*
X513363Y368829D01*
X513389Y368905D01*
X513418Y368980D01*
X513450Y369054D01*
X513486Y369126D01*
X513526Y369196D01*
X513569Y369263D01*
X513615Y369329D01*
X513665Y369392D01*
X513717Y369453D01*
X513772Y369512D01*
X513831Y369567D01*
X513891Y369619D01*
X513955Y369669D01*
X514021Y369715D01*
X514088Y369758D01*
X514158Y369798D01*
X514230Y369834D01*
X514304Y369866D01*
X514378Y369895D01*
X514455Y369921D01*
X514532Y369942D01*
X514611Y369960D01*
X514690Y369973D01*
X514770Y369983D01*
X514850Y369989D01*
X514930Y369991D01*
X516566Y369991D01*
X519412Y368354D02*
X521458Y369991D01*
X521458Y362625D01*
X519412Y362625D02*
X523504Y362625D01*
X528364Y365899D02*
X530819Y365899D01*
X528364Y365899D02*
X528286Y365901D01*
X528208Y365906D01*
X528131Y365916D01*
X528054Y365929D01*
X527978Y365945D01*
X527903Y365965D01*
X527829Y365989D01*
X527756Y366016D01*
X527684Y366047D01*
X527614Y366081D01*
X527545Y366118D01*
X527479Y366159D01*
X527414Y366203D01*
X527352Y366249D01*
X527292Y366299D01*
X527234Y366351D01*
X527179Y366406D01*
X527127Y366464D01*
X527077Y366524D01*
X527031Y366586D01*
X526987Y366651D01*
X526946Y366718D01*
X526909Y366786D01*
X526875Y366856D01*
X526844Y366928D01*
X526817Y367001D01*
X526793Y367075D01*
X526773Y367150D01*
X526757Y367226D01*
X526744Y367303D01*
X526734Y367380D01*
X526729Y367458D01*
X526727Y367536D01*
X526727Y367945D01*
X526729Y368034D01*
X526735Y368123D01*
X526745Y368212D01*
X526758Y368300D01*
X526775Y368388D01*
X526797Y368475D01*
X526822Y368560D01*
X526850Y368645D01*
X526883Y368728D01*
X526919Y368810D01*
X526958Y368890D01*
X527001Y368968D01*
X527047Y369044D01*
X527097Y369119D01*
X527150Y369191D01*
X527206Y369260D01*
X527265Y369327D01*
X527326Y369392D01*
X527391Y369453D01*
X527458Y369512D01*
X527527Y369568D01*
X527599Y369621D01*
X527674Y369671D01*
X527750Y369717D01*
X527828Y369760D01*
X527908Y369799D01*
X527990Y369835D01*
X528073Y369868D01*
X528158Y369896D01*
X528243Y369921D01*
X528330Y369943D01*
X528418Y369960D01*
X528506Y369973D01*
X528595Y369983D01*
X528684Y369989D01*
X528773Y369991D01*
X528862Y369989D01*
X528951Y369983D01*
X529040Y369973D01*
X529128Y369960D01*
X529216Y369943D01*
X529303Y369921D01*
X529388Y369896D01*
X529473Y369868D01*
X529556Y369835D01*
X529638Y369799D01*
X529718Y369760D01*
X529796Y369717D01*
X529872Y369671D01*
X529947Y369621D01*
X530019Y369568D01*
X530088Y369512D01*
X530155Y369453D01*
X530220Y369392D01*
X530281Y369327D01*
X530340Y369260D01*
X530396Y369191D01*
X530449Y369119D01*
X530499Y369044D01*
X530545Y368968D01*
X530588Y368890D01*
X530627Y368810D01*
X530663Y368728D01*
X530696Y368645D01*
X530724Y368560D01*
X530749Y368475D01*
X530771Y368388D01*
X530788Y368300D01*
X530801Y368212D01*
X530811Y368123D01*
X530817Y368034D01*
X530819Y367945D01*
X530819Y365899D01*
X530817Y365787D01*
X530811Y365676D01*
X530802Y365564D01*
X530789Y365453D01*
X530771Y365343D01*
X530751Y365233D01*
X530726Y365124D01*
X530698Y365016D01*
X530666Y364909D01*
X530630Y364803D01*
X530591Y364698D01*
X530548Y364595D01*
X530502Y364493D01*
X530452Y364393D01*
X530399Y364294D01*
X530342Y364198D01*
X530283Y364103D01*
X530220Y364011D01*
X530154Y363921D01*
X530085Y363833D01*
X530013Y363747D01*
X529938Y363664D01*
X529860Y363584D01*
X529780Y363506D01*
X529697Y363431D01*
X529611Y363359D01*
X529523Y363290D01*
X529433Y363224D01*
X529341Y363161D01*
X529246Y363102D01*
X529150Y363045D01*
X529051Y362992D01*
X528951Y362942D01*
X528849Y362896D01*
X528746Y362853D01*
X528641Y362814D01*
X528535Y362778D01*
X528428Y362746D01*
X528320Y362718D01*
X528211Y362693D01*
X528101Y362673D01*
X527991Y362655D01*
X527880Y362642D01*
X527768Y362633D01*
X527657Y362627D01*
X527545Y362625D01*
D11*
X796434Y423260D02*
X796434Y424760D01*
X796434Y423260D02*
X776434Y423260D01*
X776434Y424760D01*
X796434Y424760D01*
D13*
X799684Y437760D02*
X799686Y437830D01*
X799692Y437900D01*
X799702Y437969D01*
X799715Y438038D01*
X799733Y438106D01*
X799754Y438173D01*
X799779Y438238D01*
X799808Y438302D01*
X799840Y438365D01*
X799876Y438425D01*
X799915Y438483D01*
X799957Y438539D01*
X800002Y438593D01*
X800050Y438644D01*
X800101Y438692D01*
X800155Y438737D01*
X800211Y438779D01*
X800269Y438818D01*
X800329Y438854D01*
X800392Y438886D01*
X800456Y438915D01*
X800521Y438940D01*
X800588Y438961D01*
X800656Y438979D01*
X800725Y438992D01*
X800794Y439002D01*
X800864Y439008D01*
X800934Y439010D01*
X801004Y439008D01*
X801074Y439002D01*
X801143Y438992D01*
X801212Y438979D01*
X801280Y438961D01*
X801347Y438940D01*
X801412Y438915D01*
X801476Y438886D01*
X801539Y438854D01*
X801599Y438818D01*
X801657Y438779D01*
X801713Y438737D01*
X801767Y438692D01*
X801818Y438644D01*
X801866Y438593D01*
X801911Y438539D01*
X801953Y438483D01*
X801992Y438425D01*
X802028Y438365D01*
X802060Y438302D01*
X802089Y438238D01*
X802114Y438173D01*
X802135Y438106D01*
X802153Y438038D01*
X802166Y437969D01*
X802176Y437900D01*
X802182Y437830D01*
X802184Y437760D01*
X802182Y437690D01*
X802176Y437620D01*
X802166Y437551D01*
X802153Y437482D01*
X802135Y437414D01*
X802114Y437347D01*
X802089Y437282D01*
X802060Y437218D01*
X802028Y437155D01*
X801992Y437095D01*
X801953Y437037D01*
X801911Y436981D01*
X801866Y436927D01*
X801818Y436876D01*
X801767Y436828D01*
X801713Y436783D01*
X801657Y436741D01*
X801599Y436702D01*
X801539Y436666D01*
X801476Y436634D01*
X801412Y436605D01*
X801347Y436580D01*
X801280Y436559D01*
X801212Y436541D01*
X801143Y436528D01*
X801074Y436518D01*
X801004Y436512D01*
X800934Y436510D01*
X800864Y436512D01*
X800794Y436518D01*
X800725Y436528D01*
X800656Y436541D01*
X800588Y436559D01*
X800521Y436580D01*
X800456Y436605D01*
X800392Y436634D01*
X800329Y436666D01*
X800269Y436702D01*
X800211Y436741D01*
X800155Y436783D01*
X800101Y436828D01*
X800050Y436876D01*
X800002Y436927D01*
X799957Y436981D01*
X799915Y437037D01*
X799876Y437095D01*
X799840Y437155D01*
X799808Y437218D01*
X799779Y437282D01*
X799754Y437347D01*
X799733Y437414D01*
X799715Y437482D01*
X799702Y437551D01*
X799692Y437620D01*
X799686Y437690D01*
X799684Y437760D01*
D11*
X796226Y390239D02*
X796226Y388739D01*
X776226Y388739D01*
X776226Y390239D01*
X796226Y390239D01*
D13*
X799476Y403239D02*
X799478Y403309D01*
X799484Y403379D01*
X799494Y403448D01*
X799507Y403517D01*
X799525Y403585D01*
X799546Y403652D01*
X799571Y403717D01*
X799600Y403781D01*
X799632Y403844D01*
X799668Y403904D01*
X799707Y403962D01*
X799749Y404018D01*
X799794Y404072D01*
X799842Y404123D01*
X799893Y404171D01*
X799947Y404216D01*
X800003Y404258D01*
X800061Y404297D01*
X800121Y404333D01*
X800184Y404365D01*
X800248Y404394D01*
X800313Y404419D01*
X800380Y404440D01*
X800448Y404458D01*
X800517Y404471D01*
X800586Y404481D01*
X800656Y404487D01*
X800726Y404489D01*
X800796Y404487D01*
X800866Y404481D01*
X800935Y404471D01*
X801004Y404458D01*
X801072Y404440D01*
X801139Y404419D01*
X801204Y404394D01*
X801268Y404365D01*
X801331Y404333D01*
X801391Y404297D01*
X801449Y404258D01*
X801505Y404216D01*
X801559Y404171D01*
X801610Y404123D01*
X801658Y404072D01*
X801703Y404018D01*
X801745Y403962D01*
X801784Y403904D01*
X801820Y403844D01*
X801852Y403781D01*
X801881Y403717D01*
X801906Y403652D01*
X801927Y403585D01*
X801945Y403517D01*
X801958Y403448D01*
X801968Y403379D01*
X801974Y403309D01*
X801976Y403239D01*
X801974Y403169D01*
X801968Y403099D01*
X801958Y403030D01*
X801945Y402961D01*
X801927Y402893D01*
X801906Y402826D01*
X801881Y402761D01*
X801852Y402697D01*
X801820Y402634D01*
X801784Y402574D01*
X801745Y402516D01*
X801703Y402460D01*
X801658Y402406D01*
X801610Y402355D01*
X801559Y402307D01*
X801505Y402262D01*
X801449Y402220D01*
X801391Y402181D01*
X801331Y402145D01*
X801268Y402113D01*
X801204Y402084D01*
X801139Y402059D01*
X801072Y402038D01*
X801004Y402020D01*
X800935Y402007D01*
X800866Y401997D01*
X800796Y401991D01*
X800726Y401989D01*
X800656Y401991D01*
X800586Y401997D01*
X800517Y402007D01*
X800448Y402020D01*
X800380Y402038D01*
X800313Y402059D01*
X800248Y402084D01*
X800184Y402113D01*
X800121Y402145D01*
X800061Y402181D01*
X800003Y402220D01*
X799947Y402262D01*
X799893Y402307D01*
X799842Y402355D01*
X799794Y402406D01*
X799749Y402460D01*
X799707Y402516D01*
X799668Y402574D01*
X799632Y402634D01*
X799600Y402697D01*
X799571Y402761D01*
X799546Y402826D01*
X799525Y402893D01*
X799507Y402961D01*
X799494Y403030D01*
X799484Y403099D01*
X799478Y403169D01*
X799476Y403239D01*
D11*
X796204Y355498D02*
X796204Y353998D01*
X776204Y353998D01*
X776204Y355498D01*
X796204Y355498D01*
D13*
X799454Y368498D02*
X799456Y368568D01*
X799462Y368638D01*
X799472Y368707D01*
X799485Y368776D01*
X799503Y368844D01*
X799524Y368911D01*
X799549Y368976D01*
X799578Y369040D01*
X799610Y369103D01*
X799646Y369163D01*
X799685Y369221D01*
X799727Y369277D01*
X799772Y369331D01*
X799820Y369382D01*
X799871Y369430D01*
X799925Y369475D01*
X799981Y369517D01*
X800039Y369556D01*
X800099Y369592D01*
X800162Y369624D01*
X800226Y369653D01*
X800291Y369678D01*
X800358Y369699D01*
X800426Y369717D01*
X800495Y369730D01*
X800564Y369740D01*
X800634Y369746D01*
X800704Y369748D01*
X800774Y369746D01*
X800844Y369740D01*
X800913Y369730D01*
X800982Y369717D01*
X801050Y369699D01*
X801117Y369678D01*
X801182Y369653D01*
X801246Y369624D01*
X801309Y369592D01*
X801369Y369556D01*
X801427Y369517D01*
X801483Y369475D01*
X801537Y369430D01*
X801588Y369382D01*
X801636Y369331D01*
X801681Y369277D01*
X801723Y369221D01*
X801762Y369163D01*
X801798Y369103D01*
X801830Y369040D01*
X801859Y368976D01*
X801884Y368911D01*
X801905Y368844D01*
X801923Y368776D01*
X801936Y368707D01*
X801946Y368638D01*
X801952Y368568D01*
X801954Y368498D01*
X801952Y368428D01*
X801946Y368358D01*
X801936Y368289D01*
X801923Y368220D01*
X801905Y368152D01*
X801884Y368085D01*
X801859Y368020D01*
X801830Y367956D01*
X801798Y367893D01*
X801762Y367833D01*
X801723Y367775D01*
X801681Y367719D01*
X801636Y367665D01*
X801588Y367614D01*
X801537Y367566D01*
X801483Y367521D01*
X801427Y367479D01*
X801369Y367440D01*
X801309Y367404D01*
X801246Y367372D01*
X801182Y367343D01*
X801117Y367318D01*
X801050Y367297D01*
X800982Y367279D01*
X800913Y367266D01*
X800844Y367256D01*
X800774Y367250D01*
X800704Y367248D01*
X800634Y367250D01*
X800564Y367256D01*
X800495Y367266D01*
X800426Y367279D01*
X800358Y367297D01*
X800291Y367318D01*
X800226Y367343D01*
X800162Y367372D01*
X800099Y367404D01*
X800039Y367440D01*
X799981Y367479D01*
X799925Y367521D01*
X799871Y367566D01*
X799820Y367614D01*
X799772Y367665D01*
X799727Y367719D01*
X799685Y367775D01*
X799646Y367833D01*
X799610Y367893D01*
X799578Y367956D01*
X799549Y368020D01*
X799524Y368085D01*
X799503Y368152D01*
X799485Y368220D01*
X799472Y368289D01*
X799462Y368358D01*
X799456Y368428D01*
X799454Y368498D01*
D11*
X796228Y320625D02*
X796228Y319125D01*
X776228Y319125D01*
X776228Y320625D01*
X796228Y320625D01*
D13*
X799478Y333625D02*
X799480Y333695D01*
X799486Y333765D01*
X799496Y333834D01*
X799509Y333903D01*
X799527Y333971D01*
X799548Y334038D01*
X799573Y334103D01*
X799602Y334167D01*
X799634Y334230D01*
X799670Y334290D01*
X799709Y334348D01*
X799751Y334404D01*
X799796Y334458D01*
X799844Y334509D01*
X799895Y334557D01*
X799949Y334602D01*
X800005Y334644D01*
X800063Y334683D01*
X800123Y334719D01*
X800186Y334751D01*
X800250Y334780D01*
X800315Y334805D01*
X800382Y334826D01*
X800450Y334844D01*
X800519Y334857D01*
X800588Y334867D01*
X800658Y334873D01*
X800728Y334875D01*
X800798Y334873D01*
X800868Y334867D01*
X800937Y334857D01*
X801006Y334844D01*
X801074Y334826D01*
X801141Y334805D01*
X801206Y334780D01*
X801270Y334751D01*
X801333Y334719D01*
X801393Y334683D01*
X801451Y334644D01*
X801507Y334602D01*
X801561Y334557D01*
X801612Y334509D01*
X801660Y334458D01*
X801705Y334404D01*
X801747Y334348D01*
X801786Y334290D01*
X801822Y334230D01*
X801854Y334167D01*
X801883Y334103D01*
X801908Y334038D01*
X801929Y333971D01*
X801947Y333903D01*
X801960Y333834D01*
X801970Y333765D01*
X801976Y333695D01*
X801978Y333625D01*
X801976Y333555D01*
X801970Y333485D01*
X801960Y333416D01*
X801947Y333347D01*
X801929Y333279D01*
X801908Y333212D01*
X801883Y333147D01*
X801854Y333083D01*
X801822Y333020D01*
X801786Y332960D01*
X801747Y332902D01*
X801705Y332846D01*
X801660Y332792D01*
X801612Y332741D01*
X801561Y332693D01*
X801507Y332648D01*
X801451Y332606D01*
X801393Y332567D01*
X801333Y332531D01*
X801270Y332499D01*
X801206Y332470D01*
X801141Y332445D01*
X801074Y332424D01*
X801006Y332406D01*
X800937Y332393D01*
X800868Y332383D01*
X800798Y332377D01*
X800728Y332375D01*
X800658Y332377D01*
X800588Y332383D01*
X800519Y332393D01*
X800450Y332406D01*
X800382Y332424D01*
X800315Y332445D01*
X800250Y332470D01*
X800186Y332499D01*
X800123Y332531D01*
X800063Y332567D01*
X800005Y332606D01*
X799949Y332648D01*
X799895Y332693D01*
X799844Y332741D01*
X799796Y332792D01*
X799751Y332846D01*
X799709Y332902D01*
X799670Y332960D01*
X799634Y333020D01*
X799602Y333083D01*
X799573Y333147D01*
X799548Y333212D01*
X799527Y333279D01*
X799509Y333347D01*
X799496Y333416D01*
X799486Y333485D01*
X799480Y333555D01*
X799478Y333625D01*
D11*
X796300Y285766D02*
X796300Y284266D01*
X776300Y284266D01*
X776300Y285766D01*
X796300Y285766D01*
D13*
X799550Y298766D02*
X799552Y298836D01*
X799558Y298906D01*
X799568Y298975D01*
X799581Y299044D01*
X799599Y299112D01*
X799620Y299179D01*
X799645Y299244D01*
X799674Y299308D01*
X799706Y299371D01*
X799742Y299431D01*
X799781Y299489D01*
X799823Y299545D01*
X799868Y299599D01*
X799916Y299650D01*
X799967Y299698D01*
X800021Y299743D01*
X800077Y299785D01*
X800135Y299824D01*
X800195Y299860D01*
X800258Y299892D01*
X800322Y299921D01*
X800387Y299946D01*
X800454Y299967D01*
X800522Y299985D01*
X800591Y299998D01*
X800660Y300008D01*
X800730Y300014D01*
X800800Y300016D01*
X800870Y300014D01*
X800940Y300008D01*
X801009Y299998D01*
X801078Y299985D01*
X801146Y299967D01*
X801213Y299946D01*
X801278Y299921D01*
X801342Y299892D01*
X801405Y299860D01*
X801465Y299824D01*
X801523Y299785D01*
X801579Y299743D01*
X801633Y299698D01*
X801684Y299650D01*
X801732Y299599D01*
X801777Y299545D01*
X801819Y299489D01*
X801858Y299431D01*
X801894Y299371D01*
X801926Y299308D01*
X801955Y299244D01*
X801980Y299179D01*
X802001Y299112D01*
X802019Y299044D01*
X802032Y298975D01*
X802042Y298906D01*
X802048Y298836D01*
X802050Y298766D01*
X802048Y298696D01*
X802042Y298626D01*
X802032Y298557D01*
X802019Y298488D01*
X802001Y298420D01*
X801980Y298353D01*
X801955Y298288D01*
X801926Y298224D01*
X801894Y298161D01*
X801858Y298101D01*
X801819Y298043D01*
X801777Y297987D01*
X801732Y297933D01*
X801684Y297882D01*
X801633Y297834D01*
X801579Y297789D01*
X801523Y297747D01*
X801465Y297708D01*
X801405Y297672D01*
X801342Y297640D01*
X801278Y297611D01*
X801213Y297586D01*
X801146Y297565D01*
X801078Y297547D01*
X801009Y297534D01*
X800940Y297524D01*
X800870Y297518D01*
X800800Y297516D01*
X800730Y297518D01*
X800660Y297524D01*
X800591Y297534D01*
X800522Y297547D01*
X800454Y297565D01*
X800387Y297586D01*
X800322Y297611D01*
X800258Y297640D01*
X800195Y297672D01*
X800135Y297708D01*
X800077Y297747D01*
X800021Y297789D01*
X799967Y297834D01*
X799916Y297882D01*
X799868Y297933D01*
X799823Y297987D01*
X799781Y298043D01*
X799742Y298101D01*
X799706Y298161D01*
X799674Y298224D01*
X799645Y298288D01*
X799620Y298353D01*
X799599Y298420D01*
X799581Y298488D01*
X799568Y298557D01*
X799558Y298626D01*
X799552Y298696D01*
X799550Y298766D01*
D11*
X796551Y250872D02*
X796551Y249372D01*
X776551Y249372D01*
X776551Y250872D01*
X796551Y250872D01*
D13*
X799801Y263872D02*
X799803Y263942D01*
X799809Y264012D01*
X799819Y264081D01*
X799832Y264150D01*
X799850Y264218D01*
X799871Y264285D01*
X799896Y264350D01*
X799925Y264414D01*
X799957Y264477D01*
X799993Y264537D01*
X800032Y264595D01*
X800074Y264651D01*
X800119Y264705D01*
X800167Y264756D01*
X800218Y264804D01*
X800272Y264849D01*
X800328Y264891D01*
X800386Y264930D01*
X800446Y264966D01*
X800509Y264998D01*
X800573Y265027D01*
X800638Y265052D01*
X800705Y265073D01*
X800773Y265091D01*
X800842Y265104D01*
X800911Y265114D01*
X800981Y265120D01*
X801051Y265122D01*
X801121Y265120D01*
X801191Y265114D01*
X801260Y265104D01*
X801329Y265091D01*
X801397Y265073D01*
X801464Y265052D01*
X801529Y265027D01*
X801593Y264998D01*
X801656Y264966D01*
X801716Y264930D01*
X801774Y264891D01*
X801830Y264849D01*
X801884Y264804D01*
X801935Y264756D01*
X801983Y264705D01*
X802028Y264651D01*
X802070Y264595D01*
X802109Y264537D01*
X802145Y264477D01*
X802177Y264414D01*
X802206Y264350D01*
X802231Y264285D01*
X802252Y264218D01*
X802270Y264150D01*
X802283Y264081D01*
X802293Y264012D01*
X802299Y263942D01*
X802301Y263872D01*
X802299Y263802D01*
X802293Y263732D01*
X802283Y263663D01*
X802270Y263594D01*
X802252Y263526D01*
X802231Y263459D01*
X802206Y263394D01*
X802177Y263330D01*
X802145Y263267D01*
X802109Y263207D01*
X802070Y263149D01*
X802028Y263093D01*
X801983Y263039D01*
X801935Y262988D01*
X801884Y262940D01*
X801830Y262895D01*
X801774Y262853D01*
X801716Y262814D01*
X801656Y262778D01*
X801593Y262746D01*
X801529Y262717D01*
X801464Y262692D01*
X801397Y262671D01*
X801329Y262653D01*
X801260Y262640D01*
X801191Y262630D01*
X801121Y262624D01*
X801051Y262622D01*
X800981Y262624D01*
X800911Y262630D01*
X800842Y262640D01*
X800773Y262653D01*
X800705Y262671D01*
X800638Y262692D01*
X800573Y262717D01*
X800509Y262746D01*
X800446Y262778D01*
X800386Y262814D01*
X800328Y262853D01*
X800272Y262895D01*
X800218Y262940D01*
X800167Y262988D01*
X800119Y263039D01*
X800074Y263093D01*
X800032Y263149D01*
X799993Y263207D01*
X799957Y263267D01*
X799925Y263330D01*
X799896Y263394D01*
X799871Y263459D01*
X799850Y263526D01*
X799832Y263594D01*
X799819Y263663D01*
X799809Y263732D01*
X799803Y263802D01*
X799801Y263872D01*
D22*
X767636Y143134D02*
X755952Y143134D01*
X767636Y143134D02*
X767636Y148327D01*
X767636Y153040D02*
X767636Y158233D01*
X767636Y153040D02*
X755952Y153040D01*
X755952Y158233D01*
X761145Y156935D02*
X761145Y153040D01*
X755952Y162924D02*
X767636Y162924D01*
X755952Y162924D02*
X755952Y166169D01*
X755951Y166169D02*
X755953Y166282D01*
X755959Y166395D01*
X755969Y166508D01*
X755983Y166621D01*
X756000Y166733D01*
X756022Y166844D01*
X756047Y166954D01*
X756077Y167064D01*
X756110Y167172D01*
X756147Y167279D01*
X756187Y167385D01*
X756232Y167489D01*
X756280Y167592D01*
X756331Y167693D01*
X756386Y167792D01*
X756444Y167889D01*
X756506Y167984D01*
X756571Y168077D01*
X756639Y168167D01*
X756710Y168255D01*
X756785Y168341D01*
X756862Y168424D01*
X756942Y168504D01*
X757025Y168581D01*
X757111Y168656D01*
X757199Y168727D01*
X757289Y168795D01*
X757382Y168860D01*
X757477Y168922D01*
X757574Y168980D01*
X757673Y169035D01*
X757774Y169086D01*
X757877Y169134D01*
X757981Y169179D01*
X758087Y169219D01*
X758194Y169256D01*
X758302Y169289D01*
X758412Y169319D01*
X758522Y169344D01*
X758633Y169366D01*
X758745Y169383D01*
X758858Y169397D01*
X758971Y169407D01*
X759084Y169413D01*
X759197Y169415D01*
X764390Y169415D01*
X764503Y169413D01*
X764616Y169407D01*
X764729Y169397D01*
X764842Y169383D01*
X764954Y169366D01*
X765065Y169344D01*
X765175Y169319D01*
X765285Y169289D01*
X765393Y169256D01*
X765500Y169219D01*
X765606Y169179D01*
X765710Y169134D01*
X765813Y169086D01*
X765914Y169035D01*
X766013Y168980D01*
X766110Y168922D01*
X766205Y168860D01*
X766298Y168795D01*
X766388Y168727D01*
X766476Y168656D01*
X766562Y168581D01*
X766645Y168504D01*
X766725Y168424D01*
X766802Y168341D01*
X766877Y168255D01*
X766948Y168167D01*
X767016Y168077D01*
X767081Y167984D01*
X767143Y167889D01*
X767201Y167792D01*
X767256Y167693D01*
X767307Y167592D01*
X767355Y167489D01*
X767400Y167385D01*
X767440Y167279D01*
X767477Y167172D01*
X767510Y167064D01*
X767540Y166954D01*
X767565Y166844D01*
X767587Y166733D01*
X767604Y166621D01*
X767618Y166508D01*
X767628Y166395D01*
X767634Y166282D01*
X767636Y166169D01*
X767636Y162924D01*
X764390Y174734D02*
X764277Y174736D01*
X764164Y174742D01*
X764051Y174752D01*
X763938Y174766D01*
X763826Y174783D01*
X763715Y174805D01*
X763605Y174830D01*
X763495Y174860D01*
X763387Y174893D01*
X763280Y174930D01*
X763174Y174970D01*
X763070Y175015D01*
X762967Y175063D01*
X762866Y175114D01*
X762767Y175169D01*
X762670Y175227D01*
X762575Y175289D01*
X762482Y175354D01*
X762392Y175422D01*
X762304Y175493D01*
X762218Y175568D01*
X762135Y175645D01*
X762055Y175725D01*
X761978Y175808D01*
X761903Y175894D01*
X761832Y175982D01*
X761764Y176072D01*
X761699Y176165D01*
X761637Y176260D01*
X761579Y176357D01*
X761524Y176456D01*
X761473Y176557D01*
X761425Y176660D01*
X761380Y176764D01*
X761340Y176870D01*
X761303Y176977D01*
X761270Y177085D01*
X761240Y177195D01*
X761215Y177305D01*
X761193Y177416D01*
X761176Y177528D01*
X761162Y177641D01*
X761152Y177754D01*
X761146Y177867D01*
X761144Y177980D01*
X761146Y178093D01*
X761152Y178206D01*
X761162Y178319D01*
X761176Y178432D01*
X761193Y178544D01*
X761215Y178655D01*
X761240Y178765D01*
X761270Y178875D01*
X761303Y178983D01*
X761340Y179090D01*
X761380Y179196D01*
X761425Y179300D01*
X761473Y179403D01*
X761524Y179504D01*
X761579Y179603D01*
X761637Y179700D01*
X761699Y179795D01*
X761764Y179888D01*
X761832Y179978D01*
X761903Y180066D01*
X761978Y180152D01*
X762055Y180235D01*
X762135Y180315D01*
X762218Y180392D01*
X762304Y180467D01*
X762392Y180538D01*
X762482Y180606D01*
X762575Y180671D01*
X762670Y180733D01*
X762767Y180791D01*
X762866Y180846D01*
X762967Y180897D01*
X763070Y180945D01*
X763174Y180990D01*
X763280Y181030D01*
X763387Y181067D01*
X763495Y181100D01*
X763605Y181130D01*
X763715Y181155D01*
X763826Y181177D01*
X763938Y181194D01*
X764051Y181208D01*
X764164Y181218D01*
X764277Y181224D01*
X764390Y181226D01*
X764503Y181224D01*
X764616Y181218D01*
X764729Y181208D01*
X764842Y181194D01*
X764954Y181177D01*
X765065Y181155D01*
X765175Y181130D01*
X765285Y181100D01*
X765393Y181067D01*
X765500Y181030D01*
X765606Y180990D01*
X765710Y180945D01*
X765813Y180897D01*
X765914Y180846D01*
X766013Y180791D01*
X766110Y180733D01*
X766205Y180671D01*
X766298Y180606D01*
X766388Y180538D01*
X766476Y180467D01*
X766562Y180392D01*
X766645Y180315D01*
X766725Y180235D01*
X766802Y180152D01*
X766877Y180066D01*
X766948Y179978D01*
X767016Y179888D01*
X767081Y179795D01*
X767143Y179700D01*
X767201Y179603D01*
X767256Y179504D01*
X767307Y179403D01*
X767355Y179300D01*
X767400Y179196D01*
X767440Y179090D01*
X767477Y178983D01*
X767510Y178875D01*
X767540Y178765D01*
X767565Y178655D01*
X767587Y178544D01*
X767604Y178432D01*
X767618Y178319D01*
X767628Y178206D01*
X767634Y178093D01*
X767636Y177980D01*
X767634Y177867D01*
X767628Y177754D01*
X767618Y177641D01*
X767604Y177528D01*
X767587Y177416D01*
X767565Y177305D01*
X767540Y177195D01*
X767510Y177085D01*
X767477Y176977D01*
X767440Y176870D01*
X767400Y176764D01*
X767355Y176660D01*
X767307Y176557D01*
X767256Y176456D01*
X767201Y176357D01*
X767143Y176260D01*
X767081Y176165D01*
X767016Y176072D01*
X766948Y175982D01*
X766877Y175894D01*
X766802Y175808D01*
X766725Y175725D01*
X766645Y175645D01*
X766562Y175568D01*
X766476Y175493D01*
X766388Y175422D01*
X766298Y175354D01*
X766205Y175289D01*
X766110Y175227D01*
X766013Y175169D01*
X765914Y175114D01*
X765813Y175063D01*
X765710Y175015D01*
X765606Y174970D01*
X765500Y174930D01*
X765393Y174893D01*
X765285Y174860D01*
X765175Y174830D01*
X765065Y174805D01*
X764954Y174783D01*
X764842Y174766D01*
X764729Y174752D01*
X764616Y174742D01*
X764503Y174736D01*
X764390Y174734D01*
X758548Y175384D02*
X758447Y175386D01*
X758347Y175392D01*
X758247Y175402D01*
X758147Y175415D01*
X758048Y175433D01*
X757949Y175454D01*
X757852Y175479D01*
X757755Y175508D01*
X757660Y175541D01*
X757566Y175577D01*
X757474Y175617D01*
X757383Y175660D01*
X757294Y175707D01*
X757207Y175757D01*
X757121Y175811D01*
X757038Y175868D01*
X756958Y175928D01*
X756879Y175991D01*
X756803Y176058D01*
X756730Y176127D01*
X756660Y176199D01*
X756592Y176273D01*
X756527Y176350D01*
X756466Y176430D01*
X756407Y176512D01*
X756352Y176596D01*
X756300Y176682D01*
X756251Y176770D01*
X756206Y176860D01*
X756164Y176952D01*
X756126Y177045D01*
X756092Y177140D01*
X756061Y177235D01*
X756034Y177332D01*
X756011Y177430D01*
X755991Y177529D01*
X755976Y177629D01*
X755964Y177729D01*
X755956Y177829D01*
X755952Y177930D01*
X755952Y178030D01*
X755956Y178131D01*
X755964Y178231D01*
X755976Y178331D01*
X755991Y178431D01*
X756011Y178530D01*
X756034Y178628D01*
X756061Y178725D01*
X756092Y178820D01*
X756126Y178915D01*
X756164Y179008D01*
X756206Y179100D01*
X756251Y179190D01*
X756300Y179278D01*
X756352Y179364D01*
X756407Y179448D01*
X756466Y179530D01*
X756527Y179610D01*
X756592Y179687D01*
X756660Y179761D01*
X756730Y179833D01*
X756803Y179902D01*
X756879Y179969D01*
X756958Y180032D01*
X757038Y180092D01*
X757121Y180149D01*
X757207Y180203D01*
X757294Y180253D01*
X757383Y180300D01*
X757474Y180343D01*
X757566Y180383D01*
X757660Y180419D01*
X757755Y180452D01*
X757852Y180481D01*
X757949Y180506D01*
X758048Y180527D01*
X758147Y180545D01*
X758247Y180558D01*
X758347Y180568D01*
X758447Y180574D01*
X758548Y180576D01*
X758649Y180574D01*
X758749Y180568D01*
X758849Y180558D01*
X758949Y180545D01*
X759048Y180527D01*
X759147Y180506D01*
X759244Y180481D01*
X759341Y180452D01*
X759436Y180419D01*
X759530Y180383D01*
X759622Y180343D01*
X759713Y180300D01*
X759802Y180253D01*
X759889Y180203D01*
X759975Y180149D01*
X760058Y180092D01*
X760138Y180032D01*
X760217Y179969D01*
X760293Y179902D01*
X760366Y179833D01*
X760436Y179761D01*
X760504Y179687D01*
X760569Y179610D01*
X760630Y179530D01*
X760689Y179448D01*
X760744Y179364D01*
X760796Y179278D01*
X760845Y179190D01*
X760890Y179100D01*
X760932Y179008D01*
X760970Y178915D01*
X761004Y178820D01*
X761035Y178725D01*
X761062Y178628D01*
X761085Y178530D01*
X761105Y178431D01*
X761120Y178331D01*
X761132Y178231D01*
X761140Y178131D01*
X761144Y178030D01*
X761144Y177930D01*
X761140Y177829D01*
X761132Y177729D01*
X761120Y177629D01*
X761105Y177529D01*
X761085Y177430D01*
X761062Y177332D01*
X761035Y177235D01*
X761004Y177140D01*
X760970Y177045D01*
X760932Y176952D01*
X760890Y176860D01*
X760845Y176770D01*
X760796Y176682D01*
X760744Y176596D01*
X760689Y176512D01*
X760630Y176430D01*
X760569Y176350D01*
X760504Y176273D01*
X760436Y176199D01*
X760366Y176127D01*
X760293Y176058D01*
X760217Y175991D01*
X760138Y175928D01*
X760058Y175868D01*
X759975Y175811D01*
X759889Y175757D01*
X759802Y175707D01*
X759713Y175660D01*
X759622Y175617D01*
X759530Y175577D01*
X759436Y175541D01*
X759341Y175508D01*
X759244Y175479D01*
X759147Y175454D01*
X759048Y175433D01*
X758949Y175415D01*
X758849Y175402D01*
X758749Y175392D01*
X758649Y175386D01*
X758548Y175384D01*
D11*
X796711Y213680D02*
X796711Y215180D01*
X796711Y213680D02*
X776711Y213680D01*
X776711Y215180D01*
X796711Y215180D01*
D13*
X799961Y228180D02*
X799963Y228250D01*
X799969Y228320D01*
X799979Y228389D01*
X799992Y228458D01*
X800010Y228526D01*
X800031Y228593D01*
X800056Y228658D01*
X800085Y228722D01*
X800117Y228785D01*
X800153Y228845D01*
X800192Y228903D01*
X800234Y228959D01*
X800279Y229013D01*
X800327Y229064D01*
X800378Y229112D01*
X800432Y229157D01*
X800488Y229199D01*
X800546Y229238D01*
X800606Y229274D01*
X800669Y229306D01*
X800733Y229335D01*
X800798Y229360D01*
X800865Y229381D01*
X800933Y229399D01*
X801002Y229412D01*
X801071Y229422D01*
X801141Y229428D01*
X801211Y229430D01*
X801281Y229428D01*
X801351Y229422D01*
X801420Y229412D01*
X801489Y229399D01*
X801557Y229381D01*
X801624Y229360D01*
X801689Y229335D01*
X801753Y229306D01*
X801816Y229274D01*
X801876Y229238D01*
X801934Y229199D01*
X801990Y229157D01*
X802044Y229112D01*
X802095Y229064D01*
X802143Y229013D01*
X802188Y228959D01*
X802230Y228903D01*
X802269Y228845D01*
X802305Y228785D01*
X802337Y228722D01*
X802366Y228658D01*
X802391Y228593D01*
X802412Y228526D01*
X802430Y228458D01*
X802443Y228389D01*
X802453Y228320D01*
X802459Y228250D01*
X802461Y228180D01*
X802459Y228110D01*
X802453Y228040D01*
X802443Y227971D01*
X802430Y227902D01*
X802412Y227834D01*
X802391Y227767D01*
X802366Y227702D01*
X802337Y227638D01*
X802305Y227575D01*
X802269Y227515D01*
X802230Y227457D01*
X802188Y227401D01*
X802143Y227347D01*
X802095Y227296D01*
X802044Y227248D01*
X801990Y227203D01*
X801934Y227161D01*
X801876Y227122D01*
X801816Y227086D01*
X801753Y227054D01*
X801689Y227025D01*
X801624Y227000D01*
X801557Y226979D01*
X801489Y226961D01*
X801420Y226948D01*
X801351Y226938D01*
X801281Y226932D01*
X801211Y226930D01*
X801141Y226932D01*
X801071Y226938D01*
X801002Y226948D01*
X800933Y226961D01*
X800865Y226979D01*
X800798Y227000D01*
X800733Y227025D01*
X800669Y227054D01*
X800606Y227086D01*
X800546Y227122D01*
X800488Y227161D01*
X800432Y227203D01*
X800378Y227248D01*
X800327Y227296D01*
X800279Y227347D01*
X800234Y227401D01*
X800192Y227457D01*
X800153Y227515D01*
X800117Y227575D01*
X800085Y227638D01*
X800056Y227702D01*
X800031Y227767D01*
X800010Y227834D01*
X799992Y227902D01*
X799979Y227971D01*
X799969Y228040D01*
X799963Y228110D01*
X799961Y228180D01*
M02*
