G04 EAGLE Gerber RS-274X export*
G75*
%MOMM*%
%FSLAX34Y34*%
%LPD*%
%INBottom Copper*%
%IPPOS*%
%AMOC8*
5,1,8,0,0,1.08239X$1,22.5*%
G01*
%ADD10R,3.556000X0.762000*%
%ADD11C,1.676400*%
%ADD12P,1.649562X8X22.500000*%
%ADD13C,0.604000*%
%ADD14C,0.304800*%
%ADD15C,0.152400*%


D10*
X19916Y11321D03*
X19916Y24021D03*
X19916Y36721D03*
X19916Y49421D03*
X19916Y62121D03*
X19916Y74821D03*
X19916Y87521D03*
X19916Y100221D03*
X19916Y112921D03*
X19916Y125621D03*
X19916Y138321D03*
X19916Y151021D03*
X19916Y163721D03*
X19916Y176421D03*
X19916Y189121D03*
X19916Y201821D03*
X19916Y214521D03*
X19916Y227221D03*
X19916Y239921D03*
X19916Y252621D03*
X19916Y265321D03*
X19916Y278021D03*
X19916Y290721D03*
X19916Y303421D03*
X19916Y316121D03*
X19916Y328821D03*
X19916Y341521D03*
X19916Y354221D03*
X19916Y366921D03*
X19916Y379621D03*
X19916Y392321D03*
X19916Y405021D03*
X19916Y417721D03*
X19916Y430421D03*
D11*
X528206Y39775D03*
X502806Y39775D03*
X477406Y39775D03*
X452006Y39775D03*
X426606Y39775D03*
X401206Y39775D03*
D12*
X490333Y356901D03*
D13*
X43496Y430662D03*
D14*
X56358Y417721D02*
X19916Y417721D01*
X56358Y417721D02*
X61127Y422489D01*
D13*
X61127Y422489D03*
D14*
X46206Y11321D02*
X19916Y11321D01*
X46206Y11321D02*
X46208Y11319D01*
D13*
X46208Y11319D03*
D14*
X46373Y24021D02*
X19916Y24021D01*
X46373Y24021D02*
X51669Y18725D01*
D13*
X51669Y18725D03*
X317224Y290905D03*
X259074Y142015D03*
X405074Y110133D03*
X288453Y353810D03*
X372597Y393919D03*
X406187Y410461D03*
X362054Y292408D03*
X657540Y63102D03*
X748315Y148410D03*
X748315Y30365D03*
X414231Y255254D03*
X590136Y273830D03*
X571721Y375171D03*
X459946Y367943D03*
D14*
X20157Y430662D02*
X19916Y430421D01*
X20157Y430662D02*
X43496Y430662D01*
D13*
X519748Y297549D03*
X244447Y280827D03*
X456734Y101823D03*
X232202Y145016D03*
X453174Y279674D03*
X486101Y213049D03*
X277913Y17210D03*
X135994Y323382D03*
X616710Y33536D03*
X134843Y106130D03*
X71295Y93690D03*
X81940Y144837D03*
X155217Y88701D03*
X442994Y230890D03*
X510775Y350345D03*
X770388Y433046D03*
X770463Y398678D03*
X770236Y363776D03*
X770497Y328602D03*
X770489Y294204D03*
X770335Y259410D03*
X770624Y223539D03*
X412673Y180422D03*
D15*
X393992Y180422D01*
X307971Y94401D01*
D13*
X307971Y94401D03*
X299368Y94457D03*
X444037Y178864D03*
D15*
X444037Y178990D01*
X436447Y186580D01*
X391491Y186580D01*
X299368Y94457D01*
D13*
X290692Y94768D03*
D15*
X387561Y191636D01*
X440959Y191636D02*
X443650Y188945D01*
X440959Y191636D02*
X387561Y191636D01*
D13*
X443650Y188945D03*
X281813Y94917D03*
X449291Y196673D03*
D15*
X383569Y196673D02*
X281813Y94917D01*
X383569Y196673D02*
X449291Y196673D01*
D13*
X271583Y93990D03*
D15*
X271996Y93990D02*
X381549Y203543D01*
X271996Y93990D02*
X271583Y93990D01*
X381549Y203543D02*
X443263Y203543D01*
D13*
X443263Y203543D03*
X319709Y62614D03*
D15*
X276486Y36721D02*
X19916Y36721D01*
X276486Y36721D02*
X302380Y62614D01*
X319709Y62614D01*
D13*
X326475Y69349D03*
D15*
X303555Y69349D01*
X283627Y49421D01*
X19916Y49421D01*
D13*
X333209Y75536D03*
D15*
X301621Y75536D01*
X288206Y62121D01*
X19916Y62121D01*
D13*
X339271Y81685D03*
D15*
X300848Y81685D01*
X43503Y74821D02*
X19916Y74821D01*
X43503Y74821D02*
X50581Y67743D01*
X286906Y67743D01*
X300848Y81685D01*
X332815Y88144D02*
X345137Y88144D01*
X53445Y88144D02*
X20539Y88144D01*
X19916Y87521D01*
D13*
X345137Y88144D03*
D15*
X332815Y88144D02*
X329658Y84987D01*
X298141Y84987D01*
X286048Y72894D01*
X68696Y72894D02*
X53445Y88144D01*
X68696Y72894D02*
X286048Y72894D01*
D13*
X262403Y94575D03*
D15*
X388786Y220958D01*
X440258Y220958D01*
D13*
X440258Y220958D03*
X56720Y112536D03*
D15*
X82172Y112536D01*
X175384Y205747D01*
X175344Y275551D01*
D13*
X383425Y225478D03*
D15*
X276203Y225478D02*
X256237Y245443D01*
D13*
X256237Y245443D03*
D15*
X276203Y225478D02*
X383425Y225478D01*
D13*
X175344Y275551D03*
X176106Y187346D03*
D15*
X173648Y187346D01*
X86306Y100004D01*
X56835Y100004D01*
D13*
X56835Y100004D03*
X56835Y125245D03*
D15*
X85838Y125245D01*
X159089Y198496D01*
X159089Y199167D01*
D13*
X159089Y199167D03*
X155647Y216712D03*
D15*
X84142Y138345D02*
X57150Y138345D01*
D13*
X57150Y138345D03*
D15*
X124613Y185678D02*
X155647Y216712D01*
X124613Y185678D02*
X124613Y178815D01*
X84142Y138345D01*
D13*
X57150Y151125D03*
D15*
X73112Y151125D01*
D13*
X154677Y225916D03*
D15*
X147903Y225916D02*
X73112Y151125D01*
X147903Y225916D02*
X154677Y225916D01*
D13*
X57150Y163659D03*
X122097Y217989D03*
D15*
X67767Y163659D02*
X57150Y163659D01*
X67767Y163659D02*
X122097Y217989D01*
D13*
X57150Y176653D03*
D15*
X63629Y176653D01*
D13*
X107879Y221446D03*
D15*
X107879Y220903D01*
X63629Y176653D01*
D13*
X57208Y189534D03*
D15*
X58791Y189534D01*
D13*
X389140Y232777D03*
D15*
X277528Y232777D01*
X256282Y254023D01*
D13*
X256282Y254023D03*
X166674Y287233D03*
D15*
X156490Y287233D01*
X58791Y189534D01*
D13*
X57013Y201790D03*
D15*
X57013Y204496D01*
X125277Y272760D01*
X125277Y280108D01*
D13*
X157917Y296242D03*
D15*
X141411Y296242D02*
X125277Y280108D01*
X141411Y296242D02*
X157917Y296242D01*
D13*
X43613Y214552D03*
D14*
X19947Y214552D01*
X19916Y214521D01*
D13*
X326967Y392654D03*
X288534Y411122D03*
X460428Y405043D03*
X220675Y17017D03*
X92985Y333092D03*
X137945Y115677D03*
X112733Y89302D03*
X770503Y345961D03*
X770564Y380447D03*
X770463Y415008D03*
X770102Y310600D03*
X770634Y275576D03*
X770741Y205527D03*
X770433Y241244D03*
X54429Y240059D03*
X107215Y292758D03*
D15*
X107127Y292758D02*
X54429Y240059D01*
X107127Y292758D02*
X107215Y292758D01*
D13*
X502363Y169042D03*
X405776Y164782D03*
D15*
X498104Y164782D01*
X502363Y169042D01*
D13*
X513123Y176401D03*
X400585Y172042D03*
D15*
X511928Y175206D02*
X513123Y176401D01*
X511928Y175206D02*
X496808Y175206D01*
X493644Y172042D02*
X400585Y172042D01*
X493644Y172042D02*
X496808Y175206D01*
D13*
X73838Y418878D03*
D15*
X84393Y408323D01*
X125706Y408323D01*
X235263Y298766D01*
X235263Y208321D01*
X284022Y159562D01*
X296254Y159562D01*
X298566Y161875D01*
D13*
X298566Y161875D03*
D15*
X43634Y100221D02*
X19916Y100221D01*
X43634Y100221D02*
X49611Y106198D01*
X86128Y106198D01*
D13*
X394467Y242147D03*
D15*
X279609Y242147D01*
X256991Y264765D01*
D13*
X256991Y264765D03*
X172973Y293984D03*
D15*
X182730Y202800D02*
X86128Y106198D01*
X182730Y284226D02*
X172973Y293984D01*
X182730Y284226D02*
X182730Y202800D01*
X41945Y151021D02*
X19916Y151021D01*
X41945Y151021D02*
X48359Y157435D01*
D13*
X163338Y243896D03*
D15*
X157787Y238345D01*
X71663Y157435D02*
X48359Y157435D01*
X71663Y157435D02*
X152573Y238345D01*
X157787Y238345D01*
X65109Y169914D02*
X48283Y169914D01*
X42090Y163721D02*
X19916Y163721D01*
X42090Y163721D02*
X48283Y169914D01*
X141415Y246220D02*
X152079Y246220D01*
X141415Y246220D02*
X65109Y169914D01*
D13*
X152079Y246220D03*
D15*
X42013Y176421D02*
X19916Y176421D01*
X42013Y176421D02*
X48867Y183274D01*
D13*
X364099Y206383D03*
D15*
X257729Y206383D01*
X241895Y222218D01*
D13*
X241895Y222218D03*
X150940Y259858D03*
D15*
X137555Y259858D01*
X60971Y183274D01*
X48867Y183274D01*
D13*
X370520Y212876D03*
D15*
X263551Y212876D01*
X247188Y229239D01*
D13*
X247188Y229239D03*
X135568Y278971D03*
D15*
X44974Y189121D02*
X19916Y189121D01*
X44974Y189121D02*
X51546Y195693D01*
X135568Y274727D02*
X135568Y278971D01*
X135568Y274727D02*
X65524Y204683D01*
X65524Y201674D01*
X59543Y195693D02*
X51546Y195693D01*
X59543Y195693D02*
X65524Y201674D01*
X45522Y201821D02*
X19916Y201821D01*
X45522Y201821D02*
X118960Y275258D01*
D13*
X377039Y219089D03*
D15*
X269816Y219089D01*
X251980Y236925D01*
D13*
X251980Y236925D03*
X127753Y291620D03*
D15*
X118960Y282828D01*
X118960Y275258D01*
X172266Y303421D02*
X19916Y303421D01*
X189907Y285780D02*
X189907Y144455D01*
X188266Y142815D01*
X189907Y285780D02*
X172266Y303421D01*
D13*
X188266Y142815D03*
D15*
X166889Y316121D02*
X19916Y316121D01*
X195350Y287660D02*
X195350Y135979D01*
X195350Y287660D02*
X166889Y316121D01*
D13*
X195350Y135979D03*
D15*
X149926Y341521D02*
X19916Y341521D01*
X149926Y341521D02*
X201707Y289740D01*
X201707Y154480D01*
D13*
X201707Y154480D03*
D15*
X126303Y379621D02*
X19916Y379621D01*
X126303Y379621D02*
X218316Y287607D01*
D13*
X218211Y120404D03*
D15*
X218316Y120510D02*
X218316Y287607D01*
X218316Y120510D02*
X218211Y120404D01*
X124040Y392321D02*
X19916Y392321D01*
X124040Y392321D02*
X225523Y290838D01*
D13*
X218337Y111657D03*
D15*
X225523Y117538D02*
X225523Y290838D01*
X225523Y117538D02*
X219642Y111657D01*
X218337Y111657D01*
X121004Y405021D02*
X19916Y405021D01*
X121004Y405021D02*
X230059Y295966D01*
D13*
X310282Y159571D03*
D15*
X310282Y159433D01*
X299595Y148747D01*
X284198Y148747D01*
X230059Y202886D01*
X230059Y295966D01*
D13*
X440118Y262358D03*
X313111Y264287D03*
X359797Y265004D03*
X406704Y355406D03*
X349534Y365972D03*
X349614Y380478D03*
X272316Y134709D03*
X415272Y123359D03*
X302715Y263288D03*
X552009Y351843D03*
X568188Y182928D03*
X657447Y85120D03*
X537032Y366337D03*
X384983Y265178D03*
X520016Y333922D03*
X270549Y281823D03*
X418673Y102144D03*
X258650Y118112D03*
X426112Y307021D03*
X456962Y224615D03*
X626924Y62253D03*
X311428Y53313D03*
X373701Y53199D03*
X643635Y51621D03*
D15*
X643635Y86161D01*
D13*
X643635Y86161D03*
X590330Y107491D03*
D15*
X590330Y63548D01*
X590500Y63378D01*
D13*
X590500Y63378D03*
X658103Y141548D03*
D15*
X584947Y141548D01*
X539858Y96460D01*
D13*
X539858Y96460D03*
D15*
X43718Y125621D02*
X19916Y125621D01*
X43718Y125621D02*
X50183Y132086D01*
X83412Y132086D01*
D13*
X132061Y183802D03*
D15*
X132061Y180735D01*
X83412Y132086D01*
X42229Y138321D02*
X19916Y138321D01*
X42229Y138321D02*
X48853Y144945D01*
D13*
X117590Y181335D03*
D15*
X73387Y144945D02*
X48853Y144945D01*
D13*
X267266Y123939D03*
X181624Y148566D03*
D15*
X181624Y138374D02*
X214420Y105577D01*
X181624Y138374D02*
X181624Y148566D01*
X214420Y105577D02*
X254929Y105577D01*
X267266Y117914D01*
X267266Y123939D01*
X79971Y151529D02*
X73387Y144945D01*
X87783Y151529D02*
X117590Y181335D01*
X87783Y151529D02*
X79971Y151529D01*
D13*
X350409Y295949D03*
D15*
X350409Y316946D01*
X457751Y324318D02*
X490333Y356901D01*
X357782Y324318D02*
X350409Y316946D01*
X357782Y324318D02*
X457751Y324318D01*
D13*
X294908Y291153D03*
D15*
X294908Y309386D01*
D13*
X434433Y345898D03*
D15*
X331420Y345898D01*
X294908Y309386D01*
D13*
X577926Y323655D03*
D15*
X577926Y319969D01*
X549193Y291237D01*
X331328Y250890D02*
X330746Y250890D01*
D13*
X330746Y250890D03*
D15*
X331328Y250890D02*
X371675Y291237D01*
X549193Y291237D01*
D13*
X363315Y248401D03*
D15*
X370577Y255662D01*
D13*
X590114Y322637D03*
D15*
X401343Y255662D02*
X370577Y255662D01*
X401343Y255662D02*
X413003Y244002D01*
X511479Y244002D01*
X590114Y322637D01*
D13*
X375707Y248826D03*
D15*
X376756Y249875D02*
X399079Y249875D01*
X376756Y249875D02*
X375707Y248826D01*
D13*
X564675Y259228D03*
D15*
X543281Y237834D01*
X411119Y237834D02*
X399079Y249875D01*
X411119Y237834D02*
X543281Y237834D01*
X144545Y354221D02*
X19916Y354221D01*
X144545Y354221D02*
X208759Y290007D01*
X208759Y129391D01*
X208881Y129269D01*
D13*
X208881Y129269D03*
X251484Y94831D03*
D15*
X299544Y142891D01*
X303418Y142891D01*
X324921Y164395D01*
X324921Y165700D01*
D13*
X324921Y165700D03*
X338814Y296390D03*
D15*
X338814Y320676D01*
X508012Y428518D02*
X687218Y428518D01*
X349180Y331042D02*
X338814Y320676D01*
X349180Y331042D02*
X447818Y331042D01*
X487930Y371154D01*
X487930Y408436D01*
X508012Y428518D01*
D13*
X698706Y428494D03*
D15*
X687243Y428494D01*
X687218Y428518D01*
D13*
X327159Y296357D03*
D15*
X327159Y322415D01*
X342525Y337780D02*
X443675Y337780D01*
X477607Y371712D01*
X504815Y436792D02*
X702542Y436792D01*
X342525Y337780D02*
X327159Y322415D01*
X477607Y371712D02*
X477607Y409583D01*
X504815Y436792D01*
D13*
X702542Y436792D03*
M02*
