G04 EAGLE Gerber RS-274X export*
G75*
%MOMM*%
%FSLAX34Y34*%
%LPD*%
%INBoard Outline*%
%IPPOS*%
%AMOC8*
5,1,8,0,0,1.08239X$1,22.5*%
G01*
%ADD10C,0.000000*%
%ADD11C,0.254000*%


D10*
X0Y0D02*
X804082Y0D01*
X804082Y444134D01*
X0Y444134D01*
X0Y0D01*
X695673Y139170D02*
X695675Y139342D01*
X695681Y139513D01*
X695692Y139685D01*
X695707Y139856D01*
X695726Y140027D01*
X695749Y140197D01*
X695776Y140367D01*
X695808Y140536D01*
X695843Y140704D01*
X695883Y140871D01*
X695927Y141037D01*
X695974Y141202D01*
X696026Y141366D01*
X696082Y141528D01*
X696142Y141689D01*
X696206Y141849D01*
X696274Y142007D01*
X696345Y142163D01*
X696420Y142317D01*
X696500Y142470D01*
X696582Y142620D01*
X696669Y142769D01*
X696759Y142915D01*
X696853Y143059D01*
X696950Y143201D01*
X697051Y143340D01*
X697155Y143477D01*
X697262Y143611D01*
X697373Y143742D01*
X697486Y143871D01*
X697603Y143997D01*
X697723Y144120D01*
X697846Y144240D01*
X697972Y144357D01*
X698101Y144470D01*
X698232Y144581D01*
X698366Y144688D01*
X698503Y144792D01*
X698642Y144893D01*
X698784Y144990D01*
X698928Y145084D01*
X699074Y145174D01*
X699223Y145261D01*
X699373Y145343D01*
X699526Y145423D01*
X699680Y145498D01*
X699836Y145569D01*
X699994Y145637D01*
X700154Y145701D01*
X700315Y145761D01*
X700477Y145817D01*
X700641Y145869D01*
X700806Y145916D01*
X700972Y145960D01*
X701139Y146000D01*
X701307Y146035D01*
X701476Y146067D01*
X701646Y146094D01*
X701816Y146117D01*
X701987Y146136D01*
X702158Y146151D01*
X702330Y146162D01*
X702501Y146168D01*
X702673Y146170D01*
X702845Y146168D01*
X703016Y146162D01*
X703188Y146151D01*
X703359Y146136D01*
X703530Y146117D01*
X703700Y146094D01*
X703870Y146067D01*
X704039Y146035D01*
X704207Y146000D01*
X704374Y145960D01*
X704540Y145916D01*
X704705Y145869D01*
X704869Y145817D01*
X705031Y145761D01*
X705192Y145701D01*
X705352Y145637D01*
X705510Y145569D01*
X705666Y145498D01*
X705820Y145423D01*
X705973Y145343D01*
X706123Y145261D01*
X706272Y145174D01*
X706418Y145084D01*
X706562Y144990D01*
X706704Y144893D01*
X706843Y144792D01*
X706980Y144688D01*
X707114Y144581D01*
X707245Y144470D01*
X707374Y144357D01*
X707500Y144240D01*
X707623Y144120D01*
X707743Y143997D01*
X707860Y143871D01*
X707973Y143742D01*
X708084Y143611D01*
X708191Y143477D01*
X708295Y143340D01*
X708396Y143201D01*
X708493Y143059D01*
X708587Y142915D01*
X708677Y142769D01*
X708764Y142620D01*
X708846Y142470D01*
X708926Y142317D01*
X709001Y142163D01*
X709072Y142007D01*
X709140Y141849D01*
X709204Y141689D01*
X709264Y141528D01*
X709320Y141366D01*
X709372Y141202D01*
X709419Y141037D01*
X709463Y140871D01*
X709503Y140704D01*
X709538Y140536D01*
X709570Y140367D01*
X709597Y140197D01*
X709620Y140027D01*
X709639Y139856D01*
X709654Y139685D01*
X709665Y139513D01*
X709671Y139342D01*
X709673Y139170D01*
X709671Y138998D01*
X709665Y138827D01*
X709654Y138655D01*
X709639Y138484D01*
X709620Y138313D01*
X709597Y138143D01*
X709570Y137973D01*
X709538Y137804D01*
X709503Y137636D01*
X709463Y137469D01*
X709419Y137303D01*
X709372Y137138D01*
X709320Y136974D01*
X709264Y136812D01*
X709204Y136651D01*
X709140Y136491D01*
X709072Y136333D01*
X709001Y136177D01*
X708926Y136023D01*
X708846Y135870D01*
X708764Y135720D01*
X708677Y135571D01*
X708587Y135425D01*
X708493Y135281D01*
X708396Y135139D01*
X708295Y135000D01*
X708191Y134863D01*
X708084Y134729D01*
X707973Y134598D01*
X707860Y134469D01*
X707743Y134343D01*
X707623Y134220D01*
X707500Y134100D01*
X707374Y133983D01*
X707245Y133870D01*
X707114Y133759D01*
X706980Y133652D01*
X706843Y133548D01*
X706704Y133447D01*
X706562Y133350D01*
X706418Y133256D01*
X706272Y133166D01*
X706123Y133079D01*
X705973Y132997D01*
X705820Y132917D01*
X705666Y132842D01*
X705510Y132771D01*
X705352Y132703D01*
X705192Y132639D01*
X705031Y132579D01*
X704869Y132523D01*
X704705Y132471D01*
X704540Y132424D01*
X704374Y132380D01*
X704207Y132340D01*
X704039Y132305D01*
X703870Y132273D01*
X703700Y132246D01*
X703530Y132223D01*
X703359Y132204D01*
X703188Y132189D01*
X703016Y132178D01*
X702845Y132172D01*
X702673Y132170D01*
X702501Y132172D01*
X702330Y132178D01*
X702158Y132189D01*
X701987Y132204D01*
X701816Y132223D01*
X701646Y132246D01*
X701476Y132273D01*
X701307Y132305D01*
X701139Y132340D01*
X700972Y132380D01*
X700806Y132424D01*
X700641Y132471D01*
X700477Y132523D01*
X700315Y132579D01*
X700154Y132639D01*
X699994Y132703D01*
X699836Y132771D01*
X699680Y132842D01*
X699526Y132917D01*
X699373Y132997D01*
X699223Y133079D01*
X699074Y133166D01*
X698928Y133256D01*
X698784Y133350D01*
X698642Y133447D01*
X698503Y133548D01*
X698366Y133652D01*
X698232Y133759D01*
X698101Y133870D01*
X697972Y133983D01*
X697846Y134100D01*
X697723Y134220D01*
X697603Y134343D01*
X697486Y134469D01*
X697373Y134598D01*
X697262Y134729D01*
X697155Y134863D01*
X697051Y135000D01*
X696950Y135139D01*
X696853Y135281D01*
X696759Y135425D01*
X696669Y135571D01*
X696582Y135720D01*
X696500Y135870D01*
X696420Y136023D01*
X696345Y136177D01*
X696274Y136333D01*
X696206Y136491D01*
X696142Y136651D01*
X696082Y136812D01*
X696026Y136974D01*
X695974Y137138D01*
X695927Y137303D01*
X695883Y137469D01*
X695843Y137636D01*
X695808Y137804D01*
X695776Y137973D01*
X695749Y138143D01*
X695726Y138313D01*
X695707Y138484D01*
X695692Y138655D01*
X695681Y138827D01*
X695675Y138998D01*
X695673Y139170D01*
X695673Y39170D02*
X695675Y39342D01*
X695681Y39513D01*
X695692Y39685D01*
X695707Y39856D01*
X695726Y40027D01*
X695749Y40197D01*
X695776Y40367D01*
X695808Y40536D01*
X695843Y40704D01*
X695883Y40871D01*
X695927Y41037D01*
X695974Y41202D01*
X696026Y41366D01*
X696082Y41528D01*
X696142Y41689D01*
X696206Y41849D01*
X696274Y42007D01*
X696345Y42163D01*
X696420Y42317D01*
X696500Y42470D01*
X696582Y42620D01*
X696669Y42769D01*
X696759Y42915D01*
X696853Y43059D01*
X696950Y43201D01*
X697051Y43340D01*
X697155Y43477D01*
X697262Y43611D01*
X697373Y43742D01*
X697486Y43871D01*
X697603Y43997D01*
X697723Y44120D01*
X697846Y44240D01*
X697972Y44357D01*
X698101Y44470D01*
X698232Y44581D01*
X698366Y44688D01*
X698503Y44792D01*
X698642Y44893D01*
X698784Y44990D01*
X698928Y45084D01*
X699074Y45174D01*
X699223Y45261D01*
X699373Y45343D01*
X699526Y45423D01*
X699680Y45498D01*
X699836Y45569D01*
X699994Y45637D01*
X700154Y45701D01*
X700315Y45761D01*
X700477Y45817D01*
X700641Y45869D01*
X700806Y45916D01*
X700972Y45960D01*
X701139Y46000D01*
X701307Y46035D01*
X701476Y46067D01*
X701646Y46094D01*
X701816Y46117D01*
X701987Y46136D01*
X702158Y46151D01*
X702330Y46162D01*
X702501Y46168D01*
X702673Y46170D01*
X702845Y46168D01*
X703016Y46162D01*
X703188Y46151D01*
X703359Y46136D01*
X703530Y46117D01*
X703700Y46094D01*
X703870Y46067D01*
X704039Y46035D01*
X704207Y46000D01*
X704374Y45960D01*
X704540Y45916D01*
X704705Y45869D01*
X704869Y45817D01*
X705031Y45761D01*
X705192Y45701D01*
X705352Y45637D01*
X705510Y45569D01*
X705666Y45498D01*
X705820Y45423D01*
X705973Y45343D01*
X706123Y45261D01*
X706272Y45174D01*
X706418Y45084D01*
X706562Y44990D01*
X706704Y44893D01*
X706843Y44792D01*
X706980Y44688D01*
X707114Y44581D01*
X707245Y44470D01*
X707374Y44357D01*
X707500Y44240D01*
X707623Y44120D01*
X707743Y43997D01*
X707860Y43871D01*
X707973Y43742D01*
X708084Y43611D01*
X708191Y43477D01*
X708295Y43340D01*
X708396Y43201D01*
X708493Y43059D01*
X708587Y42915D01*
X708677Y42769D01*
X708764Y42620D01*
X708846Y42470D01*
X708926Y42317D01*
X709001Y42163D01*
X709072Y42007D01*
X709140Y41849D01*
X709204Y41689D01*
X709264Y41528D01*
X709320Y41366D01*
X709372Y41202D01*
X709419Y41037D01*
X709463Y40871D01*
X709503Y40704D01*
X709538Y40536D01*
X709570Y40367D01*
X709597Y40197D01*
X709620Y40027D01*
X709639Y39856D01*
X709654Y39685D01*
X709665Y39513D01*
X709671Y39342D01*
X709673Y39170D01*
X709671Y38998D01*
X709665Y38827D01*
X709654Y38655D01*
X709639Y38484D01*
X709620Y38313D01*
X709597Y38143D01*
X709570Y37973D01*
X709538Y37804D01*
X709503Y37636D01*
X709463Y37469D01*
X709419Y37303D01*
X709372Y37138D01*
X709320Y36974D01*
X709264Y36812D01*
X709204Y36651D01*
X709140Y36491D01*
X709072Y36333D01*
X709001Y36177D01*
X708926Y36023D01*
X708846Y35870D01*
X708764Y35720D01*
X708677Y35571D01*
X708587Y35425D01*
X708493Y35281D01*
X708396Y35139D01*
X708295Y35000D01*
X708191Y34863D01*
X708084Y34729D01*
X707973Y34598D01*
X707860Y34469D01*
X707743Y34343D01*
X707623Y34220D01*
X707500Y34100D01*
X707374Y33983D01*
X707245Y33870D01*
X707114Y33759D01*
X706980Y33652D01*
X706843Y33548D01*
X706704Y33447D01*
X706562Y33350D01*
X706418Y33256D01*
X706272Y33166D01*
X706123Y33079D01*
X705973Y32997D01*
X705820Y32917D01*
X705666Y32842D01*
X705510Y32771D01*
X705352Y32703D01*
X705192Y32639D01*
X705031Y32579D01*
X704869Y32523D01*
X704705Y32471D01*
X704540Y32424D01*
X704374Y32380D01*
X704207Y32340D01*
X704039Y32305D01*
X703870Y32273D01*
X703700Y32246D01*
X703530Y32223D01*
X703359Y32204D01*
X703188Y32189D01*
X703016Y32178D01*
X702845Y32172D01*
X702673Y32170D01*
X702501Y32172D01*
X702330Y32178D01*
X702158Y32189D01*
X701987Y32204D01*
X701816Y32223D01*
X701646Y32246D01*
X701476Y32273D01*
X701307Y32305D01*
X701139Y32340D01*
X700972Y32380D01*
X700806Y32424D01*
X700641Y32471D01*
X700477Y32523D01*
X700315Y32579D01*
X700154Y32639D01*
X699994Y32703D01*
X699836Y32771D01*
X699680Y32842D01*
X699526Y32917D01*
X699373Y32997D01*
X699223Y33079D01*
X699074Y33166D01*
X698928Y33256D01*
X698784Y33350D01*
X698642Y33447D01*
X698503Y33548D01*
X698366Y33652D01*
X698232Y33759D01*
X698101Y33870D01*
X697972Y33983D01*
X697846Y34100D01*
X697723Y34220D01*
X697603Y34343D01*
X697486Y34469D01*
X697373Y34598D01*
X697262Y34729D01*
X697155Y34863D01*
X697051Y35000D01*
X696950Y35139D01*
X696853Y35281D01*
X696759Y35425D01*
X696669Y35571D01*
X696582Y35720D01*
X696500Y35870D01*
X696420Y36023D01*
X696345Y36177D01*
X696274Y36333D01*
X696206Y36491D01*
X696142Y36651D01*
X696082Y36812D01*
X696026Y36974D01*
X695974Y37138D01*
X695927Y37303D01*
X695883Y37469D01*
X695843Y37636D01*
X695808Y37804D01*
X695776Y37973D01*
X695749Y38143D01*
X695726Y38313D01*
X695707Y38484D01*
X695692Y38655D01*
X695681Y38827D01*
X695675Y38998D01*
X695673Y39170D01*
D11*
X0Y0D02*
X804082Y0D01*
X804082Y444134D01*
X0Y444134D01*
X0Y0D01*
X703017Y146170D02*
X703701Y146103D01*
X704376Y145969D01*
X705034Y145769D01*
X705669Y145506D01*
X706276Y145182D01*
X706848Y144800D01*
X707379Y144363D01*
X707866Y143877D01*
X708302Y143345D01*
X708684Y142773D01*
X709008Y142167D01*
X709271Y141531D01*
X709471Y140873D01*
X709605Y140199D01*
X709673Y139514D01*
X709673Y138826D01*
X709605Y138142D01*
X709471Y137467D01*
X709271Y136809D01*
X709008Y136174D01*
X708684Y135567D01*
X708302Y134995D01*
X707866Y134464D01*
X707379Y133977D01*
X706848Y133541D01*
X706276Y133159D01*
X705669Y132835D01*
X705034Y132572D01*
X704376Y132372D01*
X703701Y132238D01*
X703017Y132170D01*
X702329Y132170D01*
X701644Y132238D01*
X700970Y132372D01*
X700312Y132572D01*
X699676Y132835D01*
X699070Y133159D01*
X698498Y133541D01*
X697966Y133977D01*
X697480Y134464D01*
X697043Y134995D01*
X696661Y135567D01*
X696337Y136174D01*
X696074Y136809D01*
X695874Y137467D01*
X695740Y138142D01*
X695673Y138826D01*
X695673Y139514D01*
X695740Y140199D01*
X695874Y140873D01*
X696074Y141531D01*
X696337Y142167D01*
X696661Y142773D01*
X697043Y143345D01*
X697480Y143877D01*
X697966Y144363D01*
X698498Y144800D01*
X699070Y145182D01*
X699676Y145506D01*
X700312Y145769D01*
X700970Y145969D01*
X701644Y146103D01*
X702329Y146170D01*
X703017Y146170D01*
X703017Y46170D02*
X703701Y46103D01*
X704376Y45969D01*
X705034Y45769D01*
X705669Y45506D01*
X706276Y45182D01*
X706848Y44800D01*
X707379Y44363D01*
X707866Y43877D01*
X708302Y43345D01*
X708684Y42773D01*
X709008Y42167D01*
X709271Y41531D01*
X709471Y40873D01*
X709605Y40199D01*
X709673Y39514D01*
X709673Y38826D01*
X709605Y38142D01*
X709471Y37467D01*
X709271Y36809D01*
X709008Y36174D01*
X708684Y35567D01*
X708302Y34995D01*
X707866Y34464D01*
X707379Y33977D01*
X706848Y33541D01*
X706276Y33159D01*
X705669Y32835D01*
X705034Y32572D01*
X704376Y32372D01*
X703701Y32238D01*
X703017Y32170D01*
X702329Y32170D01*
X701644Y32238D01*
X700970Y32372D01*
X700312Y32572D01*
X699676Y32835D01*
X699070Y33159D01*
X698498Y33541D01*
X697966Y33977D01*
X697480Y34464D01*
X697043Y34995D01*
X696661Y35567D01*
X696337Y36174D01*
X696074Y36809D01*
X695874Y37467D01*
X695740Y38142D01*
X695673Y38826D01*
X695673Y39514D01*
X695740Y40199D01*
X695874Y40873D01*
X696074Y41531D01*
X696337Y42167D01*
X696661Y42773D01*
X697043Y43345D01*
X697480Y43877D01*
X697966Y44363D01*
X698498Y44800D01*
X699070Y45182D01*
X699676Y45506D01*
X700312Y45769D01*
X700970Y45969D01*
X701644Y46103D01*
X702329Y46170D01*
X703017Y46170D01*
M02*
