G04 EAGLE Gerber RS-274X export*
G75*
%MOMM*%
%FSLAX34Y34*%
%LPD*%
%INSoldermask Top*%
%IPPOS*%
%AMOC8*
5,1,8,0,0,1.08239X$1,22.5*%
G01*
%ADD10R,3.708400X0.914400*%
%ADD11R,0.452400X1.627400*%
%ADD12R,1.627400X0.452400*%
%ADD13R,1.371400X2.387400*%
%ADD14R,3.752400X2.352400*%
%ADD15R,1.152400X1.252400*%
%ADD16R,1.952400X1.752400*%
%ADD17R,1.352400X1.352400*%
%ADD18R,1.252400X1.152400*%
%ADD19C,1.828800*%
%ADD20R,2.492400X1.652400*%
%ADD21R,1.652400X0.752400*%
%ADD22C,1.552400*%
%ADD23R,0.577400X1.052400*%
%ADD24R,0.752400X1.352400*%
%ADD25P,1.814519X8X22.500000*%
%ADD26R,1.752400X1.952400*%
%ADD27R,1.552400X0.752400*%
%ADD28R,0.552400X1.102400*%
%ADD29C,0.756400*%


D10*
X19916Y11321D03*
X19916Y24021D03*
X19916Y36721D03*
X19916Y49421D03*
X19916Y62121D03*
X19916Y74821D03*
X19916Y87521D03*
X19916Y100221D03*
X19916Y112921D03*
X19916Y125621D03*
X19916Y138321D03*
X19916Y151021D03*
X19916Y163721D03*
X19916Y176421D03*
X19916Y189121D03*
X19916Y201821D03*
X19916Y214521D03*
X19916Y227221D03*
X19916Y239921D03*
X19916Y252621D03*
X19916Y265321D03*
X19916Y278021D03*
X19916Y290721D03*
X19916Y303421D03*
X19916Y316121D03*
X19916Y328821D03*
X19916Y341521D03*
X19916Y354221D03*
X19916Y366921D03*
X19916Y379621D03*
X19916Y392321D03*
X19916Y405021D03*
X19916Y417721D03*
X19916Y430421D03*
D11*
X410055Y278180D03*
X405055Y278180D03*
X400055Y278180D03*
X395055Y278180D03*
X390055Y278180D03*
X385055Y278180D03*
X380055Y278180D03*
X375055Y278180D03*
X370055Y278180D03*
X365055Y278180D03*
X360055Y278180D03*
X355055Y278180D03*
X350055Y278180D03*
X345055Y278180D03*
X340055Y278180D03*
X335055Y278180D03*
X330055Y278180D03*
X325055Y278180D03*
X320055Y278180D03*
X315055Y278180D03*
X310055Y278180D03*
X305055Y278180D03*
X300055Y278180D03*
X295055Y278180D03*
X290055Y278180D03*
D12*
X272675Y260800D03*
X272675Y255800D03*
X272675Y250800D03*
X272675Y245800D03*
X272675Y240800D03*
X272675Y235800D03*
X272675Y230800D03*
X272675Y225800D03*
X272675Y220800D03*
X272675Y215800D03*
X272675Y210800D03*
X272675Y205800D03*
X272675Y200800D03*
X272675Y195800D03*
X272675Y190800D03*
X272675Y185800D03*
X272675Y180800D03*
X272675Y175800D03*
X272675Y170800D03*
X272675Y165800D03*
X272675Y160800D03*
X272675Y155800D03*
X272675Y150800D03*
X272675Y145800D03*
X272675Y140800D03*
D11*
X290055Y123420D03*
X295055Y123420D03*
X300055Y123420D03*
X305055Y123420D03*
X310055Y123420D03*
X315055Y123420D03*
X320055Y123420D03*
X325055Y123420D03*
X330055Y123420D03*
X335055Y123420D03*
X340055Y123420D03*
X345055Y123420D03*
X350055Y123420D03*
X355055Y123420D03*
X360055Y123420D03*
X365055Y123420D03*
X370055Y123420D03*
X375055Y123420D03*
X380055Y123420D03*
X385055Y123420D03*
X390055Y123420D03*
X395055Y123420D03*
X400055Y123420D03*
X405055Y123420D03*
X410055Y123420D03*
D12*
X427435Y140800D03*
X427435Y145800D03*
X427435Y150800D03*
X427435Y155800D03*
X427435Y160800D03*
X427435Y165800D03*
X427435Y170800D03*
X427435Y175800D03*
X427435Y180800D03*
X427435Y185800D03*
X427435Y190800D03*
X427435Y195800D03*
X427435Y200800D03*
X427435Y205800D03*
X427435Y210800D03*
X427435Y215800D03*
X427435Y220800D03*
X427435Y225800D03*
X427435Y230800D03*
X427435Y235800D03*
X427435Y240800D03*
X427435Y245800D03*
X427435Y250800D03*
X427435Y255800D03*
X427435Y260800D03*
D13*
X372724Y411757D03*
X349614Y411757D03*
X326504Y411757D03*
D14*
X349614Y349777D03*
D15*
X460039Y395149D03*
X460039Y378149D03*
D16*
X288410Y397263D03*
X288410Y369263D03*
X406766Y368419D03*
X406766Y396419D03*
D17*
X560128Y375347D03*
X560128Y396347D03*
D18*
X537410Y377330D03*
X537410Y394330D03*
D19*
X528206Y39775D03*
X502806Y39775D03*
X477406Y39775D03*
X452006Y39775D03*
X426606Y39775D03*
X401206Y39775D03*
D20*
X749673Y160870D03*
X749673Y17470D03*
D21*
X672173Y118170D03*
X672173Y107170D03*
X672173Y96170D03*
X672173Y85170D03*
X672173Y74170D03*
X672173Y63170D03*
X672173Y52170D03*
X672173Y41170D03*
X672173Y141670D03*
X672173Y129170D03*
D22*
X702673Y139170D03*
X702673Y39170D03*
D23*
X603144Y199461D03*
X595144Y199461D03*
X587144Y199461D03*
X579144Y199461D03*
X579144Y182461D03*
X587144Y182461D03*
X595144Y182461D03*
X603144Y182461D03*
D24*
X552165Y284794D03*
X564865Y284794D03*
X577565Y284794D03*
X590265Y284794D03*
X590265Y340794D03*
X577565Y340794D03*
X564865Y340794D03*
X552165Y340794D03*
D25*
X490333Y356901D03*
D15*
X519835Y323828D03*
X519835Y306828D03*
D18*
G36*
X249151Y132570D02*
X258006Y123715D01*
X249857Y115566D01*
X241002Y124421D01*
X249151Y132570D01*
G37*
G36*
X237130Y144591D02*
X245985Y135736D01*
X237836Y127587D01*
X228981Y136442D01*
X237130Y144591D01*
G37*
G36*
X433932Y291764D02*
X425077Y300619D01*
X433226Y308768D01*
X442081Y299913D01*
X433932Y291764D01*
G37*
G36*
X445953Y279744D02*
X437098Y288599D01*
X445247Y296748D01*
X454102Y287893D01*
X445953Y279744D01*
G37*
G36*
X263279Y284028D02*
X272134Y275173D01*
X263985Y267024D01*
X255130Y275879D01*
X263279Y284028D01*
G37*
G36*
X251259Y296048D02*
X260114Y287193D01*
X251965Y279044D01*
X243110Y287899D01*
X251259Y296048D01*
G37*
X429498Y102009D03*
X446498Y102009D03*
X468498Y224548D03*
X485498Y224548D03*
D26*
X236133Y16959D03*
X264133Y16959D03*
X108154Y335913D03*
X136154Y335913D03*
D15*
X616741Y62084D03*
X616741Y45084D03*
D18*
X373848Y41961D03*
X373848Y24961D03*
D17*
X354637Y45872D03*
X354637Y24872D03*
D18*
X311689Y41520D03*
X311689Y24520D03*
D17*
X333971Y45201D03*
X333971Y24201D03*
D27*
X148826Y106221D03*
X148826Y115721D03*
X148826Y125221D03*
X123826Y125221D03*
X123826Y106221D03*
D15*
X193734Y121732D03*
X193734Y104732D03*
X94086Y141361D03*
X111086Y141361D03*
D18*
X91884Y123104D03*
X91884Y106104D03*
X190539Y87648D03*
X173539Y87648D03*
X173201Y121646D03*
X173201Y104646D03*
X159807Y140616D03*
X142807Y140616D03*
D15*
X71522Y123152D03*
X71522Y106152D03*
D18*
X100255Y89302D03*
X83255Y89302D03*
X127331Y88314D03*
X144331Y88314D03*
X538946Y350028D03*
X521946Y350028D03*
D28*
X793934Y433010D03*
X786434Y433010D03*
X778934Y433010D03*
X778934Y415010D03*
X786434Y415010D03*
X793934Y415010D03*
X793726Y398489D03*
X786226Y398489D03*
X778726Y398489D03*
X778726Y380489D03*
X786226Y380489D03*
X793726Y380489D03*
X793704Y363748D03*
X786204Y363748D03*
X778704Y363748D03*
X778704Y345748D03*
X786204Y345748D03*
X793704Y345748D03*
X793728Y328875D03*
X786228Y328875D03*
X778728Y328875D03*
X778728Y310875D03*
X786228Y310875D03*
X793728Y310875D03*
X793800Y294016D03*
X786300Y294016D03*
X778800Y294016D03*
X778800Y276016D03*
X786300Y276016D03*
X793800Y276016D03*
X794051Y259122D03*
X786551Y259122D03*
X779051Y259122D03*
X779051Y241122D03*
X786551Y241122D03*
X794051Y241122D03*
X794211Y223430D03*
X786711Y223430D03*
X779211Y223430D03*
X779211Y205430D03*
X786711Y205430D03*
X794211Y205430D03*
D29*
X43496Y430662D03*
X61127Y422489D03*
X46208Y11319D03*
X51669Y18725D03*
X317224Y290905D03*
X259074Y142015D03*
X405074Y110133D03*
X288453Y353810D03*
X372597Y393919D03*
X406187Y410461D03*
X362054Y292408D03*
X657540Y63102D03*
X748315Y148410D03*
X748315Y30365D03*
X414231Y255254D03*
X590136Y273830D03*
X571721Y375171D03*
X459946Y367943D03*
X519748Y297549D03*
X244447Y280827D03*
X456734Y101823D03*
X232202Y145016D03*
X453174Y279674D03*
X486101Y213049D03*
X277913Y17210D03*
X135994Y323382D03*
X616710Y33536D03*
X134843Y106130D03*
X71295Y93690D03*
X81940Y144837D03*
X155217Y88701D03*
X442994Y230890D03*
X510775Y350345D03*
X770388Y433046D03*
X770463Y398678D03*
X770236Y363776D03*
X770497Y328602D03*
X770489Y294204D03*
X770335Y259410D03*
X770624Y223539D03*
X412673Y180422D03*
X307971Y94401D03*
X299368Y94457D03*
X444037Y178864D03*
X290692Y94768D03*
X443650Y188945D03*
X281813Y94917D03*
X449291Y196673D03*
X271583Y93990D03*
X443263Y203543D03*
X319709Y62614D03*
X326475Y69349D03*
X333209Y75536D03*
X339271Y81685D03*
X345137Y88144D03*
X262403Y94575D03*
X440258Y220958D03*
X56720Y112536D03*
X383425Y225478D03*
X256237Y245443D03*
X175344Y275551D03*
X176106Y187346D03*
X56835Y100004D03*
X56835Y125245D03*
X159089Y199167D03*
X155647Y216712D03*
X57150Y138345D03*
X57150Y151125D03*
X154677Y225916D03*
X57150Y163659D03*
X122097Y217989D03*
X57150Y176653D03*
X107879Y221446D03*
X57208Y189534D03*
X389140Y232777D03*
X256282Y254023D03*
X166674Y287233D03*
X57013Y201790D03*
X157917Y296242D03*
X43613Y214552D03*
X326967Y392654D03*
X288534Y411122D03*
X460428Y405043D03*
X220675Y17017D03*
X92985Y333092D03*
X137945Y115677D03*
X112733Y89302D03*
X770503Y345961D03*
X770564Y380447D03*
X770463Y415008D03*
X770102Y310600D03*
X770634Y275576D03*
X770741Y205527D03*
X770433Y241244D03*
X54429Y240059D03*
X107215Y292758D03*
X502363Y169042D03*
X405776Y164782D03*
X513123Y176401D03*
X400585Y172042D03*
X73838Y418878D03*
X298566Y161875D03*
X394467Y242147D03*
X256991Y264765D03*
X172973Y293984D03*
X163338Y243896D03*
X152079Y246220D03*
X364099Y206383D03*
X241895Y222218D03*
X150940Y259858D03*
X370520Y212876D03*
X247188Y229239D03*
X135568Y278971D03*
X377039Y219089D03*
X251980Y236925D03*
X127753Y291620D03*
X188266Y142815D03*
X195350Y135979D03*
X201707Y154480D03*
X218211Y120404D03*
X218337Y111657D03*
X310282Y159571D03*
X440118Y262358D03*
X313111Y264287D03*
X359797Y265004D03*
X406704Y355406D03*
X349534Y365972D03*
X349614Y380478D03*
X272316Y134709D03*
X415272Y123359D03*
X302715Y263288D03*
X552009Y351843D03*
X568188Y182928D03*
X657447Y85120D03*
X537032Y366337D03*
X384983Y265178D03*
X520016Y333922D03*
X270549Y281823D03*
X418673Y102144D03*
X258650Y118112D03*
X426112Y307021D03*
X456962Y224615D03*
X626924Y62253D03*
X311428Y53313D03*
X373701Y53199D03*
X643635Y51621D03*
X643635Y86161D03*
X590330Y107491D03*
X590500Y63378D03*
X658103Y141548D03*
X539858Y96460D03*
X132061Y183802D03*
X117590Y181335D03*
X267266Y123939D03*
X181624Y148566D03*
X350409Y295949D03*
X294908Y291153D03*
X434433Y345898D03*
X577926Y323655D03*
X330746Y250890D03*
X363315Y248401D03*
X590114Y322637D03*
X375707Y248826D03*
X564675Y259228D03*
X208881Y129269D03*
X251484Y94831D03*
X324921Y165700D03*
X338814Y296390D03*
X698706Y428494D03*
X327159Y296357D03*
X702542Y436792D03*
M02*
