G04 EAGLE Gerber RS-274X export*
G75*
%MOMM*%
%FSLAX34Y34*%
%LPD*%
%INInner Copper Layer 1*%
%IPPOS*%
%AMOC8*
5,1,8,0,0,1.08239X$1,22.5*%
G01*
%ADD10C,1.500000*%
%ADD11C,1.524000*%
%ADD12C,0.604000*%

G36*
X801546Y2540D02*
X801546Y2540D01*
X801546Y441594D01*
X801542Y441599D01*
X801541Y441599D01*
X705603Y441599D01*
X705602Y441598D01*
X705600Y441598D01*
X705600Y441596D01*
X705598Y441595D01*
X705600Y441593D01*
X705600Y441591D01*
X708098Y439093D01*
X708098Y434491D01*
X704843Y431236D01*
X703832Y431236D01*
X703831Y431235D01*
X703829Y431235D01*
X703829Y431234D01*
X703827Y431232D01*
X703829Y431230D01*
X703828Y431228D01*
X704261Y430795D01*
X704261Y426193D01*
X701007Y422939D01*
X696405Y422939D01*
X693151Y426193D01*
X693151Y430795D01*
X696405Y434049D01*
X697417Y434049D01*
X697418Y434050D01*
X697420Y434050D01*
X697420Y434052D01*
X697422Y434053D01*
X697420Y434055D01*
X697420Y434058D01*
X696987Y434491D01*
X696987Y439093D01*
X699485Y441591D01*
X699485Y441592D01*
X699486Y441593D01*
X699487Y441593D01*
X699485Y441595D01*
X699486Y441597D01*
X699483Y441597D01*
X699482Y441599D01*
X2540Y441599D01*
X2535Y441595D01*
X2535Y441594D01*
X2535Y2540D01*
X2540Y2535D01*
X2540Y2536D01*
X2540Y2535D01*
X801541Y2535D01*
X801546Y2540D01*
G37*
%LPC*%
G36*
X311364Y23389D02*
X311364Y23389D01*
X223900Y110853D01*
X223899Y110853D01*
X223898Y110854D01*
X223897Y110854D01*
X223896Y110853D01*
X223894Y110853D01*
X223894Y110851D01*
X223892Y110850D01*
X223892Y110849D01*
X223892Y109355D01*
X220638Y106101D01*
X216036Y106101D01*
X212782Y109355D01*
X212782Y113958D01*
X214788Y115964D01*
X214788Y115965D01*
X214789Y115966D01*
X214788Y115967D01*
X214788Y115970D01*
X214788Y115971D01*
X212656Y118103D01*
X212656Y122705D01*
X215910Y125959D01*
X216934Y125959D01*
X216939Y125964D01*
X216938Y125964D01*
X216939Y125964D01*
X216939Y355743D01*
X250839Y389643D01*
X322283Y389643D01*
X322283Y389644D01*
X322284Y389644D01*
X322285Y389646D01*
X322287Y389648D01*
X322286Y389649D01*
X322287Y389651D01*
X321791Y390510D01*
X321412Y391923D01*
X321412Y392649D01*
X326967Y392649D01*
X326968Y392649D01*
X332523Y392649D01*
X332523Y391923D01*
X332144Y390510D01*
X331648Y389651D01*
X331648Y389650D01*
X331647Y389649D01*
X331649Y389647D01*
X331649Y389644D01*
X331651Y389645D01*
X331652Y389643D01*
X356081Y389643D01*
X356082Y389645D01*
X356084Y389645D01*
X356305Y389865D01*
X368782Y389865D01*
X368784Y389866D01*
X368785Y389866D01*
X368786Y389868D01*
X368787Y389869D01*
X368786Y389871D01*
X368786Y389874D01*
X367042Y391618D01*
X367042Y396220D01*
X370296Y399474D01*
X374898Y399474D01*
X378152Y396220D01*
X378152Y391618D01*
X376408Y389874D01*
X376407Y389872D01*
X376406Y389871D01*
X376407Y389869D01*
X376407Y389867D01*
X376410Y389867D01*
X376411Y389865D01*
X575871Y389865D01*
X691227Y274509D01*
X691227Y38221D01*
X676396Y23389D01*
X311364Y23389D01*
G37*
%LPD*%
G36*
X614268Y26449D02*
X614268Y26449D01*
X614365Y26458D01*
X614388Y26469D01*
X614414Y26473D01*
X614500Y26518D01*
X614589Y26558D01*
X614609Y26576D01*
X614632Y26588D01*
X614699Y26659D01*
X614770Y26725D01*
X614783Y26747D01*
X614801Y26766D01*
X614842Y26855D01*
X614889Y26940D01*
X614894Y26966D01*
X614905Y26990D01*
X614915Y27086D01*
X614933Y27182D01*
X614929Y27208D01*
X614932Y27234D01*
X614911Y27329D01*
X614897Y27425D01*
X614885Y27449D01*
X614879Y27474D01*
X614830Y27558D01*
X614785Y27645D01*
X614767Y27663D01*
X614753Y27685D01*
X614679Y27749D01*
X614610Y27817D01*
X614581Y27833D01*
X614566Y27845D01*
X614536Y27858D01*
X614463Y27898D01*
X613272Y28391D01*
X611565Y30098D01*
X610641Y32329D01*
X610641Y34743D01*
X611565Y36973D01*
X613272Y38681D01*
X615503Y39605D01*
X617917Y39605D01*
X620148Y38681D01*
X621855Y36973D01*
X622779Y34743D01*
X622779Y32329D01*
X621855Y30098D01*
X620148Y28391D01*
X618957Y27898D01*
X618874Y27846D01*
X618788Y27801D01*
X618770Y27782D01*
X618748Y27768D01*
X618686Y27693D01*
X618619Y27623D01*
X618608Y27599D01*
X618591Y27579D01*
X618556Y27488D01*
X618515Y27400D01*
X618512Y27373D01*
X618503Y27349D01*
X618499Y27252D01*
X618488Y27155D01*
X618494Y27130D01*
X618492Y27103D01*
X618520Y27010D01*
X618540Y26915D01*
X618554Y26892D01*
X618561Y26867D01*
X618616Y26787D01*
X618666Y26704D01*
X618686Y26687D01*
X618701Y26665D01*
X618779Y26607D01*
X618853Y26544D01*
X618878Y26534D01*
X618899Y26518D01*
X618991Y26488D01*
X619081Y26452D01*
X619114Y26448D01*
X619132Y26442D01*
X619165Y26442D01*
X619248Y26433D01*
X674820Y26433D01*
X674910Y26448D01*
X675001Y26455D01*
X675031Y26468D01*
X675063Y26473D01*
X675143Y26516D01*
X675227Y26551D01*
X675259Y26577D01*
X675280Y26588D01*
X675302Y26611D01*
X675358Y26656D01*
X687960Y39259D01*
X688013Y39332D01*
X688073Y39402D01*
X688085Y39432D01*
X688104Y39458D01*
X688131Y39545D01*
X688165Y39630D01*
X688169Y39671D01*
X688176Y39693D01*
X688175Y39726D01*
X688183Y39797D01*
X688183Y272933D01*
X688169Y273023D01*
X688161Y273114D01*
X688149Y273144D01*
X688144Y273176D01*
X688101Y273256D01*
X688065Y273340D01*
X688039Y273372D01*
X688029Y273393D01*
X688005Y273415D01*
X687960Y273471D01*
X574833Y386598D01*
X574759Y386651D01*
X574690Y386711D01*
X574660Y386723D01*
X574634Y386742D01*
X574547Y386768D01*
X574462Y386803D01*
X574421Y386807D01*
X574399Y386814D01*
X574366Y386813D01*
X574295Y386821D01*
X357881Y386821D01*
X357791Y386806D01*
X357700Y386799D01*
X357670Y386787D01*
X357638Y386781D01*
X357557Y386739D01*
X357473Y386703D01*
X357441Y386677D01*
X357421Y386666D01*
X357398Y386643D01*
X357344Y386599D01*
X352972Y386599D01*
X352949Y386596D01*
X352926Y386598D01*
X352828Y386576D01*
X352729Y386560D01*
X352709Y386549D01*
X352686Y386544D01*
X352600Y386491D01*
X352512Y386445D01*
X352496Y386428D01*
X352476Y386416D01*
X352412Y386339D01*
X352342Y386266D01*
X352333Y386245D01*
X352318Y386228D01*
X352281Y386134D01*
X352239Y386043D01*
X352236Y386020D01*
X352228Y385999D01*
X352223Y385898D01*
X352212Y385799D01*
X352217Y385776D01*
X352215Y385753D01*
X352243Y385656D01*
X352264Y385558D01*
X352276Y385539D01*
X352282Y385516D01*
X352339Y385433D01*
X352390Y385347D01*
X352408Y385332D01*
X352421Y385313D01*
X352549Y385205D01*
X353159Y384797D01*
X353934Y384023D01*
X354542Y383112D01*
X354962Y382100D01*
X355110Y381352D01*
X349728Y381352D01*
X349708Y381349D01*
X349688Y381351D01*
X349628Y381338D01*
X349501Y381352D01*
X344119Y381352D01*
X344267Y382100D01*
X344687Y383112D01*
X345295Y384023D01*
X346070Y384797D01*
X346680Y385205D01*
X346697Y385221D01*
X346717Y385232D01*
X346786Y385304D01*
X346860Y385373D01*
X346871Y385393D01*
X346887Y385410D01*
X346929Y385501D01*
X346977Y385590D01*
X346980Y385612D01*
X346990Y385633D01*
X347001Y385733D01*
X347018Y385832D01*
X347015Y385855D01*
X347017Y385878D01*
X346996Y385976D01*
X346980Y386075D01*
X346970Y386095D01*
X346965Y386118D01*
X346913Y386204D01*
X346867Y386293D01*
X346851Y386309D01*
X346839Y386329D01*
X346762Y386394D01*
X346690Y386464D01*
X346669Y386474D01*
X346652Y386489D01*
X346559Y386527D01*
X346468Y386570D01*
X346445Y386572D01*
X346424Y386581D01*
X346257Y386599D01*
X328359Y386599D01*
X328295Y386589D01*
X328229Y386588D01*
X328220Y386585D01*
X325701Y386585D01*
X325660Y386590D01*
X325628Y386598D01*
X325608Y386596D01*
X325575Y386599D01*
X252415Y386599D01*
X252325Y386585D01*
X252234Y386578D01*
X252204Y386565D01*
X252172Y386560D01*
X252092Y386517D01*
X252008Y386481D01*
X251976Y386456D01*
X251955Y386445D01*
X251933Y386421D01*
X251877Y386376D01*
X220206Y354705D01*
X220153Y354632D01*
X220093Y354562D01*
X220081Y354532D01*
X220062Y354506D01*
X220035Y354419D01*
X220001Y354334D01*
X219997Y354293D01*
X219990Y354271D01*
X219991Y354238D01*
X219983Y354167D01*
X219983Y126748D01*
X220002Y126633D01*
X220019Y126517D01*
X220022Y126511D01*
X220023Y126505D01*
X220077Y126402D01*
X220130Y126297D01*
X220135Y126293D01*
X220138Y126287D01*
X220222Y126208D01*
X220306Y126125D01*
X220312Y126121D01*
X220316Y126118D01*
X220333Y126110D01*
X220453Y126044D01*
X221649Y125549D01*
X223356Y123842D01*
X224280Y121611D01*
X224280Y119197D01*
X223356Y116966D01*
X223262Y116873D01*
X223250Y116856D01*
X223235Y116844D01*
X223179Y116757D01*
X223118Y116673D01*
X223112Y116654D01*
X223102Y116637D01*
X223076Y116537D01*
X223046Y116438D01*
X223046Y116418D01*
X223042Y116399D01*
X223050Y116296D01*
X223052Y116192D01*
X223059Y116173D01*
X223061Y116153D01*
X223101Y116058D01*
X223137Y115961D01*
X223149Y115945D01*
X223157Y115927D01*
X223262Y115796D01*
X244115Y94942D01*
X244174Y94901D01*
X244226Y94851D01*
X244273Y94829D01*
X244315Y94799D01*
X244384Y94778D01*
X244449Y94748D01*
X244501Y94742D01*
X244550Y94727D01*
X244622Y94728D01*
X244693Y94720D01*
X244744Y94732D01*
X244796Y94733D01*
X244864Y94758D01*
X244934Y94773D01*
X244978Y94799D01*
X245027Y94817D01*
X245083Y94862D01*
X245145Y94899D01*
X245179Y94938D01*
X245219Y94971D01*
X245258Y95031D01*
X245305Y95086D01*
X245324Y95134D01*
X245352Y95178D01*
X245370Y95247D01*
X245397Y95314D01*
X245404Y95385D01*
X245412Y95416D01*
X245410Y95440D01*
X245415Y95481D01*
X245415Y96038D01*
X246339Y98268D01*
X248046Y99975D01*
X250277Y100899D01*
X252691Y100899D01*
X254921Y99975D01*
X256533Y98364D01*
X256549Y98352D01*
X256561Y98337D01*
X256649Y98281D01*
X256733Y98220D01*
X256752Y98215D01*
X256768Y98204D01*
X256869Y98179D01*
X256968Y98148D01*
X256988Y98149D01*
X257007Y98144D01*
X257110Y98152D01*
X257213Y98154D01*
X257232Y98161D01*
X257252Y98163D01*
X257347Y98203D01*
X257445Y98239D01*
X257460Y98251D01*
X257478Y98259D01*
X257609Y98364D01*
X258965Y99720D01*
X261195Y100644D01*
X263610Y100644D01*
X265840Y99720D01*
X266747Y98813D01*
X266763Y98801D01*
X266776Y98786D01*
X266863Y98730D01*
X266947Y98669D01*
X266966Y98664D01*
X266982Y98653D01*
X267083Y98627D01*
X267182Y98597D01*
X267202Y98598D01*
X267221Y98593D01*
X267324Y98601D01*
X267428Y98603D01*
X267446Y98610D01*
X267466Y98612D01*
X267561Y98652D01*
X267659Y98688D01*
X267674Y98700D01*
X267693Y98708D01*
X267823Y98813D01*
X268145Y99135D01*
X270376Y100058D01*
X272790Y100058D01*
X275020Y99135D01*
X275696Y98459D01*
X275712Y98447D01*
X275725Y98432D01*
X275812Y98376D01*
X275896Y98315D01*
X275915Y98310D01*
X275932Y98299D01*
X276032Y98273D01*
X276131Y98243D01*
X276151Y98244D01*
X276170Y98239D01*
X276273Y98247D01*
X276377Y98249D01*
X276396Y98256D01*
X276415Y98258D01*
X276510Y98298D01*
X276608Y98334D01*
X276623Y98346D01*
X276642Y98354D01*
X276773Y98459D01*
X278376Y100062D01*
X280606Y100986D01*
X283020Y100986D01*
X285251Y100062D01*
X285789Y99524D01*
X285805Y99512D01*
X285818Y99496D01*
X285905Y99440D01*
X285989Y99380D01*
X286008Y99374D01*
X286025Y99363D01*
X286125Y99338D01*
X286224Y99308D01*
X286244Y99308D01*
X286263Y99303D01*
X286366Y99311D01*
X286470Y99314D01*
X286489Y99321D01*
X286509Y99322D01*
X286603Y99363D01*
X286701Y99398D01*
X286717Y99411D01*
X286735Y99419D01*
X286866Y99524D01*
X287255Y99913D01*
X289485Y100836D01*
X291900Y100836D01*
X294130Y99913D01*
X294647Y99395D01*
X294663Y99384D01*
X294676Y99368D01*
X294763Y99312D01*
X294847Y99252D01*
X294866Y99246D01*
X294883Y99235D01*
X294983Y99210D01*
X295082Y99179D01*
X295102Y99180D01*
X295121Y99175D01*
X295224Y99183D01*
X295328Y99186D01*
X295347Y99193D01*
X295367Y99194D01*
X295462Y99235D01*
X295559Y99270D01*
X295575Y99283D01*
X295593Y99291D01*
X295724Y99395D01*
X295930Y99602D01*
X298161Y100526D01*
X300575Y100526D01*
X302805Y99602D01*
X303159Y99248D01*
X303175Y99236D01*
X303188Y99221D01*
X303275Y99165D01*
X303359Y99104D01*
X303378Y99098D01*
X303395Y99088D01*
X303495Y99062D01*
X303594Y99032D01*
X303614Y99032D01*
X303633Y99028D01*
X303736Y99036D01*
X303840Y99038D01*
X303859Y99045D01*
X303879Y99047D01*
X303974Y99087D01*
X304071Y99123D01*
X304087Y99135D01*
X304105Y99143D01*
X304236Y99248D01*
X304533Y99545D01*
X306764Y100469D01*
X309178Y100469D01*
X311409Y99545D01*
X313116Y97838D01*
X314040Y95608D01*
X314040Y93194D01*
X313116Y90963D01*
X311409Y89256D01*
X309178Y88332D01*
X306764Y88332D01*
X304533Y89256D01*
X304180Y89610D01*
X304163Y89621D01*
X304151Y89637D01*
X304064Y89693D01*
X303980Y89753D01*
X303961Y89759D01*
X303944Y89770D01*
X303844Y89795D01*
X303745Y89826D01*
X303725Y89825D01*
X303706Y89830D01*
X303603Y89822D01*
X303499Y89819D01*
X303480Y89812D01*
X303460Y89811D01*
X303365Y89770D01*
X303268Y89735D01*
X303252Y89722D01*
X303234Y89714D01*
X303103Y89610D01*
X302805Y89312D01*
X300575Y88388D01*
X298161Y88388D01*
X295930Y89312D01*
X295413Y89829D01*
X295397Y89841D01*
X295384Y89856D01*
X295297Y89912D01*
X295213Y89973D01*
X295194Y89979D01*
X295177Y89989D01*
X295077Y90015D01*
X294978Y90045D01*
X294958Y90045D01*
X294939Y90049D01*
X294836Y90041D01*
X294732Y90039D01*
X294714Y90032D01*
X294694Y90030D01*
X294599Y89990D01*
X294501Y89954D01*
X294486Y89942D01*
X294467Y89934D01*
X294336Y89829D01*
X294130Y89623D01*
X291900Y88699D01*
X289485Y88699D01*
X287255Y89623D01*
X286717Y90161D01*
X286700Y90173D01*
X286688Y90188D01*
X286623Y90230D01*
X286579Y90268D01*
X286554Y90278D01*
X286517Y90305D01*
X286498Y90311D01*
X286481Y90321D01*
X286388Y90345D01*
X286351Y90360D01*
X286331Y90362D01*
X286282Y90377D01*
X286262Y90377D01*
X286242Y90381D01*
X286191Y90377D01*
X286184Y90378D01*
X286172Y90378D01*
X286146Y90374D01*
X286139Y90373D01*
X286036Y90371D01*
X286017Y90364D01*
X285997Y90362D01*
X285949Y90342D01*
X285930Y90339D01*
X285889Y90317D01*
X285805Y90286D01*
X285789Y90274D01*
X285771Y90266D01*
X285729Y90232D01*
X285712Y90223D01*
X285695Y90205D01*
X285640Y90161D01*
X285251Y89772D01*
X283020Y88848D01*
X280606Y88848D01*
X278376Y89772D01*
X277700Y90448D01*
X277684Y90460D01*
X277671Y90475D01*
X277584Y90531D01*
X277500Y90591D01*
X277481Y90597D01*
X277464Y90608D01*
X277364Y90633D01*
X277265Y90664D01*
X277245Y90663D01*
X277226Y90668D01*
X277123Y90660D01*
X277019Y90657D01*
X277000Y90651D01*
X276981Y90649D01*
X276886Y90609D01*
X276788Y90573D01*
X276773Y90560D01*
X276754Y90553D01*
X276623Y90448D01*
X275020Y88845D01*
X272790Y87921D01*
X270376Y87921D01*
X268145Y88845D01*
X267238Y89752D01*
X267222Y89763D01*
X267210Y89779D01*
X267122Y89835D01*
X267039Y89895D01*
X267020Y89901D01*
X267003Y89912D01*
X266902Y89937D01*
X266804Y89967D01*
X266784Y89967D01*
X266764Y89972D01*
X266661Y89964D01*
X266558Y89961D01*
X266539Y89954D01*
X266519Y89953D01*
X266424Y89912D01*
X266327Y89877D01*
X266311Y89864D01*
X266293Y89856D01*
X266162Y89752D01*
X265840Y89430D01*
X263610Y88506D01*
X261195Y88506D01*
X258965Y89430D01*
X257354Y91041D01*
X257337Y91053D01*
X257325Y91069D01*
X257238Y91125D01*
X257154Y91185D01*
X257135Y91191D01*
X257118Y91202D01*
X257018Y91227D01*
X256919Y91257D01*
X256899Y91257D01*
X256880Y91262D01*
X256777Y91254D01*
X256673Y91251D01*
X256654Y91244D01*
X256634Y91242D01*
X256539Y91202D01*
X256442Y91166D01*
X256426Y91154D01*
X256408Y91146D01*
X256277Y91041D01*
X254921Y89686D01*
X252691Y88762D01*
X252134Y88762D01*
X252063Y88750D01*
X251991Y88748D01*
X251942Y88730D01*
X251891Y88722D01*
X251828Y88689D01*
X251760Y88664D01*
X251720Y88631D01*
X251674Y88607D01*
X251624Y88555D01*
X251568Y88510D01*
X251540Y88466D01*
X251504Y88429D01*
X251474Y88364D01*
X251435Y88303D01*
X251423Y88253D01*
X251401Y88206D01*
X251393Y88134D01*
X251375Y88065D01*
X251379Y88013D01*
X251374Y87961D01*
X251389Y87891D01*
X251394Y87820D01*
X251415Y87772D01*
X251426Y87721D01*
X251463Y87659D01*
X251491Y87593D01*
X251536Y87537D01*
X251552Y87510D01*
X251570Y87494D01*
X251596Y87462D01*
X312402Y26656D01*
X312476Y26603D01*
X312545Y26544D01*
X312575Y26532D01*
X312601Y26513D01*
X312688Y26486D01*
X312773Y26452D01*
X312814Y26447D01*
X312837Y26440D01*
X312869Y26441D01*
X312940Y26433D01*
X614171Y26433D01*
X614268Y26449D01*
G37*
%LPC*%
G36*
X362891Y200314D02*
X362891Y200314D01*
X360661Y201238D01*
X358954Y202946D01*
X358030Y205176D01*
X358030Y207590D01*
X358954Y209821D01*
X360661Y211528D01*
X362891Y212452D01*
X363690Y212452D01*
X363709Y212455D01*
X363729Y212453D01*
X363830Y212475D01*
X363932Y212492D01*
X363950Y212501D01*
X363969Y212505D01*
X364058Y212558D01*
X364150Y212607D01*
X364163Y212621D01*
X364181Y212631D01*
X364248Y212710D01*
X364319Y212785D01*
X364327Y212803D01*
X364340Y212818D01*
X364379Y212914D01*
X364423Y213008D01*
X364425Y213028D01*
X364432Y213046D01*
X364451Y213213D01*
X364451Y214083D01*
X365375Y216314D01*
X367082Y218021D01*
X369312Y218945D01*
X370209Y218945D01*
X370228Y218948D01*
X370248Y218946D01*
X370349Y218968D01*
X370451Y218985D01*
X370469Y218994D01*
X370488Y218998D01*
X370577Y219051D01*
X370669Y219100D01*
X370682Y219114D01*
X370700Y219124D01*
X370767Y219203D01*
X370838Y219278D01*
X370847Y219296D01*
X370859Y219311D01*
X370898Y219408D01*
X370942Y219501D01*
X370944Y219521D01*
X370951Y219539D01*
X370970Y219706D01*
X370970Y220296D01*
X371894Y222526D01*
X373601Y224233D01*
X375831Y225157D01*
X376595Y225157D01*
X376614Y225161D01*
X376634Y225158D01*
X376735Y225180D01*
X376837Y225197D01*
X376855Y225206D01*
X376874Y225211D01*
X376963Y225264D01*
X377055Y225312D01*
X377068Y225327D01*
X377086Y225337D01*
X377153Y225416D01*
X377224Y225491D01*
X377232Y225509D01*
X377245Y225524D01*
X377284Y225620D01*
X377328Y225714D01*
X377330Y225733D01*
X377337Y225752D01*
X377356Y225919D01*
X377356Y226685D01*
X378280Y228915D01*
X379987Y230622D01*
X382217Y231546D01*
X382310Y231546D01*
X382330Y231550D01*
X382349Y231547D01*
X382451Y231569D01*
X382553Y231586D01*
X382570Y231595D01*
X382590Y231600D01*
X382679Y231653D01*
X382770Y231701D01*
X382784Y231716D01*
X382801Y231726D01*
X382868Y231805D01*
X382939Y231880D01*
X382948Y231898D01*
X382961Y231913D01*
X383000Y232009D01*
X383043Y232103D01*
X383045Y232122D01*
X383053Y232141D01*
X383071Y232308D01*
X383071Y233984D01*
X383995Y236214D01*
X385702Y237921D01*
X387933Y238845D01*
X388126Y238845D01*
X388172Y238853D01*
X388218Y238851D01*
X388292Y238873D01*
X388369Y238885D01*
X388410Y238907D01*
X388454Y238919D01*
X388518Y238964D01*
X388587Y239000D01*
X388618Y239033D01*
X388656Y239060D01*
X388702Y239122D01*
X388756Y239179D01*
X388775Y239220D01*
X388803Y239257D01*
X388827Y239331D01*
X388860Y239402D01*
X388865Y239447D01*
X388879Y239491D01*
X388878Y239569D01*
X388887Y239646D01*
X388877Y239691D01*
X388876Y239737D01*
X388838Y239868D01*
X388834Y239886D01*
X388832Y239891D01*
X388830Y239898D01*
X388398Y240940D01*
X388398Y243354D01*
X389322Y245584D01*
X391029Y247291D01*
X393260Y248215D01*
X395674Y248215D01*
X397905Y247291D01*
X399612Y245584D01*
X400536Y243354D01*
X400536Y240940D01*
X399612Y238709D01*
X397905Y237002D01*
X395674Y236078D01*
X395480Y236078D01*
X395435Y236071D01*
X395389Y236072D01*
X395314Y236051D01*
X395238Y236038D01*
X395197Y236017D01*
X395153Y236004D01*
X395089Y235960D01*
X395020Y235923D01*
X394989Y235890D01*
X394951Y235864D01*
X394905Y235801D01*
X394851Y235745D01*
X394832Y235703D01*
X394804Y235666D01*
X394780Y235592D01*
X394747Y235522D01*
X394742Y235476D01*
X394728Y235432D01*
X394729Y235355D01*
X394720Y235277D01*
X394730Y235232D01*
X394730Y235186D01*
X394769Y235055D01*
X394772Y235037D01*
X394775Y235033D01*
X394777Y235025D01*
X395209Y233984D01*
X395209Y231569D01*
X394285Y229339D01*
X392578Y227632D01*
X390347Y226708D01*
X390255Y226708D01*
X390235Y226705D01*
X390215Y226707D01*
X390114Y226685D01*
X390012Y226668D01*
X389994Y226659D01*
X389975Y226655D01*
X389886Y226601D01*
X389794Y226553D01*
X389781Y226539D01*
X389764Y226528D01*
X389696Y226450D01*
X389625Y226375D01*
X389617Y226357D01*
X389604Y226342D01*
X389565Y226245D01*
X389521Y226152D01*
X389519Y226132D01*
X389512Y226113D01*
X389493Y225947D01*
X389493Y224270D01*
X388569Y222040D01*
X386862Y220333D01*
X384632Y219409D01*
X383869Y219409D01*
X383849Y219406D01*
X383829Y219408D01*
X383728Y219386D01*
X383626Y219369D01*
X383608Y219360D01*
X383589Y219356D01*
X383500Y219302D01*
X383408Y219254D01*
X383395Y219240D01*
X383378Y219229D01*
X383310Y219151D01*
X383239Y219076D01*
X383231Y219058D01*
X383218Y219043D01*
X383179Y218946D01*
X383135Y218853D01*
X383133Y218833D01*
X383126Y218814D01*
X383107Y218648D01*
X383107Y217882D01*
X382183Y215651D01*
X380476Y213944D01*
X378246Y213020D01*
X377350Y213020D01*
X377330Y213017D01*
X377310Y213019D01*
X377209Y212997D01*
X377107Y212980D01*
X377089Y212971D01*
X377070Y212967D01*
X376981Y212913D01*
X376889Y212865D01*
X376876Y212851D01*
X376859Y212840D01*
X376791Y212762D01*
X376720Y212687D01*
X376712Y212669D01*
X376699Y212654D01*
X376660Y212557D01*
X376616Y212464D01*
X376614Y212444D01*
X376607Y212425D01*
X376588Y212259D01*
X376588Y211669D01*
X375664Y209439D01*
X373957Y207731D01*
X371727Y206807D01*
X370929Y206807D01*
X370909Y206804D01*
X370889Y206806D01*
X370788Y206784D01*
X370686Y206768D01*
X370668Y206758D01*
X370649Y206754D01*
X370560Y206701D01*
X370468Y206653D01*
X370455Y206638D01*
X370438Y206628D01*
X370370Y206549D01*
X370299Y206474D01*
X370291Y206456D01*
X370278Y206441D01*
X370239Y206345D01*
X370195Y206251D01*
X370193Y206231D01*
X370186Y206213D01*
X370167Y206046D01*
X370167Y205176D01*
X369243Y202946D01*
X367536Y201238D01*
X365306Y200314D01*
X362891Y200314D01*
G37*
%LPD*%
%LPC*%
G36*
X240688Y216149D02*
X240688Y216149D01*
X238457Y217073D01*
X236750Y218780D01*
X235826Y221011D01*
X235826Y223425D01*
X236750Y225655D01*
X238457Y227363D01*
X240650Y228271D01*
X240749Y228332D01*
X240849Y228392D01*
X240853Y228397D01*
X240859Y228400D01*
X240933Y228490D01*
X241009Y228579D01*
X241012Y228585D01*
X241016Y228590D01*
X241057Y228698D01*
X241101Y228807D01*
X241102Y228815D01*
X241104Y228820D01*
X241105Y228838D01*
X241120Y228974D01*
X241120Y230446D01*
X242044Y232677D01*
X243751Y234384D01*
X245441Y235084D01*
X245541Y235146D01*
X245560Y235157D01*
X245585Y235171D01*
X245589Y235175D01*
X245641Y235205D01*
X245645Y235210D01*
X245650Y235214D01*
X245725Y235304D01*
X245801Y235392D01*
X245803Y235398D01*
X245807Y235403D01*
X245849Y235511D01*
X245893Y235621D01*
X245894Y235628D01*
X245895Y235633D01*
X245896Y235651D01*
X245911Y235787D01*
X245911Y238132D01*
X246835Y240362D01*
X248542Y242069D01*
X249993Y242670D01*
X250010Y242681D01*
X250029Y242686D01*
X250114Y242745D01*
X250202Y242800D01*
X250215Y242815D01*
X250231Y242827D01*
X250293Y242910D01*
X250359Y242989D01*
X250366Y243008D01*
X250378Y243024D01*
X250410Y243122D01*
X250447Y243219D01*
X250448Y243239D01*
X250454Y243258D01*
X250453Y243361D01*
X250458Y243465D01*
X250452Y243484D01*
X250452Y243504D01*
X250405Y243665D01*
X250169Y244236D01*
X250169Y246650D01*
X251092Y248881D01*
X251429Y249217D01*
X251440Y249233D01*
X251456Y249246D01*
X251512Y249333D01*
X251572Y249417D01*
X251578Y249436D01*
X251589Y249453D01*
X251614Y249553D01*
X251645Y249652D01*
X251644Y249672D01*
X251649Y249691D01*
X251641Y249794D01*
X251638Y249898D01*
X251632Y249917D01*
X251630Y249937D01*
X251589Y250032D01*
X251554Y250129D01*
X251541Y250145D01*
X251534Y250163D01*
X251429Y250294D01*
X251137Y250586D01*
X250213Y252816D01*
X250213Y255230D01*
X251137Y257461D01*
X252887Y259210D01*
X252898Y259226D01*
X252914Y259239D01*
X252970Y259326D01*
X253030Y259410D01*
X253036Y259429D01*
X253047Y259446D01*
X253072Y259546D01*
X253102Y259645D01*
X253102Y259665D01*
X253107Y259684D01*
X253099Y259787D01*
X253096Y259891D01*
X253089Y259910D01*
X253088Y259930D01*
X253047Y260025D01*
X253012Y260122D01*
X252999Y260138D01*
X252991Y260156D01*
X252887Y260287D01*
X251846Y261327D01*
X250922Y263558D01*
X250922Y265972D01*
X251846Y268202D01*
X253553Y269910D01*
X255784Y270834D01*
X258198Y270834D01*
X260429Y269910D01*
X262136Y268202D01*
X263060Y265972D01*
X263060Y263558D01*
X262136Y261327D01*
X260386Y259578D01*
X260375Y259561D01*
X260359Y259549D01*
X260303Y259462D01*
X260243Y259378D01*
X260237Y259359D01*
X260226Y259342D01*
X260201Y259242D01*
X260171Y259143D01*
X260171Y259123D01*
X260166Y259104D01*
X260174Y259001D01*
X260177Y258897D01*
X260184Y258878D01*
X260185Y258858D01*
X260226Y258763D01*
X260261Y258666D01*
X260274Y258650D01*
X260282Y258632D01*
X260386Y258501D01*
X261427Y257461D01*
X262351Y255230D01*
X262351Y252816D01*
X261427Y250586D01*
X261090Y250249D01*
X261079Y250233D01*
X261063Y250220D01*
X261007Y250133D01*
X260947Y250049D01*
X260941Y250030D01*
X260930Y250014D01*
X260905Y249913D01*
X260874Y249814D01*
X260875Y249794D01*
X260870Y249775D01*
X260878Y249672D01*
X260881Y249568D01*
X260888Y249550D01*
X260889Y249530D01*
X260930Y249435D01*
X260965Y249337D01*
X260978Y249322D01*
X260986Y249304D01*
X261090Y249173D01*
X261382Y248881D01*
X262306Y246650D01*
X262306Y244236D01*
X261382Y242005D01*
X259675Y240298D01*
X258224Y239697D01*
X258207Y239687D01*
X258188Y239681D01*
X258103Y239622D01*
X258015Y239568D01*
X258002Y239552D01*
X257986Y239541D01*
X257924Y239458D01*
X257858Y239378D01*
X257851Y239360D01*
X257839Y239344D01*
X257807Y239245D01*
X257770Y239149D01*
X257769Y239129D01*
X257763Y239110D01*
X257764Y239006D01*
X257760Y238903D01*
X257765Y238884D01*
X257765Y238864D01*
X257812Y238703D01*
X258049Y238132D01*
X258049Y235717D01*
X257125Y233487D01*
X255418Y231780D01*
X253727Y231079D01*
X253627Y231018D01*
X253527Y230958D01*
X253523Y230953D01*
X253518Y230950D01*
X253443Y230859D01*
X253368Y230771D01*
X253365Y230765D01*
X253361Y230760D01*
X253320Y230652D01*
X253276Y230543D01*
X253275Y230535D01*
X253273Y230531D01*
X253272Y230512D01*
X253257Y230376D01*
X253257Y228032D01*
X252333Y225801D01*
X250626Y224094D01*
X248433Y223186D01*
X248334Y223124D01*
X248234Y223064D01*
X248230Y223060D01*
X248224Y223056D01*
X248150Y222966D01*
X248074Y222877D01*
X248071Y222872D01*
X248067Y222867D01*
X248026Y222758D01*
X247982Y222649D01*
X247981Y222642D01*
X247979Y222637D01*
X247978Y222619D01*
X247963Y222483D01*
X247963Y221011D01*
X247039Y218780D01*
X245332Y217073D01*
X243102Y216149D01*
X240688Y216149D01*
G37*
%LPD*%
%LPC*%
G36*
X316017Y284836D02*
X316017Y284836D01*
X313786Y285760D01*
X312079Y287467D01*
X311155Y289697D01*
X311155Y292112D01*
X312079Y294342D01*
X313786Y296049D01*
X316017Y296973D01*
X318431Y296973D01*
X320038Y296308D01*
X320083Y296297D01*
X320124Y296278D01*
X320202Y296269D01*
X320277Y296252D01*
X320323Y296256D01*
X320369Y296251D01*
X320445Y296267D01*
X320522Y296275D01*
X320564Y296293D01*
X320609Y296303D01*
X320676Y296343D01*
X320747Y296375D01*
X320781Y296406D01*
X320820Y296429D01*
X320871Y296488D01*
X320928Y296541D01*
X320950Y296581D01*
X320980Y296616D01*
X321009Y296688D01*
X321047Y296757D01*
X321055Y296802D01*
X321072Y296844D01*
X321087Y296980D01*
X321090Y296999D01*
X321090Y297004D01*
X321090Y297011D01*
X321090Y297564D01*
X322014Y299795D01*
X323721Y301502D01*
X325952Y302426D01*
X328366Y302426D01*
X330597Y301502D01*
X332327Y299772D01*
X332343Y299735D01*
X332379Y299697D01*
X332406Y299652D01*
X332461Y299607D01*
X332510Y299554D01*
X332555Y299529D01*
X332596Y299496D01*
X332662Y299470D01*
X332725Y299435D01*
X332777Y299426D01*
X332825Y299407D01*
X332897Y299404D01*
X332967Y299392D01*
X333019Y299399D01*
X333071Y299397D01*
X333140Y299417D01*
X333211Y299427D01*
X333257Y299451D01*
X333307Y299466D01*
X333366Y299506D01*
X333430Y299539D01*
X333466Y299576D01*
X333509Y299606D01*
X333552Y299663D01*
X333602Y299715D01*
X333637Y299777D01*
X333656Y299803D01*
X333661Y299820D01*
X335376Y301535D01*
X337607Y302458D01*
X340021Y302458D01*
X342251Y301535D01*
X343959Y299827D01*
X344034Y299645D01*
X344058Y299606D01*
X344074Y299563D01*
X344123Y299502D01*
X344164Y299436D01*
X344199Y299407D01*
X344228Y299371D01*
X344293Y299329D01*
X344353Y299279D01*
X344396Y299263D01*
X344435Y299238D01*
X344510Y299219D01*
X344583Y299191D01*
X344629Y299189D01*
X344673Y299178D01*
X344751Y299184D01*
X344828Y299181D01*
X344873Y299194D01*
X344918Y299197D01*
X344990Y299228D01*
X345065Y299249D01*
X345102Y299275D01*
X345145Y299293D01*
X345251Y299379D01*
X345267Y299389D01*
X345270Y299394D01*
X345276Y299398D01*
X346971Y301094D01*
X349202Y302018D01*
X351616Y302018D01*
X353847Y301094D01*
X355554Y299387D01*
X356491Y297125D01*
X356491Y297109D01*
X356509Y297060D01*
X356518Y297009D01*
X356551Y296946D01*
X356576Y296878D01*
X356608Y296838D01*
X356633Y296792D01*
X356685Y296742D01*
X356730Y296686D01*
X356773Y296658D01*
X356811Y296622D01*
X356876Y296592D01*
X356936Y296553D01*
X356987Y296541D01*
X357034Y296519D01*
X357105Y296511D01*
X357175Y296493D01*
X357227Y296497D01*
X357279Y296492D01*
X357349Y296507D01*
X357420Y296512D01*
X357468Y296533D01*
X357519Y296544D01*
X357581Y296581D01*
X357647Y296609D01*
X357702Y296654D01*
X357730Y296670D01*
X357745Y296688D01*
X357777Y296714D01*
X358616Y297552D01*
X360847Y298476D01*
X363261Y298476D01*
X365492Y297552D01*
X367199Y295845D01*
X368123Y293615D01*
X368123Y291200D01*
X367199Y288970D01*
X365492Y287263D01*
X363261Y286339D01*
X360847Y286339D01*
X358616Y287263D01*
X356909Y288970D01*
X355972Y291232D01*
X355972Y291248D01*
X355954Y291297D01*
X355946Y291348D01*
X355912Y291411D01*
X355887Y291479D01*
X355855Y291519D01*
X355830Y291565D01*
X355778Y291615D01*
X355734Y291671D01*
X355690Y291699D01*
X355652Y291735D01*
X355587Y291765D01*
X355527Y291804D01*
X355476Y291816D01*
X355429Y291838D01*
X355358Y291846D01*
X355288Y291864D01*
X355236Y291860D01*
X355185Y291865D01*
X355114Y291850D01*
X355043Y291845D01*
X354995Y291824D01*
X354944Y291813D01*
X354883Y291776D01*
X354817Y291748D01*
X354761Y291703D01*
X354733Y291687D01*
X354718Y291669D01*
X354686Y291643D01*
X353847Y290805D01*
X351616Y289881D01*
X349202Y289881D01*
X346971Y290805D01*
X345264Y292512D01*
X345189Y292694D01*
X345165Y292733D01*
X345149Y292776D01*
X345100Y292837D01*
X345059Y292903D01*
X345024Y292932D01*
X344995Y292968D01*
X344930Y293010D01*
X344870Y293060D01*
X344827Y293076D01*
X344788Y293101D01*
X344713Y293120D01*
X344640Y293148D01*
X344594Y293150D01*
X344550Y293161D01*
X344472Y293155D01*
X344394Y293158D01*
X344350Y293146D01*
X344305Y293142D01*
X344233Y293112D01*
X344158Y293090D01*
X344120Y293064D01*
X344078Y293046D01*
X343972Y292960D01*
X343956Y292950D01*
X343953Y292946D01*
X343947Y292941D01*
X342251Y291245D01*
X340021Y290321D01*
X337607Y290321D01*
X335376Y291245D01*
X333646Y292975D01*
X333629Y293012D01*
X333594Y293050D01*
X333567Y293095D01*
X333512Y293140D01*
X333463Y293193D01*
X333417Y293218D01*
X333377Y293251D01*
X333310Y293277D01*
X333248Y293312D01*
X333196Y293321D01*
X333148Y293340D01*
X333076Y293343D01*
X333005Y293355D01*
X332954Y293348D01*
X332902Y293350D01*
X332833Y293330D01*
X332762Y293320D01*
X332716Y293296D01*
X332666Y293282D01*
X332607Y293241D01*
X332543Y293208D01*
X332506Y293171D01*
X332464Y293141D01*
X332421Y293084D01*
X332371Y293032D01*
X332336Y292970D01*
X332317Y292944D01*
X332311Y292927D01*
X330597Y291213D01*
X328366Y290289D01*
X325952Y290289D01*
X324345Y290954D01*
X324301Y290965D01*
X324259Y290984D01*
X324182Y290993D01*
X324106Y291010D01*
X324060Y291006D01*
X324015Y291011D01*
X323938Y290995D01*
X323861Y290987D01*
X323819Y290969D01*
X323774Y290959D01*
X323707Y290919D01*
X323636Y290887D01*
X323602Y290856D01*
X323563Y290833D01*
X323513Y290774D01*
X323455Y290721D01*
X323433Y290681D01*
X323403Y290646D01*
X323374Y290573D01*
X323337Y290505D01*
X323328Y290460D01*
X323311Y290418D01*
X323296Y290282D01*
X323293Y290263D01*
X323294Y290258D01*
X323293Y290251D01*
X323293Y289697D01*
X322369Y287467D01*
X320662Y285760D01*
X318431Y284836D01*
X316017Y284836D01*
G37*
%LPD*%
%LPC*%
G36*
X312302Y54187D02*
X312302Y54187D01*
X312302Y58808D01*
X313050Y58660D01*
X313438Y58499D01*
X313508Y58482D01*
X313575Y58457D01*
X313627Y58454D01*
X313678Y58443D01*
X313749Y58449D01*
X313821Y58446D01*
X313871Y58461D01*
X313923Y58466D01*
X313988Y58495D01*
X314057Y58515D01*
X314100Y58544D01*
X314147Y58566D01*
X314200Y58614D01*
X314259Y58655D01*
X314290Y58697D01*
X314328Y58732D01*
X314363Y58795D01*
X314406Y58852D01*
X314422Y58902D01*
X314447Y58948D01*
X314460Y59018D01*
X314482Y59086D01*
X314481Y59138D01*
X314491Y59190D01*
X314480Y59261D01*
X314480Y59332D01*
X314460Y59401D01*
X314455Y59433D01*
X314444Y59454D01*
X314433Y59493D01*
X313640Y61407D01*
X313640Y63821D01*
X314564Y66052D01*
X316271Y67759D01*
X318502Y68683D01*
X319645Y68683D01*
X319664Y68686D01*
X319684Y68684D01*
X319785Y68706D01*
X319887Y68723D01*
X319905Y68732D01*
X319924Y68736D01*
X320013Y68790D01*
X320105Y68838D01*
X320118Y68852D01*
X320136Y68863D01*
X320203Y68941D01*
X320274Y69016D01*
X320282Y69034D01*
X320295Y69049D01*
X320334Y69146D01*
X320378Y69239D01*
X320380Y69259D01*
X320387Y69278D01*
X320406Y69444D01*
X320406Y70556D01*
X321330Y72787D01*
X323037Y74494D01*
X325267Y75418D01*
X326379Y75418D01*
X326399Y75421D01*
X326419Y75419D01*
X326520Y75441D01*
X326622Y75458D01*
X326640Y75467D01*
X326659Y75471D01*
X326748Y75524D01*
X326839Y75573D01*
X326853Y75587D01*
X326870Y75597D01*
X326938Y75676D01*
X327009Y75751D01*
X327017Y75769D01*
X327030Y75784D01*
X327069Y75880D01*
X327112Y75974D01*
X327115Y75994D01*
X327122Y76012D01*
X327141Y76179D01*
X327141Y76743D01*
X328065Y78974D01*
X329772Y80681D01*
X332002Y81605D01*
X332441Y81605D01*
X332460Y81608D01*
X332480Y81606D01*
X332581Y81628D01*
X332683Y81645D01*
X332701Y81654D01*
X332721Y81658D01*
X332810Y81711D01*
X332901Y81760D01*
X332915Y81774D01*
X332932Y81784D01*
X332999Y81863D01*
X333070Y81938D01*
X333079Y81956D01*
X333092Y81971D01*
X333130Y82068D01*
X333174Y82161D01*
X333176Y82181D01*
X333184Y82200D01*
X333202Y82366D01*
X333202Y82892D01*
X334126Y85123D01*
X335833Y86830D01*
X338064Y87754D01*
X338307Y87754D01*
X338327Y87757D01*
X338347Y87755D01*
X338448Y87777D01*
X338550Y87793D01*
X338568Y87803D01*
X338587Y87807D01*
X338676Y87860D01*
X338767Y87909D01*
X338781Y87923D01*
X338798Y87933D01*
X338865Y88012D01*
X338937Y88087D01*
X338945Y88105D01*
X338958Y88120D01*
X338997Y88216D01*
X339040Y88310D01*
X339043Y88330D01*
X339050Y88348D01*
X339068Y88515D01*
X339068Y89351D01*
X339992Y91582D01*
X341699Y93289D01*
X343930Y94213D01*
X346344Y94213D01*
X348575Y93289D01*
X350282Y91582D01*
X351206Y89351D01*
X351206Y86937D01*
X350282Y84706D01*
X348575Y82999D01*
X346344Y82075D01*
X346101Y82075D01*
X346081Y82072D01*
X346061Y82074D01*
X345960Y82052D01*
X345858Y82035D01*
X345840Y82026D01*
X345821Y82022D01*
X345732Y81969D01*
X345641Y81920D01*
X345627Y81906D01*
X345610Y81896D01*
X345542Y81817D01*
X345471Y81742D01*
X345463Y81724D01*
X345450Y81709D01*
X345411Y81613D01*
X345368Y81519D01*
X345365Y81499D01*
X345358Y81481D01*
X345339Y81314D01*
X345339Y80478D01*
X344416Y78247D01*
X342708Y76540D01*
X340478Y75616D01*
X340039Y75616D01*
X340020Y75613D01*
X340000Y75615D01*
X339899Y75593D01*
X339797Y75577D01*
X339779Y75567D01*
X339759Y75563D01*
X339670Y75510D01*
X339579Y75461D01*
X339565Y75447D01*
X339548Y75437D01*
X339481Y75358D01*
X339410Y75283D01*
X339401Y75265D01*
X339388Y75250D01*
X339350Y75154D01*
X339306Y75060D01*
X339304Y75040D01*
X339297Y75022D01*
X339278Y74855D01*
X339278Y74329D01*
X338354Y72099D01*
X336647Y70391D01*
X334416Y69468D01*
X333305Y69468D01*
X333285Y69464D01*
X333265Y69466D01*
X333164Y69444D01*
X333062Y69428D01*
X333044Y69418D01*
X333025Y69414D01*
X332936Y69361D01*
X332844Y69313D01*
X332831Y69298D01*
X332814Y69288D01*
X332746Y69209D01*
X332675Y69134D01*
X332667Y69116D01*
X332654Y69101D01*
X332615Y69005D01*
X332571Y68911D01*
X332569Y68892D01*
X332562Y68873D01*
X332543Y68706D01*
X332543Y68142D01*
X331619Y65911D01*
X329912Y64204D01*
X327682Y63280D01*
X326539Y63280D01*
X326519Y63277D01*
X326499Y63279D01*
X326398Y63257D01*
X326296Y63241D01*
X326279Y63231D01*
X326259Y63227D01*
X326170Y63174D01*
X326079Y63126D01*
X326065Y63111D01*
X326048Y63101D01*
X325981Y63022D01*
X325909Y62947D01*
X325901Y62929D01*
X325888Y62914D01*
X325849Y62818D01*
X325806Y62724D01*
X325804Y62704D01*
X325796Y62686D01*
X325778Y62519D01*
X325778Y61407D01*
X324854Y59177D01*
X323147Y57470D01*
X320916Y56546D01*
X318502Y56546D01*
X317299Y57044D01*
X317277Y57049D01*
X317256Y57060D01*
X317158Y57077D01*
X317060Y57100D01*
X317037Y57098D01*
X317014Y57102D01*
X316915Y57086D01*
X316815Y57077D01*
X316794Y57067D01*
X316771Y57064D01*
X316682Y57017D01*
X316590Y56977D01*
X316573Y56961D01*
X316553Y56950D01*
X316483Y56878D01*
X316409Y56810D01*
X316398Y56790D01*
X316382Y56773D01*
X316339Y56683D01*
X316291Y56595D01*
X316287Y56572D01*
X316277Y56551D01*
X316265Y56452D01*
X316247Y56353D01*
X316250Y56330D01*
X316248Y56307D01*
X316268Y56209D01*
X316283Y56109D01*
X316293Y56089D01*
X316298Y56066D01*
X316338Y55988D01*
X316775Y54935D01*
X316924Y54187D01*
X312302Y54187D01*
G37*
%LPD*%
%LPC*%
G36*
X442830Y172795D02*
X442830Y172795D01*
X440600Y173719D01*
X438893Y175426D01*
X437969Y177656D01*
X437969Y180071D01*
X438893Y182301D01*
X439764Y183172D01*
X439775Y183189D01*
X439791Y183201D01*
X439847Y183288D01*
X439907Y183372D01*
X439913Y183391D01*
X439924Y183408D01*
X439949Y183508D01*
X439980Y183607D01*
X439979Y183627D01*
X439984Y183647D01*
X439976Y183749D01*
X439973Y183853D01*
X439966Y183872D01*
X439965Y183892D01*
X439924Y183987D01*
X439889Y184084D01*
X439876Y184100D01*
X439869Y184118D01*
X439764Y184249D01*
X438505Y185508D01*
X437581Y187738D01*
X437581Y190152D01*
X438505Y192383D01*
X440212Y194090D01*
X442443Y195014D01*
X442461Y195014D01*
X442481Y195017D01*
X442501Y195015D01*
X442602Y195037D01*
X442704Y195054D01*
X442722Y195063D01*
X442741Y195067D01*
X442830Y195121D01*
X442921Y195169D01*
X442935Y195183D01*
X442952Y195194D01*
X443020Y195272D01*
X443091Y195347D01*
X443099Y195365D01*
X443112Y195380D01*
X443151Y195477D01*
X443194Y195570D01*
X443197Y195590D01*
X443204Y195609D01*
X443223Y195775D01*
X443223Y196713D01*
X443219Y196733D01*
X443221Y196753D01*
X443199Y196854D01*
X443183Y196956D01*
X443173Y196974D01*
X443169Y196993D01*
X443116Y197082D01*
X443068Y197173D01*
X443053Y197187D01*
X443043Y197204D01*
X442964Y197272D01*
X442889Y197343D01*
X442871Y197351D01*
X442856Y197364D01*
X442760Y197403D01*
X442666Y197446D01*
X442647Y197449D01*
X442628Y197456D01*
X442461Y197475D01*
X442056Y197475D01*
X439825Y198398D01*
X438118Y200106D01*
X437194Y202336D01*
X437194Y204750D01*
X438118Y206981D01*
X439825Y208688D01*
X442056Y209612D01*
X444470Y209612D01*
X446701Y208688D01*
X448408Y206981D01*
X449332Y204750D01*
X449332Y203503D01*
X449335Y203483D01*
X449333Y203463D01*
X449355Y203362D01*
X449372Y203260D01*
X449381Y203242D01*
X449385Y203223D01*
X449438Y203134D01*
X449487Y203042D01*
X449501Y203029D01*
X449511Y203012D01*
X449590Y202944D01*
X449665Y202873D01*
X449683Y202865D01*
X449698Y202852D01*
X449794Y202813D01*
X449888Y202769D01*
X449908Y202767D01*
X449926Y202760D01*
X450093Y202741D01*
X450498Y202741D01*
X452729Y201817D01*
X454436Y200110D01*
X455360Y197880D01*
X455360Y195465D01*
X454436Y193235D01*
X452729Y191528D01*
X450498Y190604D01*
X450480Y190604D01*
X450460Y190601D01*
X450440Y190603D01*
X450339Y190581D01*
X450237Y190564D01*
X450220Y190555D01*
X450200Y190551D01*
X450111Y190497D01*
X450020Y190449D01*
X450006Y190435D01*
X449989Y190424D01*
X449922Y190346D01*
X449850Y190271D01*
X449842Y190253D01*
X449829Y190237D01*
X449790Y190141D01*
X449747Y190048D01*
X449745Y190028D01*
X449737Y190009D01*
X449719Y189843D01*
X449719Y187738D01*
X448795Y185508D01*
X447923Y184636D01*
X447912Y184620D01*
X447896Y184608D01*
X447840Y184521D01*
X447780Y184437D01*
X447774Y184418D01*
X447763Y184401D01*
X447738Y184300D01*
X447708Y184202D01*
X447708Y184182D01*
X447703Y184162D01*
X447711Y184059D01*
X447714Y183956D01*
X447721Y183937D01*
X447722Y183917D01*
X447763Y183822D01*
X447798Y183725D01*
X447811Y183709D01*
X447819Y183691D01*
X447923Y183560D01*
X449182Y182301D01*
X450106Y180071D01*
X450106Y177656D01*
X449182Y175426D01*
X447475Y173719D01*
X445244Y172795D01*
X442830Y172795D01*
G37*
%LPD*%
%LPC*%
G36*
X488211Y346232D02*
X488211Y346232D01*
X484290Y347856D01*
X481288Y350857D01*
X479664Y354779D01*
X479664Y359023D01*
X481288Y362944D01*
X484290Y365945D01*
X488211Y367569D01*
X492455Y367569D01*
X496376Y365945D01*
X499377Y362944D01*
X501002Y359023D01*
X501002Y354779D01*
X499377Y350857D01*
X496376Y347856D01*
X492455Y346232D01*
X488211Y346232D01*
G37*
%LPD*%
%LPC*%
G36*
X526108Y29226D02*
X526108Y29226D01*
X522231Y30832D01*
X519264Y33800D01*
X517658Y37677D01*
X517658Y41873D01*
X519264Y45750D01*
X522231Y48718D01*
X526108Y50324D01*
X530305Y50324D01*
X534182Y48718D01*
X537149Y45750D01*
X538755Y41873D01*
X538755Y37677D01*
X537149Y33800D01*
X534182Y30832D01*
X530305Y29226D01*
X526108Y29226D01*
G37*
%LPD*%
%LPC*%
G36*
X500708Y29226D02*
X500708Y29226D01*
X496831Y30832D01*
X493864Y33800D01*
X492258Y37677D01*
X492258Y41873D01*
X493864Y45750D01*
X496831Y48718D01*
X500708Y50324D01*
X504905Y50324D01*
X508782Y48718D01*
X511749Y45750D01*
X513355Y41873D01*
X513355Y37677D01*
X511749Y33800D01*
X508782Y30832D01*
X504905Y29226D01*
X500708Y29226D01*
G37*
%LPD*%
%LPC*%
G36*
X475308Y29226D02*
X475308Y29226D01*
X471431Y30832D01*
X468464Y33800D01*
X466858Y37677D01*
X466858Y41873D01*
X468464Y45750D01*
X471431Y48718D01*
X475308Y50324D01*
X479505Y50324D01*
X483382Y48718D01*
X486349Y45750D01*
X487955Y41873D01*
X487955Y37677D01*
X486349Y33800D01*
X483382Y30832D01*
X479505Y29226D01*
X475308Y29226D01*
G37*
%LPD*%
%LPC*%
G36*
X449908Y29226D02*
X449908Y29226D01*
X446031Y30832D01*
X443064Y33800D01*
X441458Y37677D01*
X441458Y41873D01*
X443064Y45750D01*
X446031Y48718D01*
X449908Y50324D01*
X454105Y50324D01*
X457982Y48718D01*
X460949Y45750D01*
X462555Y41873D01*
X462555Y37677D01*
X460949Y33800D01*
X457982Y30832D01*
X454105Y29226D01*
X449908Y29226D01*
G37*
%LPD*%
%LPC*%
G36*
X424508Y29226D02*
X424508Y29226D01*
X420631Y30832D01*
X417664Y33800D01*
X416058Y37677D01*
X416058Y41873D01*
X417664Y45750D01*
X420631Y48718D01*
X424508Y50324D01*
X428705Y50324D01*
X432582Y48718D01*
X435549Y45750D01*
X437155Y41873D01*
X437155Y37677D01*
X435549Y33800D01*
X432582Y30832D01*
X428705Y29226D01*
X424508Y29226D01*
G37*
%LPD*%
%LPC*%
G36*
X700776Y29635D02*
X700776Y29635D01*
X697271Y31087D01*
X694589Y33769D01*
X693137Y37274D01*
X693137Y41067D01*
X694589Y44572D01*
X697271Y47254D01*
X700776Y48706D01*
X704569Y48706D01*
X708074Y47254D01*
X710756Y44572D01*
X712208Y41067D01*
X712208Y37274D01*
X710756Y33769D01*
X708074Y31087D01*
X704569Y29635D01*
X700776Y29635D01*
G37*
%LPD*%
%LPC*%
G36*
X700776Y129635D02*
X700776Y129635D01*
X697271Y131087D01*
X694589Y133769D01*
X693137Y137274D01*
X693137Y141067D01*
X694589Y144572D01*
X697271Y147254D01*
X700776Y148706D01*
X704569Y148706D01*
X708074Y147254D01*
X710756Y144572D01*
X712208Y141067D01*
X712208Y137274D01*
X710756Y133769D01*
X708074Y131087D01*
X704569Y129635D01*
X700776Y129635D01*
G37*
%LPD*%
%LPC*%
G36*
X193049Y130424D02*
X193049Y130424D01*
X189795Y133678D01*
X189795Y137254D01*
X189791Y137259D01*
X189790Y137259D01*
X185965Y137259D01*
X182711Y140514D01*
X182711Y143006D01*
X182707Y143011D01*
X182706Y143011D01*
X179323Y143011D01*
X176068Y146265D01*
X176068Y150867D01*
X179323Y154121D01*
X183925Y154121D01*
X187179Y150867D01*
X187179Y148375D01*
X187183Y148370D01*
X187184Y148370D01*
X190567Y148370D01*
X193822Y145116D01*
X193822Y141539D01*
X193826Y141534D01*
X193826Y141535D01*
X193827Y141534D01*
X197651Y141534D01*
X200905Y138280D01*
X200905Y133678D01*
X197651Y130424D01*
X193049Y130424D01*
G37*
%LPD*%
%LPC*%
G36*
X501156Y162973D02*
X501156Y162973D01*
X498926Y163897D01*
X497219Y165604D01*
X496295Y167835D01*
X496295Y170249D01*
X497219Y172479D01*
X498926Y174186D01*
X501156Y175110D01*
X503571Y175110D01*
X505801Y174186D01*
X505946Y174042D01*
X506025Y173985D01*
X506100Y173923D01*
X506125Y173913D01*
X506146Y173898D01*
X506239Y173869D01*
X506330Y173834D01*
X506356Y173833D01*
X506381Y173826D01*
X506478Y173828D01*
X506576Y173824D01*
X506601Y173831D01*
X506627Y173832D01*
X506718Y173865D01*
X506812Y173893D01*
X506833Y173907D01*
X506858Y173916D01*
X506934Y173977D01*
X507014Y174033D01*
X507029Y174054D01*
X507050Y174070D01*
X507103Y174152D01*
X507161Y174230D01*
X507169Y174255D01*
X507183Y174277D01*
X507207Y174372D01*
X507237Y174464D01*
X507236Y174490D01*
X507243Y174516D01*
X507235Y174612D01*
X507234Y174710D01*
X507225Y174742D01*
X507224Y174761D01*
X507211Y174791D01*
X507188Y174871D01*
X507054Y175194D01*
X507054Y177608D01*
X507978Y179839D01*
X509685Y181546D01*
X511915Y182470D01*
X514330Y182470D01*
X516560Y181546D01*
X518267Y179839D01*
X519191Y177608D01*
X519191Y175194D01*
X518267Y172963D01*
X516560Y171256D01*
X514330Y170332D01*
X511915Y170332D01*
X509685Y171256D01*
X509540Y171401D01*
X509461Y171458D01*
X509386Y171520D01*
X509361Y171530D01*
X509340Y171545D01*
X509247Y171573D01*
X509156Y171608D01*
X509130Y171609D01*
X509105Y171617D01*
X509008Y171615D01*
X508910Y171619D01*
X508885Y171611D01*
X508859Y171611D01*
X508768Y171577D01*
X508674Y171550D01*
X508653Y171535D01*
X508628Y171526D01*
X508552Y171465D01*
X508472Y171410D01*
X508457Y171389D01*
X508436Y171373D01*
X508383Y171291D01*
X508325Y171213D01*
X508317Y171188D01*
X508303Y171166D01*
X508279Y171071D01*
X508249Y170979D01*
X508249Y170953D01*
X508243Y170927D01*
X508251Y170830D01*
X508252Y170733D01*
X508261Y170701D01*
X508262Y170682D01*
X508275Y170652D01*
X508298Y170572D01*
X508432Y170249D01*
X508432Y167835D01*
X507508Y165604D01*
X505801Y163897D01*
X503571Y162973D01*
X501156Y162973D01*
G37*
%LPD*%
%LPC*%
G36*
X362108Y242332D02*
X362108Y242332D01*
X359878Y243256D01*
X358170Y244963D01*
X357247Y247194D01*
X357247Y249608D01*
X358170Y251838D01*
X359878Y253545D01*
X362108Y254469D01*
X364522Y254469D01*
X366753Y253545D01*
X368460Y251838D01*
X368720Y251211D01*
X368758Y251150D01*
X368787Y251084D01*
X368822Y251046D01*
X368850Y251002D01*
X368905Y250956D01*
X368953Y250903D01*
X368999Y250878D01*
X369039Y250845D01*
X369106Y250819D01*
X369169Y250785D01*
X369220Y250775D01*
X369269Y250757D01*
X369340Y250754D01*
X369411Y250741D01*
X369462Y250749D01*
X369514Y250746D01*
X369583Y250766D01*
X369654Y250777D01*
X369701Y250800D01*
X369751Y250815D01*
X369809Y250856D01*
X369873Y250888D01*
X369910Y250925D01*
X369953Y250955D01*
X369995Y251013D01*
X370046Y251064D01*
X370080Y251127D01*
X370099Y251153D01*
X370107Y251175D01*
X370127Y251211D01*
X370563Y252263D01*
X372270Y253970D01*
X374500Y254894D01*
X376914Y254894D01*
X379145Y253970D01*
X380852Y252263D01*
X381776Y250033D01*
X381776Y247618D01*
X380852Y245388D01*
X379145Y243681D01*
X376914Y242757D01*
X374500Y242757D01*
X372270Y243681D01*
X370563Y245388D01*
X370303Y246015D01*
X370265Y246076D01*
X370236Y246142D01*
X370201Y246180D01*
X370173Y246224D01*
X370118Y246270D01*
X370069Y246323D01*
X370024Y246348D01*
X369984Y246381D01*
X369917Y246407D01*
X369854Y246442D01*
X369802Y246451D01*
X369754Y246469D01*
X369682Y246473D01*
X369612Y246485D01*
X369560Y246478D01*
X369508Y246480D01*
X369439Y246460D01*
X369368Y246449D01*
X369322Y246426D01*
X369272Y246411D01*
X369213Y246371D01*
X369149Y246338D01*
X369113Y246301D01*
X369070Y246271D01*
X369027Y246214D01*
X368977Y246162D01*
X368942Y246100D01*
X368923Y246074D01*
X368916Y246051D01*
X368896Y246015D01*
X368460Y244963D01*
X366753Y243256D01*
X364522Y242332D01*
X362108Y242332D01*
G37*
%LPD*%
%LPC*%
G36*
X588907Y316569D02*
X588907Y316569D01*
X586677Y317493D01*
X584969Y319200D01*
X584513Y320302D01*
X584475Y320363D01*
X584446Y320429D01*
X584411Y320467D01*
X584383Y320511D01*
X584328Y320557D01*
X584279Y320610D01*
X584234Y320635D01*
X584194Y320668D01*
X584127Y320694D01*
X584064Y320728D01*
X584013Y320738D01*
X583964Y320756D01*
X583893Y320759D01*
X583822Y320772D01*
X583770Y320764D01*
X583718Y320767D01*
X583649Y320747D01*
X583579Y320736D01*
X583532Y320713D01*
X583482Y320698D01*
X583423Y320657D01*
X583359Y320625D01*
X583323Y320588D01*
X583280Y320558D01*
X583237Y320500D01*
X583187Y320449D01*
X583152Y320386D01*
X583133Y320361D01*
X583126Y320338D01*
X583106Y320302D01*
X583071Y320217D01*
X581364Y318510D01*
X579133Y317586D01*
X576719Y317586D01*
X574488Y318510D01*
X572781Y320217D01*
X571857Y322447D01*
X571857Y324862D01*
X572781Y327092D01*
X574488Y328799D01*
X576719Y329723D01*
X579133Y329723D01*
X581364Y328799D01*
X583071Y327092D01*
X583527Y325990D01*
X583565Y325929D01*
X583594Y325863D01*
X583630Y325825D01*
X583657Y325781D01*
X583712Y325735D01*
X583761Y325682D01*
X583806Y325657D01*
X583847Y325624D01*
X583913Y325598D01*
X583976Y325564D01*
X584028Y325554D01*
X584076Y325536D01*
X584148Y325533D01*
X584218Y325520D01*
X584270Y325527D01*
X584322Y325525D01*
X584391Y325545D01*
X584462Y325556D01*
X584508Y325579D01*
X584558Y325594D01*
X584617Y325635D01*
X584681Y325667D01*
X584717Y325704D01*
X584760Y325734D01*
X584803Y325792D01*
X584853Y325843D01*
X584888Y325906D01*
X584907Y325931D01*
X584914Y325954D01*
X584934Y325990D01*
X584969Y326075D01*
X586677Y327782D01*
X588907Y328706D01*
X591321Y328706D01*
X593552Y327782D01*
X595259Y326075D01*
X596183Y323845D01*
X596183Y321430D01*
X595259Y319200D01*
X593552Y317493D01*
X591321Y316569D01*
X588907Y316569D01*
G37*
%LPD*%
%LPC*%
G36*
X309075Y153502D02*
X309075Y153502D01*
X306844Y154426D01*
X305137Y156133D01*
X304481Y157718D01*
X304456Y157757D01*
X304441Y157800D01*
X304392Y157861D01*
X304351Y157927D01*
X304316Y157956D01*
X304287Y157992D01*
X304221Y158034D01*
X304162Y158084D01*
X304119Y158100D01*
X304080Y158125D01*
X304004Y158144D01*
X303932Y158172D01*
X303886Y158174D01*
X303842Y158185D01*
X303764Y158179D01*
X303686Y158182D01*
X303642Y158169D01*
X303596Y158166D01*
X303525Y158135D01*
X303450Y158114D01*
X303412Y158088D01*
X303370Y158070D01*
X303263Y157984D01*
X303248Y157973D01*
X303245Y157969D01*
X303239Y157965D01*
X302004Y156730D01*
X299774Y155806D01*
X297359Y155806D01*
X295129Y156730D01*
X293422Y158437D01*
X292498Y160667D01*
X292498Y163082D01*
X293422Y165312D01*
X295129Y167019D01*
X297359Y167943D01*
X299774Y167943D01*
X302004Y167019D01*
X303711Y165312D01*
X304368Y163728D01*
X304392Y163689D01*
X304408Y163646D01*
X304456Y163585D01*
X304497Y163519D01*
X304533Y163489D01*
X304561Y163454D01*
X304627Y163411D01*
X304687Y163362D01*
X304730Y163345D01*
X304768Y163321D01*
X304844Y163301D01*
X304916Y163274D01*
X304962Y163272D01*
X305007Y163260D01*
X305084Y163266D01*
X305162Y163263D01*
X305206Y163276D01*
X305252Y163280D01*
X305323Y163310D01*
X305398Y163332D01*
X305436Y163358D01*
X305478Y163376D01*
X305585Y163461D01*
X305600Y163472D01*
X305603Y163476D01*
X305609Y163481D01*
X306844Y164716D01*
X309075Y165640D01*
X311489Y165640D01*
X313719Y164716D01*
X315427Y163009D01*
X316351Y160778D01*
X316351Y158364D01*
X315427Y156133D01*
X313719Y154426D01*
X311489Y153502D01*
X309075Y153502D01*
G37*
%LPD*%
%LPC*%
G36*
X439050Y214889D02*
X439050Y214889D01*
X436820Y215813D01*
X435113Y217520D01*
X434189Y219751D01*
X434189Y222165D01*
X435113Y224396D01*
X436820Y226103D01*
X437473Y226373D01*
X437490Y226384D01*
X437509Y226389D01*
X437594Y226448D01*
X437682Y226503D01*
X437695Y226518D01*
X437711Y226530D01*
X437773Y226612D01*
X437839Y226692D01*
X437846Y226711D01*
X437858Y226727D01*
X437890Y226825D01*
X437927Y226922D01*
X437928Y226942D01*
X437934Y226961D01*
X437933Y227064D01*
X437937Y227168D01*
X437932Y227187D01*
X437932Y227207D01*
X437885Y227368D01*
X436926Y229683D01*
X436926Y232098D01*
X437850Y234328D01*
X439557Y236035D01*
X441787Y236959D01*
X444202Y236959D01*
X446432Y236035D01*
X448139Y234328D01*
X449063Y232098D01*
X449063Y229683D01*
X448139Y227453D01*
X446432Y225746D01*
X445779Y225475D01*
X445762Y225465D01*
X445743Y225459D01*
X445658Y225400D01*
X445570Y225346D01*
X445557Y225330D01*
X445541Y225319D01*
X445479Y225236D01*
X445413Y225156D01*
X445406Y225138D01*
X445394Y225122D01*
X445362Y225023D01*
X445325Y224927D01*
X445324Y224907D01*
X445318Y224888D01*
X445319Y224784D01*
X445315Y224681D01*
X445320Y224662D01*
X445321Y224642D01*
X445367Y224481D01*
X446326Y222165D01*
X446326Y219751D01*
X445402Y217520D01*
X443695Y215813D01*
X441465Y214889D01*
X439050Y214889D01*
G37*
%LPD*%
%LPC*%
G36*
X404568Y158714D02*
X404568Y158714D01*
X402338Y159638D01*
X400631Y161345D01*
X399707Y163575D01*
X399707Y165329D01*
X399688Y165443D01*
X399671Y165559D01*
X399668Y165565D01*
X399667Y165571D01*
X399613Y165674D01*
X399559Y165779D01*
X399555Y165783D01*
X399552Y165789D01*
X399468Y165869D01*
X399384Y165951D01*
X399377Y165955D01*
X399374Y165958D01*
X399357Y165966D01*
X399237Y166032D01*
X397147Y166897D01*
X395440Y168605D01*
X394516Y170835D01*
X394516Y173249D01*
X395440Y175480D01*
X397147Y177187D01*
X399378Y178111D01*
X401792Y178111D01*
X404023Y177187D01*
X405730Y175480D01*
X406654Y173249D01*
X406654Y171496D01*
X406672Y171381D01*
X406689Y171265D01*
X406692Y171259D01*
X406693Y171253D01*
X406748Y171151D01*
X406801Y171046D01*
X406805Y171041D01*
X406808Y171036D01*
X406892Y170956D01*
X406977Y170874D01*
X406983Y170870D01*
X406987Y170867D01*
X407004Y170859D01*
X407123Y170793D01*
X409213Y169927D01*
X410920Y168220D01*
X411844Y165989D01*
X411844Y163575D01*
X410920Y161345D01*
X409213Y159638D01*
X406983Y158714D01*
X404568Y158714D01*
G37*
%LPD*%
%LPC*%
G36*
X153346Y211157D02*
X153346Y211157D01*
X150091Y214411D01*
X150091Y219013D01*
X151904Y220825D01*
X151904Y220832D01*
X149121Y223615D01*
X149121Y228217D01*
X152376Y231471D01*
X156978Y231471D01*
X160232Y228217D01*
X160232Y223615D01*
X158420Y221802D01*
X158419Y221796D01*
X158420Y221796D01*
X158420Y221795D01*
X161202Y219013D01*
X161202Y214411D01*
X157948Y211157D01*
X153346Y211157D01*
G37*
%LPD*%
%LPC*%
G36*
X43907Y5764D02*
X43907Y5764D01*
X40653Y9018D01*
X40653Y13620D01*
X43907Y16874D01*
X46109Y16874D01*
X46114Y16878D01*
X46114Y16879D01*
X46114Y21026D01*
X49368Y24280D01*
X53970Y24280D01*
X57224Y21026D01*
X57224Y16424D01*
X53970Y13169D01*
X51768Y13169D01*
X51763Y13165D01*
X51764Y13165D01*
X51763Y13164D01*
X51763Y9018D01*
X48509Y5764D01*
X43907Y5764D01*
G37*
%LPD*%
%LPC*%
G36*
X164373Y281678D02*
X164373Y281678D01*
X161119Y284932D01*
X161119Y289534D01*
X164373Y292788D01*
X167412Y292788D01*
X167417Y292792D01*
X167417Y292793D01*
X167417Y296285D01*
X170672Y299539D01*
X175274Y299539D01*
X178528Y296285D01*
X178528Y291683D01*
X175274Y288429D01*
X172234Y288429D01*
X172229Y288424D01*
X172229Y284932D01*
X168975Y281678D01*
X164373Y281678D01*
G37*
%LPD*%
%LPC*%
G36*
X259524Y117999D02*
X259524Y117999D01*
X259521Y118019D01*
X259523Y118039D01*
X259510Y118099D01*
X259524Y118225D01*
X259524Y123608D01*
X260288Y123456D01*
X260382Y123453D01*
X260476Y123443D01*
X260504Y123449D01*
X260534Y123448D01*
X260624Y123475D01*
X260716Y123495D01*
X260741Y123510D01*
X260769Y123518D01*
X260846Y123573D01*
X260927Y123621D01*
X260946Y123643D01*
X260970Y123660D01*
X261026Y123736D01*
X261087Y123808D01*
X261098Y123835D01*
X261115Y123859D01*
X261144Y123948D01*
X261179Y124036D01*
X261183Y124073D01*
X261190Y124093D01*
X261189Y124126D01*
X261198Y124203D01*
X261198Y125146D01*
X262121Y127377D01*
X263829Y129084D01*
X266059Y130008D01*
X267345Y130008D01*
X267462Y130027D01*
X267581Y130046D01*
X267584Y130047D01*
X267587Y130048D01*
X267692Y130103D01*
X267800Y130159D01*
X267802Y130161D01*
X267805Y130163D01*
X267886Y130249D01*
X267971Y130336D01*
X267972Y130339D01*
X267974Y130341D01*
X268024Y130449D01*
X268076Y130558D01*
X268076Y130561D01*
X268078Y130564D01*
X268091Y130682D01*
X268105Y130802D01*
X268104Y130805D01*
X268105Y130809D01*
X268080Y130925D01*
X268055Y131043D01*
X268053Y131046D01*
X268053Y131049D01*
X268047Y131058D01*
X267978Y131192D01*
X267388Y132075D01*
X266969Y133087D01*
X266820Y133834D01*
X272202Y133834D01*
X272222Y133838D01*
X272242Y133835D01*
X272302Y133848D01*
X272429Y133834D01*
X277811Y133834D01*
X277663Y133087D01*
X277243Y132075D01*
X276635Y131164D01*
X275860Y130389D01*
X274950Y129781D01*
X273938Y129362D01*
X272863Y129148D01*
X272478Y129148D01*
X272407Y129136D01*
X272335Y129135D01*
X272286Y129117D01*
X272235Y129108D01*
X272172Y129075D01*
X272104Y129050D01*
X272063Y129017D01*
X272018Y128993D01*
X271968Y128941D01*
X271912Y128896D01*
X271884Y128853D01*
X271848Y128815D01*
X271818Y128750D01*
X271779Y128689D01*
X271766Y128639D01*
X271745Y128592D01*
X271737Y128520D01*
X271719Y128451D01*
X271723Y128399D01*
X271717Y128347D01*
X271733Y128277D01*
X271738Y128206D01*
X271759Y128158D01*
X271770Y128107D01*
X271806Y128045D01*
X271835Y127979D01*
X271879Y127923D01*
X271896Y127896D01*
X271914Y127881D01*
X271939Y127848D01*
X272411Y127377D01*
X273335Y125146D01*
X273335Y122732D01*
X272411Y120501D01*
X270704Y118794D01*
X268473Y117870D01*
X266059Y117870D01*
X265263Y118200D01*
X265219Y118210D01*
X265177Y118230D01*
X265100Y118238D01*
X265086Y118241D01*
X265082Y118243D01*
X265080Y118243D01*
X265024Y118256D01*
X264978Y118252D01*
X264933Y118257D01*
X264857Y118240D01*
X264839Y118239D01*
X264836Y118239D01*
X264835Y118238D01*
X264779Y118233D01*
X264737Y118214D01*
X264692Y118205D01*
X264625Y118165D01*
X264614Y118160D01*
X264604Y118156D01*
X264602Y118154D01*
X264554Y118133D01*
X264521Y118102D01*
X264481Y118078D01*
X264431Y118020D01*
X264411Y118004D01*
X264406Y117997D01*
X264373Y117967D01*
X264351Y117926D01*
X264321Y117891D01*
X264296Y117828D01*
X264276Y117798D01*
X264270Y117779D01*
X264255Y117751D01*
X264247Y117706D01*
X264229Y117663D01*
X264227Y117643D01*
X264226Y117638D01*
X263997Y116490D01*
X263578Y115478D01*
X262969Y114567D01*
X262195Y113793D01*
X261284Y113184D01*
X260272Y112765D01*
X259524Y112617D01*
X259524Y117999D01*
G37*
%LPD*%
%LPC*%
G36*
X132542Y100574D02*
X132542Y100574D01*
X129288Y103829D01*
X129288Y108431D01*
X132542Y111685D01*
X134068Y111685D01*
X134069Y111686D01*
X134071Y111686D01*
X134071Y111688D01*
X134073Y111689D01*
X134072Y111691D01*
X134072Y111693D01*
X133499Y112266D01*
X132768Y113532D01*
X132389Y114945D01*
X132389Y115671D01*
X137944Y115671D01*
X137945Y115672D01*
X137945Y115671D01*
X143500Y115671D01*
X143500Y114945D01*
X143121Y113532D01*
X142390Y112266D01*
X141356Y111231D01*
X140089Y110500D01*
X138709Y110130D01*
X138709Y110129D01*
X138707Y110129D01*
X138707Y110127D01*
X138706Y110125D01*
X138707Y110124D01*
X138707Y110122D01*
X140398Y108431D01*
X140398Y103829D01*
X137144Y100574D01*
X132542Y100574D01*
G37*
%LPD*%
%LPC*%
G36*
X287246Y347742D02*
X287246Y347742D01*
X285015Y348666D01*
X283308Y350373D01*
X282384Y352603D01*
X282384Y355017D01*
X283308Y357248D01*
X285015Y358955D01*
X287246Y359879D01*
X289660Y359879D01*
X291891Y358955D01*
X293598Y357248D01*
X294522Y355017D01*
X294522Y352603D01*
X293598Y350373D01*
X291891Y348666D01*
X289660Y347742D01*
X287246Y347742D01*
G37*
%LPD*%
%LPC*%
G36*
X413024Y249185D02*
X413024Y249185D01*
X410793Y250109D01*
X409086Y251816D01*
X408162Y254047D01*
X408162Y256461D01*
X409086Y258691D01*
X410793Y260399D01*
X413024Y261322D01*
X415438Y261322D01*
X417668Y260399D01*
X419376Y258691D01*
X420300Y256461D01*
X420300Y254047D01*
X419376Y251816D01*
X417668Y250109D01*
X415438Y249185D01*
X413024Y249185D01*
G37*
%LPD*%
%LPC*%
G36*
X243240Y274758D02*
X243240Y274758D01*
X241010Y275682D01*
X239303Y277389D01*
X238379Y279620D01*
X238379Y282034D01*
X239303Y284264D01*
X241010Y285972D01*
X243240Y286895D01*
X245654Y286895D01*
X247885Y285972D01*
X249592Y284264D01*
X250516Y282034D01*
X250516Y279620D01*
X249592Y277389D01*
X247885Y275682D01*
X245654Y274758D01*
X243240Y274758D01*
G37*
%LPD*%
%LPC*%
G36*
X509568Y344276D02*
X509568Y344276D01*
X507338Y345200D01*
X505630Y346907D01*
X504707Y349138D01*
X504707Y351552D01*
X505630Y353783D01*
X507338Y355490D01*
X509568Y356414D01*
X511982Y356414D01*
X514213Y355490D01*
X515920Y353783D01*
X516844Y351552D01*
X516844Y349138D01*
X515920Y346907D01*
X514213Y345200D01*
X511982Y344276D01*
X509568Y344276D01*
G37*
%LPD*%
%LPC*%
G36*
X323714Y159631D02*
X323714Y159631D01*
X321484Y160555D01*
X319776Y162262D01*
X318852Y164493D01*
X318852Y166907D01*
X319776Y169138D01*
X321484Y170845D01*
X323714Y171769D01*
X326128Y171769D01*
X328359Y170845D01*
X330066Y169138D01*
X330990Y166907D01*
X330990Y164493D01*
X330066Y162262D01*
X328359Y160555D01*
X326128Y159631D01*
X323714Y159631D01*
G37*
%LPD*%
%LPC*%
G36*
X588929Y267761D02*
X588929Y267761D01*
X586699Y268685D01*
X584992Y270392D01*
X584068Y272622D01*
X584068Y275037D01*
X584992Y277267D01*
X586699Y278974D01*
X588929Y279898D01*
X591344Y279898D01*
X593574Y278974D01*
X595281Y277267D01*
X596205Y275037D01*
X596205Y272622D01*
X595281Y270392D01*
X593574Y268685D01*
X591344Y267761D01*
X588929Y267761D01*
G37*
%LPD*%
%LPC*%
G36*
X433225Y339829D02*
X433225Y339829D01*
X430995Y340753D01*
X429288Y342460D01*
X428364Y344691D01*
X428364Y347105D01*
X429288Y349336D01*
X430995Y351043D01*
X433225Y351967D01*
X435640Y351967D01*
X437870Y351043D01*
X439577Y349336D01*
X440501Y347105D01*
X440501Y344691D01*
X439577Y342460D01*
X437870Y340753D01*
X435640Y339829D01*
X433225Y339829D01*
G37*
%LPD*%
%LPC*%
G36*
X293701Y285084D02*
X293701Y285084D01*
X291470Y286008D01*
X289763Y287715D01*
X288839Y289945D01*
X288839Y292360D01*
X289763Y294590D01*
X291470Y296297D01*
X293701Y297221D01*
X296115Y297221D01*
X298346Y296297D01*
X300053Y294590D01*
X300977Y292360D01*
X300977Y289945D01*
X300053Y287715D01*
X298346Y286008D01*
X296115Y285084D01*
X293701Y285084D01*
G37*
%LPD*%
%LPC*%
G36*
X411466Y174353D02*
X411466Y174353D01*
X409235Y175277D01*
X407528Y176984D01*
X406604Y179215D01*
X406604Y181629D01*
X407528Y183860D01*
X409235Y185567D01*
X411466Y186491D01*
X413880Y186491D01*
X416111Y185567D01*
X417818Y183860D01*
X418742Y181629D01*
X418742Y179215D01*
X417818Y176984D01*
X416111Y175277D01*
X413880Y174353D01*
X411466Y174353D01*
G37*
%LPD*%
%LPC*%
G36*
X484893Y206980D02*
X484893Y206980D01*
X482663Y207904D01*
X480956Y209611D01*
X480032Y211842D01*
X480032Y214256D01*
X480956Y216487D01*
X482663Y218194D01*
X484893Y219118D01*
X487308Y219118D01*
X489538Y218194D01*
X491245Y216487D01*
X492169Y214256D01*
X492169Y211842D01*
X491245Y209611D01*
X489538Y207904D01*
X487308Y206980D01*
X484893Y206980D01*
G37*
%LPD*%
%LPC*%
G36*
X563468Y253159D02*
X563468Y253159D01*
X561237Y254083D01*
X559530Y255790D01*
X558606Y258021D01*
X558606Y260435D01*
X559530Y262666D01*
X561237Y264373D01*
X563468Y265297D01*
X565882Y265297D01*
X568113Y264373D01*
X569820Y262666D01*
X570744Y260435D01*
X570744Y258021D01*
X569820Y255790D01*
X568113Y254083D01*
X565882Y253159D01*
X563468Y253159D01*
G37*
%LPD*%
%LPC*%
G36*
X518541Y291480D02*
X518541Y291480D01*
X516311Y292404D01*
X514603Y294111D01*
X513679Y296342D01*
X513679Y298756D01*
X514603Y300987D01*
X516311Y302694D01*
X518541Y303618D01*
X520955Y303618D01*
X523186Y302694D01*
X524893Y300987D01*
X525817Y298756D01*
X525817Y296342D01*
X524893Y294111D01*
X523186Y292404D01*
X520955Y291480D01*
X518541Y291480D01*
G37*
%LPD*%
%LPC*%
G36*
X451966Y273605D02*
X451966Y273605D01*
X449736Y274529D01*
X448029Y276236D01*
X447105Y278467D01*
X447105Y280881D01*
X448029Y283112D01*
X449736Y284819D01*
X451966Y285743D01*
X454381Y285743D01*
X456611Y284819D01*
X458318Y283112D01*
X459242Y280881D01*
X459242Y278467D01*
X458318Y276236D01*
X456611Y274529D01*
X454381Y273605D01*
X451966Y273605D01*
G37*
%LPD*%
%LPC*%
G36*
X329539Y244821D02*
X329539Y244821D01*
X327308Y245745D01*
X325601Y247452D01*
X324677Y249683D01*
X324677Y252097D01*
X325601Y254328D01*
X327308Y256035D01*
X329539Y256959D01*
X331953Y256959D01*
X334184Y256035D01*
X335891Y254328D01*
X336815Y252097D01*
X336815Y249683D01*
X335891Y247452D01*
X334184Y245745D01*
X331953Y244821D01*
X329539Y244821D01*
G37*
%LPD*%
%LPC*%
G36*
X642427Y80093D02*
X642427Y80093D01*
X640197Y81017D01*
X638490Y82724D01*
X637566Y84954D01*
X637566Y87368D01*
X638490Y89599D01*
X640197Y91306D01*
X642427Y92230D01*
X644842Y92230D01*
X647072Y91306D01*
X648779Y89599D01*
X649703Y87368D01*
X649703Y84954D01*
X648779Y82724D01*
X647072Y81017D01*
X644842Y80093D01*
X642427Y80093D01*
G37*
%LPD*%
%LPC*%
G36*
X589122Y101422D02*
X589122Y101422D01*
X586892Y102346D01*
X585185Y104053D01*
X584261Y106284D01*
X584261Y108698D01*
X585185Y110929D01*
X586892Y112636D01*
X589122Y113560D01*
X591537Y113560D01*
X593767Y112636D01*
X595474Y110929D01*
X596398Y108698D01*
X596398Y106284D01*
X595474Y104053D01*
X593767Y102346D01*
X591537Y101422D01*
X589122Y101422D01*
G37*
%LPD*%
%LPC*%
G36*
X570514Y369102D02*
X570514Y369102D01*
X568283Y370026D01*
X566576Y371733D01*
X565652Y373964D01*
X565652Y376378D01*
X566576Y378608D01*
X568283Y380315D01*
X570514Y381239D01*
X572928Y381239D01*
X575159Y380315D01*
X576866Y378608D01*
X577790Y376378D01*
X577790Y373964D01*
X576866Y371733D01*
X575159Y370026D01*
X572928Y369102D01*
X570514Y369102D01*
G37*
%LPD*%
%LPC*%
G36*
X403867Y104064D02*
X403867Y104064D01*
X401636Y104988D01*
X399929Y106695D01*
X399005Y108925D01*
X399005Y111340D01*
X399929Y113570D01*
X401636Y115277D01*
X403867Y116201D01*
X406281Y116201D01*
X408511Y115277D01*
X410219Y113570D01*
X411142Y111340D01*
X411142Y108925D01*
X410219Y106695D01*
X408511Y104988D01*
X406281Y104064D01*
X403867Y104064D01*
G37*
%LPD*%
%LPC*%
G36*
X455527Y95754D02*
X455527Y95754D01*
X453297Y96678D01*
X451590Y98385D01*
X450666Y100616D01*
X450666Y103030D01*
X451590Y105261D01*
X453297Y106968D01*
X455527Y107892D01*
X457941Y107892D01*
X460172Y106968D01*
X461879Y105261D01*
X462803Y103030D01*
X462803Y100616D01*
X461879Y98385D01*
X460172Y96678D01*
X457941Y95754D01*
X455527Y95754D01*
G37*
%LPD*%
%LPC*%
G36*
X538651Y90391D02*
X538651Y90391D01*
X536421Y91315D01*
X534714Y93022D01*
X533790Y95252D01*
X533790Y97667D01*
X534714Y99897D01*
X536421Y101604D01*
X538651Y102528D01*
X541066Y102528D01*
X543296Y101604D01*
X545003Y99897D01*
X545927Y97667D01*
X545927Y95252D01*
X545003Y93022D01*
X543296Y91315D01*
X541066Y90391D01*
X538651Y90391D01*
G37*
%LPD*%
%LPC*%
G36*
X589292Y57309D02*
X589292Y57309D01*
X587062Y58233D01*
X585355Y59940D01*
X584431Y62171D01*
X584431Y64585D01*
X585355Y66816D01*
X587062Y68523D01*
X589292Y69447D01*
X591707Y69447D01*
X593937Y68523D01*
X595644Y66816D01*
X596568Y64585D01*
X596568Y62171D01*
X595644Y59940D01*
X593937Y58233D01*
X591707Y57309D01*
X589292Y57309D01*
G37*
%LPD*%
%LPC*%
G36*
X656332Y57034D02*
X656332Y57034D01*
X654102Y57958D01*
X652395Y59665D01*
X651471Y61895D01*
X651471Y64309D01*
X652395Y66540D01*
X654102Y68247D01*
X656332Y69171D01*
X658747Y69171D01*
X660977Y68247D01*
X662684Y66540D01*
X663608Y64309D01*
X663608Y61895D01*
X662684Y59665D01*
X660977Y57958D01*
X658747Y57034D01*
X656332Y57034D01*
G37*
%LPD*%
%LPC*%
G36*
X642427Y45552D02*
X642427Y45552D01*
X640197Y46476D01*
X638490Y48183D01*
X637566Y50414D01*
X637566Y52828D01*
X638490Y55059D01*
X640197Y56766D01*
X642427Y57690D01*
X644842Y57690D01*
X647072Y56766D01*
X648779Y55059D01*
X649703Y52828D01*
X649703Y50414D01*
X648779Y48183D01*
X647072Y46476D01*
X644842Y45552D01*
X642427Y45552D01*
G37*
%LPD*%
%LPC*%
G36*
X656895Y135479D02*
X656895Y135479D01*
X654665Y136403D01*
X652958Y138110D01*
X652034Y140341D01*
X652034Y142755D01*
X652958Y144986D01*
X654665Y146693D01*
X656895Y147617D01*
X659310Y147617D01*
X661540Y146693D01*
X663247Y144986D01*
X664171Y142755D01*
X664171Y140341D01*
X663247Y138110D01*
X661540Y136403D01*
X659310Y135479D01*
X656895Y135479D01*
G37*
%LPD*%
%LPC*%
G36*
X257867Y135946D02*
X257867Y135946D01*
X255636Y136870D01*
X253929Y138577D01*
X253005Y140807D01*
X253005Y143222D01*
X253929Y145452D01*
X255636Y147159D01*
X257867Y148083D01*
X260281Y148083D01*
X262512Y147159D01*
X264219Y145452D01*
X265143Y143222D01*
X265143Y140807D01*
X264219Y138577D01*
X262512Y136870D01*
X260281Y135946D01*
X257867Y135946D01*
G37*
%LPD*%
%LPC*%
G36*
X230995Y138947D02*
X230995Y138947D01*
X228764Y139871D01*
X227057Y141578D01*
X226133Y143809D01*
X226133Y146223D01*
X227057Y148454D01*
X228764Y150161D01*
X230995Y151085D01*
X233409Y151085D01*
X235640Y150161D01*
X237347Y148454D01*
X238271Y146223D01*
X238271Y143809D01*
X237347Y141578D01*
X235640Y139871D01*
X233409Y138947D01*
X230995Y138947D01*
G37*
%LPD*%
%LPC*%
G36*
X458739Y361875D02*
X458739Y361875D01*
X456509Y362799D01*
X454801Y364506D01*
X453877Y366736D01*
X453877Y369151D01*
X454801Y371381D01*
X456509Y373088D01*
X458739Y374012D01*
X461153Y374012D01*
X463384Y373088D01*
X465091Y371381D01*
X466015Y369151D01*
X466015Y366736D01*
X465091Y364506D01*
X463384Y362799D01*
X461153Y361875D01*
X458739Y361875D01*
G37*
%LPD*%
%LPC*%
G36*
X54419Y106981D02*
X54419Y106981D01*
X51165Y110235D01*
X51165Y114837D01*
X54419Y118091D01*
X59021Y118091D01*
X62275Y114837D01*
X62275Y110235D01*
X59021Y106981D01*
X54419Y106981D01*
G37*
%LPD*%
%LPC*%
G36*
X152916Y83146D02*
X152916Y83146D01*
X149662Y86400D01*
X149662Y91002D01*
X152916Y94257D01*
X157518Y94257D01*
X160772Y91002D01*
X160772Y86400D01*
X157518Y83146D01*
X152916Y83146D01*
G37*
%LPD*%
%LPC*%
G36*
X68994Y88135D02*
X68994Y88135D01*
X65740Y91389D01*
X65740Y95991D01*
X68994Y99245D01*
X73596Y99245D01*
X76850Y95991D01*
X76850Y91389D01*
X73596Y88135D01*
X68994Y88135D01*
G37*
%LPD*%
%LPC*%
G36*
X768034Y253855D02*
X768034Y253855D01*
X764780Y257109D01*
X764780Y261712D01*
X768034Y264966D01*
X772636Y264966D01*
X775890Y261711D01*
X775890Y257109D01*
X772636Y253855D01*
X768034Y253855D01*
G37*
%LPD*%
%LPC*%
G36*
X746014Y24810D02*
X746014Y24810D01*
X742760Y28064D01*
X742760Y32666D01*
X746014Y35920D01*
X750616Y35920D01*
X753871Y32666D01*
X753871Y28064D01*
X750616Y24810D01*
X746014Y24810D01*
G37*
%LPD*%
%LPC*%
G36*
X173043Y269996D02*
X173043Y269996D01*
X169789Y273250D01*
X169789Y277852D01*
X173043Y281106D01*
X177645Y281106D01*
X180900Y277852D01*
X180900Y273250D01*
X177645Y269996D01*
X173043Y269996D01*
G37*
%LPD*%
%LPC*%
G36*
X54534Y94449D02*
X54534Y94449D01*
X51280Y97703D01*
X51280Y102305D01*
X54534Y105560D01*
X59136Y105560D01*
X62390Y102305D01*
X62390Y97703D01*
X59136Y94449D01*
X54534Y94449D01*
G37*
%LPD*%
%LPC*%
G36*
X148639Y254303D02*
X148639Y254303D01*
X145385Y257557D01*
X145385Y262159D01*
X148639Y265413D01*
X153241Y265413D01*
X156495Y262159D01*
X156495Y257557D01*
X153241Y254303D01*
X148639Y254303D01*
G37*
%LPD*%
%LPC*%
G36*
X149778Y240665D02*
X149778Y240665D01*
X146524Y243919D01*
X146524Y248521D01*
X149778Y251775D01*
X154380Y251775D01*
X157635Y248521D01*
X157635Y243919D01*
X154380Y240665D01*
X149778Y240665D01*
G37*
%LPD*%
%LPC*%
G36*
X161037Y238340D02*
X161037Y238340D01*
X157782Y241594D01*
X157782Y246197D01*
X161037Y249451D01*
X165639Y249451D01*
X168893Y246197D01*
X168893Y241595D01*
X165639Y238340D01*
X161037Y238340D01*
G37*
%LPD*%
%LPC*%
G36*
X133267Y273416D02*
X133267Y273416D01*
X130013Y276670D01*
X130013Y281272D01*
X133267Y284526D01*
X137869Y284526D01*
X141123Y281272D01*
X141123Y276670D01*
X137869Y273416D01*
X133267Y273416D01*
G37*
%LPD*%
%LPC*%
G36*
X275612Y11655D02*
X275612Y11655D01*
X272358Y14909D01*
X272358Y19511D01*
X275612Y22765D01*
X280214Y22765D01*
X283469Y19511D01*
X283469Y14909D01*
X280214Y11655D01*
X275612Y11655D01*
G37*
%LPD*%
%LPC*%
G36*
X768087Y427490D02*
X768087Y427490D01*
X764833Y430744D01*
X764833Y435347D01*
X768087Y438601D01*
X772689Y438601D01*
X775944Y435347D01*
X775944Y430744D01*
X772689Y427490D01*
X768087Y427490D01*
G37*
%LPD*%
%LPC*%
G36*
X173805Y181791D02*
X173805Y181791D01*
X170551Y185045D01*
X170551Y189647D01*
X173805Y192901D01*
X178407Y192901D01*
X181661Y189647D01*
X181661Y185045D01*
X178407Y181791D01*
X173805Y181791D01*
G37*
%LPD*%
%LPC*%
G36*
X54849Y145570D02*
X54849Y145570D01*
X51595Y148824D01*
X51595Y153426D01*
X54849Y156680D01*
X59451Y156680D01*
X62705Y153426D01*
X62705Y148824D01*
X59451Y145570D01*
X54849Y145570D01*
G37*
%LPD*%
%LPC*%
G36*
X746014Y142855D02*
X746014Y142855D01*
X742760Y146109D01*
X742760Y150711D01*
X746014Y153965D01*
X750616Y153965D01*
X753871Y150711D01*
X753871Y146109D01*
X750616Y142855D01*
X746014Y142855D01*
G37*
%LPD*%
%LPC*%
G36*
X54849Y158104D02*
X54849Y158104D01*
X51595Y161358D01*
X51595Y165960D01*
X54849Y169214D01*
X59451Y169214D01*
X62705Y165960D01*
X62705Y161358D01*
X59451Y158104D01*
X54849Y158104D01*
G37*
%LPD*%
%LPC*%
G36*
X79638Y139282D02*
X79638Y139282D01*
X76384Y142536D01*
X76384Y147138D01*
X79639Y150392D01*
X84241Y150392D01*
X87495Y147138D01*
X87495Y142536D01*
X84241Y139282D01*
X79638Y139282D01*
G37*
%LPD*%
%LPC*%
G36*
X54849Y171097D02*
X54849Y171097D01*
X51595Y174352D01*
X51595Y178954D01*
X54849Y182208D01*
X59451Y182208D01*
X62705Y178954D01*
X62705Y174352D01*
X59451Y171097D01*
X54849Y171097D01*
G37*
%LPD*%
%LPC*%
G36*
X54849Y132789D02*
X54849Y132789D01*
X51595Y136044D01*
X51595Y140646D01*
X54849Y143900D01*
X59451Y143900D01*
X62705Y140646D01*
X62705Y136044D01*
X59451Y132789D01*
X54849Y132789D01*
G37*
%LPD*%
%LPC*%
G36*
X206580Y123713D02*
X206580Y123713D01*
X203326Y126967D01*
X203326Y131570D01*
X206580Y134824D01*
X211182Y134824D01*
X214437Y131570D01*
X214437Y126967D01*
X211182Y123713D01*
X206580Y123713D01*
G37*
%LPD*%
%LPC*%
G36*
X115289Y175780D02*
X115289Y175780D01*
X112035Y179034D01*
X112035Y183636D01*
X115289Y186890D01*
X119891Y186890D01*
X123145Y183636D01*
X123145Y179034D01*
X119891Y175780D01*
X115289Y175780D01*
G37*
%LPD*%
%LPC*%
G36*
X129760Y178246D02*
X129760Y178246D01*
X126506Y181501D01*
X126506Y186103D01*
X129760Y189357D01*
X134362Y189357D01*
X137616Y186103D01*
X137616Y181501D01*
X134362Y178246D01*
X129760Y178246D01*
G37*
%LPD*%
%LPC*%
G36*
X52128Y234504D02*
X52128Y234504D01*
X48873Y237758D01*
X48873Y242360D01*
X52128Y245614D01*
X56730Y245614D01*
X59984Y242360D01*
X59984Y237758D01*
X56730Y234504D01*
X52128Y234504D01*
G37*
%LPD*%
%LPC*%
G36*
X54907Y183978D02*
X54907Y183978D01*
X51653Y187233D01*
X51653Y191835D01*
X54907Y195089D01*
X59509Y195089D01*
X62763Y191835D01*
X62763Y187233D01*
X59509Y183978D01*
X54907Y183978D01*
G37*
%LPD*%
%LPC*%
G36*
X156788Y193611D02*
X156788Y193611D01*
X153533Y196866D01*
X153533Y201468D01*
X156788Y204722D01*
X161390Y204722D01*
X164644Y201468D01*
X164644Y196866D01*
X161390Y193611D01*
X156788Y193611D01*
G37*
%LPD*%
%LPC*%
G36*
X54712Y196235D02*
X54712Y196235D01*
X51457Y199489D01*
X51457Y204091D01*
X54712Y207345D01*
X59314Y207345D01*
X62568Y204091D01*
X62568Y199489D01*
X59314Y196235D01*
X54712Y196235D01*
G37*
%LPD*%
%LPC*%
G36*
X54534Y119690D02*
X54534Y119690D01*
X51280Y122944D01*
X51280Y127546D01*
X54534Y130800D01*
X59136Y130800D01*
X62390Y127546D01*
X62390Y122944D01*
X59136Y119690D01*
X54534Y119690D01*
G37*
%LPD*%
%LPC*%
G36*
X119796Y212434D02*
X119796Y212434D01*
X116542Y215688D01*
X116542Y220290D01*
X119796Y223544D01*
X124398Y223544D01*
X127652Y220290D01*
X127652Y215688D01*
X124398Y212434D01*
X119796Y212434D01*
G37*
%LPD*%
%LPC*%
G36*
X105578Y215891D02*
X105578Y215891D01*
X102324Y219145D01*
X102324Y223747D01*
X105578Y227001D01*
X110180Y227001D01*
X113435Y223747D01*
X113435Y219145D01*
X110180Y215891D01*
X105578Y215891D01*
G37*
%LPD*%
%LPC*%
G36*
X768323Y217984D02*
X768323Y217984D01*
X765069Y221238D01*
X765069Y225841D01*
X768323Y229095D01*
X772925Y229095D01*
X776180Y225840D01*
X776180Y221238D01*
X772925Y217984D01*
X768323Y217984D01*
G37*
%LPD*%
%LPC*%
G36*
X199406Y148924D02*
X199406Y148924D01*
X196152Y152179D01*
X196152Y156781D01*
X199406Y160035D01*
X204008Y160035D01*
X207262Y156781D01*
X207262Y152179D01*
X204008Y148924D01*
X199406Y148924D01*
G37*
%LPD*%
%LPC*%
G36*
X767935Y358221D02*
X767935Y358221D01*
X764681Y361475D01*
X764681Y366077D01*
X767935Y369331D01*
X772537Y369331D01*
X775791Y366077D01*
X775791Y361475D01*
X772537Y358221D01*
X767935Y358221D01*
G37*
%LPD*%
%LPC*%
G36*
X403886Y404906D02*
X403886Y404906D01*
X400632Y408160D01*
X400632Y412763D01*
X403886Y416017D01*
X408488Y416017D01*
X411742Y412762D01*
X411742Y408160D01*
X408488Y404906D01*
X403886Y404906D01*
G37*
%LPD*%
%LPC*%
G36*
X133693Y317827D02*
X133693Y317827D01*
X130439Y321081D01*
X130439Y325683D01*
X133693Y328937D01*
X138295Y328937D01*
X141550Y325683D01*
X141550Y321081D01*
X138296Y317827D01*
X133693Y317827D01*
G37*
%LPD*%
%LPC*%
G36*
X768162Y393123D02*
X768162Y393123D01*
X764907Y396377D01*
X764907Y400979D01*
X768162Y404233D01*
X772764Y404233D01*
X776018Y400979D01*
X776018Y396377D01*
X772764Y393123D01*
X768162Y393123D01*
G37*
%LPD*%
%LPC*%
G36*
X155616Y290687D02*
X155616Y290687D01*
X152362Y293941D01*
X152362Y298543D01*
X155616Y301798D01*
X160218Y301798D01*
X163473Y298543D01*
X163473Y293941D01*
X160218Y290687D01*
X155616Y290687D01*
G37*
%LPD*%
%LPC*%
G36*
X125452Y286065D02*
X125452Y286065D01*
X122198Y289319D01*
X122198Y293921D01*
X125452Y297176D01*
X130054Y297176D01*
X133308Y293921D01*
X133308Y289319D01*
X130054Y286065D01*
X125452Y286065D01*
G37*
%LPD*%
%LPC*%
G36*
X768188Y288649D02*
X768188Y288649D01*
X764934Y291903D01*
X764934Y296505D01*
X768188Y299759D01*
X772790Y299759D01*
X776044Y296505D01*
X776044Y291903D01*
X772790Y288649D01*
X768188Y288649D01*
G37*
%LPD*%
%LPC*%
G36*
X768196Y323047D02*
X768196Y323047D01*
X764942Y326301D01*
X764942Y330903D01*
X768196Y334157D01*
X772798Y334157D01*
X776052Y330903D01*
X776052Y326301D01*
X772798Y323047D01*
X768196Y323047D01*
G37*
%LPD*%
%LPC*%
G36*
X104914Y287202D02*
X104914Y287202D01*
X101660Y290457D01*
X101660Y295059D01*
X104914Y298313D01*
X109516Y298313D01*
X112770Y295059D01*
X112770Y290457D01*
X109516Y287202D01*
X104914Y287202D01*
G37*
%LPD*%
%LPC*%
G36*
X41195Y425106D02*
X41195Y425106D01*
X37941Y428361D01*
X37941Y432963D01*
X41195Y436217D01*
X45797Y436217D01*
X49052Y432963D01*
X49052Y428361D01*
X45798Y425106D01*
X41195Y425106D01*
G37*
%LPD*%
%LPC*%
G36*
X58826Y416934D02*
X58826Y416934D01*
X55571Y420188D01*
X55571Y424790D01*
X58826Y428045D01*
X63428Y428045D01*
X66682Y424790D01*
X66682Y420188D01*
X63428Y416934D01*
X58826Y416934D01*
G37*
%LPD*%
%LPC*%
G36*
X71537Y413323D02*
X71537Y413323D01*
X68283Y416577D01*
X68283Y421179D01*
X71537Y424433D01*
X76139Y424433D01*
X79393Y421179D01*
X79393Y416577D01*
X76139Y413323D01*
X71537Y413323D01*
G37*
%LPD*%
%LPC*%
G36*
X303590Y263175D02*
X303590Y263175D01*
X303586Y263194D01*
X303589Y263214D01*
X303576Y263274D01*
X303590Y263401D01*
X303590Y268784D01*
X304337Y268635D01*
X305349Y268216D01*
X306260Y267607D01*
X307032Y266836D01*
X307108Y266781D01*
X307180Y266720D01*
X307208Y266709D01*
X307231Y266692D01*
X307322Y266664D01*
X307409Y266630D01*
X307438Y266628D01*
X307466Y266620D01*
X307561Y266622D01*
X307655Y266617D01*
X307683Y266625D01*
X307712Y266626D01*
X307801Y266658D01*
X307892Y266684D01*
X307916Y266700D01*
X307943Y266711D01*
X308017Y266770D01*
X308095Y266823D01*
X308119Y266851D01*
X308135Y266864D01*
X308153Y266892D01*
X308203Y266951D01*
X308791Y267832D01*
X309566Y268606D01*
X310477Y269215D01*
X311489Y269634D01*
X312236Y269783D01*
X312236Y264400D01*
X312239Y264380D01*
X312237Y264361D01*
X312250Y264301D01*
X312236Y264174D01*
X312236Y258791D01*
X311489Y258940D01*
X310477Y259359D01*
X309566Y259968D01*
X308794Y260739D01*
X308718Y260794D01*
X308646Y260855D01*
X308618Y260865D01*
X308595Y260883D01*
X308504Y260910D01*
X308417Y260945D01*
X308387Y260946D01*
X308359Y260955D01*
X308265Y260952D01*
X308171Y260957D01*
X308143Y260949D01*
X308114Y260949D01*
X308025Y260916D01*
X307934Y260891D01*
X307910Y260874D01*
X307883Y260864D01*
X307809Y260805D01*
X307731Y260752D01*
X307707Y260724D01*
X307691Y260710D01*
X307673Y260683D01*
X307623Y260624D01*
X307035Y259743D01*
X306260Y258969D01*
X305349Y258360D01*
X304337Y257941D01*
X303590Y257792D01*
X303590Y263175D01*
G37*
%LPD*%
%LPC*%
G36*
X402730Y41298D02*
X402730Y41298D01*
X402730Y49700D01*
X403558Y49568D01*
X405061Y49080D01*
X406469Y48363D01*
X407748Y47434D01*
X408865Y46316D01*
X409794Y45038D01*
X410512Y43629D01*
X411000Y42126D01*
X411131Y41298D01*
X402730Y41298D01*
G37*
%LPD*%
%LPC*%
G36*
X402730Y38252D02*
X402730Y38252D01*
X411131Y38252D01*
X411000Y37424D01*
X410512Y35921D01*
X409794Y34512D01*
X408865Y33234D01*
X407748Y32116D01*
X406469Y31187D01*
X405061Y30470D01*
X403558Y29981D01*
X402730Y29850D01*
X402730Y38252D01*
G37*
%LPD*%
%LPC*%
G36*
X391282Y41298D02*
X391282Y41298D01*
X391413Y42126D01*
X391901Y43629D01*
X392619Y45038D01*
X393548Y46316D01*
X394665Y47434D01*
X395944Y48363D01*
X397352Y49080D01*
X398855Y49568D01*
X399683Y49700D01*
X399683Y41298D01*
X391282Y41298D01*
G37*
%LPD*%
%LPC*%
G36*
X398855Y29981D02*
X398855Y29981D01*
X397352Y30470D01*
X395944Y31187D01*
X394665Y32116D01*
X393548Y33234D01*
X392619Y34512D01*
X391901Y35921D01*
X391413Y37424D01*
X391282Y38252D01*
X399683Y38252D01*
X399683Y29850D01*
X398855Y29981D01*
G37*
%LPD*%
%LPC*%
G36*
X326973Y392659D02*
X326973Y392659D01*
X326973Y398209D01*
X327699Y398209D01*
X329112Y397831D01*
X330378Y397099D01*
X331413Y396065D01*
X332144Y394798D01*
X332523Y393386D01*
X332523Y392659D01*
X326973Y392659D01*
G37*
%LPD*%
%LPC*%
G36*
X43618Y214557D02*
X43618Y214557D01*
X43618Y220107D01*
X44344Y220107D01*
X45757Y219728D01*
X47024Y218997D01*
X48058Y217963D01*
X48790Y216696D01*
X49168Y215283D01*
X49168Y214557D01*
X43618Y214557D01*
G37*
%LPD*%
%LPC*%
G36*
X770439Y241249D02*
X770439Y241249D01*
X770439Y246799D01*
X771165Y246799D01*
X772578Y246421D01*
X773844Y245689D01*
X774879Y244655D01*
X775610Y243388D01*
X775989Y241975D01*
X775989Y241249D01*
X770439Y241249D01*
G37*
%LPD*%
%LPC*%
G36*
X92990Y333098D02*
X92990Y333098D01*
X92990Y338648D01*
X93716Y338648D01*
X95129Y338269D01*
X96396Y337538D01*
X97430Y336503D01*
X98162Y335237D01*
X98540Y333824D01*
X98540Y333098D01*
X92990Y333098D01*
G37*
%LPD*%
%LPC*%
G36*
X770570Y380452D02*
X770570Y380452D01*
X770570Y386002D01*
X771296Y386002D01*
X772709Y385624D01*
X773975Y384892D01*
X775010Y383858D01*
X775741Y382591D01*
X776120Y381178D01*
X776120Y380452D01*
X770570Y380452D01*
G37*
%LPD*%
%LPC*%
G36*
X112738Y89307D02*
X112738Y89307D01*
X112738Y94857D01*
X113464Y94857D01*
X114877Y94478D01*
X116144Y93747D01*
X117178Y92713D01*
X117909Y91446D01*
X118288Y90033D01*
X118288Y89307D01*
X112738Y89307D01*
G37*
%LPD*%
%LPC*%
G36*
X770508Y345966D02*
X770508Y345966D01*
X770508Y351517D01*
X771234Y351517D01*
X772647Y351138D01*
X773914Y350407D01*
X774948Y349372D01*
X775680Y348106D01*
X776058Y346693D01*
X776058Y345966D01*
X770508Y345966D01*
G37*
%LPD*%
%LPC*%
G36*
X137950Y115682D02*
X137950Y115682D01*
X137950Y121232D01*
X138676Y121232D01*
X140089Y120853D01*
X141356Y120122D01*
X142390Y119087D01*
X143121Y117821D01*
X143500Y116408D01*
X143500Y115682D01*
X137950Y115682D01*
G37*
%LPD*%
%LPC*%
G36*
X770107Y310605D02*
X770107Y310605D01*
X770107Y316155D01*
X770833Y316155D01*
X772246Y315776D01*
X773513Y315045D01*
X774547Y314011D01*
X775279Y312744D01*
X775657Y311331D01*
X775657Y310605D01*
X770107Y310605D01*
G37*
%LPD*%
%LPC*%
G36*
X460433Y405048D02*
X460433Y405048D01*
X460433Y410598D01*
X461159Y410598D01*
X462572Y410220D01*
X463839Y409488D01*
X464873Y408454D01*
X465605Y407187D01*
X465983Y405774D01*
X465983Y405048D01*
X460433Y405048D01*
G37*
%LPD*%
%LPC*%
G36*
X770639Y275581D02*
X770639Y275581D01*
X770639Y281131D01*
X771365Y281131D01*
X772778Y280752D01*
X774045Y280021D01*
X775079Y278986D01*
X775811Y277720D01*
X776189Y276307D01*
X776189Y275581D01*
X770639Y275581D01*
G37*
%LPD*%
%LPC*%
G36*
X220680Y17023D02*
X220680Y17023D01*
X220680Y22573D01*
X221406Y22573D01*
X222819Y22194D01*
X224086Y21463D01*
X225120Y20428D01*
X225852Y19162D01*
X226230Y17749D01*
X226230Y17023D01*
X220680Y17023D01*
G37*
%LPD*%
%LPC*%
G36*
X770468Y415013D02*
X770468Y415013D01*
X770468Y420563D01*
X771194Y420563D01*
X772607Y420185D01*
X773874Y419453D01*
X774908Y418419D01*
X775639Y417152D01*
X776018Y415739D01*
X776018Y415013D01*
X770468Y415013D01*
G37*
%LPD*%
%LPC*%
G36*
X288539Y411127D02*
X288539Y411127D01*
X288539Y416677D01*
X289266Y416677D01*
X290679Y416298D01*
X291945Y415567D01*
X292980Y414533D01*
X293711Y413266D01*
X294090Y411853D01*
X294090Y411127D01*
X288539Y411127D01*
G37*
%LPD*%
%LPC*%
G36*
X770746Y205532D02*
X770746Y205532D01*
X770746Y211082D01*
X771473Y211082D01*
X772886Y210704D01*
X774152Y209972D01*
X775187Y208938D01*
X775918Y207671D01*
X776297Y206258D01*
X776297Y205532D01*
X770746Y205532D01*
G37*
%LPD*%
%LPC*%
G36*
X321412Y392659D02*
X321412Y392659D01*
X321412Y393386D01*
X321791Y394798D01*
X322522Y396065D01*
X323556Y397099D01*
X324823Y397831D01*
X326236Y398209D01*
X326962Y398209D01*
X326962Y392659D01*
X321412Y392659D01*
G37*
%LPD*%
%LPC*%
G36*
X38058Y214557D02*
X38058Y214557D01*
X38058Y215283D01*
X38436Y216696D01*
X39168Y217963D01*
X40202Y218997D01*
X41469Y219728D01*
X42882Y220107D01*
X43608Y220107D01*
X43608Y214557D01*
X38058Y214557D01*
G37*
%LPD*%
%LPC*%
G36*
X765079Y275581D02*
X765079Y275581D01*
X765079Y276307D01*
X765458Y277720D01*
X766189Y278986D01*
X767223Y280021D01*
X768490Y280752D01*
X769903Y281131D01*
X770629Y281131D01*
X770629Y275581D01*
X765079Y275581D01*
G37*
%LPD*%
%LPC*%
G36*
X764948Y345966D02*
X764948Y345966D01*
X764948Y346693D01*
X765326Y348106D01*
X766058Y349372D01*
X767092Y350407D01*
X768359Y351138D01*
X769772Y351517D01*
X770498Y351517D01*
X770498Y345966D01*
X764948Y345966D01*
G37*
%LPD*%
%LPC*%
G36*
X132389Y115682D02*
X132389Y115682D01*
X132389Y116408D01*
X132768Y117821D01*
X133499Y119087D01*
X134534Y120122D01*
X135800Y120853D01*
X137213Y121232D01*
X137940Y121232D01*
X137940Y115682D01*
X132389Y115682D01*
G37*
%LPD*%
%LPC*%
G36*
X765009Y380452D02*
X765009Y380452D01*
X765009Y381179D01*
X765388Y382591D01*
X766119Y383858D01*
X767154Y384892D01*
X768420Y385624D01*
X769833Y386002D01*
X770559Y386002D01*
X770559Y380452D01*
X765009Y380452D01*
G37*
%LPD*%
%LPC*%
G36*
X215120Y17023D02*
X215120Y17023D01*
X215120Y17749D01*
X215498Y19162D01*
X216230Y20428D01*
X217264Y21463D01*
X218531Y22194D01*
X219944Y22573D01*
X220670Y22573D01*
X220670Y17023D01*
X215120Y17023D01*
G37*
%LPD*%
%LPC*%
G36*
X87430Y333098D02*
X87430Y333098D01*
X87430Y333824D01*
X87808Y335237D01*
X88540Y336503D01*
X89574Y337538D01*
X90841Y338269D01*
X92254Y338648D01*
X92980Y338648D01*
X92980Y333098D01*
X87430Y333098D01*
G37*
%LPD*%
%LPC*%
G36*
X765186Y205532D02*
X765186Y205532D01*
X765186Y206258D01*
X765565Y207671D01*
X766296Y208938D01*
X767330Y209972D01*
X768597Y210704D01*
X770010Y211082D01*
X770736Y211082D01*
X770736Y205532D01*
X765186Y205532D01*
G37*
%LPD*%
%LPC*%
G36*
X764907Y415013D02*
X764907Y415013D01*
X764907Y415740D01*
X765286Y417152D01*
X766017Y418419D01*
X767052Y419453D01*
X768318Y420185D01*
X769731Y420563D01*
X770458Y420563D01*
X770458Y415013D01*
X764907Y415013D01*
G37*
%LPD*%
%LPC*%
G36*
X282979Y411127D02*
X282979Y411127D01*
X282979Y411853D01*
X283358Y413266D01*
X284089Y414533D01*
X285123Y415567D01*
X286390Y416298D01*
X287803Y416677D01*
X288529Y416677D01*
X288529Y411127D01*
X282979Y411127D01*
G37*
%LPD*%
%LPC*%
G36*
X107178Y89307D02*
X107178Y89307D01*
X107178Y90033D01*
X107556Y91446D01*
X108288Y92713D01*
X109322Y93747D01*
X110589Y94478D01*
X112001Y94857D01*
X112728Y94857D01*
X112728Y89307D01*
X107178Y89307D01*
G37*
%LPD*%
%LPC*%
G36*
X454873Y405048D02*
X454873Y405048D01*
X454873Y405774D01*
X455251Y407187D01*
X455983Y408454D01*
X457017Y409488D01*
X458284Y410220D01*
X459697Y410598D01*
X460423Y410598D01*
X460423Y405048D01*
X454873Y405048D01*
G37*
%LPD*%
%LPC*%
G36*
X764547Y310605D02*
X764547Y310605D01*
X764547Y311331D01*
X764925Y312744D01*
X765657Y314011D01*
X766691Y315045D01*
X767958Y315776D01*
X769371Y316155D01*
X770097Y316155D01*
X770097Y310605D01*
X764547Y310605D01*
G37*
%LPD*%
%LPC*%
G36*
X764878Y241249D02*
X764878Y241249D01*
X764878Y241975D01*
X765257Y243388D01*
X765988Y244655D01*
X767023Y245689D01*
X768289Y246421D01*
X769702Y246799D01*
X770428Y246799D01*
X770428Y241249D01*
X764878Y241249D01*
G37*
%LPD*%
%LPC*%
G36*
X43618Y208997D02*
X43618Y208997D01*
X43618Y214547D01*
X49168Y214547D01*
X49168Y213820D01*
X48790Y212408D01*
X48058Y211141D01*
X47024Y210107D01*
X45757Y209375D01*
X44344Y208997D01*
X43618Y208997D01*
G37*
%LPD*%
%LPC*%
G36*
X770508Y340406D02*
X770508Y340406D01*
X770508Y345956D01*
X776058Y345956D01*
X776058Y345230D01*
X775680Y343817D01*
X774948Y342550D01*
X773914Y341516D01*
X772647Y340785D01*
X771235Y340406D01*
X770508Y340406D01*
G37*
%LPD*%
%LPC*%
G36*
X770468Y409453D02*
X770468Y409453D01*
X770468Y415003D01*
X776018Y415003D01*
X776018Y414277D01*
X775639Y412864D01*
X774908Y411597D01*
X773874Y410563D01*
X772607Y409831D01*
X771194Y409453D01*
X770468Y409453D01*
G37*
%LPD*%
%LPC*%
G36*
X770746Y199972D02*
X770746Y199972D01*
X770746Y205522D01*
X776297Y205522D01*
X776297Y204796D01*
X775918Y203383D01*
X775187Y202116D01*
X774152Y201082D01*
X772886Y200350D01*
X771473Y199972D01*
X770746Y199972D01*
G37*
%LPD*%
%LPC*%
G36*
X770639Y270020D02*
X770639Y270020D01*
X770639Y275570D01*
X776189Y275570D01*
X776189Y274844D01*
X775811Y273431D01*
X775079Y272165D01*
X774045Y271130D01*
X772778Y270399D01*
X771366Y270020D01*
X770639Y270020D01*
G37*
%LPD*%
%LPC*%
G36*
X770570Y374892D02*
X770570Y374892D01*
X770570Y380442D01*
X776120Y380442D01*
X776120Y379716D01*
X775741Y378303D01*
X775010Y377036D01*
X773975Y376002D01*
X772709Y375270D01*
X771296Y374892D01*
X770570Y374892D01*
G37*
%LPD*%
%LPC*%
G36*
X770107Y305045D02*
X770107Y305045D01*
X770107Y310595D01*
X775657Y310595D01*
X775657Y309868D01*
X775279Y308456D01*
X774547Y307189D01*
X773513Y306155D01*
X772246Y305423D01*
X770834Y305045D01*
X770107Y305045D01*
G37*
%LPD*%
%LPC*%
G36*
X112738Y83747D02*
X112738Y83747D01*
X112738Y89297D01*
X118288Y89297D01*
X118288Y88570D01*
X117909Y87157D01*
X117178Y85891D01*
X116144Y84856D01*
X114877Y84125D01*
X113464Y83747D01*
X112738Y83747D01*
G37*
%LPD*%
%LPC*%
G36*
X288539Y405567D02*
X288539Y405567D01*
X288539Y411117D01*
X294090Y411117D01*
X294090Y410391D01*
X293711Y408978D01*
X292980Y407711D01*
X291945Y406677D01*
X290679Y405945D01*
X289266Y405567D01*
X288539Y405567D01*
G37*
%LPD*%
%LPC*%
G36*
X92990Y327537D02*
X92990Y327537D01*
X92990Y333087D01*
X98540Y333087D01*
X98540Y332361D01*
X98162Y330948D01*
X97430Y329681D01*
X96396Y328647D01*
X95129Y327916D01*
X93716Y327537D01*
X92990Y327537D01*
G37*
%LPD*%
%LPC*%
G36*
X770439Y235689D02*
X770439Y235689D01*
X770439Y241239D01*
X775989Y241239D01*
X775989Y240513D01*
X775610Y239100D01*
X774879Y237833D01*
X773844Y236799D01*
X772578Y236067D01*
X771165Y235689D01*
X770439Y235689D01*
G37*
%LPD*%
%LPC*%
G36*
X460433Y399488D02*
X460433Y399488D01*
X460433Y405038D01*
X465983Y405038D01*
X465983Y404312D01*
X465605Y402899D01*
X464873Y401632D01*
X463839Y400598D01*
X462572Y399866D01*
X461159Y399488D01*
X460433Y399488D01*
G37*
%LPD*%
%LPC*%
G36*
X769772Y340406D02*
X769772Y340406D01*
X768359Y340785D01*
X767092Y341516D01*
X766058Y342550D01*
X765326Y343817D01*
X764948Y345230D01*
X764948Y345956D01*
X770498Y345956D01*
X770498Y340406D01*
X769772Y340406D01*
G37*
%LPD*%
%LPC*%
G36*
X220680Y11462D02*
X220680Y11462D01*
X220680Y17012D01*
X226230Y17012D01*
X226230Y16286D01*
X225852Y14873D01*
X225120Y13606D01*
X224086Y12572D01*
X222819Y11841D01*
X221406Y11462D01*
X220680Y11462D01*
G37*
%LPD*%
%LPC*%
G36*
X287803Y405567D02*
X287803Y405567D01*
X286390Y405945D01*
X285123Y406677D01*
X284089Y407711D01*
X283358Y408978D01*
X282979Y410390D01*
X282979Y411117D01*
X288529Y411117D01*
X288529Y405567D01*
X287803Y405567D01*
G37*
%LPD*%
%LPC*%
G36*
X769833Y374892D02*
X769833Y374892D01*
X768420Y375270D01*
X767154Y376002D01*
X766119Y377036D01*
X765388Y378303D01*
X765009Y379716D01*
X765009Y380442D01*
X770559Y380442D01*
X770559Y374892D01*
X769833Y374892D01*
G37*
%LPD*%
%LPC*%
G36*
X769371Y305045D02*
X769371Y305045D01*
X767958Y305423D01*
X766691Y306155D01*
X765657Y307189D01*
X764925Y308456D01*
X764547Y309868D01*
X764547Y310595D01*
X770097Y310595D01*
X770097Y305045D01*
X769371Y305045D01*
G37*
%LPD*%
%LPC*%
G36*
X112001Y83747D02*
X112001Y83747D01*
X110589Y84125D01*
X109322Y84856D01*
X108288Y85891D01*
X107556Y87157D01*
X107178Y88570D01*
X107178Y89297D01*
X112728Y89297D01*
X112728Y83747D01*
X112001Y83747D01*
G37*
%LPD*%
%LPC*%
G36*
X770010Y199972D02*
X770010Y199972D01*
X768597Y200350D01*
X767330Y201082D01*
X766296Y202116D01*
X765565Y203383D01*
X765186Y204796D01*
X765186Y205522D01*
X770736Y205522D01*
X770736Y199972D01*
X770010Y199972D01*
G37*
%LPD*%
%LPC*%
G36*
X769731Y409453D02*
X769731Y409453D01*
X768318Y409831D01*
X767052Y410563D01*
X766017Y411597D01*
X765286Y412864D01*
X764907Y414277D01*
X764907Y415003D01*
X770458Y415003D01*
X770458Y409453D01*
X769731Y409453D01*
G37*
%LPD*%
%LPC*%
G36*
X42881Y208997D02*
X42881Y208997D01*
X41469Y209375D01*
X40202Y210107D01*
X39168Y211141D01*
X38436Y212408D01*
X38058Y213820D01*
X38058Y214547D01*
X43608Y214547D01*
X43608Y208997D01*
X42881Y208997D01*
G37*
%LPD*%
%LPC*%
G36*
X769903Y270020D02*
X769903Y270020D01*
X768490Y270399D01*
X767223Y271130D01*
X766189Y272165D01*
X765458Y273431D01*
X765079Y274844D01*
X765079Y275570D01*
X770629Y275570D01*
X770629Y270020D01*
X769903Y270020D01*
G37*
%LPD*%
%LPC*%
G36*
X769702Y235689D02*
X769702Y235689D01*
X768289Y236067D01*
X767023Y236799D01*
X765988Y237833D01*
X765257Y239100D01*
X764878Y240513D01*
X764878Y241239D01*
X770428Y241239D01*
X770428Y235689D01*
X769702Y235689D01*
G37*
%LPD*%
%LPC*%
G36*
X92254Y327537D02*
X92254Y327537D01*
X90841Y327916D01*
X89574Y328647D01*
X88540Y329681D01*
X87808Y330948D01*
X87430Y332361D01*
X87430Y333087D01*
X92980Y333087D01*
X92980Y327537D01*
X92254Y327537D01*
G37*
%LPD*%
%LPC*%
G36*
X459697Y399488D02*
X459697Y399488D01*
X458284Y399866D01*
X457017Y400598D01*
X455983Y401632D01*
X455251Y402899D01*
X454873Y404312D01*
X454873Y405038D01*
X460423Y405038D01*
X460423Y399488D01*
X459697Y399488D01*
G37*
%LPD*%
%LPC*%
G36*
X219944Y11462D02*
X219944Y11462D01*
X218531Y11841D01*
X217264Y12572D01*
X216230Y13606D01*
X215498Y14873D01*
X215120Y16286D01*
X215120Y17012D01*
X220670Y17012D01*
X220670Y11462D01*
X219944Y11462D01*
G37*
%LPD*%
%LPC*%
G36*
X457837Y225490D02*
X457837Y225490D01*
X457837Y230111D01*
X458584Y229962D01*
X459596Y229543D01*
X460507Y228935D01*
X461282Y228160D01*
X461890Y227249D01*
X462309Y226237D01*
X462458Y225490D01*
X457837Y225490D01*
G37*
%LPD*%
%LPC*%
G36*
X374575Y54073D02*
X374575Y54073D01*
X374575Y58695D01*
X375323Y58546D01*
X376335Y58127D01*
X377246Y57518D01*
X378020Y56744D01*
X378629Y55833D01*
X379048Y54821D01*
X379197Y54073D01*
X374575Y54073D01*
G37*
%LPD*%
%LPC*%
G36*
X569062Y183802D02*
X569062Y183802D01*
X569062Y188424D01*
X569810Y188275D01*
X570822Y187856D01*
X571733Y187247D01*
X572507Y186473D01*
X573116Y185562D01*
X573535Y184550D01*
X573684Y183802D01*
X569062Y183802D01*
G37*
%LPD*%
%LPC*%
G36*
X627798Y63127D02*
X627798Y63127D01*
X627798Y67749D01*
X628546Y67600D01*
X629558Y67181D01*
X630469Y66572D01*
X631243Y65798D01*
X631852Y64887D01*
X632271Y63875D01*
X632420Y63127D01*
X627798Y63127D01*
G37*
%LPD*%
%LPC*%
G36*
X520890Y334796D02*
X520890Y334796D01*
X520890Y339418D01*
X521638Y339269D01*
X522650Y338850D01*
X523561Y338241D01*
X524335Y337467D01*
X524944Y336556D01*
X525363Y335544D01*
X525512Y334796D01*
X520890Y334796D01*
G37*
%LPD*%
%LPC*%
G36*
X416146Y124234D02*
X416146Y124234D01*
X416146Y128855D01*
X416894Y128706D01*
X417906Y128287D01*
X418816Y127679D01*
X419591Y126904D01*
X420200Y125993D01*
X420619Y124981D01*
X420767Y124234D01*
X416146Y124234D01*
G37*
%LPD*%
%LPC*%
G36*
X419547Y103018D02*
X419547Y103018D01*
X419547Y107640D01*
X420295Y107491D01*
X421307Y107072D01*
X422218Y106463D01*
X422992Y105689D01*
X423601Y104778D01*
X424020Y103766D01*
X424169Y103018D01*
X419547Y103018D01*
G37*
%LPD*%
%LPC*%
G36*
X273190Y135583D02*
X273190Y135583D01*
X273190Y140204D01*
X273938Y140056D01*
X274950Y139637D01*
X275860Y139028D01*
X276635Y138254D01*
X277243Y137343D01*
X277663Y136331D01*
X277811Y135583D01*
X273190Y135583D01*
G37*
%LPD*%
%LPC*%
G36*
X440992Y263232D02*
X440992Y263232D01*
X440992Y267853D01*
X441740Y267705D01*
X442752Y267286D01*
X443663Y266677D01*
X444437Y265903D01*
X445046Y264992D01*
X445465Y263980D01*
X445614Y263232D01*
X440992Y263232D01*
G37*
%LPD*%
%LPC*%
G36*
X537906Y367212D02*
X537906Y367212D01*
X537906Y371833D01*
X538654Y371684D01*
X539666Y371265D01*
X540577Y370657D01*
X541351Y369882D01*
X541960Y368971D01*
X542379Y367959D01*
X542528Y367212D01*
X537906Y367212D01*
G37*
%LPD*%
%LPC*%
G36*
X658321Y85994D02*
X658321Y85994D01*
X658321Y90616D01*
X659069Y90467D01*
X660081Y90048D01*
X660992Y89439D01*
X661766Y88665D01*
X662375Y87754D01*
X662794Y86742D01*
X662942Y85994D01*
X658321Y85994D01*
G37*
%LPD*%
%LPC*%
G36*
X350408Y366846D02*
X350408Y366846D01*
X350408Y371468D01*
X351156Y371319D01*
X352168Y370900D01*
X353078Y370291D01*
X353853Y369517D01*
X354461Y368606D01*
X354881Y367594D01*
X355029Y366846D01*
X350408Y366846D01*
G37*
%LPD*%
%LPC*%
G36*
X313985Y265161D02*
X313985Y265161D01*
X313985Y269783D01*
X314733Y269634D01*
X315744Y269215D01*
X316655Y268606D01*
X317430Y267832D01*
X318038Y266921D01*
X318458Y265909D01*
X318606Y265161D01*
X313985Y265161D01*
G37*
%LPD*%
%LPC*%
G36*
X360672Y265878D02*
X360672Y265878D01*
X360672Y270500D01*
X361419Y270351D01*
X362431Y269932D01*
X363342Y269323D01*
X364117Y268549D01*
X364725Y267638D01*
X365145Y266626D01*
X365293Y265878D01*
X360672Y265878D01*
G37*
%LPD*%
%LPC*%
G36*
X426986Y307895D02*
X426986Y307895D01*
X426986Y312517D01*
X427734Y312368D01*
X428746Y311949D01*
X429657Y311340D01*
X430431Y310566D01*
X431040Y309655D01*
X431459Y308643D01*
X431608Y307895D01*
X426986Y307895D01*
G37*
%LPD*%
%LPC*%
G36*
X385858Y266053D02*
X385858Y266053D01*
X385858Y270674D01*
X386605Y270525D01*
X387617Y270106D01*
X388528Y269498D01*
X389303Y268723D01*
X389911Y267812D01*
X390331Y266800D01*
X390479Y266053D01*
X385858Y266053D01*
G37*
%LPD*%
%LPC*%
G36*
X407578Y356280D02*
X407578Y356280D01*
X407578Y360902D01*
X408326Y360753D01*
X409338Y360334D01*
X410249Y359725D01*
X411023Y358951D01*
X411632Y358040D01*
X412051Y357028D01*
X412200Y356280D01*
X407578Y356280D01*
G37*
%LPD*%
%LPC*%
G36*
X271423Y282697D02*
X271423Y282697D01*
X271423Y287319D01*
X272171Y287170D01*
X273183Y286751D01*
X274094Y286142D01*
X274868Y285368D01*
X275477Y284457D01*
X275896Y283445D01*
X276045Y282697D01*
X271423Y282697D01*
G37*
%LPD*%
%LPC*%
G36*
X552883Y352718D02*
X552883Y352718D01*
X552883Y357339D01*
X553631Y357190D01*
X554643Y356771D01*
X555553Y356163D01*
X556328Y355388D01*
X556936Y354477D01*
X557356Y353465D01*
X557504Y352718D01*
X552883Y352718D01*
G37*
%LPD*%
%LPC*%
G36*
X651951Y85994D02*
X651951Y85994D01*
X652100Y86742D01*
X652519Y87754D01*
X653127Y88665D01*
X653902Y89439D01*
X654813Y90048D01*
X655825Y90467D01*
X656572Y90616D01*
X656572Y85994D01*
X651951Y85994D01*
G37*
%LPD*%
%LPC*%
G36*
X440992Y261483D02*
X440992Y261483D01*
X445614Y261483D01*
X445465Y260736D01*
X445046Y259724D01*
X444437Y258813D01*
X443663Y258038D01*
X442752Y257430D01*
X441740Y257011D01*
X440992Y256862D01*
X440992Y261483D01*
G37*
%LPD*%
%LPC*%
G36*
X420616Y307895D02*
X420616Y307895D01*
X420765Y308643D01*
X421184Y309655D01*
X421793Y310566D01*
X422567Y311340D01*
X423478Y311949D01*
X424490Y312368D01*
X425238Y312517D01*
X425238Y307895D01*
X420616Y307895D01*
G37*
%LPD*%
%LPC*%
G36*
X658321Y84246D02*
X658321Y84246D01*
X662942Y84246D01*
X662794Y83498D01*
X662375Y82486D01*
X661766Y81575D01*
X660992Y80801D01*
X660081Y80192D01*
X659069Y79773D01*
X658321Y79624D01*
X658321Y84246D01*
G37*
%LPD*%
%LPC*%
G36*
X407578Y354532D02*
X407578Y354532D01*
X412200Y354532D01*
X412051Y353784D01*
X411632Y352772D01*
X411023Y351861D01*
X410249Y351087D01*
X409338Y350478D01*
X408326Y350059D01*
X407578Y349910D01*
X407578Y354532D01*
G37*
%LPD*%
%LPC*%
G36*
X621428Y63127D02*
X621428Y63127D01*
X621577Y63875D01*
X621996Y64887D01*
X622605Y65798D01*
X623379Y66572D01*
X624290Y67181D01*
X625302Y67600D01*
X626050Y67749D01*
X626050Y63127D01*
X621428Y63127D01*
G37*
%LPD*%
%LPC*%
G36*
X360672Y264130D02*
X360672Y264130D01*
X365293Y264130D01*
X365145Y263382D01*
X364725Y262370D01*
X364117Y261459D01*
X363342Y260685D01*
X362431Y260076D01*
X361419Y259657D01*
X360672Y259508D01*
X360672Y264130D01*
G37*
%LPD*%
%LPC*%
G36*
X627798Y61379D02*
X627798Y61379D01*
X632420Y61379D01*
X632271Y60631D01*
X631852Y59619D01*
X631243Y58708D01*
X630469Y57934D01*
X629558Y57325D01*
X628546Y56906D01*
X627798Y56757D01*
X627798Y61379D01*
G37*
%LPD*%
%LPC*%
G36*
X305932Y54187D02*
X305932Y54187D01*
X306081Y54935D01*
X306500Y55947D01*
X307109Y56857D01*
X307883Y57632D01*
X308794Y58240D01*
X309806Y58660D01*
X310554Y58808D01*
X310554Y54187D01*
X305932Y54187D01*
G37*
%LPD*%
%LPC*%
G36*
X368205Y54073D02*
X368205Y54073D01*
X368354Y54821D01*
X368773Y55833D01*
X369382Y56744D01*
X370156Y57518D01*
X371067Y58127D01*
X372079Y58546D01*
X372827Y58695D01*
X372827Y54073D01*
X368205Y54073D01*
G37*
%LPD*%
%LPC*%
G36*
X313985Y263413D02*
X313985Y263413D01*
X318606Y263413D01*
X318458Y262665D01*
X318038Y261653D01*
X317430Y260742D01*
X316655Y259968D01*
X315744Y259359D01*
X314733Y258940D01*
X313985Y258791D01*
X313985Y263413D01*
G37*
%LPD*%
%LPC*%
G36*
X312302Y52438D02*
X312302Y52438D01*
X316924Y52438D01*
X316775Y51691D01*
X316356Y50679D01*
X315747Y49768D01*
X314973Y48993D01*
X314062Y48385D01*
X313050Y47966D01*
X312302Y47817D01*
X312302Y52438D01*
G37*
%LPD*%
%LPC*%
G36*
X374575Y52324D02*
X374575Y52324D01*
X379197Y52324D01*
X379048Y51577D01*
X378629Y50565D01*
X378020Y49654D01*
X377246Y48880D01*
X376335Y48271D01*
X375323Y47852D01*
X374575Y47703D01*
X374575Y52324D01*
G37*
%LPD*%
%LPC*%
G36*
X520890Y333048D02*
X520890Y333048D01*
X525512Y333048D01*
X525363Y332300D01*
X524944Y331288D01*
X524335Y330377D01*
X523561Y329603D01*
X522650Y328994D01*
X521638Y328575D01*
X520890Y328426D01*
X520890Y333048D01*
G37*
%LPD*%
%LPC*%
G36*
X385858Y264304D02*
X385858Y264304D01*
X390479Y264304D01*
X390331Y263556D01*
X389911Y262544D01*
X389303Y261634D01*
X388528Y260859D01*
X387617Y260251D01*
X386605Y259831D01*
X385858Y259683D01*
X385858Y264304D01*
G37*
%LPD*%
%LPC*%
G36*
X426986Y306147D02*
X426986Y306147D01*
X431608Y306147D01*
X431459Y305399D01*
X431040Y304387D01*
X430431Y303476D01*
X429657Y302702D01*
X428746Y302093D01*
X427734Y301674D01*
X426986Y301525D01*
X426986Y306147D01*
G37*
%LPD*%
%LPC*%
G36*
X434622Y263232D02*
X434622Y263232D01*
X434771Y263980D01*
X435190Y264992D01*
X435799Y265903D01*
X436573Y266677D01*
X437484Y267286D01*
X438496Y267705D01*
X439244Y267853D01*
X439244Y263232D01*
X434622Y263232D01*
G37*
%LPD*%
%LPC*%
G36*
X297220Y264162D02*
X297220Y264162D01*
X297368Y264910D01*
X297787Y265922D01*
X298396Y266833D01*
X299171Y267607D01*
X300081Y268216D01*
X301093Y268635D01*
X301841Y268784D01*
X301841Y264162D01*
X297220Y264162D01*
G37*
%LPD*%
%LPC*%
G36*
X354302Y265878D02*
X354302Y265878D01*
X354450Y266626D01*
X354870Y267638D01*
X355478Y268549D01*
X356253Y269323D01*
X357164Y269932D01*
X358175Y270351D01*
X358923Y270500D01*
X358923Y265878D01*
X354302Y265878D01*
G37*
%LPD*%
%LPC*%
G36*
X379488Y266053D02*
X379488Y266053D01*
X379636Y266800D01*
X380056Y267812D01*
X380664Y268723D01*
X381439Y269498D01*
X382350Y270106D01*
X383361Y270525D01*
X384109Y270674D01*
X384109Y266053D01*
X379488Y266053D01*
G37*
%LPD*%
%LPC*%
G36*
X271423Y280948D02*
X271423Y280948D01*
X276045Y280948D01*
X275896Y280201D01*
X275477Y279189D01*
X274868Y278278D01*
X274094Y277504D01*
X273183Y276895D01*
X272171Y276476D01*
X271423Y276327D01*
X271423Y280948D01*
G37*
%LPD*%
%LPC*%
G36*
X265053Y282697D02*
X265053Y282697D01*
X265202Y283445D01*
X265621Y284457D01*
X266230Y285368D01*
X267004Y286142D01*
X267915Y286751D01*
X268927Y287170D01*
X269675Y287319D01*
X269675Y282697D01*
X265053Y282697D01*
G37*
%LPD*%
%LPC*%
G36*
X537906Y365463D02*
X537906Y365463D01*
X542528Y365463D01*
X542379Y364715D01*
X541960Y363703D01*
X541351Y362793D01*
X540577Y362018D01*
X539666Y361410D01*
X538654Y360990D01*
X537906Y360842D01*
X537906Y365463D01*
G37*
%LPD*%
%LPC*%
G36*
X451467Y225490D02*
X451467Y225490D01*
X451615Y226237D01*
X452034Y227249D01*
X452643Y228160D01*
X453417Y228935D01*
X454328Y229543D01*
X455340Y229962D01*
X456088Y230111D01*
X456088Y225490D01*
X451467Y225490D01*
G37*
%LPD*%
%LPC*%
G36*
X266820Y135583D02*
X266820Y135583D01*
X266969Y136331D01*
X267388Y137343D01*
X267996Y138254D01*
X268771Y139028D01*
X269682Y139637D01*
X270694Y140056D01*
X271441Y140204D01*
X271441Y135583D01*
X266820Y135583D01*
G37*
%LPD*%
%LPC*%
G36*
X416146Y122485D02*
X416146Y122485D01*
X420767Y122485D01*
X420619Y121737D01*
X420200Y120725D01*
X419591Y119815D01*
X418816Y119040D01*
X417906Y118431D01*
X416894Y118012D01*
X416146Y117864D01*
X416146Y122485D01*
G37*
%LPD*%
%LPC*%
G36*
X569062Y182054D02*
X569062Y182054D01*
X573684Y182054D01*
X573535Y181306D01*
X573116Y180294D01*
X572507Y179383D01*
X571733Y178609D01*
X570822Y178000D01*
X569810Y177581D01*
X569062Y177432D01*
X569062Y182054D01*
G37*
%LPD*%
%LPC*%
G36*
X344038Y366846D02*
X344038Y366846D01*
X344187Y367594D01*
X344606Y368606D01*
X345214Y369517D01*
X345989Y370291D01*
X346900Y370900D01*
X347912Y371319D01*
X348659Y371468D01*
X348659Y366846D01*
X344038Y366846D01*
G37*
%LPD*%
%LPC*%
G36*
X552883Y350969D02*
X552883Y350969D01*
X557504Y350969D01*
X557356Y350221D01*
X556936Y349209D01*
X556328Y348298D01*
X555553Y347524D01*
X554643Y346915D01*
X553631Y346496D01*
X552883Y346348D01*
X552883Y350969D01*
G37*
%LPD*%
%LPC*%
G36*
X531536Y367212D02*
X531536Y367212D01*
X531685Y367959D01*
X532104Y368971D01*
X532713Y369882D01*
X533487Y370657D01*
X534398Y371265D01*
X535410Y371684D01*
X536158Y371833D01*
X536158Y367212D01*
X531536Y367212D01*
G37*
%LPD*%
%LPC*%
G36*
X253154Y118987D02*
X253154Y118987D01*
X253303Y119734D01*
X253722Y120746D01*
X254331Y121657D01*
X255105Y122432D01*
X256016Y123040D01*
X257028Y123459D01*
X257776Y123608D01*
X257776Y118987D01*
X253154Y118987D01*
G37*
%LPD*%
%LPC*%
G36*
X562692Y183802D02*
X562692Y183802D01*
X562841Y184550D01*
X563260Y185562D01*
X563869Y186473D01*
X564643Y187247D01*
X565554Y187856D01*
X566566Y188275D01*
X567313Y188424D01*
X567313Y183802D01*
X562692Y183802D01*
G37*
%LPD*%
%LPC*%
G36*
X514520Y334796D02*
X514520Y334796D01*
X514669Y335544D01*
X515088Y336556D01*
X515697Y337467D01*
X516471Y338241D01*
X517382Y338850D01*
X518394Y339269D01*
X519142Y339418D01*
X519142Y334796D01*
X514520Y334796D01*
G37*
%LPD*%
%LPC*%
G36*
X409776Y124234D02*
X409776Y124234D01*
X409925Y124981D01*
X410344Y125993D01*
X410952Y126904D01*
X411727Y127679D01*
X412638Y128287D01*
X413650Y128706D01*
X414397Y128855D01*
X414397Y124234D01*
X409776Y124234D01*
G37*
%LPD*%
%LPC*%
G36*
X350408Y365098D02*
X350408Y365098D01*
X355029Y365098D01*
X354881Y364350D01*
X354461Y363338D01*
X353853Y362427D01*
X353078Y361653D01*
X352168Y361044D01*
X351156Y360625D01*
X350408Y360476D01*
X350408Y365098D01*
G37*
%LPD*%
%LPC*%
G36*
X413177Y103018D02*
X413177Y103018D01*
X413326Y103766D01*
X413745Y104778D01*
X414354Y105689D01*
X415128Y106463D01*
X416039Y107072D01*
X417051Y107491D01*
X417799Y107640D01*
X417799Y103018D01*
X413177Y103018D01*
G37*
%LPD*%
%LPC*%
G36*
X457837Y223741D02*
X457837Y223741D01*
X462458Y223741D01*
X462309Y222993D01*
X461890Y221981D01*
X461282Y221070D01*
X460507Y220296D01*
X459596Y219687D01*
X458584Y219268D01*
X457837Y219120D01*
X457837Y223741D01*
G37*
%LPD*%
%LPC*%
G36*
X350489Y379604D02*
X350489Y379604D01*
X355110Y379604D01*
X354962Y378856D01*
X354542Y377844D01*
X353934Y376933D01*
X353159Y376159D01*
X352248Y375550D01*
X351236Y375131D01*
X350489Y374982D01*
X350489Y379604D01*
G37*
%LPD*%
%LPC*%
G36*
X401208Y356280D02*
X401208Y356280D01*
X401357Y357028D01*
X401776Y358040D01*
X402385Y358951D01*
X403159Y359725D01*
X404070Y360334D01*
X405082Y360753D01*
X405830Y360902D01*
X405830Y356280D01*
X401208Y356280D01*
G37*
%LPD*%
%LPC*%
G36*
X546513Y352718D02*
X546513Y352718D01*
X546662Y353465D01*
X547081Y354477D01*
X547689Y355388D01*
X548464Y356163D01*
X549375Y356771D01*
X550387Y357190D01*
X551134Y357339D01*
X551134Y352718D01*
X546513Y352718D01*
G37*
%LPD*%
%LPC*%
G36*
X419547Y101270D02*
X419547Y101270D01*
X424169Y101270D01*
X424020Y100522D01*
X423601Y99510D01*
X422992Y98599D01*
X422218Y97825D01*
X421307Y97216D01*
X420295Y96797D01*
X419547Y96648D01*
X419547Y101270D01*
G37*
%LPD*%
%LPC*%
G36*
X535410Y360990D02*
X535410Y360990D01*
X534398Y361410D01*
X533487Y362018D01*
X532713Y362793D01*
X532104Y363703D01*
X531685Y364715D01*
X531536Y365463D01*
X536158Y365463D01*
X536158Y360842D01*
X535410Y360990D01*
G37*
%LPD*%
%LPC*%
G36*
X383361Y259831D02*
X383361Y259831D01*
X382350Y260251D01*
X381439Y260859D01*
X380664Y261634D01*
X380056Y262544D01*
X379636Y263556D01*
X379488Y264304D01*
X384109Y264304D01*
X384109Y259683D01*
X383361Y259831D01*
G37*
%LPD*%
%LPC*%
G36*
X566566Y177581D02*
X566566Y177581D01*
X565554Y178000D01*
X564643Y178609D01*
X563869Y179383D01*
X563260Y180294D01*
X562841Y181306D01*
X562692Y182054D01*
X567313Y182054D01*
X567313Y177432D01*
X566566Y177581D01*
G37*
%LPD*%
%LPC*%
G36*
X413650Y118012D02*
X413650Y118012D01*
X412638Y118431D01*
X411727Y119040D01*
X410952Y119815D01*
X410344Y120725D01*
X409925Y121737D01*
X409776Y122485D01*
X414397Y122485D01*
X414397Y117864D01*
X413650Y118012D01*
G37*
%LPD*%
%LPC*%
G36*
X347912Y360625D02*
X347912Y360625D01*
X346900Y361044D01*
X345989Y361653D01*
X345214Y362427D01*
X344606Y363338D01*
X344187Y364350D01*
X344038Y365098D01*
X348659Y365098D01*
X348659Y360476D01*
X347912Y360625D01*
G37*
%LPD*%
%LPC*%
G36*
X268927Y276476D02*
X268927Y276476D01*
X267915Y276895D01*
X267004Y277504D01*
X266230Y278278D01*
X265621Y279189D01*
X265202Y280201D01*
X265053Y280948D01*
X269675Y280948D01*
X269675Y276327D01*
X268927Y276476D01*
G37*
%LPD*%
%LPC*%
G36*
X405082Y350059D02*
X405082Y350059D01*
X404070Y350478D01*
X403159Y351087D01*
X402385Y351861D01*
X401776Y352772D01*
X401357Y353784D01*
X401208Y354532D01*
X405830Y354532D01*
X405830Y349910D01*
X405082Y350059D01*
G37*
%LPD*%
%LPC*%
G36*
X347992Y375131D02*
X347992Y375131D01*
X346981Y375550D01*
X346070Y376159D01*
X345295Y376933D01*
X344687Y377844D01*
X344267Y378856D01*
X344119Y379604D01*
X348740Y379604D01*
X348740Y374982D01*
X347992Y375131D01*
G37*
%LPD*%
%LPC*%
G36*
X358175Y259657D02*
X358175Y259657D01*
X357164Y260076D01*
X356253Y260685D01*
X355478Y261459D01*
X354870Y262370D01*
X354450Y263382D01*
X354302Y264130D01*
X358923Y264130D01*
X358923Y259508D01*
X358175Y259657D01*
G37*
%LPD*%
%LPC*%
G36*
X372079Y47852D02*
X372079Y47852D01*
X371067Y48271D01*
X370156Y48880D01*
X369382Y49654D01*
X368773Y50565D01*
X368354Y51577D01*
X368205Y52324D01*
X372827Y52324D01*
X372827Y47703D01*
X372079Y47852D01*
G37*
%LPD*%
%LPC*%
G36*
X309806Y47966D02*
X309806Y47966D01*
X308794Y48385D01*
X307883Y48993D01*
X307109Y49768D01*
X306500Y50679D01*
X306081Y51691D01*
X305932Y52438D01*
X310554Y52438D01*
X310554Y47817D01*
X309806Y47966D01*
G37*
%LPD*%
%LPC*%
G36*
X550387Y346496D02*
X550387Y346496D01*
X549375Y346915D01*
X548464Y347524D01*
X547689Y348298D01*
X547081Y349209D01*
X546662Y350221D01*
X546513Y350969D01*
X551134Y350969D01*
X551134Y346348D01*
X550387Y346496D01*
G37*
%LPD*%
%LPC*%
G36*
X625302Y56906D02*
X625302Y56906D01*
X624290Y57325D01*
X623379Y57934D01*
X622605Y58708D01*
X621996Y59619D01*
X621577Y60631D01*
X621428Y61379D01*
X626050Y61379D01*
X626050Y56757D01*
X625302Y56906D01*
G37*
%LPD*%
%LPC*%
G36*
X257028Y112765D02*
X257028Y112765D01*
X256016Y113184D01*
X255105Y113793D01*
X254331Y114567D01*
X253722Y115478D01*
X253303Y116490D01*
X253154Y117238D01*
X257776Y117238D01*
X257776Y112617D01*
X257028Y112765D01*
G37*
%LPD*%
%LPC*%
G36*
X301093Y257941D02*
X301093Y257941D01*
X300081Y258360D01*
X299171Y258969D01*
X298396Y259743D01*
X297787Y260654D01*
X297368Y261666D01*
X297220Y262414D01*
X301841Y262414D01*
X301841Y257792D01*
X301093Y257941D01*
G37*
%LPD*%
%LPC*%
G36*
X438496Y257011D02*
X438496Y257011D01*
X437484Y257430D01*
X436573Y258038D01*
X435799Y258813D01*
X435190Y259724D01*
X434771Y260736D01*
X434622Y261483D01*
X439244Y261483D01*
X439244Y256862D01*
X438496Y257011D01*
G37*
%LPD*%
%LPC*%
G36*
X655825Y79773D02*
X655825Y79773D01*
X654813Y80192D01*
X653902Y80801D01*
X653127Y81575D01*
X652519Y82486D01*
X652100Y83498D01*
X651951Y84246D01*
X656572Y84246D01*
X656572Y79624D01*
X655825Y79773D01*
G37*
%LPD*%
%LPC*%
G36*
X424490Y301674D02*
X424490Y301674D01*
X423478Y302093D01*
X422567Y302702D01*
X421793Y303476D01*
X421184Y304387D01*
X420765Y305399D01*
X420616Y306147D01*
X425238Y306147D01*
X425238Y301525D01*
X424490Y301674D01*
G37*
%LPD*%
%LPC*%
G36*
X455340Y219268D02*
X455340Y219268D01*
X454328Y219687D01*
X453417Y220296D01*
X452643Y221070D01*
X452034Y221981D01*
X451615Y222993D01*
X451467Y223741D01*
X456088Y223741D01*
X456088Y219120D01*
X455340Y219268D01*
G37*
%LPD*%
%LPC*%
G36*
X417051Y96797D02*
X417051Y96797D01*
X416039Y97216D01*
X415128Y97825D01*
X414354Y98599D01*
X413745Y99510D01*
X413326Y100522D01*
X413177Y101270D01*
X417799Y101270D01*
X417799Y96648D01*
X417051Y96797D01*
G37*
%LPD*%
%LPC*%
G36*
X518394Y328575D02*
X518394Y328575D01*
X517382Y328994D01*
X516471Y329603D01*
X515697Y330377D01*
X515088Y331288D01*
X514669Y332300D01*
X514520Y333048D01*
X519142Y333048D01*
X519142Y328426D01*
X518394Y328575D01*
G37*
%LPD*%
%LPC*%
G36*
X401206Y39774D02*
X401206Y39774D01*
X401206Y39776D01*
X401207Y39776D01*
X401207Y39774D01*
X401206Y39774D01*
G37*
%LPD*%
D10*
X528206Y39775D03*
X502806Y39775D03*
X477406Y39775D03*
X452006Y39775D03*
X426606Y39775D03*
X401206Y39775D03*
D11*
X490333Y356901D03*
D12*
X43496Y430662D03*
X61127Y422489D03*
X46208Y11319D03*
X51669Y18725D03*
X317224Y290905D03*
X259074Y142015D03*
X405074Y110133D03*
X288453Y353810D03*
X372597Y393919D03*
X406187Y410461D03*
X362054Y292408D03*
X657540Y63102D03*
X748315Y148410D03*
X748315Y30365D03*
X414231Y255254D03*
X590136Y273830D03*
X571721Y375171D03*
X459946Y367943D03*
X519748Y297549D03*
X244447Y280827D03*
X456734Y101823D03*
X232202Y145016D03*
X453174Y279674D03*
X486101Y213049D03*
X277913Y17210D03*
X135994Y323382D03*
X616710Y33536D03*
X134843Y106130D03*
X71295Y93690D03*
X81940Y144837D03*
X155217Y88701D03*
X442994Y230890D03*
X510775Y350345D03*
X770388Y433046D03*
X770463Y398678D03*
X770236Y363776D03*
X770497Y328602D03*
X770489Y294204D03*
X770335Y259410D03*
X770624Y223539D03*
X412673Y180422D03*
X307971Y94401D03*
X299368Y94457D03*
X444037Y178864D03*
X290692Y94768D03*
X443650Y188945D03*
X281813Y94917D03*
X449291Y196673D03*
X271583Y93990D03*
X443263Y203543D03*
X319709Y62614D03*
X326475Y69349D03*
X333209Y75536D03*
X339271Y81685D03*
X345137Y88144D03*
X262403Y94575D03*
X440258Y220958D03*
X56720Y112536D03*
X383425Y225478D03*
X256237Y245443D03*
X175344Y275551D03*
X176106Y187346D03*
X56835Y100004D03*
X56835Y125245D03*
X159089Y199167D03*
X155647Y216712D03*
X57150Y138345D03*
X57150Y151125D03*
X154677Y225916D03*
X57150Y163659D03*
X122097Y217989D03*
X57150Y176653D03*
X107879Y221446D03*
X57208Y189534D03*
X389140Y232777D03*
X256282Y254023D03*
X166674Y287233D03*
X57013Y201790D03*
X157917Y296242D03*
X43613Y214552D03*
X326967Y392654D03*
X288534Y411122D03*
X460428Y405043D03*
X220675Y17017D03*
X92985Y333092D03*
X137945Y115677D03*
X112733Y89302D03*
X770503Y345961D03*
X770564Y380447D03*
X770463Y415008D03*
X770102Y310600D03*
X770634Y275576D03*
X770741Y205527D03*
X770433Y241244D03*
X54429Y240059D03*
X107215Y292758D03*
X502363Y169042D03*
X405776Y164782D03*
X513123Y176401D03*
X400585Y172042D03*
X73838Y418878D03*
X298566Y161875D03*
X394467Y242147D03*
X256991Y264765D03*
X172973Y293984D03*
X163338Y243896D03*
X152079Y246220D03*
X364099Y206383D03*
X241895Y222218D03*
X150940Y259858D03*
X370520Y212876D03*
X247188Y229239D03*
X135568Y278971D03*
X377039Y219089D03*
X251980Y236925D03*
X127753Y291620D03*
X188266Y142815D03*
X195350Y135979D03*
X201707Y154480D03*
X218211Y120404D03*
X218337Y111657D03*
X310282Y159571D03*
X440118Y262358D03*
X313111Y264287D03*
X359797Y265004D03*
X406704Y355406D03*
X349534Y365972D03*
X349614Y380478D03*
X272316Y134709D03*
X415272Y123359D03*
X302715Y263288D03*
X552009Y351843D03*
X568188Y182928D03*
X657447Y85120D03*
X537032Y366337D03*
X384983Y265178D03*
X520016Y333922D03*
X270549Y281823D03*
X418673Y102144D03*
X258650Y118112D03*
X426112Y307021D03*
X456962Y224615D03*
X626924Y62253D03*
X311428Y53313D03*
X373701Y53199D03*
X643635Y51621D03*
X643635Y86161D03*
X590330Y107491D03*
X590500Y63378D03*
X658103Y141548D03*
X539858Y96460D03*
X132061Y183802D03*
X117590Y181335D03*
X267266Y123939D03*
X181624Y148566D03*
X350409Y295949D03*
X294908Y291153D03*
X434433Y345898D03*
X577926Y323655D03*
X330746Y250890D03*
X363315Y248401D03*
X590114Y322637D03*
X375707Y248826D03*
X564675Y259228D03*
X208881Y129269D03*
X251484Y94831D03*
X324921Y165700D03*
X338814Y296390D03*
X698706Y428494D03*
X327159Y296357D03*
X702542Y436792D03*
M02*
