G04 EAGLE Gerber RS-274X export*
G75*
%MOMM*%
%FSLAX34Y34*%
%LPD*%
%INInner Copper Layer 2*%
%IPPOS*%
%AMOC8*
5,1,8,0,0,1.08239X$1,22.5*%
G01*
%ADD10C,1.500000*%
%ADD11C,1.524000*%
%ADD12C,0.604000*%

G36*
X800022Y4064D02*
X800022Y4064D01*
X800022Y440070D01*
X800018Y440075D01*
X800017Y440075D01*
X708852Y440075D01*
X708851Y440075D01*
X708850Y440073D01*
X708847Y440071D01*
X708848Y440070D01*
X708848Y440068D01*
X709622Y438200D01*
X709622Y435383D01*
X708544Y432782D01*
X706552Y430790D01*
X705588Y430391D01*
X705585Y430385D01*
X705586Y430385D01*
X705586Y430384D01*
X705785Y429902D01*
X705785Y427086D01*
X704708Y424484D01*
X702716Y422492D01*
X700114Y421415D01*
X697298Y421415D01*
X694696Y422492D01*
X692705Y424484D01*
X691627Y427086D01*
X691627Y429902D01*
X692705Y432504D01*
X694696Y434495D01*
X695660Y434895D01*
X695662Y434898D01*
X695663Y434899D01*
X695663Y434901D01*
X695463Y435383D01*
X695463Y438200D01*
X696237Y440068D01*
X696237Y440069D01*
X696236Y440071D01*
X696235Y440074D01*
X696234Y440074D01*
X696233Y440075D01*
X4064Y440075D01*
X4059Y440071D01*
X4060Y440070D01*
X4059Y440070D01*
X4059Y4064D01*
X4064Y4059D01*
X4064Y4060D01*
X4064Y4059D01*
X800017Y4059D01*
X800022Y4064D01*
G37*
%LPC*%
G36*
X55427Y92925D02*
X55427Y92925D01*
X52825Y94003D01*
X50834Y95994D01*
X49756Y98596D01*
X49756Y101413D01*
X50834Y104014D01*
X52825Y106006D01*
X53395Y106242D01*
X53396Y106243D01*
X53397Y106244D01*
X53397Y106245D01*
X53398Y106246D01*
X53397Y106247D01*
X53398Y106248D01*
X53396Y106249D01*
X53395Y106251D01*
X52710Y106535D01*
X50719Y108526D01*
X49641Y111128D01*
X49641Y113944D01*
X50719Y116546D01*
X52710Y118538D01*
X53609Y118910D01*
X53610Y118911D01*
X53611Y118912D01*
X53611Y118914D01*
X53612Y118916D01*
X53610Y118917D01*
X53609Y118919D01*
X52825Y119244D01*
X50834Y121235D01*
X49756Y123837D01*
X49756Y126653D01*
X50834Y129255D01*
X52825Y131247D01*
X54295Y131855D01*
X54296Y131857D01*
X54298Y131858D01*
X54297Y131859D01*
X54297Y131860D01*
X54298Y131860D01*
X54297Y131860D01*
X54298Y131861D01*
X54296Y131862D01*
X54295Y131865D01*
X53140Y132343D01*
X51149Y134335D01*
X50071Y136936D01*
X50071Y139753D01*
X51149Y142355D01*
X53140Y144346D01*
X54067Y144730D01*
X54068Y144732D01*
X54069Y144732D01*
X54069Y144733D01*
X54069Y144734D01*
X54070Y144736D01*
X54068Y144737D01*
X54067Y144739D01*
X53140Y145123D01*
X51149Y147115D01*
X50071Y149717D01*
X50071Y152533D01*
X51149Y155135D01*
X53140Y157126D01*
X53770Y157387D01*
X53771Y157389D01*
X53773Y157389D01*
X53772Y157391D01*
X53773Y157393D01*
X53771Y157394D01*
X53770Y157397D01*
X53140Y157658D01*
X51149Y159649D01*
X50071Y162251D01*
X50071Y165067D01*
X51149Y167669D01*
X53140Y169661D01*
X54325Y170151D01*
X54325Y170153D01*
X54327Y170153D01*
X54327Y170155D01*
X54328Y170157D01*
X54325Y170158D01*
X54325Y170160D01*
X53140Y170651D01*
X51149Y172643D01*
X50071Y175244D01*
X50071Y178061D01*
X51149Y180663D01*
X53140Y182654D01*
X54218Y183100D01*
X54218Y183102D01*
X54220Y183103D01*
X54220Y183104D01*
X54221Y183106D01*
X54218Y183107D01*
X54218Y183110D01*
X53198Y183532D01*
X51206Y185524D01*
X50129Y188125D01*
X50129Y190942D01*
X51206Y193544D01*
X53198Y195535D01*
X53395Y195617D01*
X53396Y195618D01*
X53398Y195619D01*
X53397Y195621D01*
X53398Y195623D01*
X53396Y195624D01*
X53395Y195626D01*
X53003Y195789D01*
X51011Y197780D01*
X49933Y200382D01*
X49933Y203198D01*
X51011Y205800D01*
X53003Y207792D01*
X55604Y208869D01*
X58421Y208869D01*
X61023Y207792D01*
X63014Y205800D01*
X64092Y203198D01*
X64092Y200382D01*
X63014Y197780D01*
X61023Y195789D01*
X60825Y195707D01*
X60824Y195705D01*
X60823Y195705D01*
X60823Y195703D01*
X60822Y195701D01*
X60824Y195700D01*
X60825Y195698D01*
X61218Y195535D01*
X63209Y193544D01*
X64287Y190942D01*
X64287Y188125D01*
X63209Y185524D01*
X61218Y183532D01*
X60140Y183086D01*
X60139Y183084D01*
X60138Y183084D01*
X60138Y183082D01*
X60137Y183080D01*
X60139Y183079D01*
X60140Y183077D01*
X61160Y182654D01*
X63151Y180663D01*
X64229Y178061D01*
X64229Y175244D01*
X63151Y172643D01*
X61160Y170651D01*
X59975Y170160D01*
X59975Y170159D01*
X59973Y170158D01*
X59973Y170157D01*
X59972Y170155D01*
X59975Y170153D01*
X59975Y170151D01*
X61160Y169661D01*
X63151Y167669D01*
X64229Y165067D01*
X64229Y162251D01*
X63151Y159649D01*
X61160Y157658D01*
X60530Y157397D01*
X60529Y157395D01*
X60527Y157394D01*
X60528Y157393D01*
X60527Y157391D01*
X60529Y157390D01*
X60530Y157387D01*
X61160Y157126D01*
X63151Y155135D01*
X64229Y152533D01*
X64229Y149717D01*
X63151Y147115D01*
X61160Y145123D01*
X60233Y144739D01*
X60232Y144738D01*
X60231Y144737D01*
X60231Y144736D01*
X60231Y144735D01*
X60230Y144733D01*
X60232Y144732D01*
X60233Y144730D01*
X61160Y144346D01*
X63151Y142355D01*
X64229Y139753D01*
X64229Y136937D01*
X63151Y134335D01*
X61160Y132343D01*
X59690Y131734D01*
X59689Y131733D01*
X59687Y131732D01*
X59688Y131730D01*
X59687Y131728D01*
X59689Y131727D01*
X59690Y131725D01*
X60845Y131247D01*
X62837Y129255D01*
X63914Y126653D01*
X63914Y123837D01*
X62837Y121235D01*
X60845Y119244D01*
X59947Y118871D01*
X59946Y118870D01*
X59944Y118869D01*
X59945Y118868D01*
X59944Y118868D01*
X59945Y118867D01*
X59944Y118865D01*
X59946Y118864D01*
X59947Y118862D01*
X60730Y118538D01*
X62722Y116546D01*
X63799Y113944D01*
X63799Y111128D01*
X62722Y108526D01*
X60730Y106535D01*
X60160Y106299D01*
X60160Y106297D01*
X60158Y106297D01*
X60159Y106295D01*
X60158Y106293D01*
X60160Y106292D01*
X60160Y106289D01*
X60845Y106006D01*
X62837Y104014D01*
X63914Y101412D01*
X63914Y98596D01*
X62837Y95994D01*
X60845Y94003D01*
X58243Y92925D01*
X55427Y92925D01*
G37*
%LPD*%
%LPC*%
G36*
X270175Y86911D02*
X270175Y86911D01*
X267573Y87988D01*
X266704Y88857D01*
X266697Y88858D01*
X266697Y88857D01*
X266413Y88573D01*
X263811Y87496D01*
X260994Y87496D01*
X258393Y88573D01*
X256819Y90147D01*
X256817Y90147D01*
X256816Y90148D01*
X256814Y90148D01*
X256814Y90147D01*
X256812Y90148D01*
X256812Y90147D01*
X255494Y88829D01*
X252892Y87751D01*
X250076Y87751D01*
X247474Y88829D01*
X245482Y90821D01*
X244405Y93422D01*
X244405Y96239D01*
X245482Y98841D01*
X247474Y100832D01*
X250076Y101910D01*
X252892Y101910D01*
X255494Y100832D01*
X257068Y99258D01*
X257074Y99258D01*
X257075Y99258D01*
X258393Y100576D01*
X260994Y101654D01*
X263811Y101654D01*
X266413Y100576D01*
X267282Y99707D01*
X267288Y99707D01*
X267289Y99707D01*
X267573Y99991D01*
X270175Y101069D01*
X272991Y101069D01*
X275593Y99991D01*
X276231Y99353D01*
X276237Y99353D01*
X276238Y99353D01*
X277803Y100919D01*
X280405Y101996D01*
X283221Y101996D01*
X285823Y100919D01*
X286324Y100418D01*
X286331Y100417D01*
X286331Y100418D01*
X286682Y100769D01*
X289284Y101847D01*
X292101Y101847D01*
X294702Y100769D01*
X295182Y100290D01*
X295184Y100289D01*
X295185Y100289D01*
X295186Y100289D01*
X295187Y100289D01*
X295189Y100289D01*
X295189Y100290D01*
X295358Y100458D01*
X297960Y101536D01*
X300776Y101536D01*
X303378Y100458D01*
X303694Y100142D01*
X303701Y100142D01*
X303961Y100402D01*
X306563Y101480D01*
X309379Y101480D01*
X311981Y100402D01*
X313973Y98411D01*
X315050Y95809D01*
X315050Y92993D01*
X313973Y90391D01*
X311981Y88399D01*
X309379Y87322D01*
X306563Y87322D01*
X303961Y88399D01*
X303645Y88715D01*
X303643Y88716D01*
X303642Y88717D01*
X303641Y88717D01*
X303640Y88716D01*
X303638Y88716D01*
X303638Y88715D01*
X303378Y88455D01*
X300776Y87378D01*
X297960Y87378D01*
X295358Y88455D01*
X294878Y88935D01*
X294876Y88935D01*
X294874Y88935D01*
X294872Y88935D01*
X294871Y88935D01*
X294702Y88766D01*
X292101Y87689D01*
X289284Y87689D01*
X286682Y88766D01*
X286182Y89267D01*
X286179Y89267D01*
X286178Y89268D01*
X286177Y89267D01*
X286175Y89267D01*
X285823Y88916D01*
X283221Y87838D01*
X280405Y87838D01*
X277803Y88916D01*
X277165Y89554D01*
X277159Y89554D01*
X277158Y89554D01*
X275593Y87988D01*
X272991Y86911D01*
X270175Y86911D01*
G37*
%LPD*%
%LPC*%
G36*
X310020Y46233D02*
X310020Y46233D01*
X307418Y47311D01*
X305426Y49303D01*
X304349Y51904D01*
X304349Y54721D01*
X305426Y57323D01*
X307418Y59314D01*
X310020Y60392D01*
X312836Y60392D01*
X312983Y60331D01*
X312985Y60331D01*
X312986Y60331D01*
X312987Y60332D01*
X312989Y60333D01*
X312989Y60335D01*
X312990Y60337D01*
X312630Y61206D01*
X312630Y64023D01*
X313707Y66624D01*
X315699Y68616D01*
X318301Y69694D01*
X319390Y69694D01*
X319395Y69698D01*
X319395Y69699D01*
X319395Y70757D01*
X320473Y73359D01*
X322465Y75351D01*
X325066Y76428D01*
X326125Y76428D01*
X326130Y76433D01*
X326130Y76944D01*
X327208Y79546D01*
X329199Y81538D01*
X331801Y82615D01*
X332187Y82615D01*
X332191Y82620D01*
X332192Y82620D01*
X332192Y83093D01*
X333269Y85695D01*
X335261Y87686D01*
X337863Y88764D01*
X338053Y88764D01*
X338058Y88769D01*
X338058Y89552D01*
X339136Y92154D01*
X341127Y94145D01*
X343729Y95223D01*
X346545Y95223D01*
X349147Y94145D01*
X351139Y92154D01*
X352216Y89552D01*
X352216Y86736D01*
X351139Y84134D01*
X349147Y82142D01*
X346545Y81065D01*
X346355Y81065D01*
X346350Y81060D01*
X346350Y80277D01*
X345272Y77675D01*
X343281Y75684D01*
X340679Y74606D01*
X340293Y74606D01*
X340289Y74601D01*
X340289Y74128D01*
X339211Y71526D01*
X337219Y69535D01*
X334618Y68457D01*
X333559Y68457D01*
X333554Y68453D01*
X333554Y68452D01*
X333554Y67941D01*
X332476Y65339D01*
X330485Y63348D01*
X327883Y62270D01*
X326793Y62270D01*
X326788Y62266D01*
X326788Y62265D01*
X326788Y61206D01*
X325710Y58604D01*
X323719Y56613D01*
X321117Y55535D01*
X318301Y55535D01*
X318154Y55596D01*
X318152Y55596D01*
X318150Y55596D01*
X318150Y55595D01*
X318147Y55594D01*
X318148Y55592D01*
X318148Y55591D01*
X318147Y55591D01*
X318148Y55590D01*
X318147Y55590D01*
X318507Y54721D01*
X318507Y51904D01*
X317429Y49303D01*
X315438Y47311D01*
X312836Y46233D01*
X310020Y46233D01*
G37*
%LPD*%
%LPC*%
G36*
X362690Y199304D02*
X362690Y199304D01*
X360089Y200382D01*
X358097Y202373D01*
X357019Y204975D01*
X357019Y207791D01*
X358097Y210393D01*
X360089Y212385D01*
X362690Y213462D01*
X363435Y213462D01*
X363440Y213467D01*
X363440Y214284D01*
X364518Y216886D01*
X366510Y218878D01*
X369111Y219955D01*
X369954Y219955D01*
X369959Y219960D01*
X369959Y220497D01*
X371037Y223099D01*
X373029Y225090D01*
X375630Y226168D01*
X376340Y226168D01*
X376345Y226172D01*
X376345Y226173D01*
X376345Y226886D01*
X377423Y229488D01*
X379415Y231479D01*
X382016Y232557D01*
X382056Y232557D01*
X382061Y232561D01*
X382060Y232562D01*
X382061Y232562D01*
X382061Y234185D01*
X383138Y236787D01*
X385130Y238778D01*
X387732Y239856D01*
X387746Y239856D01*
X387747Y239856D01*
X387748Y239858D01*
X387751Y239860D01*
X387751Y239861D01*
X387750Y239861D01*
X387751Y239863D01*
X387388Y240738D01*
X387388Y243555D01*
X388466Y246157D01*
X390457Y248148D01*
X393059Y249226D01*
X395875Y249226D01*
X398477Y248148D01*
X400468Y246157D01*
X401546Y243555D01*
X401546Y240739D01*
X400468Y238137D01*
X398477Y236145D01*
X395875Y235068D01*
X395861Y235068D01*
X395860Y235067D01*
X395859Y235066D01*
X395856Y235063D01*
X395857Y235062D01*
X395856Y235062D01*
X395857Y235062D01*
X395856Y235061D01*
X396219Y234185D01*
X396219Y231368D01*
X395141Y228767D01*
X393150Y226775D01*
X390548Y225697D01*
X390509Y225697D01*
X390504Y225693D01*
X390504Y225692D01*
X390504Y224069D01*
X389426Y221468D01*
X387435Y219476D01*
X384833Y218398D01*
X384123Y218398D01*
X384118Y218394D01*
X384118Y218393D01*
X384118Y217681D01*
X383040Y215079D01*
X381049Y213087D01*
X378447Y212009D01*
X377604Y212009D01*
X377599Y212005D01*
X377599Y212004D01*
X377599Y211468D01*
X376521Y208866D01*
X374530Y206875D01*
X371928Y205797D01*
X371183Y205797D01*
X371178Y205793D01*
X371178Y205792D01*
X371178Y204975D01*
X370100Y202373D01*
X368109Y200382D01*
X365507Y199304D01*
X362690Y199304D01*
G37*
%LPD*%
%LPC*%
G36*
X240486Y215139D02*
X240486Y215139D01*
X237885Y216216D01*
X235893Y218208D01*
X234815Y220810D01*
X234815Y223626D01*
X235893Y226228D01*
X237885Y228219D01*
X240106Y229139D01*
X240108Y229142D01*
X240108Y229143D01*
X240109Y229144D01*
X240109Y230647D01*
X241187Y233249D01*
X243178Y235240D01*
X244898Y235953D01*
X244899Y235956D01*
X244901Y235957D01*
X244901Y238333D01*
X245978Y240935D01*
X247970Y242926D01*
X249372Y243507D01*
X249374Y243512D01*
X249374Y243513D01*
X249158Y244035D01*
X249158Y246851D01*
X250236Y249453D01*
X250535Y249752D01*
X250535Y249759D01*
X250280Y250013D01*
X249203Y252615D01*
X249203Y255431D01*
X250280Y258033D01*
X251992Y259745D01*
X251993Y259752D01*
X251992Y259752D01*
X250990Y260755D01*
X249912Y263357D01*
X249912Y266173D01*
X250990Y268775D01*
X252981Y270766D01*
X255583Y271844D01*
X258399Y271844D01*
X261001Y270766D01*
X262993Y268775D01*
X264070Y266173D01*
X264070Y263357D01*
X262993Y260755D01*
X261281Y259043D01*
X261281Y259041D01*
X261280Y259041D01*
X261281Y259041D01*
X261280Y259036D01*
X261281Y259036D01*
X262283Y258033D01*
X263361Y255431D01*
X263361Y252615D01*
X262283Y250013D01*
X261985Y249714D01*
X261984Y249708D01*
X261985Y249708D01*
X261985Y249707D01*
X262239Y249453D01*
X263316Y246851D01*
X263316Y244035D01*
X262239Y241433D01*
X260247Y239442D01*
X258846Y238861D01*
X258843Y238855D01*
X259059Y238333D01*
X259059Y235516D01*
X257981Y232915D01*
X255990Y230923D01*
X254271Y230211D01*
X254269Y230208D01*
X254269Y230207D01*
X254268Y230206D01*
X254268Y227831D01*
X253190Y225229D01*
X251198Y223237D01*
X248977Y222317D01*
X248975Y222314D01*
X248974Y222313D01*
X248974Y220810D01*
X247896Y218208D01*
X245905Y216216D01*
X243303Y215139D01*
X240486Y215139D01*
G37*
%LPD*%
%LPC*%
G36*
X317229Y285349D02*
X317229Y285349D01*
X317229Y290904D01*
X317229Y290905D01*
X317229Y296460D01*
X317955Y296460D01*
X319368Y296081D01*
X320072Y295675D01*
X320074Y295675D01*
X320074Y295674D01*
X320076Y295675D01*
X320079Y295676D01*
X320079Y295678D01*
X320080Y295679D01*
X320080Y297766D01*
X321158Y300367D01*
X323149Y302359D01*
X325751Y303437D01*
X328567Y303437D01*
X331169Y302359D01*
X332967Y300561D01*
X332973Y300561D01*
X332974Y300561D01*
X334804Y302391D01*
X337406Y303469D01*
X340222Y303469D01*
X342824Y302391D01*
X344815Y300400D01*
X344822Y300383D01*
X344823Y300383D01*
X344823Y300382D01*
X344825Y300382D01*
X344826Y300382D01*
X344827Y300381D01*
X344828Y300380D01*
X344829Y300382D01*
X344830Y300382D01*
X346399Y301951D01*
X349001Y303029D01*
X351817Y303029D01*
X354419Y301951D01*
X356411Y299959D01*
X357488Y297358D01*
X357488Y295629D01*
X357490Y295627D01*
X357490Y295625D01*
X357492Y295625D01*
X357493Y295624D01*
X357495Y295626D01*
X357498Y295626D01*
X357609Y295819D01*
X358643Y296853D01*
X359910Y297584D01*
X361323Y297963D01*
X362049Y297963D01*
X362049Y292408D01*
X362049Y292407D01*
X362049Y286852D01*
X361323Y286852D01*
X359910Y287231D01*
X358643Y287962D01*
X357609Y288997D01*
X356877Y290263D01*
X356499Y291676D01*
X356499Y292127D01*
X356497Y292129D01*
X356496Y292132D01*
X356495Y292131D01*
X356494Y292132D01*
X356492Y292130D01*
X356489Y292129D01*
X356411Y291939D01*
X354419Y289948D01*
X351817Y288870D01*
X349001Y288870D01*
X346399Y289948D01*
X344408Y291939D01*
X344401Y291956D01*
X344400Y291956D01*
X344400Y291957D01*
X344398Y291957D01*
X344397Y291958D01*
X344396Y291959D01*
X344396Y291958D01*
X344395Y291959D01*
X344394Y291957D01*
X344393Y291957D01*
X342824Y290388D01*
X340222Y289311D01*
X337406Y289311D01*
X334804Y290388D01*
X333006Y292186D01*
X333004Y292186D01*
X333003Y292187D01*
X333002Y292187D01*
X333001Y292186D01*
X333000Y292186D01*
X332999Y292186D01*
X331169Y290356D01*
X328567Y289278D01*
X325751Y289278D01*
X323149Y290356D01*
X322788Y290717D01*
X322786Y290717D01*
X322785Y290719D01*
X322784Y290718D01*
X322781Y290718D01*
X322781Y290715D01*
X322779Y290714D01*
X322779Y290173D01*
X322401Y288760D01*
X321669Y287494D01*
X320635Y286459D01*
X319368Y285728D01*
X317955Y285349D01*
X317229Y285349D01*
G37*
%LPD*%
%LPC*%
G36*
X442629Y171784D02*
X442629Y171784D01*
X440027Y172862D01*
X438036Y174854D01*
X436958Y177455D01*
X436958Y180272D01*
X438036Y182874D01*
X438870Y183707D01*
X438870Y183714D01*
X437648Y184935D01*
X436571Y187537D01*
X436571Y190354D01*
X437648Y192955D01*
X439640Y194947D01*
X442209Y196011D01*
X442211Y196014D01*
X442212Y196016D01*
X442212Y196459D01*
X442208Y196464D01*
X442207Y196464D01*
X441855Y196464D01*
X439253Y197542D01*
X437262Y199533D01*
X436184Y202135D01*
X436184Y204951D01*
X437262Y207553D01*
X439253Y209545D01*
X441855Y210622D01*
X444671Y210622D01*
X447273Y209545D01*
X449265Y207553D01*
X450342Y204951D01*
X450342Y203757D01*
X450347Y203752D01*
X450699Y203752D01*
X453301Y202674D01*
X455293Y200683D01*
X456370Y198081D01*
X456370Y195264D01*
X455293Y192663D01*
X453301Y190671D01*
X450732Y189607D01*
X450731Y189604D01*
X450729Y189603D01*
X450729Y189602D01*
X450729Y187537D01*
X449651Y184935D01*
X448818Y184102D01*
X448817Y184095D01*
X448818Y184095D01*
X450039Y182874D01*
X451117Y180272D01*
X451117Y177455D01*
X450039Y174854D01*
X448047Y172862D01*
X445446Y171784D01*
X442629Y171784D01*
G37*
%LPD*%
%LPC*%
G36*
X161929Y236816D02*
X161929Y236816D01*
X159328Y237894D01*
X157336Y239886D01*
X156876Y240996D01*
X156875Y240996D01*
X156876Y240997D01*
X156874Y240997D01*
X156870Y240999D01*
X156870Y240997D01*
X156868Y240998D01*
X156089Y240219D01*
X153488Y239141D01*
X150671Y239141D01*
X148069Y240219D01*
X146078Y242210D01*
X145000Y244812D01*
X145000Y247628D01*
X146078Y250230D01*
X148069Y252222D01*
X149462Y252799D01*
X149463Y252800D01*
X149465Y252801D01*
X149464Y252802D01*
X149465Y252805D01*
X149463Y252806D01*
X149462Y252808D01*
X146930Y253857D01*
X144938Y255848D01*
X143861Y258450D01*
X143861Y261266D01*
X144938Y263868D01*
X146930Y265860D01*
X149532Y266937D01*
X152348Y266937D01*
X154950Y265860D01*
X156941Y263868D01*
X158019Y261266D01*
X158019Y258450D01*
X156941Y255848D01*
X154950Y253857D01*
X153557Y253280D01*
X153556Y253278D01*
X153555Y253278D01*
X153555Y253276D01*
X153554Y253274D01*
X153556Y253273D01*
X153557Y253271D01*
X156089Y252222D01*
X158081Y250230D01*
X158541Y249120D01*
X158541Y249119D01*
X158543Y249119D01*
X158547Y249117D01*
X158547Y249118D01*
X158549Y249118D01*
X159328Y249897D01*
X161929Y250975D01*
X164746Y250975D01*
X167348Y249897D01*
X169339Y247906D01*
X170417Y245304D01*
X170417Y242487D01*
X169339Y239886D01*
X167348Y237894D01*
X164746Y236816D01*
X161929Y236816D01*
G37*
%LPD*%
%LPC*%
G36*
X257242Y111033D02*
X257242Y111033D01*
X254640Y112111D01*
X252649Y114102D01*
X251571Y116704D01*
X251571Y119520D01*
X252649Y122122D01*
X254640Y124114D01*
X257242Y125191D01*
X260058Y125191D01*
X260180Y125141D01*
X260181Y125141D01*
X260183Y125142D01*
X260186Y125143D01*
X260186Y125145D01*
X260187Y125146D01*
X260187Y125347D01*
X261265Y127949D01*
X263256Y129941D01*
X265858Y131018D01*
X266174Y131018D01*
X266175Y131019D01*
X266176Y131018D01*
X266176Y131020D01*
X266179Y131023D01*
X266178Y131024D01*
X266179Y131025D01*
X265236Y133300D01*
X265236Y136117D01*
X266314Y138719D01*
X268306Y140710D01*
X270907Y141788D01*
X273724Y141788D01*
X276326Y140710D01*
X278317Y138719D01*
X279395Y136117D01*
X279395Y133301D01*
X278317Y130699D01*
X276326Y128707D01*
X273724Y127630D01*
X273408Y127630D01*
X273407Y127629D01*
X273406Y127629D01*
X273405Y127628D01*
X273403Y127625D01*
X273404Y127624D01*
X273403Y127623D01*
X274345Y125347D01*
X274345Y122531D01*
X273268Y119929D01*
X271276Y117938D01*
X268674Y116860D01*
X265858Y116860D01*
X265736Y116910D01*
X265735Y116910D01*
X265735Y116911D01*
X265734Y116909D01*
X265730Y116908D01*
X265730Y116907D01*
X265729Y116906D01*
X265729Y116704D01*
X264652Y114102D01*
X262660Y112111D01*
X260058Y111033D01*
X257242Y111033D01*
G37*
%LPD*%
%LPC*%
G36*
X488010Y345222D02*
X488010Y345222D01*
X483717Y347000D01*
X480432Y350285D01*
X478654Y354577D01*
X478654Y359224D01*
X480432Y363516D01*
X483717Y366802D01*
X488010Y368580D01*
X492656Y368580D01*
X496949Y366802D01*
X500234Y363516D01*
X502012Y359224D01*
X502012Y354578D01*
X500234Y350285D01*
X496949Y347000D01*
X492656Y345222D01*
X488010Y345222D01*
G37*
%LPD*%
%LPC*%
G36*
X165266Y280154D02*
X165266Y280154D01*
X162664Y281231D01*
X160672Y283223D01*
X159595Y285825D01*
X159595Y288641D01*
X159907Y289395D01*
X159906Y289396D01*
X159907Y289398D01*
X159906Y289399D01*
X159905Y289401D01*
X159903Y289400D01*
X159901Y289401D01*
X159326Y289163D01*
X156509Y289163D01*
X153907Y290241D01*
X151916Y292232D01*
X150838Y294834D01*
X150838Y297651D01*
X151916Y300252D01*
X153907Y302244D01*
X156509Y303322D01*
X159326Y303322D01*
X161927Y302244D01*
X163919Y300252D01*
X164997Y297650D01*
X164997Y294834D01*
X164684Y294080D01*
X164685Y294079D01*
X164684Y294077D01*
X164686Y294076D01*
X164687Y294074D01*
X164689Y294075D01*
X164691Y294074D01*
X165266Y294312D01*
X165888Y294312D01*
X165893Y294316D01*
X165893Y294317D01*
X165893Y295392D01*
X166971Y297994D01*
X168963Y299985D01*
X171564Y301063D01*
X174381Y301063D01*
X176983Y299985D01*
X178974Y297994D01*
X180052Y295392D01*
X180052Y292576D01*
X178974Y289974D01*
X176983Y287982D01*
X174381Y286905D01*
X173758Y286905D01*
X173753Y286900D01*
X173753Y285825D01*
X172675Y283223D01*
X170684Y281231D01*
X168082Y280154D01*
X165266Y280154D01*
G37*
%LPD*%
%LPC*%
G36*
X216929Y104577D02*
X216929Y104577D01*
X214327Y105655D01*
X212335Y107647D01*
X211258Y110248D01*
X211258Y113065D01*
X212335Y115666D01*
X212633Y115964D01*
X212633Y115970D01*
X212633Y115971D01*
X212209Y116394D01*
X211132Y118996D01*
X211132Y121812D01*
X211490Y122677D01*
X211489Y122679D01*
X211490Y122681D01*
X211489Y122681D01*
X211488Y122684D01*
X211486Y122683D01*
X211484Y122684D01*
X210290Y122189D01*
X207473Y122189D01*
X204871Y123267D01*
X202880Y125259D01*
X201802Y127860D01*
X201802Y130677D01*
X202880Y133278D01*
X204871Y135270D01*
X207473Y136348D01*
X210289Y136348D01*
X212891Y135270D01*
X214883Y133278D01*
X215961Y130677D01*
X215961Y127860D01*
X215602Y126995D01*
X215603Y126994D01*
X215602Y126992D01*
X215603Y126991D01*
X215604Y126989D01*
X215607Y126990D01*
X215609Y126989D01*
X216803Y127483D01*
X219619Y127483D01*
X222221Y126406D01*
X224212Y124414D01*
X225290Y121812D01*
X225290Y118996D01*
X224212Y116394D01*
X223915Y116097D01*
X223915Y116090D01*
X224338Y115666D01*
X225416Y113065D01*
X225416Y110248D01*
X224338Y107647D01*
X222347Y105655D01*
X219745Y104577D01*
X216929Y104577D01*
G37*
%LPD*%
%LPC*%
G36*
X500507Y28216D02*
X500507Y28216D01*
X496259Y29976D01*
X493007Y33227D01*
X491247Y37476D01*
X491247Y42074D01*
X493007Y46323D01*
X496259Y49574D01*
X500507Y51334D01*
X505106Y51334D01*
X509354Y49574D01*
X512606Y46323D01*
X514366Y42074D01*
X514366Y37476D01*
X512606Y33227D01*
X509354Y29976D01*
X505106Y28216D01*
X500507Y28216D01*
G37*
%LPD*%
%LPC*%
G36*
X525907Y28216D02*
X525907Y28216D01*
X521659Y29976D01*
X518407Y33227D01*
X516647Y37476D01*
X516647Y42074D01*
X518407Y46323D01*
X521659Y49574D01*
X525907Y51334D01*
X530506Y51334D01*
X534754Y49574D01*
X538006Y46323D01*
X539766Y42074D01*
X539766Y37476D01*
X538006Y33227D01*
X534754Y29976D01*
X530506Y28216D01*
X525907Y28216D01*
G37*
%LPD*%
%LPC*%
G36*
X449707Y28216D02*
X449707Y28216D01*
X445459Y29976D01*
X442207Y33227D01*
X440447Y37476D01*
X440447Y42074D01*
X442207Y46323D01*
X445459Y49574D01*
X449707Y51334D01*
X454306Y51334D01*
X458554Y49574D01*
X461806Y46323D01*
X463566Y42074D01*
X463566Y37476D01*
X461806Y33227D01*
X458554Y29976D01*
X454306Y28216D01*
X449707Y28216D01*
G37*
%LPD*%
%LPC*%
G36*
X475107Y28216D02*
X475107Y28216D01*
X470859Y29976D01*
X467607Y33227D01*
X465847Y37476D01*
X465847Y42074D01*
X467607Y46323D01*
X470859Y49574D01*
X475107Y51334D01*
X479706Y51334D01*
X483954Y49574D01*
X487206Y46323D01*
X488966Y42074D01*
X488966Y37476D01*
X487206Y33227D01*
X483954Y29976D01*
X479706Y28216D01*
X475107Y28216D01*
G37*
%LPD*%
%LPC*%
G36*
X398907Y28216D02*
X398907Y28216D01*
X394659Y29976D01*
X391407Y33227D01*
X389647Y37476D01*
X389647Y42074D01*
X391407Y46323D01*
X394659Y49574D01*
X398907Y51334D01*
X403506Y51334D01*
X407754Y49574D01*
X411006Y46323D01*
X412766Y42074D01*
X412766Y37476D01*
X411006Y33227D01*
X407754Y29976D01*
X403506Y28216D01*
X398907Y28216D01*
G37*
%LPD*%
%LPC*%
G36*
X193942Y128900D02*
X193942Y128900D01*
X191340Y129978D01*
X189349Y131969D01*
X188271Y134571D01*
X188271Y135730D01*
X188267Y135735D01*
X188266Y135735D01*
X186858Y135735D01*
X184256Y136813D01*
X182265Y138805D01*
X181187Y141406D01*
X181187Y141482D01*
X181183Y141487D01*
X181182Y141487D01*
X180215Y141487D01*
X177614Y142565D01*
X175622Y144556D01*
X174544Y147158D01*
X174544Y149974D01*
X175622Y152576D01*
X177614Y154568D01*
X180215Y155645D01*
X183032Y155645D01*
X185634Y154568D01*
X187625Y152576D01*
X188703Y149974D01*
X188703Y149899D01*
X188707Y149894D01*
X188708Y149894D01*
X189675Y149894D01*
X192276Y148816D01*
X194268Y146825D01*
X195346Y144223D01*
X195346Y143063D01*
X195350Y143058D01*
X195350Y143059D01*
X195351Y143058D01*
X196758Y143058D01*
X199360Y141981D01*
X201352Y139989D01*
X202429Y137387D01*
X202429Y134571D01*
X201352Y131969D01*
X199360Y129978D01*
X196758Y128900D01*
X193942Y128900D01*
G37*
%LPD*%
%LPC*%
G36*
X700473Y128111D02*
X700473Y128111D01*
X696408Y129795D01*
X693297Y132906D01*
X691613Y136970D01*
X691613Y141370D01*
X693297Y145435D01*
X696408Y148546D01*
X700473Y150230D01*
X704872Y150230D01*
X708937Y148546D01*
X712048Y145435D01*
X713732Y141370D01*
X713732Y136971D01*
X712048Y132906D01*
X708937Y129795D01*
X704873Y128111D01*
X700473Y128111D01*
G37*
%LPD*%
%LPC*%
G36*
X700473Y28111D02*
X700473Y28111D01*
X696408Y29795D01*
X693297Y32906D01*
X691613Y36970D01*
X691613Y41370D01*
X693297Y45435D01*
X696408Y48546D01*
X700473Y50230D01*
X704872Y50230D01*
X708937Y48546D01*
X712048Y45435D01*
X713732Y41370D01*
X713732Y36971D01*
X712048Y32906D01*
X708937Y29795D01*
X704873Y28111D01*
X700473Y28111D01*
G37*
%LPD*%
%LPC*%
G36*
X656039Y78041D02*
X656039Y78041D01*
X653437Y79119D01*
X651445Y81110D01*
X650368Y83712D01*
X650368Y83892D01*
X650366Y83894D01*
X650365Y83896D01*
X650364Y83896D01*
X650363Y83897D01*
X650360Y83895D01*
X650358Y83894D01*
X649636Y82151D01*
X647645Y80160D01*
X645043Y79082D01*
X642226Y79082D01*
X639625Y80160D01*
X637633Y82151D01*
X636555Y84753D01*
X636555Y87570D01*
X637633Y90171D01*
X639625Y92163D01*
X642226Y93241D01*
X645043Y93241D01*
X647645Y92163D01*
X649636Y90171D01*
X650714Y87569D01*
X650714Y87389D01*
X650715Y87387D01*
X650716Y87385D01*
X650717Y87385D01*
X650718Y87384D01*
X650719Y87385D01*
X650721Y87386D01*
X650723Y87387D01*
X651445Y89130D01*
X653437Y91122D01*
X656039Y92199D01*
X658855Y92199D01*
X661457Y91122D01*
X663448Y89130D01*
X664526Y86528D01*
X664526Y83712D01*
X663448Y81110D01*
X661457Y79119D01*
X658855Y78041D01*
X656039Y78041D01*
G37*
%LPD*%
%LPC*%
G36*
X500955Y161962D02*
X500955Y161962D01*
X498353Y163040D01*
X496362Y165032D01*
X495284Y167633D01*
X495284Y170450D01*
X496362Y173052D01*
X498353Y175043D01*
X500955Y176121D01*
X503772Y176121D01*
X506036Y175183D01*
X506037Y175183D01*
X506038Y175182D01*
X506039Y175184D01*
X506043Y175185D01*
X506042Y175186D01*
X506043Y175187D01*
X506043Y177809D01*
X507121Y180411D01*
X509113Y182403D01*
X511714Y183480D01*
X514531Y183480D01*
X517133Y182403D01*
X519124Y180411D01*
X520202Y177809D01*
X520202Y174993D01*
X519124Y172391D01*
X517133Y170400D01*
X514531Y169322D01*
X511714Y169322D01*
X509449Y170260D01*
X509448Y170260D01*
X509447Y170259D01*
X509443Y170258D01*
X509444Y170257D01*
X509443Y170256D01*
X509443Y167634D01*
X508365Y165032D01*
X506373Y163040D01*
X503772Y161962D01*
X500955Y161962D01*
G37*
%LPD*%
%LPC*%
G36*
X361907Y241321D02*
X361907Y241321D01*
X359305Y242399D01*
X357314Y244391D01*
X356236Y246992D01*
X356236Y249809D01*
X357314Y252411D01*
X359305Y254402D01*
X361907Y255480D01*
X364723Y255480D01*
X367325Y254402D01*
X369317Y252411D01*
X369419Y252164D01*
X369420Y252164D01*
X369421Y252162D01*
X369422Y252163D01*
X369425Y252162D01*
X369426Y252164D01*
X369428Y252164D01*
X369706Y252836D01*
X371697Y254827D01*
X374299Y255905D01*
X377115Y255905D01*
X379717Y254827D01*
X381709Y252836D01*
X382787Y250234D01*
X382787Y247417D01*
X381709Y244816D01*
X379717Y242824D01*
X377116Y241746D01*
X374299Y241746D01*
X371697Y242824D01*
X369706Y244816D01*
X369604Y245062D01*
X369602Y245063D01*
X369602Y245064D01*
X369600Y245064D01*
X369598Y245065D01*
X369597Y245063D01*
X369595Y245062D01*
X369317Y244391D01*
X367325Y242399D01*
X364723Y241321D01*
X361907Y241321D01*
G37*
%LPD*%
%LPC*%
G36*
X588706Y315558D02*
X588706Y315558D01*
X586104Y316636D01*
X584113Y318627D01*
X583763Y319471D01*
X583763Y319472D01*
X583761Y319472D01*
X583758Y319474D01*
X583757Y319472D01*
X583755Y319472D01*
X581936Y317653D01*
X579334Y316575D01*
X576518Y316575D01*
X573916Y317653D01*
X571925Y319645D01*
X570847Y322246D01*
X570847Y325063D01*
X571925Y327664D01*
X573916Y329656D01*
X576518Y330734D01*
X579334Y330734D01*
X581936Y329656D01*
X583927Y327664D01*
X584277Y326821D01*
X584277Y326820D01*
X584279Y326820D01*
X584283Y326818D01*
X584283Y326820D01*
X584285Y326820D01*
X586104Y328639D01*
X588706Y329717D01*
X591522Y329717D01*
X594124Y328639D01*
X596116Y326647D01*
X597193Y324046D01*
X597193Y321229D01*
X596116Y318627D01*
X594124Y316636D01*
X591522Y315558D01*
X588706Y315558D01*
G37*
%LPD*%
%LPC*%
G36*
X308874Y152492D02*
X308874Y152492D01*
X306272Y153569D01*
X304280Y155561D01*
X303693Y156980D01*
X303692Y156980D01*
X303692Y156981D01*
X303690Y156981D01*
X303689Y156981D01*
X303688Y156982D01*
X303687Y156982D01*
X303687Y156983D01*
X303686Y156981D01*
X303685Y156981D01*
X302576Y155873D01*
X299975Y154795D01*
X297158Y154795D01*
X294556Y155873D01*
X292565Y157865D01*
X291487Y160466D01*
X291487Y163283D01*
X292565Y165885D01*
X294556Y167876D01*
X297158Y168954D01*
X299975Y168954D01*
X302576Y167876D01*
X304568Y165885D01*
X305156Y164466D01*
X305156Y164465D01*
X305158Y164465D01*
X305161Y164463D01*
X305162Y164464D01*
X305164Y164464D01*
X306272Y165572D01*
X308874Y166650D01*
X311690Y166650D01*
X314292Y165572D01*
X316283Y163581D01*
X317361Y160979D01*
X317361Y158163D01*
X316283Y155561D01*
X314292Y153569D01*
X311690Y152492D01*
X308874Y152492D01*
G37*
%LPD*%
%LPC*%
G36*
X301307Y256209D02*
X301307Y256209D01*
X298705Y257286D01*
X296714Y259278D01*
X295636Y261880D01*
X295636Y264696D01*
X296714Y267298D01*
X298705Y269289D01*
X301307Y270367D01*
X304124Y270367D01*
X306725Y269289D01*
X307410Y268605D01*
X307417Y268604D01*
X307417Y268605D01*
X309101Y270288D01*
X311702Y271366D01*
X314519Y271366D01*
X317121Y270288D01*
X319112Y268297D01*
X320190Y265695D01*
X320190Y262879D01*
X319112Y260277D01*
X317121Y258285D01*
X314519Y257208D01*
X311702Y257208D01*
X309101Y258285D01*
X308416Y258970D01*
X308414Y258970D01*
X308413Y258971D01*
X308412Y258971D01*
X308411Y258970D01*
X308409Y258970D01*
X306725Y257286D01*
X304124Y256209D01*
X301307Y256209D01*
G37*
%LPD*%
%LPC*%
G36*
X154238Y209633D02*
X154238Y209633D01*
X151637Y210711D01*
X149645Y212702D01*
X148567Y215304D01*
X148567Y218120D01*
X149645Y220722D01*
X149748Y220825D01*
X149749Y220832D01*
X149748Y220832D01*
X148675Y221906D01*
X147597Y224507D01*
X147597Y227324D01*
X148675Y229926D01*
X150667Y231917D01*
X153268Y232995D01*
X156085Y232995D01*
X158687Y231917D01*
X160678Y229926D01*
X161756Y227324D01*
X161756Y224508D01*
X160678Y221906D01*
X160575Y221802D01*
X160575Y221801D01*
X160574Y221800D01*
X160575Y221800D01*
X160574Y221796D01*
X160575Y221796D01*
X160575Y221795D01*
X161648Y220722D01*
X162726Y218120D01*
X162726Y215304D01*
X161648Y212702D01*
X159657Y210711D01*
X157055Y209633D01*
X154238Y209633D01*
G37*
%LPD*%
%LPC*%
G36*
X404367Y157703D02*
X404367Y157703D01*
X401766Y158781D01*
X399774Y160772D01*
X398696Y163374D01*
X398696Y165159D01*
X398694Y165161D01*
X398693Y165163D01*
X396575Y166041D01*
X394583Y168032D01*
X393506Y170634D01*
X393506Y173450D01*
X394583Y176052D01*
X396575Y178044D01*
X399177Y179121D01*
X401993Y179121D01*
X404595Y178044D01*
X406586Y176052D01*
X407664Y173450D01*
X407664Y171666D01*
X407666Y171663D01*
X407667Y171661D01*
X409785Y170784D01*
X411777Y168792D01*
X412855Y166190D01*
X412855Y163374D01*
X411777Y160772D01*
X409785Y158781D01*
X407184Y157703D01*
X404367Y157703D01*
G37*
%LPD*%
%LPC*%
G36*
X438849Y213879D02*
X438849Y213879D01*
X436248Y214957D01*
X434256Y216948D01*
X433178Y219550D01*
X433178Y222366D01*
X434256Y224968D01*
X436248Y226959D01*
X438342Y227827D01*
X438343Y227830D01*
X438345Y227831D01*
X438344Y227832D01*
X438345Y227833D01*
X438344Y227833D01*
X438344Y227834D01*
X437818Y228746D01*
X437439Y230159D01*
X437439Y230885D01*
X442994Y230885D01*
X442994Y230886D01*
X442995Y230885D01*
X448550Y230885D01*
X448550Y230159D01*
X448171Y228746D01*
X447440Y227479D01*
X446405Y226445D01*
X445382Y225854D01*
X445381Y225854D01*
X445381Y225852D01*
X445380Y225850D01*
X445380Y225848D01*
X445381Y225848D01*
X445381Y225846D01*
X446259Y224968D01*
X447337Y222366D01*
X447337Y219550D01*
X446259Y216948D01*
X444268Y214957D01*
X441666Y213879D01*
X438849Y213879D01*
G37*
%LPD*%
%LPC*%
G36*
X134843Y106135D02*
X134843Y106135D01*
X129288Y106135D01*
X129288Y106861D01*
X129667Y108274D01*
X130398Y109541D01*
X131432Y110575D01*
X132443Y111158D01*
X132443Y111159D01*
X132443Y111160D01*
X132445Y111164D01*
X132444Y111165D01*
X132444Y111166D01*
X131943Y111667D01*
X130865Y114268D01*
X130865Y117085D01*
X131943Y119687D01*
X133935Y121678D01*
X136537Y122756D01*
X139353Y122756D01*
X141955Y121678D01*
X143946Y119687D01*
X145024Y117085D01*
X145024Y114268D01*
X143946Y111667D01*
X141955Y109675D01*
X139746Y108760D01*
X139745Y108760D01*
X139744Y108757D01*
X139743Y108756D01*
X139744Y108756D01*
X139743Y108754D01*
X139743Y108753D01*
X140020Y108274D01*
X140398Y106861D01*
X140398Y106135D01*
X134843Y106135D01*
X134843Y106134D01*
X134843Y106135D01*
G37*
%LPD*%
%LPC*%
G36*
X518608Y326843D02*
X518608Y326843D01*
X516006Y327921D01*
X514014Y329912D01*
X512937Y332514D01*
X512937Y335330D01*
X514014Y337932D01*
X516006Y339924D01*
X518608Y341001D01*
X521424Y341001D01*
X524026Y339924D01*
X526017Y337932D01*
X527095Y335330D01*
X527095Y332514D01*
X526017Y329912D01*
X524026Y327921D01*
X521424Y326843D01*
X518608Y326843D01*
G37*
%LPD*%
%LPC*%
G36*
X91577Y326013D02*
X91577Y326013D01*
X88975Y327091D01*
X86983Y329082D01*
X85906Y331684D01*
X85906Y334501D01*
X86983Y337102D01*
X88975Y339094D01*
X91577Y340172D01*
X94393Y340172D01*
X96995Y339094D01*
X98986Y337102D01*
X100064Y334501D01*
X100064Y331684D01*
X98986Y329082D01*
X96995Y327091D01*
X94393Y326013D01*
X91577Y326013D01*
G37*
%LPD*%
%LPC*%
G36*
X424704Y299942D02*
X424704Y299942D01*
X422102Y301019D01*
X420111Y303011D01*
X419033Y305613D01*
X419033Y308429D01*
X420111Y311031D01*
X422102Y313022D01*
X424704Y314100D01*
X427520Y314100D01*
X430122Y313022D01*
X432114Y311031D01*
X433191Y308429D01*
X433191Y305613D01*
X432114Y303011D01*
X430122Y301019D01*
X427520Y299942D01*
X424704Y299942D01*
G37*
%LPD*%
%LPC*%
G36*
X589091Y56299D02*
X589091Y56299D01*
X586490Y57377D01*
X584498Y59368D01*
X583420Y61970D01*
X583420Y64786D01*
X584498Y67388D01*
X586490Y69379D01*
X589091Y70457D01*
X591908Y70457D01*
X594510Y69379D01*
X596501Y67388D01*
X597579Y64786D01*
X597579Y61970D01*
X596501Y59368D01*
X594510Y57377D01*
X591908Y56299D01*
X589091Y56299D01*
G37*
%LPD*%
%LPC*%
G36*
X173936Y268472D02*
X173936Y268472D01*
X171334Y269550D01*
X169343Y271541D01*
X168265Y274143D01*
X168265Y276959D01*
X169343Y279561D01*
X171334Y281553D01*
X173936Y282630D01*
X176753Y282630D01*
X179354Y281553D01*
X181346Y279561D01*
X182424Y276959D01*
X182424Y274143D01*
X181346Y271541D01*
X179354Y269550D01*
X176753Y268472D01*
X173936Y268472D01*
G37*
%LPD*%
%LPC*%
G36*
X769226Y268496D02*
X769226Y268496D01*
X766624Y269574D01*
X764633Y271566D01*
X763555Y274167D01*
X763555Y276984D01*
X764633Y279585D01*
X766624Y281577D01*
X769226Y282655D01*
X772042Y282655D01*
X774644Y281577D01*
X776636Y279585D01*
X777713Y276984D01*
X777713Y274167D01*
X776636Y271566D01*
X774644Y269574D01*
X772042Y268496D01*
X769226Y268496D01*
G37*
%LPD*%
%LPC*%
G36*
X134160Y271892D02*
X134160Y271892D01*
X131558Y272969D01*
X129567Y274961D01*
X128489Y277563D01*
X128489Y280379D01*
X129567Y282981D01*
X131558Y284972D01*
X134160Y286050D01*
X136976Y286050D01*
X139578Y284972D01*
X141570Y282981D01*
X142647Y280379D01*
X142647Y277563D01*
X141570Y274961D01*
X139578Y272969D01*
X136976Y271892D01*
X134160Y271892D01*
G37*
%LPD*%
%LPC*%
G36*
X269141Y274744D02*
X269141Y274744D01*
X266539Y275821D01*
X264548Y277813D01*
X263470Y280415D01*
X263470Y283231D01*
X264548Y285833D01*
X266539Y287824D01*
X269141Y288902D01*
X271957Y288902D01*
X274559Y287824D01*
X276551Y285833D01*
X277628Y283231D01*
X277628Y280415D01*
X276551Y277813D01*
X274559Y275821D01*
X271957Y274744D01*
X269141Y274744D01*
G37*
%LPD*%
%LPC*%
G36*
X625516Y55174D02*
X625516Y55174D01*
X622914Y56252D01*
X620923Y58243D01*
X619845Y60845D01*
X619845Y63661D01*
X620923Y66263D01*
X622914Y68255D01*
X625516Y69332D01*
X628332Y69332D01*
X630934Y68255D01*
X632926Y66263D01*
X634003Y63661D01*
X634003Y60845D01*
X632926Y58243D01*
X630934Y56252D01*
X628332Y55174D01*
X625516Y55174D01*
G37*
%LPD*%
%LPC*%
G36*
X372293Y46120D02*
X372293Y46120D01*
X369691Y47197D01*
X367700Y49189D01*
X366622Y51791D01*
X366622Y54607D01*
X367700Y57209D01*
X369691Y59200D01*
X372293Y60278D01*
X375109Y60278D01*
X377711Y59200D01*
X379703Y57209D01*
X380780Y54607D01*
X380780Y51791D01*
X379703Y49189D01*
X377711Y47197D01*
X375109Y46120D01*
X372293Y46120D01*
G37*
%LPD*%
%LPC*%
G36*
X293500Y284073D02*
X293500Y284073D01*
X290898Y285151D01*
X288906Y287143D01*
X287829Y289744D01*
X287829Y292561D01*
X288906Y295163D01*
X290898Y297154D01*
X293500Y298232D01*
X296316Y298232D01*
X298918Y297154D01*
X300909Y295163D01*
X301987Y292561D01*
X301987Y289744D01*
X300909Y287143D01*
X298918Y285151D01*
X296316Y284073D01*
X293500Y284073D01*
G37*
%LPD*%
%LPC*%
G36*
X126345Y284541D02*
X126345Y284541D01*
X123743Y285619D01*
X121751Y287610D01*
X120674Y290212D01*
X120674Y293029D01*
X121751Y295630D01*
X123743Y297622D01*
X126345Y298700D01*
X129161Y298700D01*
X131763Y297622D01*
X133754Y295630D01*
X134832Y293029D01*
X134832Y290212D01*
X133754Y287610D01*
X131763Y285619D01*
X129161Y284541D01*
X126345Y284541D01*
G37*
%LPD*%
%LPC*%
G36*
X768694Y303521D02*
X768694Y303521D01*
X766092Y304598D01*
X764101Y306590D01*
X763023Y309192D01*
X763023Y312008D01*
X764101Y314610D01*
X766092Y316601D01*
X768694Y317679D01*
X771510Y317679D01*
X774112Y316601D01*
X776104Y314610D01*
X777181Y312008D01*
X777181Y309192D01*
X776104Y306590D01*
X774112Y304598D01*
X771510Y303521D01*
X768694Y303521D01*
G37*
%LPD*%
%LPC*%
G36*
X105806Y285678D02*
X105806Y285678D01*
X103205Y286756D01*
X101213Y288748D01*
X100136Y291349D01*
X100136Y294166D01*
X101213Y296768D01*
X103205Y298759D01*
X105807Y299837D01*
X108623Y299837D01*
X111225Y298759D01*
X113216Y296768D01*
X114294Y294166D01*
X114294Y291349D01*
X113216Y288748D01*
X111225Y286756D01*
X108623Y285678D01*
X105806Y285678D01*
G37*
%LPD*%
%LPC*%
G36*
X769333Y198448D02*
X769333Y198448D01*
X766731Y199526D01*
X764740Y201517D01*
X763662Y204119D01*
X763662Y206935D01*
X764740Y209537D01*
X766731Y211528D01*
X769333Y212606D01*
X772149Y212606D01*
X774751Y211528D01*
X776743Y209537D01*
X777821Y206935D01*
X777821Y204119D01*
X776743Y201517D01*
X774751Y199526D01*
X772150Y198448D01*
X769333Y198448D01*
G37*
%LPD*%
%LPC*%
G36*
X413863Y116280D02*
X413863Y116280D01*
X411262Y117358D01*
X409270Y119349D01*
X408192Y121951D01*
X408192Y124768D01*
X409270Y127369D01*
X411262Y129361D01*
X413863Y130439D01*
X416680Y130439D01*
X419282Y129361D01*
X421273Y127369D01*
X422351Y124768D01*
X422351Y121951D01*
X421273Y119349D01*
X419282Y117358D01*
X416680Y116280D01*
X413863Y116280D01*
G37*
%LPD*%
%LPC*%
G36*
X588921Y100412D02*
X588921Y100412D01*
X586320Y101490D01*
X584328Y103481D01*
X583250Y106083D01*
X583250Y108899D01*
X584328Y111501D01*
X586320Y113493D01*
X588921Y114570D01*
X591738Y114570D01*
X594340Y113493D01*
X596331Y111501D01*
X597409Y108899D01*
X597409Y106083D01*
X596331Y103481D01*
X594340Y101490D01*
X591738Y100412D01*
X588921Y100412D01*
G37*
%LPD*%
%LPC*%
G36*
X417265Y95065D02*
X417265Y95065D01*
X414663Y96143D01*
X412672Y98134D01*
X411594Y100736D01*
X411594Y103552D01*
X412672Y106154D01*
X414663Y108146D01*
X417265Y109223D01*
X420081Y109223D01*
X422683Y108146D01*
X424675Y106154D01*
X425752Y103552D01*
X425752Y100736D01*
X424675Y98134D01*
X422683Y96143D01*
X420081Y95065D01*
X417265Y95065D01*
G37*
%LPD*%
%LPC*%
G36*
X656694Y134469D02*
X656694Y134469D01*
X654093Y135546D01*
X652101Y137538D01*
X651023Y140140D01*
X651023Y142956D01*
X652101Y145558D01*
X654093Y147549D01*
X656694Y148627D01*
X659511Y148627D01*
X662113Y147549D01*
X664104Y145558D01*
X665182Y142956D01*
X665182Y140140D01*
X664104Y137538D01*
X662113Y135546D01*
X659511Y134469D01*
X656694Y134469D01*
G37*
%LPD*%
%LPC*%
G36*
X200299Y147400D02*
X200299Y147400D01*
X197697Y148478D01*
X195706Y150470D01*
X194628Y153071D01*
X194628Y155888D01*
X195706Y158490D01*
X197697Y160481D01*
X200299Y161559D01*
X203115Y161559D01*
X205717Y160481D01*
X207709Y158490D01*
X208786Y155888D01*
X208786Y153072D01*
X207709Y150470D01*
X205717Y148478D01*
X203115Y147400D01*
X200299Y147400D01*
G37*
%LPD*%
%LPC*%
G36*
X323513Y158621D02*
X323513Y158621D01*
X320911Y159699D01*
X318920Y161690D01*
X317842Y164292D01*
X317842Y167108D01*
X318920Y169710D01*
X320911Y171702D01*
X323513Y172779D01*
X326329Y172779D01*
X328931Y171702D01*
X330923Y169710D01*
X332000Y167108D01*
X332000Y164292D01*
X330923Y161690D01*
X328931Y159699D01*
X326329Y158621D01*
X323513Y158621D01*
G37*
%LPD*%
%LPC*%
G36*
X411265Y173343D02*
X411265Y173343D01*
X408663Y174420D01*
X406672Y176412D01*
X405594Y179014D01*
X405594Y181830D01*
X406672Y184432D01*
X408663Y186423D01*
X411265Y187501D01*
X414081Y187501D01*
X416683Y186423D01*
X418675Y184432D01*
X419752Y181830D01*
X419752Y179014D01*
X418675Y176412D01*
X416683Y174420D01*
X414081Y173343D01*
X411265Y173343D01*
G37*
%LPD*%
%LPC*%
G36*
X116182Y174256D02*
X116182Y174256D01*
X113580Y175334D01*
X111588Y177325D01*
X110511Y179927D01*
X110511Y182743D01*
X111588Y185345D01*
X113580Y187337D01*
X116182Y188414D01*
X118998Y188414D01*
X121600Y187337D01*
X123591Y185345D01*
X124669Y182743D01*
X124669Y179927D01*
X123591Y177325D01*
X121600Y175334D01*
X118998Y174256D01*
X116182Y174256D01*
G37*
%LPD*%
%LPC*%
G36*
X566780Y175849D02*
X566780Y175849D01*
X564178Y176926D01*
X562186Y178918D01*
X561109Y181520D01*
X561109Y184336D01*
X562186Y186938D01*
X564178Y188929D01*
X566780Y190007D01*
X569596Y190007D01*
X572198Y188929D01*
X574189Y186938D01*
X575267Y184336D01*
X575267Y181520D01*
X574189Y178918D01*
X572198Y176926D01*
X569596Y175849D01*
X566780Y175849D01*
G37*
%LPD*%
%LPC*%
G36*
X130653Y176722D02*
X130653Y176722D01*
X128051Y177800D01*
X126060Y179792D01*
X124982Y182393D01*
X124982Y185210D01*
X126060Y187812D01*
X128051Y189803D01*
X130653Y190881D01*
X133469Y190881D01*
X136071Y189803D01*
X138063Y187812D01*
X139140Y185210D01*
X139140Y182393D01*
X138063Y179792D01*
X136071Y177800D01*
X133469Y176722D01*
X130653Y176722D01*
G37*
%LPD*%
%LPC*%
G36*
X174698Y180267D02*
X174698Y180267D01*
X172096Y181345D01*
X170105Y183336D01*
X169027Y185938D01*
X169027Y188754D01*
X170105Y191356D01*
X172096Y193348D01*
X174698Y194425D01*
X177514Y194425D01*
X180116Y193348D01*
X182108Y191356D01*
X183185Y188754D01*
X183185Y185938D01*
X182108Y183336D01*
X180116Y181345D01*
X177514Y180267D01*
X174698Y180267D01*
G37*
%LPD*%
%LPC*%
G36*
X157680Y192087D02*
X157680Y192087D01*
X155079Y193165D01*
X153087Y195157D01*
X152009Y197758D01*
X152009Y200575D01*
X153087Y203177D01*
X155079Y205168D01*
X157680Y206246D01*
X160497Y206246D01*
X163099Y205168D01*
X165090Y203177D01*
X166168Y200575D01*
X166168Y197758D01*
X165090Y195157D01*
X163099Y193165D01*
X160497Y192087D01*
X157680Y192087D01*
G37*
%LPD*%
%LPC*%
G36*
X383575Y258099D02*
X383575Y258099D01*
X380973Y259177D01*
X378982Y261168D01*
X377904Y263770D01*
X377904Y266587D01*
X378982Y269188D01*
X380973Y271180D01*
X383575Y272258D01*
X386392Y272258D01*
X388993Y271180D01*
X390985Y269188D01*
X392063Y266587D01*
X392063Y263770D01*
X390985Y261168D01*
X388993Y259177D01*
X386392Y258099D01*
X383575Y258099D01*
G37*
%LPD*%
%LPC*%
G36*
X538450Y89380D02*
X538450Y89380D01*
X535848Y90458D01*
X533857Y92450D01*
X532779Y95051D01*
X532779Y97868D01*
X533857Y100470D01*
X535848Y102461D01*
X538450Y103539D01*
X541267Y103539D01*
X543868Y102461D01*
X545860Y100470D01*
X546938Y97868D01*
X546938Y95051D01*
X545860Y92450D01*
X543868Y90458D01*
X541267Y89380D01*
X538450Y89380D01*
G37*
%LPD*%
%LPC*%
G36*
X42205Y207473D02*
X42205Y207473D01*
X39603Y208550D01*
X37611Y210542D01*
X36534Y213144D01*
X36534Y215960D01*
X37611Y218562D01*
X39603Y220553D01*
X42205Y221631D01*
X45021Y221631D01*
X47623Y220553D01*
X49614Y218562D01*
X50692Y215960D01*
X50692Y213144D01*
X49614Y210542D01*
X47623Y208550D01*
X45021Y207473D01*
X42205Y207473D01*
G37*
%LPD*%
%LPC*%
G36*
X120689Y210910D02*
X120689Y210910D01*
X118087Y211987D01*
X116096Y213979D01*
X115018Y216581D01*
X115018Y219397D01*
X116096Y221999D01*
X118087Y223990D01*
X120689Y225068D01*
X123505Y225068D01*
X126107Y223990D01*
X128099Y221999D01*
X129176Y219397D01*
X129176Y216581D01*
X128099Y213979D01*
X126107Y211987D01*
X123505Y210910D01*
X120689Y210910D01*
G37*
%LPD*%
%LPC*%
G36*
X106471Y214367D02*
X106471Y214367D01*
X103869Y215445D01*
X101878Y217436D01*
X100800Y220038D01*
X100800Y222854D01*
X101878Y225456D01*
X103869Y227448D01*
X106471Y228525D01*
X109287Y228525D01*
X111889Y227448D01*
X113881Y225456D01*
X114959Y222854D01*
X114959Y220038D01*
X113881Y217436D01*
X111889Y215445D01*
X109288Y214367D01*
X106471Y214367D01*
G37*
%LPD*%
%LPC*%
G36*
X455554Y217536D02*
X455554Y217536D01*
X452952Y218614D01*
X450961Y220605D01*
X449883Y223207D01*
X449883Y226023D01*
X450961Y228625D01*
X452952Y230617D01*
X455554Y231694D01*
X458370Y231694D01*
X460972Y230617D01*
X462964Y228625D01*
X464041Y226023D01*
X464041Y223207D01*
X462964Y220605D01*
X460972Y218614D01*
X458370Y217536D01*
X455554Y217536D01*
G37*
%LPD*%
%LPC*%
G36*
X53020Y232980D02*
X53020Y232980D01*
X50419Y234057D01*
X48427Y236049D01*
X47349Y238651D01*
X47349Y241467D01*
X48427Y244069D01*
X50419Y246060D01*
X53020Y247138D01*
X55837Y247138D01*
X58439Y246060D01*
X60430Y244069D01*
X61508Y241467D01*
X61508Y238651D01*
X60430Y236049D01*
X58439Y234057D01*
X55837Y232980D01*
X53020Y232980D01*
G37*
%LPD*%
%LPC*%
G36*
X769025Y234165D02*
X769025Y234165D01*
X766423Y235243D01*
X764432Y237234D01*
X763354Y239836D01*
X763354Y242652D01*
X764432Y245254D01*
X766423Y247246D01*
X769025Y248323D01*
X771842Y248323D01*
X774443Y247246D01*
X776435Y245254D01*
X777513Y242652D01*
X777513Y239836D01*
X776435Y237234D01*
X774443Y235243D01*
X771842Y234165D01*
X769025Y234165D01*
G37*
%LPD*%
%LPC*%
G36*
X329338Y243811D02*
X329338Y243811D01*
X326736Y244889D01*
X324744Y246880D01*
X323667Y249482D01*
X323667Y252298D01*
X324744Y254900D01*
X326736Y256891D01*
X329338Y257969D01*
X332154Y257969D01*
X334756Y256891D01*
X336747Y254900D01*
X337825Y252298D01*
X337825Y249482D01*
X336747Y246880D01*
X334756Y244889D01*
X332154Y243811D01*
X329338Y243811D01*
G37*
%LPD*%
%LPC*%
G36*
X111325Y82223D02*
X111325Y82223D01*
X108723Y83300D01*
X106731Y85292D01*
X105654Y87893D01*
X105654Y90710D01*
X106731Y93312D01*
X108723Y95303D01*
X111325Y96381D01*
X114141Y96381D01*
X116743Y95303D01*
X118734Y93312D01*
X119812Y90710D01*
X119812Y87894D01*
X118734Y85292D01*
X116743Y83300D01*
X114141Y82223D01*
X111325Y82223D01*
G37*
%LPD*%
%LPC*%
G36*
X563267Y252149D02*
X563267Y252149D01*
X560665Y253226D01*
X558673Y255218D01*
X557596Y257820D01*
X557596Y260636D01*
X558673Y263238D01*
X560665Y265229D01*
X563267Y266307D01*
X566083Y266307D01*
X568685Y265229D01*
X570676Y263238D01*
X571754Y260636D01*
X571754Y257820D01*
X570676Y255218D01*
X568685Y253226D01*
X566083Y252149D01*
X563267Y252149D01*
G37*
%LPD*%
%LPC*%
G36*
X358389Y257925D02*
X358389Y257925D01*
X355787Y259003D01*
X353796Y260994D01*
X352718Y263596D01*
X352718Y266412D01*
X353796Y269014D01*
X355787Y271006D01*
X358389Y272083D01*
X361206Y272083D01*
X363807Y271006D01*
X365799Y269014D01*
X366877Y266412D01*
X366877Y263596D01*
X365799Y260994D01*
X363807Y259003D01*
X361206Y257925D01*
X358389Y257925D01*
G37*
%LPD*%
%LPC*%
G36*
X769095Y338882D02*
X769095Y338882D01*
X766493Y339960D01*
X764502Y341951D01*
X763424Y344553D01*
X763424Y347370D01*
X764502Y349971D01*
X766493Y351963D01*
X769095Y353041D01*
X771911Y353041D01*
X774513Y351963D01*
X776505Y349971D01*
X777582Y347369D01*
X777582Y344553D01*
X776505Y341951D01*
X774513Y339960D01*
X771911Y338882D01*
X769095Y338882D01*
G37*
%LPD*%
%LPC*%
G36*
X550600Y344764D02*
X550600Y344764D01*
X547999Y345842D01*
X546007Y347833D01*
X544929Y350435D01*
X544929Y353251D01*
X546007Y355853D01*
X547999Y357845D01*
X550600Y358922D01*
X553417Y358922D01*
X556019Y357845D01*
X558010Y355853D01*
X559088Y353251D01*
X559088Y350435D01*
X558010Y347833D01*
X556019Y345842D01*
X553417Y344764D01*
X550600Y344764D01*
G37*
%LPD*%
%LPC*%
G36*
X405296Y348327D02*
X405296Y348327D01*
X402694Y349404D01*
X400703Y351396D01*
X399625Y353998D01*
X399625Y356814D01*
X400703Y359416D01*
X402694Y361407D01*
X405296Y362485D01*
X408112Y362485D01*
X410714Y361407D01*
X412706Y359416D01*
X413783Y356814D01*
X413783Y353998D01*
X412706Y351396D01*
X410714Y349404D01*
X408112Y348327D01*
X405296Y348327D01*
G37*
%LPD*%
%LPC*%
G36*
X348125Y358893D02*
X348125Y358893D01*
X345524Y359970D01*
X343532Y361962D01*
X342454Y364564D01*
X342454Y367380D01*
X343532Y369982D01*
X345524Y371973D01*
X348125Y373051D01*
X350942Y373051D01*
X353544Y371973D01*
X355535Y369982D01*
X356613Y367380D01*
X356613Y364564D01*
X355535Y361962D01*
X353544Y359970D01*
X350942Y358893D01*
X348125Y358893D01*
G37*
%LPD*%
%LPC*%
G36*
X535624Y359258D02*
X535624Y359258D01*
X533022Y360336D01*
X531031Y362327D01*
X529953Y364929D01*
X529953Y367746D01*
X531031Y370347D01*
X533022Y372339D01*
X535624Y373417D01*
X538440Y373417D01*
X541042Y372339D01*
X543034Y370347D01*
X544111Y367746D01*
X544111Y364929D01*
X543034Y362327D01*
X541042Y360336D01*
X538440Y359258D01*
X535624Y359258D01*
G37*
%LPD*%
%LPC*%
G36*
X433024Y338819D02*
X433024Y338819D01*
X430423Y339896D01*
X428431Y341888D01*
X427353Y344490D01*
X427353Y347306D01*
X428431Y349908D01*
X430423Y351899D01*
X433024Y352977D01*
X435841Y352977D01*
X438443Y351899D01*
X440434Y349908D01*
X441512Y347306D01*
X441512Y344490D01*
X440434Y341888D01*
X438443Y339896D01*
X435841Y338819D01*
X433024Y338819D01*
G37*
%LPD*%
%LPC*%
G36*
X642226Y44542D02*
X642226Y44542D01*
X639625Y45619D01*
X637633Y47611D01*
X636555Y50213D01*
X636555Y53029D01*
X637633Y55631D01*
X639625Y57622D01*
X642226Y58700D01*
X645043Y58700D01*
X647645Y57622D01*
X649636Y55631D01*
X650714Y53029D01*
X650714Y50213D01*
X649636Y47611D01*
X647645Y45619D01*
X645043Y44542D01*
X642226Y44542D01*
G37*
%LPD*%
%LPC*%
G36*
X769156Y373368D02*
X769156Y373368D01*
X766554Y374446D01*
X764563Y376437D01*
X763485Y379039D01*
X763485Y381855D01*
X764563Y384457D01*
X766554Y386449D01*
X769156Y387526D01*
X771973Y387526D01*
X774574Y386449D01*
X776566Y384457D01*
X777644Y381855D01*
X777644Y379039D01*
X776566Y376437D01*
X774574Y374446D01*
X771973Y373368D01*
X769156Y373368D01*
G37*
%LPD*%
%LPC*%
G36*
X348206Y373399D02*
X348206Y373399D01*
X345604Y374477D01*
X343613Y376468D01*
X342535Y379070D01*
X342535Y381886D01*
X343613Y384488D01*
X345604Y386480D01*
X348206Y387557D01*
X351023Y387557D01*
X353624Y386480D01*
X355616Y384488D01*
X356694Y381886D01*
X356694Y379070D01*
X355616Y376468D01*
X353624Y374477D01*
X351023Y373399D01*
X348206Y373399D01*
G37*
%LPD*%
%LPC*%
G36*
X769054Y407929D02*
X769054Y407929D01*
X766453Y409007D01*
X764461Y410998D01*
X763383Y413600D01*
X763383Y416416D01*
X764461Y419018D01*
X766453Y421010D01*
X769055Y422087D01*
X771871Y422087D01*
X774473Y421010D01*
X776464Y419018D01*
X777542Y416416D01*
X777542Y413600D01*
X776464Y410998D01*
X774473Y409007D01*
X771871Y407929D01*
X769054Y407929D01*
G37*
%LPD*%
%LPC*%
G36*
X287126Y404043D02*
X287126Y404043D01*
X284524Y405120D01*
X282533Y407112D01*
X281455Y409714D01*
X281455Y412530D01*
X282533Y415132D01*
X284524Y417123D01*
X287126Y418201D01*
X289942Y418201D01*
X292544Y417123D01*
X294536Y415132D01*
X295614Y412530D01*
X295614Y409714D01*
X294536Y407112D01*
X292544Y405120D01*
X289943Y404043D01*
X287126Y404043D01*
G37*
%LPD*%
%LPC*%
G36*
X459020Y397964D02*
X459020Y397964D01*
X456418Y399041D01*
X454427Y401033D01*
X453349Y403635D01*
X453349Y406451D01*
X454427Y409053D01*
X456418Y411044D01*
X459020Y412122D01*
X461836Y412122D01*
X464438Y411044D01*
X466429Y409053D01*
X467507Y406451D01*
X467507Y403635D01*
X466429Y401033D01*
X464438Y399041D01*
X461836Y397964D01*
X459020Y397964D01*
G37*
%LPD*%
%LPC*%
G36*
X219267Y9938D02*
X219267Y9938D01*
X216665Y11016D01*
X214674Y13007D01*
X213596Y15609D01*
X213596Y18426D01*
X214674Y21027D01*
X216665Y23019D01*
X219267Y24097D01*
X222083Y24097D01*
X224685Y23019D01*
X226677Y21027D01*
X227754Y18426D01*
X227754Y15609D01*
X226677Y13007D01*
X224685Y11016D01*
X222083Y9938D01*
X219267Y9938D01*
G37*
%LPD*%
%LPC*%
G36*
X325559Y385575D02*
X325559Y385575D01*
X322957Y386653D01*
X320966Y388644D01*
X319888Y391246D01*
X319888Y394062D01*
X320966Y396664D01*
X322957Y398656D01*
X325559Y399733D01*
X328376Y399733D01*
X330977Y398656D01*
X332969Y396664D01*
X334047Y394062D01*
X334047Y391246D01*
X332969Y388644D01*
X330977Y386653D01*
X328376Y385575D01*
X325559Y385575D01*
G37*
%LPD*%
%LPC*%
G36*
X72430Y411799D02*
X72430Y411799D01*
X69828Y412877D01*
X67836Y414868D01*
X66759Y417470D01*
X66759Y420286D01*
X67836Y422888D01*
X69828Y424880D01*
X72430Y425957D01*
X75246Y425957D01*
X77848Y424880D01*
X79839Y422888D01*
X80917Y420286D01*
X80917Y417470D01*
X79839Y414868D01*
X77848Y412877D01*
X75246Y411799D01*
X72430Y411799D01*
G37*
%LPD*%
%LPC*%
G36*
X438710Y255279D02*
X438710Y255279D01*
X436108Y256356D01*
X434117Y258348D01*
X433039Y260950D01*
X433039Y263766D01*
X434117Y266368D01*
X436108Y268359D01*
X438710Y269437D01*
X441526Y269437D01*
X444128Y268359D01*
X446120Y266368D01*
X447197Y263766D01*
X447197Y260950D01*
X446120Y258348D01*
X444128Y256356D01*
X441526Y255279D01*
X438710Y255279D01*
G37*
%LPD*%
%LPC*%
G36*
X416571Y39780D02*
X416571Y39780D01*
X416571Y40763D01*
X416572Y40768D01*
X416575Y40783D01*
X416578Y40797D01*
X416578Y40798D01*
X416580Y40807D01*
X416583Y40822D01*
X416586Y40837D01*
X416588Y40847D01*
X416591Y40862D01*
X416594Y40877D01*
X416599Y40902D01*
X416602Y40917D01*
X416607Y40942D01*
X416610Y40956D01*
X416610Y40957D01*
X416615Y40981D01*
X416618Y40996D01*
X416621Y41011D01*
X416623Y41021D01*
X416625Y41036D01*
X416626Y41036D01*
X416625Y41036D01*
X416628Y41051D01*
X416630Y41061D01*
X416633Y41076D01*
X416636Y41091D01*
X416641Y41115D01*
X416641Y41116D01*
X416644Y41130D01*
X416649Y41155D01*
X416652Y41170D01*
X416657Y41195D01*
X416660Y41210D01*
X416663Y41225D01*
X416665Y41235D01*
X416668Y41250D01*
X416671Y41265D01*
X416673Y41274D01*
X416676Y41289D01*
X416679Y41304D01*
X416681Y41314D01*
X416684Y41329D01*
X416687Y41344D01*
X416692Y41369D01*
X416695Y41384D01*
X416700Y41409D01*
X416703Y41424D01*
X416706Y41438D01*
X416708Y41448D01*
X416710Y41463D01*
X416711Y41463D01*
X416710Y41463D01*
X416713Y41478D01*
X416715Y41488D01*
X416718Y41503D01*
X416721Y41518D01*
X416723Y41528D01*
X416726Y41543D01*
X416729Y41558D01*
X416734Y41583D01*
X416737Y41597D01*
X416742Y41622D01*
X416745Y41637D01*
X416748Y41652D01*
X416750Y41662D01*
X416753Y41677D01*
X416756Y41692D01*
X416758Y41702D01*
X416761Y41717D01*
X416764Y41732D01*
X416766Y41742D01*
X416769Y41756D01*
X416772Y41771D01*
X416777Y41796D01*
X416780Y41811D01*
X416785Y41836D01*
X416788Y41851D01*
X416791Y41866D01*
X416793Y41876D01*
X416795Y41891D01*
X416796Y41891D01*
X416795Y41891D01*
X416798Y41905D01*
X416798Y41906D01*
X416800Y41915D01*
X416803Y41930D01*
X416806Y41945D01*
X416808Y41955D01*
X416811Y41970D01*
X416814Y41985D01*
X416819Y42010D01*
X416822Y42025D01*
X416827Y42050D01*
X416830Y42064D01*
X416830Y42065D01*
X416833Y42079D01*
X416835Y42089D01*
X416838Y42104D01*
X416841Y42119D01*
X416843Y42129D01*
X416846Y42144D01*
X416849Y42159D01*
X416851Y42169D01*
X416854Y42184D01*
X416857Y42199D01*
X416862Y42223D01*
X416862Y42224D01*
X416865Y42238D01*
X416870Y42263D01*
X416873Y42278D01*
X416878Y42303D01*
X416880Y42318D01*
X416881Y42318D01*
X416880Y42318D01*
X416883Y42333D01*
X416885Y42343D01*
X416888Y42358D01*
X416891Y42373D01*
X416893Y42382D01*
X416893Y42383D01*
X416896Y42397D01*
X416899Y42412D01*
X416904Y42437D01*
X416907Y42452D01*
X416912Y42477D01*
X416915Y42492D01*
X416920Y42517D01*
X416923Y42532D01*
X416926Y42546D01*
X416926Y42547D01*
X416928Y42556D01*
X416931Y42571D01*
X416934Y42586D01*
X416936Y42596D01*
X416939Y42611D01*
X416942Y42626D01*
X416947Y42651D01*
X416950Y42666D01*
X416955Y42691D01*
X416957Y42702D01*
X417713Y44528D01*
X418812Y46172D01*
X420209Y47570D01*
X421853Y48668D01*
X423679Y49425D01*
X425618Y49810D01*
X426601Y49810D01*
X426601Y39780D01*
X416571Y39780D01*
G37*
%LPD*%
%LPC*%
G36*
X426612Y39780D02*
X426612Y39780D01*
X426612Y49810D01*
X427595Y49810D01*
X429534Y49425D01*
X431360Y48668D01*
X433004Y47570D01*
X434401Y46172D01*
X435500Y44528D01*
X436256Y42702D01*
X436642Y40763D01*
X436642Y39780D01*
X426612Y39780D01*
G37*
%LPD*%
%LPC*%
G36*
X426612Y29740D02*
X426612Y29740D01*
X426612Y39770D01*
X436642Y39770D01*
X436642Y38787D01*
X436640Y38776D01*
X436637Y38762D01*
X436634Y38747D01*
X436632Y38737D01*
X436629Y38722D01*
X436626Y38707D01*
X436624Y38697D01*
X436621Y38682D01*
X436618Y38667D01*
X436613Y38642D01*
X436610Y38627D01*
X436605Y38603D01*
X436602Y38588D01*
X436597Y38563D01*
X436594Y38548D01*
X436591Y38533D01*
X436589Y38523D01*
X436586Y38508D01*
X436583Y38493D01*
X436581Y38483D01*
X436578Y38468D01*
X436575Y38454D01*
X436575Y38453D01*
X436573Y38444D01*
X436570Y38429D01*
X436568Y38414D01*
X436567Y38414D01*
X436568Y38414D01*
X436563Y38389D01*
X436560Y38374D01*
X436555Y38349D01*
X436552Y38334D01*
X436549Y38319D01*
X436547Y38309D01*
X436544Y38295D01*
X436544Y38294D01*
X436541Y38280D01*
X436539Y38270D01*
X436536Y38255D01*
X436533Y38240D01*
X436531Y38230D01*
X436528Y38215D01*
X436525Y38200D01*
X436520Y38175D01*
X436517Y38160D01*
X436512Y38136D01*
X436512Y38135D01*
X436509Y38121D01*
X436506Y38106D01*
X436504Y38096D01*
X436501Y38081D01*
X436498Y38066D01*
X436496Y38056D01*
X436493Y38041D01*
X436490Y38026D01*
X436488Y38016D01*
X436485Y38001D01*
X436483Y37986D01*
X436482Y37986D01*
X436483Y37986D01*
X436478Y37962D01*
X436475Y37947D01*
X436470Y37922D01*
X436467Y37907D01*
X436464Y37892D01*
X436462Y37882D01*
X436459Y37867D01*
X436456Y37852D01*
X436454Y37842D01*
X436451Y37827D01*
X436448Y37813D01*
X436448Y37812D01*
X436446Y37803D01*
X436443Y37788D01*
X436440Y37773D01*
X436435Y37748D01*
X436432Y37733D01*
X436427Y37708D01*
X436424Y37693D01*
X436421Y37678D01*
X436419Y37668D01*
X436416Y37654D01*
X436416Y37653D01*
X436413Y37639D01*
X436411Y37629D01*
X436408Y37614D01*
X436405Y37599D01*
X436403Y37589D01*
X436400Y37574D01*
X436398Y37559D01*
X436397Y37559D01*
X436398Y37559D01*
X436393Y37534D01*
X436390Y37519D01*
X436385Y37495D01*
X436385Y37494D01*
X436382Y37480D01*
X436379Y37465D01*
X436377Y37455D01*
X436374Y37440D01*
X436371Y37425D01*
X436369Y37415D01*
X436366Y37400D01*
X436363Y37385D01*
X436361Y37375D01*
X436358Y37360D01*
X436355Y37345D01*
X436350Y37321D01*
X436347Y37306D01*
X436342Y37281D01*
X436339Y37266D01*
X436334Y37241D01*
X436331Y37226D01*
X436328Y37211D01*
X436326Y37201D01*
X436323Y37186D01*
X436320Y37172D01*
X436318Y37162D01*
X436315Y37147D01*
X436313Y37132D01*
X436312Y37132D01*
X436313Y37132D01*
X436308Y37107D01*
X436305Y37092D01*
X436300Y37067D01*
X436297Y37052D01*
X436292Y37027D01*
X436289Y37013D01*
X436286Y36998D01*
X436284Y36988D01*
X436281Y36973D01*
X436278Y36958D01*
X436276Y36948D01*
X436273Y36933D01*
X436270Y36918D01*
X436265Y36893D01*
X436262Y36878D01*
X436257Y36854D01*
X436256Y36848D01*
X435500Y35022D01*
X434401Y33378D01*
X433004Y31980D01*
X431360Y30882D01*
X429534Y30125D01*
X427595Y29740D01*
X426612Y29740D01*
G37*
%LPD*%
%LPC*%
G36*
X425618Y29740D02*
X425618Y29740D01*
X423679Y30125D01*
X421853Y30882D01*
X420209Y31980D01*
X418812Y33378D01*
X417713Y35022D01*
X416957Y36848D01*
X416571Y38786D01*
X416571Y39770D01*
X426601Y39770D01*
X426601Y29740D01*
X425618Y29740D01*
G37*
%LPD*%
%LPC*%
G36*
X46213Y11324D02*
X46213Y11324D01*
X46213Y16874D01*
X46407Y16874D01*
X46408Y16874D01*
X46409Y16875D01*
X46412Y16878D01*
X46412Y16879D01*
X46412Y16880D01*
X46114Y17993D01*
X46114Y18719D01*
X51664Y18719D01*
X51664Y13169D01*
X51470Y13169D01*
X51469Y13169D01*
X51468Y13168D01*
X51465Y13165D01*
X51466Y13164D01*
X51465Y13163D01*
X51763Y12050D01*
X51763Y11324D01*
X46213Y11324D01*
G37*
%LPD*%
%LPC*%
G36*
X616715Y33541D02*
X616715Y33541D01*
X616715Y39091D01*
X617441Y39091D01*
X618854Y38712D01*
X620121Y37981D01*
X621155Y36947D01*
X621886Y35680D01*
X622265Y34267D01*
X622265Y33541D01*
X616715Y33541D01*
G37*
%LPD*%
%LPC*%
G36*
X770502Y328607D02*
X770502Y328607D01*
X770502Y334157D01*
X771228Y334157D01*
X772641Y333779D01*
X773908Y333047D01*
X774942Y332013D01*
X775674Y330746D01*
X776052Y329333D01*
X776052Y328607D01*
X770502Y328607D01*
G37*
%LPD*%
%LPC*%
G36*
X414236Y255259D02*
X414236Y255259D01*
X414236Y260809D01*
X414962Y260809D01*
X416375Y260430D01*
X417642Y259699D01*
X418676Y258665D01*
X419407Y257398D01*
X419786Y255985D01*
X419786Y255259D01*
X414236Y255259D01*
G37*
%LPD*%
%LPC*%
G36*
X61132Y422495D02*
X61132Y422495D01*
X61132Y428045D01*
X61858Y428045D01*
X63271Y427666D01*
X64538Y426935D01*
X65572Y425900D01*
X66303Y424634D01*
X66682Y423221D01*
X66682Y422495D01*
X61132Y422495D01*
G37*
%LPD*%
%LPC*%
G36*
X244452Y280832D02*
X244452Y280832D01*
X244452Y286382D01*
X245179Y286382D01*
X246592Y286003D01*
X247858Y285272D01*
X248893Y284238D01*
X249624Y282971D01*
X250003Y281558D01*
X250003Y280832D01*
X244452Y280832D01*
G37*
%LPD*%
%LPC*%
G36*
X362059Y292413D02*
X362059Y292413D01*
X362059Y297963D01*
X362785Y297963D01*
X364198Y297584D01*
X365465Y296853D01*
X366499Y295819D01*
X367231Y294552D01*
X367609Y293139D01*
X367609Y292413D01*
X362059Y292413D01*
G37*
%LPD*%
%LPC*%
G36*
X459951Y367949D02*
X459951Y367949D01*
X459951Y373499D01*
X460678Y373499D01*
X462090Y373120D01*
X463357Y372389D01*
X464391Y371354D01*
X465123Y370088D01*
X465501Y368675D01*
X465501Y367949D01*
X459951Y367949D01*
G37*
%LPD*%
%LPC*%
G36*
X71300Y93695D02*
X71300Y93695D01*
X71300Y99245D01*
X72026Y99245D01*
X73439Y98866D01*
X74706Y98135D01*
X75740Y97101D01*
X76471Y95834D01*
X76850Y94421D01*
X76850Y93695D01*
X71300Y93695D01*
G37*
%LPD*%
%LPC*%
G36*
X748320Y30370D02*
X748320Y30370D01*
X748320Y35920D01*
X749047Y35920D01*
X750460Y35542D01*
X751726Y34810D01*
X752761Y33776D01*
X753492Y32509D01*
X753871Y31097D01*
X753871Y30370D01*
X748320Y30370D01*
G37*
%LPD*%
%LPC*%
G36*
X571726Y375176D02*
X571726Y375176D01*
X571726Y380726D01*
X572452Y380726D01*
X573865Y380347D01*
X575132Y379616D01*
X576166Y378582D01*
X576898Y377315D01*
X577276Y375902D01*
X577276Y375176D01*
X571726Y375176D01*
G37*
%LPD*%
%LPC*%
G36*
X443000Y230896D02*
X443000Y230896D01*
X443000Y236446D01*
X443726Y236446D01*
X445139Y236067D01*
X446405Y235336D01*
X447440Y234301D01*
X448171Y233035D01*
X448550Y231622D01*
X448550Y230896D01*
X443000Y230896D01*
G37*
%LPD*%
%LPC*%
G36*
X770494Y294209D02*
X770494Y294209D01*
X770494Y299759D01*
X771220Y299759D01*
X772633Y299380D01*
X773900Y298649D01*
X774934Y297615D01*
X775666Y296348D01*
X776044Y294935D01*
X776044Y294209D01*
X770494Y294209D01*
G37*
%LPD*%
%LPC*%
G36*
X405079Y110138D02*
X405079Y110138D01*
X405079Y115688D01*
X405805Y115688D01*
X407218Y115309D01*
X408485Y114578D01*
X409519Y113543D01*
X410250Y112277D01*
X410629Y110864D01*
X410629Y110138D01*
X405079Y110138D01*
G37*
%LPD*%
%LPC*%
G36*
X43502Y430667D02*
X43502Y430667D01*
X43502Y436217D01*
X44228Y436217D01*
X45641Y435838D01*
X46907Y435107D01*
X47942Y434073D01*
X48673Y432806D01*
X49052Y431393D01*
X49052Y430667D01*
X43502Y430667D01*
G37*
%LPD*%
%LPC*%
G36*
X770630Y223545D02*
X770630Y223545D01*
X770630Y229095D01*
X771356Y229095D01*
X772769Y228716D01*
X774035Y227985D01*
X775070Y226950D01*
X775801Y225684D01*
X776180Y224271D01*
X776180Y223545D01*
X770630Y223545D01*
G37*
%LPD*%
%LPC*%
G36*
X519753Y297554D02*
X519753Y297554D01*
X519753Y303104D01*
X520480Y303104D01*
X521892Y302726D01*
X523159Y301994D01*
X524193Y300960D01*
X524925Y299693D01*
X525303Y298280D01*
X525303Y297554D01*
X519753Y297554D01*
G37*
%LPD*%
%LPC*%
G36*
X406192Y410467D02*
X406192Y410467D01*
X406192Y416017D01*
X406919Y416017D01*
X408331Y415638D01*
X409598Y414907D01*
X410633Y413872D01*
X411364Y412606D01*
X411742Y411193D01*
X411742Y410467D01*
X406192Y410467D01*
G37*
%LPD*%
%LPC*%
G36*
X51674Y18730D02*
X51674Y18730D01*
X51674Y24280D01*
X52401Y24280D01*
X53813Y23901D01*
X55080Y23170D01*
X56114Y22136D01*
X56846Y20869D01*
X57224Y19456D01*
X57224Y18730D01*
X51674Y18730D01*
G37*
%LPD*%
%LPC*%
G36*
X277919Y17215D02*
X277919Y17215D01*
X277919Y22765D01*
X278645Y22765D01*
X280058Y22387D01*
X281324Y21655D01*
X282359Y20621D01*
X283090Y19354D01*
X283469Y17941D01*
X283469Y17215D01*
X277919Y17215D01*
G37*
%LPD*%
%LPC*%
G36*
X486106Y213054D02*
X486106Y213054D01*
X486106Y218604D01*
X486832Y218604D01*
X488245Y218226D01*
X489512Y217494D01*
X490546Y216460D01*
X491277Y215193D01*
X491656Y213780D01*
X491656Y213054D01*
X486106Y213054D01*
G37*
%LPD*%
%LPC*%
G36*
X136000Y323387D02*
X136000Y323387D01*
X136000Y328937D01*
X136726Y328937D01*
X138139Y328559D01*
X139405Y327828D01*
X140440Y326793D01*
X141171Y325526D01*
X141550Y324114D01*
X141550Y323387D01*
X136000Y323387D01*
G37*
%LPD*%
%LPC*%
G36*
X770468Y398683D02*
X770468Y398683D01*
X770468Y404233D01*
X771194Y404233D01*
X772607Y403855D01*
X773874Y403123D01*
X774908Y402089D01*
X775639Y400822D01*
X776018Y399409D01*
X776018Y398683D01*
X770468Y398683D01*
G37*
%LPD*%
%LPC*%
G36*
X770394Y433051D02*
X770394Y433051D01*
X770394Y438601D01*
X771120Y438601D01*
X772533Y438222D01*
X773799Y437491D01*
X774834Y436456D01*
X775565Y435190D01*
X775944Y433777D01*
X775944Y433051D01*
X770394Y433051D01*
G37*
%LPD*%
%LPC*%
G36*
X232207Y145021D02*
X232207Y145021D01*
X232207Y150571D01*
X232933Y150571D01*
X234346Y150192D01*
X235613Y149461D01*
X236647Y148427D01*
X237379Y147160D01*
X237757Y145747D01*
X237757Y145021D01*
X232207Y145021D01*
G37*
%LPD*%
%LPC*%
G36*
X456739Y101828D02*
X456739Y101828D01*
X456739Y107378D01*
X457466Y107378D01*
X458879Y106999D01*
X460145Y106268D01*
X461180Y105234D01*
X461911Y103967D01*
X462290Y102554D01*
X462290Y101828D01*
X456739Y101828D01*
G37*
%LPD*%
%LPC*%
G36*
X510780Y350350D02*
X510780Y350350D01*
X510780Y355900D01*
X511507Y355900D01*
X512919Y355522D01*
X514186Y354790D01*
X515221Y353756D01*
X515952Y352489D01*
X516330Y351076D01*
X516330Y350350D01*
X510780Y350350D01*
G37*
%LPD*%
%LPC*%
G36*
X453179Y279679D02*
X453179Y279679D01*
X453179Y285229D01*
X453905Y285229D01*
X455318Y284851D01*
X456585Y284119D01*
X457619Y283085D01*
X458350Y281818D01*
X458729Y280405D01*
X458729Y279679D01*
X453179Y279679D01*
G37*
%LPD*%
%LPC*%
G36*
X288458Y353815D02*
X288458Y353815D01*
X288458Y359366D01*
X289184Y359366D01*
X290597Y358987D01*
X291864Y358256D01*
X292898Y357221D01*
X293629Y355955D01*
X294008Y354542D01*
X294008Y353815D01*
X288458Y353815D01*
G37*
%LPD*%
%LPC*%
G36*
X259079Y142020D02*
X259079Y142020D01*
X259079Y147570D01*
X259805Y147570D01*
X261218Y147191D01*
X262485Y146460D01*
X263519Y145426D01*
X264251Y144159D01*
X264629Y142746D01*
X264629Y142020D01*
X259079Y142020D01*
G37*
%LPD*%
%LPC*%
G36*
X81945Y144842D02*
X81945Y144842D01*
X81945Y150392D01*
X82671Y150392D01*
X84084Y150014D01*
X85350Y149282D01*
X86385Y148248D01*
X87116Y146981D01*
X87495Y145568D01*
X87495Y144842D01*
X81945Y144842D01*
G37*
%LPD*%
%LPC*%
G36*
X590142Y273835D02*
X590142Y273835D01*
X590142Y279385D01*
X590868Y279385D01*
X592281Y279006D01*
X593547Y278275D01*
X594582Y277241D01*
X595313Y275974D01*
X595692Y274561D01*
X595692Y273835D01*
X590142Y273835D01*
G37*
%LPD*%
%LPC*%
G36*
X748320Y148415D02*
X748320Y148415D01*
X748320Y153965D01*
X749047Y153965D01*
X750460Y153587D01*
X751726Y152855D01*
X752761Y151821D01*
X753492Y150554D01*
X753871Y149141D01*
X753871Y148415D01*
X748320Y148415D01*
G37*
%LPD*%
%LPC*%
G36*
X155222Y88707D02*
X155222Y88707D01*
X155222Y94257D01*
X155949Y94257D01*
X157361Y93878D01*
X158628Y93147D01*
X159663Y92112D01*
X160394Y90846D01*
X160772Y89433D01*
X160772Y88707D01*
X155222Y88707D01*
G37*
%LPD*%
%LPC*%
G36*
X770340Y259416D02*
X770340Y259416D01*
X770340Y264966D01*
X771066Y264966D01*
X772479Y264587D01*
X773746Y263856D01*
X774780Y262821D01*
X775512Y261555D01*
X775890Y260142D01*
X775890Y259416D01*
X770340Y259416D01*
G37*
%LPD*%
%LPC*%
G36*
X770241Y363781D02*
X770241Y363781D01*
X770241Y369331D01*
X770967Y369331D01*
X772380Y368953D01*
X773647Y368221D01*
X774681Y367187D01*
X775413Y365920D01*
X775791Y364507D01*
X775791Y363781D01*
X770241Y363781D01*
G37*
%LPD*%
%LPC*%
G36*
X657545Y63107D02*
X657545Y63107D01*
X657545Y68658D01*
X658271Y68658D01*
X659684Y68279D01*
X660951Y67548D01*
X661985Y66513D01*
X662716Y65247D01*
X663095Y63834D01*
X663095Y63107D01*
X657545Y63107D01*
G37*
%LPD*%
%LPC*%
G36*
X372602Y393924D02*
X372602Y393924D01*
X372602Y399474D01*
X373328Y399474D01*
X374741Y399096D01*
X376008Y398364D01*
X377042Y397330D01*
X377773Y396063D01*
X378152Y394650D01*
X378152Y393924D01*
X372602Y393924D01*
G37*
%LPD*%
%LPC*%
G36*
X611155Y33541D02*
X611155Y33541D01*
X611155Y34267D01*
X611533Y35680D01*
X612265Y36947D01*
X613299Y37981D01*
X614566Y38712D01*
X615979Y39091D01*
X616705Y39091D01*
X616705Y33541D01*
X611155Y33541D01*
G37*
%LPD*%
%LPC*%
G36*
X400632Y410467D02*
X400632Y410467D01*
X400632Y411193D01*
X401011Y412606D01*
X401742Y413872D01*
X402776Y414907D01*
X404043Y415638D01*
X405456Y416017D01*
X406182Y416017D01*
X406182Y410467D01*
X400632Y410467D01*
G37*
%LPD*%
%LPC*%
G36*
X399519Y110138D02*
X399519Y110138D01*
X399519Y110864D01*
X399897Y112277D01*
X400628Y113543D01*
X401663Y114578D01*
X402930Y115309D01*
X404342Y115688D01*
X405069Y115688D01*
X405069Y110138D01*
X399519Y110138D01*
G37*
%LPD*%
%LPC*%
G36*
X55571Y422495D02*
X55571Y422495D01*
X55571Y423221D01*
X55950Y424634D01*
X56681Y425900D01*
X57716Y426935D01*
X58982Y427666D01*
X60395Y428045D01*
X61122Y428045D01*
X61122Y422495D01*
X55571Y422495D01*
G37*
%LPD*%
%LPC*%
G36*
X451179Y101828D02*
X451179Y101828D01*
X451179Y102554D01*
X451558Y103967D01*
X452289Y105234D01*
X453323Y106268D01*
X454590Y106999D01*
X456003Y107378D01*
X456729Y107378D01*
X456729Y101828D01*
X451179Y101828D01*
G37*
%LPD*%
%LPC*%
G36*
X76384Y144842D02*
X76384Y144842D01*
X76384Y145569D01*
X76763Y146981D01*
X77494Y148248D01*
X78529Y149282D01*
X79795Y150014D01*
X81208Y150392D01*
X81934Y150392D01*
X81934Y144842D01*
X76384Y144842D01*
G37*
%LPD*%
%LPC*%
G36*
X764833Y433051D02*
X764833Y433051D01*
X764833Y433777D01*
X765212Y435190D01*
X765943Y436456D01*
X766977Y437491D01*
X768244Y438222D01*
X769657Y438601D01*
X770383Y438601D01*
X770383Y433051D01*
X764833Y433051D01*
G37*
%LPD*%
%LPC*%
G36*
X40653Y11324D02*
X40653Y11324D01*
X40653Y12050D01*
X41031Y13463D01*
X41763Y14730D01*
X42797Y15764D01*
X44064Y16495D01*
X45477Y16874D01*
X46203Y16874D01*
X46203Y11324D01*
X40653Y11324D01*
G37*
%LPD*%
%LPC*%
G36*
X226647Y145021D02*
X226647Y145021D01*
X226647Y145747D01*
X227025Y147160D01*
X227757Y148427D01*
X228791Y149461D01*
X230058Y150192D01*
X231471Y150571D01*
X232197Y150571D01*
X232197Y145021D01*
X226647Y145021D01*
G37*
%LPD*%
%LPC*%
G36*
X742760Y148415D02*
X742760Y148415D01*
X742760Y149141D01*
X743139Y150554D01*
X743870Y151821D01*
X744904Y152855D01*
X746171Y153587D01*
X747584Y153965D01*
X748310Y153965D01*
X748310Y148415D01*
X742760Y148415D01*
G37*
%LPD*%
%LPC*%
G36*
X566166Y375176D02*
X566166Y375176D01*
X566166Y375902D01*
X566544Y377315D01*
X567276Y378582D01*
X568310Y379616D01*
X569577Y380347D01*
X570990Y380726D01*
X571716Y380726D01*
X571716Y375176D01*
X566166Y375176D01*
G37*
%LPD*%
%LPC*%
G36*
X37941Y430667D02*
X37941Y430667D01*
X37941Y431393D01*
X38320Y432806D01*
X39051Y434073D01*
X40086Y435107D01*
X41352Y435838D01*
X42765Y436217D01*
X43491Y436217D01*
X43491Y430667D01*
X37941Y430667D01*
G37*
%LPD*%
%LPC*%
G36*
X272358Y17215D02*
X272358Y17215D01*
X272358Y17942D01*
X272737Y19354D01*
X273468Y20621D01*
X274502Y21655D01*
X275769Y22387D01*
X277182Y22765D01*
X277908Y22765D01*
X277908Y17215D01*
X272358Y17215D01*
G37*
%LPD*%
%LPC*%
G36*
X253519Y142020D02*
X253519Y142020D01*
X253519Y142746D01*
X253897Y144159D01*
X254629Y145426D01*
X255663Y146460D01*
X256930Y147191D01*
X258343Y147570D01*
X259069Y147570D01*
X259069Y142020D01*
X253519Y142020D01*
G37*
%LPD*%
%LPC*%
G36*
X149662Y88707D02*
X149662Y88707D01*
X149662Y89433D01*
X150041Y90846D01*
X150772Y92112D01*
X151806Y93147D01*
X153073Y93878D01*
X154486Y94257D01*
X155212Y94257D01*
X155212Y88707D01*
X149662Y88707D01*
G37*
%LPD*%
%LPC*%
G36*
X130439Y323387D02*
X130439Y323387D01*
X130439Y324114D01*
X130818Y325526D01*
X131549Y326793D01*
X132584Y327828D01*
X133850Y328559D01*
X135263Y328937D01*
X135989Y328937D01*
X135989Y323387D01*
X130439Y323387D01*
G37*
%LPD*%
%LPC*%
G36*
X764942Y328607D02*
X764942Y328607D01*
X764942Y329333D01*
X765320Y330746D01*
X766052Y332013D01*
X767086Y333047D01*
X768353Y333779D01*
X769766Y334157D01*
X770492Y334157D01*
X770492Y328607D01*
X764942Y328607D01*
G37*
%LPD*%
%LPC*%
G36*
X514193Y297554D02*
X514193Y297554D01*
X514193Y298280D01*
X514572Y299693D01*
X515303Y300960D01*
X516337Y301994D01*
X517604Y302726D01*
X519017Y303104D01*
X519743Y303104D01*
X519743Y297554D01*
X514193Y297554D01*
G37*
%LPD*%
%LPC*%
G36*
X764934Y294209D02*
X764934Y294209D01*
X764934Y294935D01*
X765312Y296348D01*
X766044Y297615D01*
X767078Y298649D01*
X768345Y299380D01*
X769758Y299759D01*
X770484Y299759D01*
X770484Y294209D01*
X764934Y294209D01*
G37*
%LPD*%
%LPC*%
G36*
X311669Y290910D02*
X311669Y290910D01*
X311669Y291636D01*
X312047Y293049D01*
X312779Y294316D01*
X313813Y295350D01*
X315080Y296081D01*
X316493Y296460D01*
X317219Y296460D01*
X317219Y290910D01*
X311669Y290910D01*
G37*
%LPD*%
%LPC*%
G36*
X651984Y63107D02*
X651984Y63107D01*
X651984Y63834D01*
X652363Y65247D01*
X653094Y66513D01*
X654129Y67548D01*
X655395Y68279D01*
X656808Y68658D01*
X657534Y68658D01*
X657534Y63107D01*
X651984Y63107D01*
G37*
%LPD*%
%LPC*%
G36*
X505220Y350350D02*
X505220Y350350D01*
X505220Y351076D01*
X505599Y352489D01*
X506330Y353756D01*
X507364Y354790D01*
X508631Y355522D01*
X510044Y355900D01*
X510770Y355900D01*
X510770Y350350D01*
X505220Y350350D01*
G37*
%LPD*%
%LPC*%
G36*
X238892Y280832D02*
X238892Y280832D01*
X238892Y281558D01*
X239271Y282971D01*
X240002Y284238D01*
X241036Y285272D01*
X242303Y286003D01*
X243716Y286382D01*
X244442Y286382D01*
X244442Y280832D01*
X238892Y280832D01*
G37*
%LPD*%
%LPC*%
G36*
X447618Y279679D02*
X447618Y279679D01*
X447618Y280405D01*
X447997Y281818D01*
X448728Y283085D01*
X449763Y284119D01*
X451029Y284851D01*
X452442Y285229D01*
X453168Y285229D01*
X453168Y279679D01*
X447618Y279679D01*
G37*
%LPD*%
%LPC*%
G36*
X282898Y353815D02*
X282898Y353815D01*
X282898Y354542D01*
X283276Y355955D01*
X284008Y357221D01*
X285042Y358256D01*
X286309Y358987D01*
X287722Y359366D01*
X288448Y359366D01*
X288448Y353815D01*
X282898Y353815D01*
G37*
%LPD*%
%LPC*%
G36*
X764907Y398683D02*
X764907Y398683D01*
X764907Y399409D01*
X765286Y400822D01*
X766017Y402089D01*
X767052Y403123D01*
X768318Y403855D01*
X769731Y404233D01*
X770458Y404233D01*
X770458Y398683D01*
X764907Y398683D01*
G37*
%LPD*%
%LPC*%
G36*
X584581Y273835D02*
X584581Y273835D01*
X584581Y274561D01*
X584960Y275974D01*
X585691Y277241D01*
X586725Y278275D01*
X587992Y279006D01*
X589405Y279385D01*
X590131Y279385D01*
X590131Y273835D01*
X584581Y273835D01*
G37*
%LPD*%
%LPC*%
G36*
X764681Y363781D02*
X764681Y363781D01*
X764681Y364507D01*
X765059Y365920D01*
X765791Y367187D01*
X766825Y368221D01*
X768092Y368953D01*
X769505Y369331D01*
X770231Y369331D01*
X770231Y363781D01*
X764681Y363781D01*
G37*
%LPD*%
%LPC*%
G36*
X408676Y255259D02*
X408676Y255259D01*
X408676Y255985D01*
X409054Y257398D01*
X409786Y258665D01*
X410820Y259699D01*
X412087Y260430D01*
X413499Y260809D01*
X414226Y260809D01*
X414226Y255259D01*
X408676Y255259D01*
G37*
%LPD*%
%LPC*%
G36*
X65740Y93695D02*
X65740Y93695D01*
X65740Y94421D01*
X66118Y95834D01*
X66850Y97101D01*
X67884Y98135D01*
X69151Y98866D01*
X70563Y99245D01*
X71290Y99245D01*
X71290Y93695D01*
X65740Y93695D01*
G37*
%LPD*%
%LPC*%
G36*
X454391Y367949D02*
X454391Y367949D01*
X454391Y368675D01*
X454770Y370088D01*
X455501Y371354D01*
X456535Y372389D01*
X457802Y373120D01*
X459215Y373499D01*
X459941Y373499D01*
X459941Y367949D01*
X454391Y367949D01*
G37*
%LPD*%
%LPC*%
G36*
X764780Y259416D02*
X764780Y259416D01*
X764780Y260142D01*
X765158Y261555D01*
X765890Y262821D01*
X766924Y263856D01*
X768191Y264587D01*
X769604Y264966D01*
X770330Y264966D01*
X770330Y259416D01*
X764780Y259416D01*
G37*
%LPD*%
%LPC*%
G36*
X480545Y213054D02*
X480545Y213054D01*
X480545Y213781D01*
X480924Y215193D01*
X481655Y216460D01*
X482690Y217494D01*
X483956Y218226D01*
X485369Y218604D01*
X486095Y218604D01*
X486095Y213054D01*
X480545Y213054D01*
G37*
%LPD*%
%LPC*%
G36*
X46114Y18730D02*
X46114Y18730D01*
X46114Y19456D01*
X46493Y20869D01*
X47224Y22136D01*
X48258Y23170D01*
X49525Y23901D01*
X50938Y24280D01*
X51664Y24280D01*
X51664Y18730D01*
X46114Y18730D01*
G37*
%LPD*%
%LPC*%
G36*
X437439Y230896D02*
X437439Y230896D01*
X437439Y231622D01*
X437818Y233035D01*
X438549Y234301D01*
X439583Y235336D01*
X440850Y236067D01*
X442263Y236446D01*
X442989Y236446D01*
X442989Y230896D01*
X437439Y230896D01*
G37*
%LPD*%
%LPC*%
G36*
X742760Y30370D02*
X742760Y30370D01*
X742760Y31097D01*
X743139Y32509D01*
X743870Y33776D01*
X744904Y34810D01*
X746171Y35542D01*
X747584Y35920D01*
X748310Y35920D01*
X748310Y30370D01*
X742760Y30370D01*
G37*
%LPD*%
%LPC*%
G36*
X765069Y223545D02*
X765069Y223545D01*
X765069Y224271D01*
X765448Y225684D01*
X766179Y226950D01*
X767213Y227985D01*
X768480Y228716D01*
X769893Y229095D01*
X770619Y229095D01*
X770619Y223545D01*
X765069Y223545D01*
G37*
%LPD*%
%LPC*%
G36*
X134848Y100574D02*
X134848Y100574D01*
X134848Y106124D01*
X140398Y106124D01*
X140398Y105398D01*
X140020Y103985D01*
X139288Y102719D01*
X138254Y101684D01*
X136987Y100953D01*
X135575Y100574D01*
X134848Y100574D01*
G37*
%LPD*%
%LPC*%
G36*
X456739Y96268D02*
X456739Y96268D01*
X456739Y101818D01*
X462290Y101818D01*
X462290Y101092D01*
X461911Y99679D01*
X461180Y98412D01*
X460145Y97378D01*
X458879Y96646D01*
X457466Y96268D01*
X456739Y96268D01*
G37*
%LPD*%
%LPC*%
G36*
X657545Y57547D02*
X657545Y57547D01*
X657545Y63097D01*
X663095Y63097D01*
X663095Y62371D01*
X662716Y60958D01*
X661985Y59691D01*
X660951Y58657D01*
X659684Y57926D01*
X658271Y57547D01*
X657545Y57547D01*
G37*
%LPD*%
%LPC*%
G36*
X748320Y24810D02*
X748320Y24810D01*
X748320Y30360D01*
X753871Y30360D01*
X753871Y29634D01*
X753492Y28221D01*
X752761Y26954D01*
X751726Y25920D01*
X750460Y25189D01*
X749047Y24810D01*
X748320Y24810D01*
G37*
%LPD*%
%LPC*%
G36*
X46213Y5764D02*
X46213Y5764D01*
X46213Y11314D01*
X51763Y11314D01*
X51763Y10587D01*
X51385Y9175D01*
X50653Y7908D01*
X49619Y6873D01*
X48352Y6142D01*
X46939Y5764D01*
X46213Y5764D01*
G37*
%LPD*%
%LPC*%
G36*
X405079Y104577D02*
X405079Y104577D01*
X405079Y110127D01*
X410629Y110127D01*
X410629Y109401D01*
X410250Y107988D01*
X409519Y106722D01*
X408485Y105687D01*
X407218Y104956D01*
X405805Y104577D01*
X405079Y104577D01*
G37*
%LPD*%
%LPC*%
G36*
X616715Y27981D02*
X616715Y27981D01*
X616715Y33531D01*
X622265Y33531D01*
X622265Y32804D01*
X621886Y31392D01*
X621155Y30125D01*
X620121Y29091D01*
X618854Y28359D01*
X617441Y27981D01*
X616715Y27981D01*
G37*
%LPD*%
%LPC*%
G36*
X414236Y249699D02*
X414236Y249699D01*
X414236Y255249D01*
X419786Y255249D01*
X419786Y254522D01*
X419407Y253110D01*
X418676Y251843D01*
X417642Y250808D01*
X416375Y250077D01*
X414962Y249699D01*
X414236Y249699D01*
G37*
%LPD*%
%LPC*%
G36*
X277919Y11655D02*
X277919Y11655D01*
X277919Y17205D01*
X283469Y17205D01*
X283469Y16479D01*
X283090Y15066D01*
X282359Y13799D01*
X281324Y12765D01*
X280058Y12034D01*
X278645Y11655D01*
X277919Y11655D01*
G37*
%LPD*%
%LPC*%
G36*
X51674Y13169D02*
X51674Y13169D01*
X51674Y18719D01*
X57224Y18719D01*
X57224Y17993D01*
X56846Y16580D01*
X56114Y15314D01*
X55080Y14279D01*
X53813Y13548D01*
X52401Y13169D01*
X51674Y13169D01*
G37*
%LPD*%
%LPC*%
G36*
X155222Y83146D02*
X155222Y83146D01*
X155222Y88696D01*
X160772Y88696D01*
X160772Y87970D01*
X160394Y86557D01*
X159663Y85290D01*
X158628Y84256D01*
X157361Y83525D01*
X155949Y83146D01*
X155222Y83146D01*
G37*
%LPD*%
%LPC*%
G36*
X71300Y88135D02*
X71300Y88135D01*
X71300Y93685D01*
X76850Y93685D01*
X76850Y92958D01*
X76471Y91546D01*
X75740Y90279D01*
X74706Y89244D01*
X73439Y88513D01*
X72026Y88135D01*
X71300Y88135D01*
G37*
%LPD*%
%LPC*%
G36*
X770241Y358221D02*
X770241Y358221D01*
X770241Y363771D01*
X775791Y363771D01*
X775791Y363045D01*
X775413Y361632D01*
X774681Y360365D01*
X773647Y359331D01*
X772380Y358599D01*
X770967Y358221D01*
X770241Y358221D01*
G37*
%LPD*%
%LPC*%
G36*
X453179Y274119D02*
X453179Y274119D01*
X453179Y279669D01*
X458729Y279669D01*
X458729Y278943D01*
X458350Y277530D01*
X457619Y276263D01*
X456585Y275229D01*
X455318Y274497D01*
X453905Y274119D01*
X453179Y274119D01*
G37*
%LPD*%
%LPC*%
G36*
X244452Y275272D02*
X244452Y275272D01*
X244452Y280822D01*
X250003Y280822D01*
X250003Y280095D01*
X249624Y278683D01*
X248893Y277416D01*
X247858Y276381D01*
X246592Y275650D01*
X245179Y275272D01*
X244452Y275272D01*
G37*
%LPD*%
%LPC*%
G36*
X362059Y286852D02*
X362059Y286852D01*
X362059Y292402D01*
X367609Y292402D01*
X367609Y291676D01*
X367231Y290263D01*
X366499Y288997D01*
X365465Y287962D01*
X364198Y287231D01*
X362785Y286852D01*
X362059Y286852D01*
G37*
%LPD*%
%LPC*%
G36*
X770494Y288649D02*
X770494Y288649D01*
X770494Y294199D01*
X776044Y294199D01*
X776044Y293472D01*
X775666Y292060D01*
X774934Y290793D01*
X773900Y289759D01*
X772633Y289027D01*
X771220Y288649D01*
X770494Y288649D01*
G37*
%LPD*%
%LPC*%
G36*
X519753Y291994D02*
X519753Y291994D01*
X519753Y297544D01*
X525303Y297544D01*
X525303Y296818D01*
X524925Y295405D01*
X524193Y294138D01*
X523159Y293104D01*
X521892Y292372D01*
X520480Y291994D01*
X519753Y291994D01*
G37*
%LPD*%
%LPC*%
G36*
X136000Y317827D02*
X136000Y317827D01*
X136000Y323377D01*
X141550Y323377D01*
X141550Y322651D01*
X141171Y321238D01*
X140440Y319971D01*
X139405Y318937D01*
X138139Y318206D01*
X136726Y317827D01*
X136000Y317827D01*
G37*
%LPD*%
%LPC*%
G36*
X770502Y323047D02*
X770502Y323047D01*
X770502Y328597D01*
X776052Y328597D01*
X776052Y327871D01*
X775674Y326458D01*
X774942Y325191D01*
X773908Y324157D01*
X772641Y323425D01*
X771229Y323047D01*
X770502Y323047D01*
G37*
%LPD*%
%LPC*%
G36*
X510780Y344790D02*
X510780Y344790D01*
X510780Y350340D01*
X516330Y350340D01*
X516330Y349614D01*
X515952Y348201D01*
X515220Y346934D01*
X514186Y345900D01*
X512919Y345168D01*
X511507Y344790D01*
X510780Y344790D01*
G37*
%LPD*%
%LPC*%
G36*
X288458Y348255D02*
X288458Y348255D01*
X288458Y353805D01*
X294008Y353805D01*
X294008Y353079D01*
X293629Y351666D01*
X292898Y350399D01*
X291864Y349365D01*
X290597Y348634D01*
X289184Y348255D01*
X288458Y348255D01*
G37*
%LPD*%
%LPC*%
G36*
X259079Y136459D02*
X259079Y136459D01*
X259079Y142009D01*
X264629Y142009D01*
X264629Y141283D01*
X264251Y139870D01*
X263519Y138604D01*
X262485Y137569D01*
X261218Y136838D01*
X259805Y136459D01*
X259079Y136459D01*
G37*
%LPD*%
%LPC*%
G36*
X459951Y362388D02*
X459951Y362388D01*
X459951Y367938D01*
X465501Y367938D01*
X465501Y367212D01*
X465123Y365799D01*
X464391Y364532D01*
X463357Y363498D01*
X462090Y362767D01*
X460678Y362388D01*
X459951Y362388D01*
G37*
%LPD*%
%LPC*%
G36*
X571726Y369615D02*
X571726Y369615D01*
X571726Y375166D01*
X577276Y375166D01*
X577276Y374439D01*
X576898Y373026D01*
X576166Y371760D01*
X575132Y370725D01*
X573865Y369994D01*
X572452Y369615D01*
X571726Y369615D01*
G37*
%LPD*%
%LPC*%
G36*
X372602Y388364D02*
X372602Y388364D01*
X372602Y393914D01*
X378152Y393914D01*
X378152Y393188D01*
X377773Y391775D01*
X377042Y390508D01*
X376008Y389474D01*
X374741Y388742D01*
X373328Y388364D01*
X372602Y388364D01*
G37*
%LPD*%
%LPC*%
G36*
X770468Y393123D02*
X770468Y393123D01*
X770468Y398673D01*
X776018Y398673D01*
X776018Y397947D01*
X775639Y396534D01*
X774908Y395267D01*
X773874Y394233D01*
X772607Y393501D01*
X771194Y393123D01*
X770468Y393123D01*
G37*
%LPD*%
%LPC*%
G36*
X406192Y404906D02*
X406192Y404906D01*
X406192Y410456D01*
X411742Y410456D01*
X411742Y409730D01*
X411364Y408317D01*
X410632Y407050D01*
X409598Y406016D01*
X408331Y405285D01*
X406919Y404906D01*
X406192Y404906D01*
G37*
%LPD*%
%LPC*%
G36*
X61132Y416934D02*
X61132Y416934D01*
X61132Y422484D01*
X66682Y422484D01*
X66682Y421758D01*
X66303Y420345D01*
X65572Y419078D01*
X64538Y418044D01*
X63271Y417313D01*
X61858Y416934D01*
X61132Y416934D01*
G37*
%LPD*%
%LPC*%
G36*
X43502Y425106D02*
X43502Y425106D01*
X43502Y430657D01*
X49052Y430657D01*
X49052Y429930D01*
X48673Y428517D01*
X47942Y427251D01*
X46907Y426216D01*
X45641Y425485D01*
X44228Y425106D01*
X43502Y425106D01*
G37*
%LPD*%
%LPC*%
G36*
X770394Y427490D02*
X770394Y427490D01*
X770394Y433040D01*
X775944Y433040D01*
X775944Y432314D01*
X775565Y430901D01*
X774834Y429635D01*
X773799Y428600D01*
X772533Y427869D01*
X771120Y427490D01*
X770394Y427490D01*
G37*
%LPD*%
%LPC*%
G36*
X748320Y142855D02*
X748320Y142855D01*
X748320Y148405D01*
X753871Y148405D01*
X753871Y147679D01*
X753492Y146266D01*
X752761Y144999D01*
X751726Y143965D01*
X750460Y143233D01*
X749047Y142855D01*
X748320Y142855D01*
G37*
%LPD*%
%LPC*%
G36*
X486106Y207494D02*
X486106Y207494D01*
X486106Y213044D01*
X491656Y213044D01*
X491656Y212318D01*
X491277Y210905D01*
X490546Y209638D01*
X489512Y208604D01*
X488245Y207872D01*
X486832Y207494D01*
X486106Y207494D01*
G37*
%LPD*%
%LPC*%
G36*
X232207Y139461D02*
X232207Y139461D01*
X232207Y145011D01*
X237757Y145011D01*
X237757Y144285D01*
X237379Y142872D01*
X236647Y141605D01*
X235613Y140571D01*
X234346Y139839D01*
X232933Y139461D01*
X232207Y139461D01*
G37*
%LPD*%
%LPC*%
G36*
X770630Y217984D02*
X770630Y217984D01*
X770630Y223534D01*
X776180Y223534D01*
X776180Y222808D01*
X775801Y221395D01*
X775070Y220128D01*
X774035Y219094D01*
X772769Y218363D01*
X771356Y217984D01*
X770630Y217984D01*
G37*
%LPD*%
%LPC*%
G36*
X770340Y253855D02*
X770340Y253855D01*
X770340Y259405D01*
X775890Y259405D01*
X775890Y258679D01*
X775512Y257266D01*
X774780Y255999D01*
X773746Y254965D01*
X772479Y254234D01*
X771066Y253855D01*
X770340Y253855D01*
G37*
%LPD*%
%LPC*%
G36*
X81945Y139282D02*
X81945Y139282D01*
X81945Y144832D01*
X87495Y144832D01*
X87495Y144106D01*
X87116Y142693D01*
X86385Y141426D01*
X85350Y140392D01*
X84084Y139660D01*
X82671Y139282D01*
X81945Y139282D01*
G37*
%LPD*%
%LPC*%
G36*
X367042Y393924D02*
X367042Y393924D01*
X367042Y394650D01*
X367420Y396063D01*
X368151Y397330D01*
X369186Y398364D01*
X370453Y399096D01*
X371865Y399474D01*
X372592Y399474D01*
X372592Y393924D01*
X367042Y393924D01*
G37*
%LPD*%
%LPC*%
G36*
X371865Y388364D02*
X371865Y388364D01*
X370453Y388742D01*
X369186Y389474D01*
X368151Y390508D01*
X367420Y391775D01*
X367042Y393187D01*
X367042Y393914D01*
X372592Y393914D01*
X372592Y388364D01*
X371865Y388364D01*
G37*
%LPD*%
%LPC*%
G36*
X590142Y268274D02*
X590142Y268274D01*
X590142Y273824D01*
X595692Y273824D01*
X595692Y273098D01*
X595313Y271685D01*
X594582Y270419D01*
X593547Y269384D01*
X592281Y268653D01*
X590868Y268274D01*
X590142Y268274D01*
G37*
%LPD*%
%LPC*%
G36*
X769731Y393123D02*
X769731Y393123D01*
X768318Y393501D01*
X767052Y394233D01*
X766017Y395267D01*
X765286Y396534D01*
X764907Y397947D01*
X764907Y398673D01*
X770458Y398673D01*
X770458Y393123D01*
X769731Y393123D01*
G37*
%LPD*%
%LPC*%
G36*
X45477Y5764D02*
X45477Y5764D01*
X44064Y6142D01*
X42797Y6873D01*
X41763Y7908D01*
X41031Y9175D01*
X40653Y10587D01*
X40653Y11314D01*
X46203Y11314D01*
X46203Y5764D01*
X45477Y5764D01*
G37*
%LPD*%
%LPC*%
G36*
X570989Y369615D02*
X570989Y369615D01*
X569577Y369994D01*
X568310Y370725D01*
X567276Y371760D01*
X566544Y373026D01*
X566166Y374439D01*
X566166Y375166D01*
X571716Y375166D01*
X571716Y369615D01*
X570989Y369615D01*
G37*
%LPD*%
%LPC*%
G36*
X747584Y142855D02*
X747584Y142855D01*
X746171Y143233D01*
X744904Y143965D01*
X743870Y144999D01*
X743139Y146266D01*
X742760Y147679D01*
X742760Y148405D01*
X748310Y148405D01*
X748310Y142855D01*
X747584Y142855D01*
G37*
%LPD*%
%LPC*%
G36*
X258342Y136459D02*
X258342Y136459D01*
X256930Y136838D01*
X255663Y137569D01*
X254629Y138604D01*
X253897Y139870D01*
X253519Y141283D01*
X253519Y142009D01*
X259069Y142009D01*
X259069Y136459D01*
X258342Y136459D01*
G37*
%LPD*%
%LPC*%
G36*
X769657Y427490D02*
X769657Y427490D01*
X768244Y427869D01*
X766977Y428600D01*
X765943Y429635D01*
X765212Y430901D01*
X764833Y432314D01*
X764833Y433040D01*
X770383Y433040D01*
X770383Y427490D01*
X769657Y427490D01*
G37*
%LPD*%
%LPC*%
G36*
X615978Y27981D02*
X615978Y27981D01*
X614566Y28359D01*
X613299Y29091D01*
X612265Y30125D01*
X611533Y31392D01*
X611155Y32804D01*
X611155Y33531D01*
X616705Y33531D01*
X616705Y27981D01*
X615978Y27981D01*
G37*
%LPD*%
%LPC*%
G36*
X42765Y425106D02*
X42765Y425106D01*
X41352Y425485D01*
X40086Y426216D01*
X39051Y427251D01*
X38320Y428517D01*
X37941Y429930D01*
X37941Y430657D01*
X43491Y430657D01*
X43491Y425106D01*
X42765Y425106D01*
G37*
%LPD*%
%LPC*%
G36*
X277182Y11655D02*
X277182Y11655D01*
X275769Y12034D01*
X274502Y12765D01*
X273468Y13799D01*
X272737Y15066D01*
X272358Y16479D01*
X272358Y17205D01*
X277908Y17205D01*
X277908Y11655D01*
X277182Y11655D01*
G37*
%LPD*%
%LPC*%
G36*
X747584Y24810D02*
X747584Y24810D01*
X746171Y25189D01*
X744904Y25920D01*
X743870Y26954D01*
X743139Y28221D01*
X742760Y29634D01*
X742760Y30360D01*
X748310Y30360D01*
X748310Y24810D01*
X747584Y24810D01*
G37*
%LPD*%
%LPC*%
G36*
X404342Y104577D02*
X404342Y104577D01*
X402930Y104956D01*
X401663Y105687D01*
X400629Y106722D01*
X399897Y107988D01*
X399519Y109401D01*
X399519Y110127D01*
X405069Y110127D01*
X405069Y104577D01*
X404342Y104577D01*
G37*
%LPD*%
%LPC*%
G36*
X769504Y358221D02*
X769504Y358221D01*
X768092Y358599D01*
X766825Y359331D01*
X765791Y360365D01*
X765059Y361632D01*
X764681Y363045D01*
X764681Y363771D01*
X770231Y363771D01*
X770231Y358221D01*
X769504Y358221D01*
G37*
%LPD*%
%LPC*%
G36*
X405456Y404906D02*
X405456Y404906D01*
X404043Y405285D01*
X402776Y406016D01*
X401742Y407050D01*
X401011Y408317D01*
X400632Y409730D01*
X400632Y410456D01*
X406182Y410456D01*
X406182Y404906D01*
X405456Y404906D01*
G37*
%LPD*%
%LPC*%
G36*
X231471Y139461D02*
X231471Y139461D01*
X230058Y139839D01*
X228791Y140571D01*
X227757Y141605D01*
X227025Y142872D01*
X226647Y144284D01*
X226647Y145011D01*
X232197Y145011D01*
X232197Y139461D01*
X231471Y139461D01*
G37*
%LPD*%
%LPC*%
G36*
X60395Y416934D02*
X60395Y416934D01*
X58982Y417313D01*
X57716Y418044D01*
X56681Y419078D01*
X55950Y420345D01*
X55571Y421758D01*
X55571Y422484D01*
X61122Y422484D01*
X61122Y416934D01*
X60395Y416934D01*
G37*
%LPD*%
%LPC*%
G36*
X81208Y139282D02*
X81208Y139282D01*
X79795Y139660D01*
X78529Y140392D01*
X77494Y141426D01*
X76763Y142693D01*
X76384Y144106D01*
X76384Y144832D01*
X81934Y144832D01*
X81934Y139282D01*
X81208Y139282D01*
G37*
%LPD*%
%LPC*%
G36*
X519017Y291994D02*
X519017Y291994D01*
X517604Y292372D01*
X516337Y293104D01*
X515303Y294138D01*
X514572Y295405D01*
X514193Y296818D01*
X514193Y297544D01*
X519743Y297544D01*
X519743Y291994D01*
X519017Y291994D01*
G37*
%LPD*%
%LPC*%
G36*
X452442Y274119D02*
X452442Y274119D01*
X451029Y274497D01*
X449763Y275229D01*
X448728Y276263D01*
X447997Y277530D01*
X447618Y278942D01*
X447618Y279669D01*
X453168Y279669D01*
X453168Y274119D01*
X452442Y274119D01*
G37*
%LPD*%
%LPC*%
G36*
X70563Y88135D02*
X70563Y88135D01*
X69151Y88513D01*
X67884Y89244D01*
X66850Y90279D01*
X66118Y91546D01*
X65740Y92958D01*
X65740Y93685D01*
X71290Y93685D01*
X71290Y88135D01*
X70563Y88135D01*
G37*
%LPD*%
%LPC*%
G36*
X243716Y275272D02*
X243716Y275272D01*
X242303Y275650D01*
X241036Y276381D01*
X240002Y277416D01*
X239271Y278683D01*
X238892Y280095D01*
X238892Y280822D01*
X244442Y280822D01*
X244442Y275272D01*
X243716Y275272D01*
G37*
%LPD*%
%LPC*%
G36*
X154486Y83146D02*
X154486Y83146D01*
X153073Y83525D01*
X151806Y84256D01*
X150772Y85290D01*
X150041Y86557D01*
X149662Y87970D01*
X149662Y88696D01*
X155212Y88696D01*
X155212Y83146D01*
X154486Y83146D01*
G37*
%LPD*%
%LPC*%
G36*
X316493Y285349D02*
X316493Y285349D01*
X315080Y285728D01*
X313813Y286459D01*
X312779Y287494D01*
X312047Y288760D01*
X311669Y290173D01*
X311669Y290899D01*
X317219Y290899D01*
X317219Y285349D01*
X316493Y285349D01*
G37*
%LPD*%
%LPC*%
G36*
X769604Y253855D02*
X769604Y253855D01*
X768191Y254234D01*
X766924Y254965D01*
X765890Y255999D01*
X765158Y257266D01*
X764780Y258679D01*
X764780Y259405D01*
X770330Y259405D01*
X770330Y253855D01*
X769604Y253855D01*
G37*
%LPD*%
%LPC*%
G36*
X769758Y288649D02*
X769758Y288649D01*
X768345Y289027D01*
X767078Y289759D01*
X766044Y290793D01*
X765312Y292060D01*
X764934Y293472D01*
X764934Y294199D01*
X770484Y294199D01*
X770484Y288649D01*
X769758Y288649D01*
G37*
%LPD*%
%LPC*%
G36*
X413499Y249699D02*
X413499Y249699D01*
X412087Y250077D01*
X410820Y250808D01*
X409786Y251843D01*
X409054Y253110D01*
X408676Y254522D01*
X408676Y255249D01*
X414226Y255249D01*
X414226Y249699D01*
X413499Y249699D01*
G37*
%LPD*%
%LPC*%
G36*
X459215Y362388D02*
X459215Y362388D01*
X457802Y362767D01*
X456535Y363498D01*
X455501Y364532D01*
X454770Y365799D01*
X454391Y367212D01*
X454391Y367938D01*
X459941Y367938D01*
X459941Y362388D01*
X459215Y362388D01*
G37*
%LPD*%
%LPC*%
G36*
X656808Y57547D02*
X656808Y57547D01*
X655395Y57926D01*
X654129Y58657D01*
X653094Y59691D01*
X652363Y60958D01*
X651984Y62371D01*
X651984Y63097D01*
X657534Y63097D01*
X657534Y57547D01*
X656808Y57547D01*
G37*
%LPD*%
%LPC*%
G36*
X456003Y96268D02*
X456003Y96268D01*
X454590Y96646D01*
X453323Y97378D01*
X452289Y98412D01*
X451558Y99679D01*
X451179Y101091D01*
X451179Y101818D01*
X456729Y101818D01*
X456729Y96268D01*
X456003Y96268D01*
G37*
%LPD*%
%LPC*%
G36*
X135263Y317827D02*
X135263Y317827D01*
X133850Y318206D01*
X132584Y318937D01*
X131549Y319971D01*
X130818Y321238D01*
X130439Y322651D01*
X130439Y323377D01*
X135989Y323377D01*
X135989Y317827D01*
X135263Y317827D01*
G37*
%LPD*%
%LPC*%
G36*
X769766Y323047D02*
X769766Y323047D01*
X768353Y323425D01*
X767086Y324157D01*
X766052Y325191D01*
X765320Y326458D01*
X764942Y327871D01*
X764942Y328597D01*
X770492Y328597D01*
X770492Y323047D01*
X769766Y323047D01*
G37*
%LPD*%
%LPC*%
G36*
X769893Y217984D02*
X769893Y217984D01*
X768480Y218363D01*
X767213Y219094D01*
X766179Y220128D01*
X765448Y221395D01*
X765069Y222808D01*
X765069Y223534D01*
X770619Y223534D01*
X770619Y217984D01*
X769893Y217984D01*
G37*
%LPD*%
%LPC*%
G36*
X510044Y344790D02*
X510044Y344790D01*
X508631Y345168D01*
X507364Y345900D01*
X506330Y346934D01*
X505599Y348201D01*
X505220Y349614D01*
X505220Y350340D01*
X510770Y350340D01*
X510770Y344790D01*
X510044Y344790D01*
G37*
%LPD*%
%LPC*%
G36*
X287721Y348255D02*
X287721Y348255D01*
X286309Y348634D01*
X285042Y349365D01*
X284008Y350399D01*
X283276Y351666D01*
X282898Y353079D01*
X282898Y353805D01*
X288448Y353805D01*
X288448Y348255D01*
X287721Y348255D01*
G37*
%LPD*%
%LPC*%
G36*
X134112Y100574D02*
X134112Y100574D01*
X132699Y100953D01*
X131432Y101684D01*
X130398Y102719D01*
X129667Y103985D01*
X129288Y105398D01*
X129288Y106124D01*
X134838Y106124D01*
X134838Y100574D01*
X134112Y100574D01*
G37*
%LPD*%
%LPC*%
G36*
X485369Y207494D02*
X485369Y207494D01*
X483956Y207872D01*
X482690Y208604D01*
X481655Y209638D01*
X480924Y210905D01*
X480545Y212318D01*
X480545Y213044D01*
X486095Y213044D01*
X486095Y207494D01*
X485369Y207494D01*
G37*
%LPD*%
%LPC*%
G36*
X589405Y268274D02*
X589405Y268274D01*
X587992Y268653D01*
X586725Y269384D01*
X585691Y270419D01*
X584960Y271685D01*
X584581Y273098D01*
X584581Y273824D01*
X590131Y273824D01*
X590131Y268274D01*
X589405Y268274D01*
G37*
%LPD*%
D10*
X528206Y39775D03*
X502806Y39775D03*
X477406Y39775D03*
X452006Y39775D03*
X426606Y39775D03*
X401206Y39775D03*
D11*
X490333Y356901D03*
D12*
X43496Y430662D03*
X61127Y422489D03*
X46208Y11319D03*
X51669Y18725D03*
X317224Y290905D03*
X259074Y142015D03*
X405074Y110133D03*
X288453Y353810D03*
X372597Y393919D03*
X406187Y410461D03*
X362054Y292408D03*
X657540Y63102D03*
X748315Y148410D03*
X748315Y30365D03*
X414231Y255254D03*
X590136Y273830D03*
X571721Y375171D03*
X459946Y367943D03*
X519748Y297549D03*
X244447Y280827D03*
X456734Y101823D03*
X232202Y145016D03*
X453174Y279674D03*
X486101Y213049D03*
X277913Y17210D03*
X135994Y323382D03*
X616710Y33536D03*
X134843Y106130D03*
X71295Y93690D03*
X81940Y144837D03*
X155217Y88701D03*
X442994Y230890D03*
X510775Y350345D03*
X770388Y433046D03*
X770463Y398678D03*
X770236Y363776D03*
X770497Y328602D03*
X770489Y294204D03*
X770335Y259410D03*
X770624Y223539D03*
X412673Y180422D03*
X307971Y94401D03*
X299368Y94457D03*
X444037Y178864D03*
X290692Y94768D03*
X443650Y188945D03*
X281813Y94917D03*
X449291Y196673D03*
X271583Y93990D03*
X443263Y203543D03*
X319709Y62614D03*
X326475Y69349D03*
X333209Y75536D03*
X339271Y81685D03*
X345137Y88144D03*
X262403Y94575D03*
X440258Y220958D03*
X56720Y112536D03*
X383425Y225478D03*
X256237Y245443D03*
X175344Y275551D03*
X176106Y187346D03*
X56835Y100004D03*
X56835Y125245D03*
X159089Y199167D03*
X155647Y216712D03*
X57150Y138345D03*
X57150Y151125D03*
X154677Y225916D03*
X57150Y163659D03*
X122097Y217989D03*
X57150Y176653D03*
X107879Y221446D03*
X57208Y189534D03*
X389140Y232777D03*
X256282Y254023D03*
X166674Y287233D03*
X57013Y201790D03*
X157917Y296242D03*
X43613Y214552D03*
X326967Y392654D03*
X288534Y411122D03*
X460428Y405043D03*
X220675Y17017D03*
X92985Y333092D03*
X137945Y115677D03*
X112733Y89302D03*
X770503Y345961D03*
X770564Y380447D03*
X770463Y415008D03*
X770102Y310600D03*
X770634Y275576D03*
X770741Y205527D03*
X770433Y241244D03*
X54429Y240059D03*
X107215Y292758D03*
X502363Y169042D03*
X405776Y164782D03*
X513123Y176401D03*
X400585Y172042D03*
X73838Y418878D03*
X298566Y161875D03*
X394467Y242147D03*
X256991Y264765D03*
X172973Y293984D03*
X163338Y243896D03*
X152079Y246220D03*
X364099Y206383D03*
X241895Y222218D03*
X150940Y259858D03*
X370520Y212876D03*
X247188Y229239D03*
X135568Y278971D03*
X377039Y219089D03*
X251980Y236925D03*
X127753Y291620D03*
X188266Y142815D03*
X195350Y135979D03*
X201707Y154480D03*
X218211Y120404D03*
X218337Y111657D03*
X310282Y159571D03*
X440118Y262358D03*
X313111Y264287D03*
X359797Y265004D03*
X406704Y355406D03*
X349534Y365972D03*
X349614Y380478D03*
X272316Y134709D03*
X415272Y123359D03*
X302715Y263288D03*
X552009Y351843D03*
X568188Y182928D03*
X657447Y85120D03*
X537032Y366337D03*
X384983Y265178D03*
X520016Y333922D03*
X270549Y281823D03*
X418673Y102144D03*
X258650Y118112D03*
X426112Y307021D03*
X456962Y224615D03*
X626924Y62253D03*
X311428Y53313D03*
X373701Y53199D03*
X643635Y51621D03*
X643635Y86161D03*
X590330Y107491D03*
X590500Y63378D03*
X658103Y141548D03*
X539858Y96460D03*
X132061Y183802D03*
X117590Y181335D03*
X267266Y123939D03*
X181624Y148566D03*
X350409Y295949D03*
X294908Y291153D03*
X434433Y345898D03*
X577926Y323655D03*
X330746Y250890D03*
X363315Y248401D03*
X590114Y322637D03*
X375707Y248826D03*
X564675Y259228D03*
X208881Y129269D03*
X251484Y94831D03*
X324921Y165700D03*
X338814Y296390D03*
X698706Y428494D03*
X327159Y296357D03*
X702542Y436792D03*
M02*
