G04 EAGLE Gerber RS-274X export*
G75*
%MOMM*%
%FSLAX34Y34*%
%LPD*%
%INSolderpaste Top*%
%IPPOS*%
%AMOC8*
5,1,8,0,0,1.08239X$1,22.5*%
G01*
%ADD10R,3.556000X0.762000*%
%ADD11R,0.300000X1.475000*%
%ADD12R,1.475000X0.300000*%
%ADD13R,1.219000X2.235000*%
%ADD14R,3.600000X2.200000*%
%ADD15R,1.000000X1.100000*%
%ADD16R,1.800000X1.600000*%
%ADD17R,1.200000X1.200000*%
%ADD18R,1.100000X1.000000*%
%ADD19R,2.340000X1.500000*%
%ADD20R,1.500000X0.600000*%
%ADD21R,0.425000X0.900000*%
%ADD22R,0.600000X1.200000*%
%ADD23R,1.600000X1.800000*%
%ADD24R,1.400000X0.600000*%
%ADD25R,0.400000X0.950000*%


D10*
X19916Y11321D03*
X19916Y24021D03*
X19916Y36721D03*
X19916Y49421D03*
X19916Y62121D03*
X19916Y74821D03*
X19916Y87521D03*
X19916Y100221D03*
X19916Y112921D03*
X19916Y125621D03*
X19916Y138321D03*
X19916Y151021D03*
X19916Y163721D03*
X19916Y176421D03*
X19916Y189121D03*
X19916Y201821D03*
X19916Y214521D03*
X19916Y227221D03*
X19916Y239921D03*
X19916Y252621D03*
X19916Y265321D03*
X19916Y278021D03*
X19916Y290721D03*
X19916Y303421D03*
X19916Y316121D03*
X19916Y328821D03*
X19916Y341521D03*
X19916Y354221D03*
X19916Y366921D03*
X19916Y379621D03*
X19916Y392321D03*
X19916Y405021D03*
X19916Y417721D03*
X19916Y430421D03*
D11*
X410055Y278180D03*
X405055Y278180D03*
X400055Y278180D03*
X395055Y278180D03*
X390055Y278180D03*
X385055Y278180D03*
X380055Y278180D03*
X375055Y278180D03*
X370055Y278180D03*
X365055Y278180D03*
X360055Y278180D03*
X355055Y278180D03*
X350055Y278180D03*
X345055Y278180D03*
X340055Y278180D03*
X335055Y278180D03*
X330055Y278180D03*
X325055Y278180D03*
X320055Y278180D03*
X315055Y278180D03*
X310055Y278180D03*
X305055Y278180D03*
X300055Y278180D03*
X295055Y278180D03*
X290055Y278180D03*
D12*
X272675Y260800D03*
X272675Y255800D03*
X272675Y250800D03*
X272675Y245800D03*
X272675Y240800D03*
X272675Y235800D03*
X272675Y230800D03*
X272675Y225800D03*
X272675Y220800D03*
X272675Y215800D03*
X272675Y210800D03*
X272675Y205800D03*
X272675Y200800D03*
X272675Y195800D03*
X272675Y190800D03*
X272675Y185800D03*
X272675Y180800D03*
X272675Y175800D03*
X272675Y170800D03*
X272675Y165800D03*
X272675Y160800D03*
X272675Y155800D03*
X272675Y150800D03*
X272675Y145800D03*
X272675Y140800D03*
D11*
X290055Y123420D03*
X295055Y123420D03*
X300055Y123420D03*
X305055Y123420D03*
X310055Y123420D03*
X315055Y123420D03*
X320055Y123420D03*
X325055Y123420D03*
X330055Y123420D03*
X335055Y123420D03*
X340055Y123420D03*
X345055Y123420D03*
X350055Y123420D03*
X355055Y123420D03*
X360055Y123420D03*
X365055Y123420D03*
X370055Y123420D03*
X375055Y123420D03*
X380055Y123420D03*
X385055Y123420D03*
X390055Y123420D03*
X395055Y123420D03*
X400055Y123420D03*
X405055Y123420D03*
X410055Y123420D03*
D12*
X427435Y140800D03*
X427435Y145800D03*
X427435Y150800D03*
X427435Y155800D03*
X427435Y160800D03*
X427435Y165800D03*
X427435Y170800D03*
X427435Y175800D03*
X427435Y180800D03*
X427435Y185800D03*
X427435Y190800D03*
X427435Y195800D03*
X427435Y200800D03*
X427435Y205800D03*
X427435Y210800D03*
X427435Y215800D03*
X427435Y220800D03*
X427435Y225800D03*
X427435Y230800D03*
X427435Y235800D03*
X427435Y240800D03*
X427435Y245800D03*
X427435Y250800D03*
X427435Y255800D03*
X427435Y260800D03*
D13*
X372724Y411757D03*
X349614Y411757D03*
X326504Y411757D03*
D14*
X349614Y349777D03*
D15*
X460039Y395149D03*
X460039Y378149D03*
D16*
X288410Y397263D03*
X288410Y369263D03*
X406766Y368419D03*
X406766Y396419D03*
D17*
X560128Y375347D03*
X560128Y396347D03*
D18*
X537410Y377330D03*
X537410Y394330D03*
D19*
X749673Y160870D03*
X749673Y17470D03*
D20*
X672173Y118170D03*
X672173Y107170D03*
X672173Y96170D03*
X672173Y85170D03*
X672173Y74170D03*
X672173Y63170D03*
X672173Y52170D03*
X672173Y41170D03*
X672173Y141670D03*
X672173Y129170D03*
D21*
X603144Y199461D03*
X595144Y199461D03*
X587144Y199461D03*
X579144Y199461D03*
X579144Y182461D03*
X587144Y182461D03*
X595144Y182461D03*
X603144Y182461D03*
D22*
X552165Y284794D03*
X564865Y284794D03*
X577565Y284794D03*
X590265Y284794D03*
X590265Y340794D03*
X577565Y340794D03*
X564865Y340794D03*
X552165Y340794D03*
D15*
X519835Y323828D03*
X519835Y306828D03*
D18*
G36*
X249151Y131492D02*
X256928Y123715D01*
X249857Y116644D01*
X242080Y124421D01*
X249151Y131492D01*
G37*
G36*
X237130Y143513D02*
X244907Y135736D01*
X237836Y128665D01*
X230059Y136442D01*
X237130Y143513D01*
G37*
G36*
X433932Y292842D02*
X426155Y300619D01*
X433226Y307690D01*
X441003Y299913D01*
X433932Y292842D01*
G37*
G36*
X445953Y280822D02*
X438176Y288599D01*
X445247Y295670D01*
X453024Y287893D01*
X445953Y280822D01*
G37*
G36*
X263279Y282950D02*
X271056Y275173D01*
X263985Y268102D01*
X256208Y275879D01*
X263279Y282950D01*
G37*
G36*
X251259Y294970D02*
X259036Y287193D01*
X251965Y280122D01*
X244188Y287899D01*
X251259Y294970D01*
G37*
X429498Y102009D03*
X446498Y102009D03*
X468498Y224548D03*
X485498Y224548D03*
D23*
X236133Y16959D03*
X264133Y16959D03*
X108154Y335913D03*
X136154Y335913D03*
D15*
X616741Y62084D03*
X616741Y45084D03*
D18*
X373848Y41961D03*
X373848Y24961D03*
D17*
X354637Y45872D03*
X354637Y24872D03*
D18*
X311689Y41520D03*
X311689Y24520D03*
D17*
X333971Y45201D03*
X333971Y24201D03*
D24*
X148826Y106221D03*
X148826Y115721D03*
X148826Y125221D03*
X123826Y125221D03*
X123826Y106221D03*
D15*
X193734Y121732D03*
X193734Y104732D03*
X94086Y141361D03*
X111086Y141361D03*
D18*
X91884Y123104D03*
X91884Y106104D03*
X190539Y87648D03*
X173539Y87648D03*
X173201Y121646D03*
X173201Y104646D03*
X159807Y140616D03*
X142807Y140616D03*
D15*
X71522Y123152D03*
X71522Y106152D03*
D18*
X100255Y89302D03*
X83255Y89302D03*
X127331Y88314D03*
X144331Y88314D03*
X538946Y350028D03*
X521946Y350028D03*
D25*
X793934Y433010D03*
X786434Y433010D03*
X778934Y433010D03*
X778934Y415010D03*
X786434Y415010D03*
X793934Y415010D03*
X793726Y398489D03*
X786226Y398489D03*
X778726Y398489D03*
X778726Y380489D03*
X786226Y380489D03*
X793726Y380489D03*
X793704Y363748D03*
X786204Y363748D03*
X778704Y363748D03*
X778704Y345748D03*
X786204Y345748D03*
X793704Y345748D03*
X793728Y328875D03*
X786228Y328875D03*
X778728Y328875D03*
X778728Y310875D03*
X786228Y310875D03*
X793728Y310875D03*
X793800Y294016D03*
X786300Y294016D03*
X778800Y294016D03*
X778800Y276016D03*
X786300Y276016D03*
X793800Y276016D03*
X794051Y259122D03*
X786551Y259122D03*
X779051Y259122D03*
X779051Y241122D03*
X786551Y241122D03*
X794051Y241122D03*
X794211Y223430D03*
X786711Y223430D03*
X779211Y223430D03*
X779211Y205430D03*
X786711Y205430D03*
X794211Y205430D03*
M02*
